M48
; DRILL file {KiCad 7.0.5} date Wed Dec 13 15:43:49 2023
; FORMAT={-:-/ absolute / metric / decimal}
; #@! TF.CreationDate,2023-12-13T15:43:49+01:00
; #@! TF.GenerationSoftware,Kicad,Pcbnew,7.0.5
; #@! TF.FileFunction,MixedPlating,1,4
FMAT,2
METRIC
; #@! TA.AperFunction,Plated,PTH,ViaDrill
T1C0.300
; #@! TA.AperFunction,Plated,PTH,ViaDrill
T2C0.400
; #@! TA.AperFunction,Plated,PTH,ComponentDrill
T3C0.800
; #@! TA.AperFunction,Plated,PTH,ComponentDrill
T4C1.000
; #@! TA.AperFunction,Plated,PTH,ComponentDrill
T5C1.190
; #@! TA.AperFunction,Plated,PTH,ComponentDrill
T6C3.200
; #@! TA.AperFunction,Plated,PTH,ComponentDrill
T7C4.500
; #@! TA.AperFunction,NonPlated,NPTH,ComponentDrill
T8C0.900
; #@! TA.AperFunction,NonPlated,NPTH,ComponentDrill
T9C1.500
%
G90
G05
T1
X107.62Y-70.612
X112.05Y-97.148
X113.487Y-113.944
X113.538Y-81.026
X113.538Y-82.726
X113.538Y-84.426
X113.538Y-86.126
X113.538Y-87.826
X115.038Y-81.026
X115.038Y-82.169
X115.038Y-87.826
X115.875Y-74.422
X116.538Y-81.026
X116.538Y-87.826
X116.738Y-99.949
X117.003Y-95.783
X118.038Y-81.026
X118.038Y-87.826
X119.538Y-81.026
X120.396Y-98.45
X120.48Y-91.396
X120.65Y-74.422
X121.038Y-81.026
X121.75Y-91.65
X121.844Y-98.501
X122.538Y-81.026
X123.02Y-91.853
X123.19Y-98.552
X124.038Y-81.026
X125.538Y-81.026
X125.628Y-74.397
X127.038Y-81.026
X127.038Y-86.741
X127.038Y-87.826
X128.538Y-81.026
X128.538Y-82.726
X128.538Y-84.426
X128.538Y-86.126
X128.538Y-87.826
X129.845Y-109.779
X129.946Y-108.306
X129.997Y-107.151
X130.556Y-113.487
X132.029Y-113.487
X133.469Y-113.538
X134.369Y-113.538
X134.526Y-114.452
X134.547Y-88.27
X134.75Y-87.0
X135.004Y-85.73
X135.425Y-114.427
X136.006Y-115.316
X136.728Y-116.51
X136.728Y-119.075
X136.906Y-115.316
X137.947Y-83.083
X139.079Y-79.629
X140.259Y-82.804
X141.356Y-73.02
X141.629Y-99.647
X142.899Y-99.85
X144.169Y-100.104
X144.526Y-74.422
X144.653Y-80.184
X146.406Y-83.16
X154.254Y-118.542
X155.0Y-67.6
X155.0Y-68.6
X155.0Y-69.6
X155.651Y-88.494
X156.0Y-67.6
X156.0Y-68.6
X156.0Y-69.6
X156.657Y-118.552
X157.0Y-67.6
X157.0Y-68.6
X157.0Y-69.6
X157.022Y-79.756
X158.25Y-73.0
X158.25Y-74.0
X159.25Y-73.0
X159.25Y-74.0
X160.5Y-73.0
X160.5Y-74.0
X161.75Y-73.0
X161.75Y-74.0
T2
X101.6Y-109.22
X101.6Y-110.49
X101.6Y-111.76
X101.6Y-113.03
X101.6Y-114.3
X101.6Y-115.57
X101.6Y-116.84
X101.6Y-118.11
X101.6Y-119.38
X101.6Y-120.65
X101.6Y-121.92
X101.6Y-123.19
X101.6Y-124.46
X101.6Y-125.73
X104.394Y-128.778
X105.664Y-128.778
X106.934Y-128.778
X108.204Y-128.778
X108.99Y-115.704
X108.99Y-117.004
X108.99Y-118.304
X108.99Y-119.604
X108.99Y-120.904
X108.99Y-122.301
X109.474Y-128.778
X110.49Y-122.301
X110.744Y-128.778
X111.99Y-122.301
X112.014Y-128.778
X112.278Y-99.948
X112.344Y-103.925
X112.344Y-104.925
X112.344Y-105.925
X112.344Y-106.925
X112.344Y-107.925
X113.284Y-128.778
X113.309Y-103.937
X113.309Y-104.937
X113.309Y-105.937
X113.309Y-106.937
X113.309Y-107.937
X113.49Y-122.301
X114.198Y-104.445
X114.198Y-105.445
X114.198Y-106.445
X114.198Y-107.445
X114.554Y-128.778
X114.99Y-122.301
X115.133Y-116.739
X115.133Y-117.739
X115.133Y-118.739
X115.133Y-119.739
X116.022Y-116.247
X116.022Y-117.247
X116.022Y-118.247
X116.022Y-119.247
X116.022Y-120.247
X129.032Y-115.824
X146.202Y-116.408
X149.987Y-122.301
X151.487Y-122.301
X152.273Y-108.331
X152.273Y-109.331
X152.273Y-110.331
X152.273Y-111.331
X152.273Y-112.331
X152.987Y-122.301
X153.162Y-108.839
X153.162Y-109.839
X153.162Y-110.839
X153.162Y-111.839
X154.487Y-122.301
X154.559Y-94.82
X155.987Y-122.301
X156.21Y-107.95
X157.48Y-107.95
X158.75Y-107.95
X160.02Y-107.95
X160.02Y-110.236
X160.02Y-111.736
X160.02Y-113.236
X160.02Y-114.736
X161.29Y-107.95
X162.56Y-107.95
X162.56Y-109.22
X162.56Y-110.49
X162.56Y-111.76
X162.56Y-113.03
X162.56Y-114.3
T3
X103.697Y-96.545
X108.697Y-96.545
X130.0Y-67.05
X130.0Y-69.45
X132.5Y-67.05
X132.5Y-69.45
X135.0Y-67.05
X135.0Y-69.45
T4
X118.53Y-123.42
X118.53Y-125.96
X118.53Y-128.5
X121.07Y-123.42
X121.07Y-125.96
X121.07Y-128.5
X123.61Y-123.42
X123.61Y-125.96
X123.61Y-128.5
X126.15Y-123.42
X126.15Y-125.96
X126.15Y-128.5
X128.69Y-123.42
X128.69Y-125.96
X128.69Y-128.5
X131.23Y-123.42
X131.23Y-125.96
X131.23Y-128.5
X133.77Y-123.42
X133.77Y-125.96
X133.77Y-128.5
X136.31Y-123.42
X136.31Y-125.96
X136.31Y-128.5
X138.85Y-123.42
X138.85Y-125.96
X138.85Y-128.5
X141.39Y-123.42
X141.39Y-125.96
X141.39Y-128.5
X143.93Y-123.42
X143.93Y-125.96
X143.93Y-128.5
X146.47Y-123.42
X146.47Y-125.96
X146.47Y-128.5
X154.432Y-100.818
X154.432Y-103.358
X156.972Y-100.818
X156.972Y-103.358
X159.512Y-100.818
X159.512Y-103.358
X162.052Y-100.818
X162.052Y-103.358
T5
X115.95Y-68.24
X118.49Y-68.24
X121.03Y-68.24
X123.57Y-68.24
X141.43Y-68.22
X143.97Y-68.22
X146.51Y-68.22
X149.05Y-68.22
T6
X100.0Y-65.0
X100.0Y-130.0
X165.0Y-65.0
X165.0Y-130.0
T7
X104.978Y-77.172
X104.978Y-84.372
T8
X160.392Y-87.888
X160.392Y-92.288
T9
X127.15Y-68.25
X137.85Y-68.25
T0
M30
