%TF.GenerationSoftware,KiCad,Pcbnew,7.0.5*%
%TF.CreationDate,2023-12-13T15:43:58+01:00*%
%TF.ProjectId,Hexapod UGV v1.0,48657861-706f-4642-9055-47562076312e,rev?*%
%TF.SameCoordinates,Original*%
%TF.FileFunction,Copper,L4,Bot*%
%TF.FilePolarity,Positive*%
%FSLAX46Y46*%
G04 Gerber Fmt 4.6, Leading zero omitted, Abs format (unit mm)*
G04 Created by KiCad (PCBNEW 7.0.5) date 2023-12-13 15:43:58*
%MOMM*%
%LPD*%
G01*
G04 APERTURE LIST*
G04 Aperture macros list*
%AMRoundRect*
0 Rectangle with rounded corners*
0 $1 Rounding radius*
0 $2 $3 $4 $5 $6 $7 $8 $9 X,Y pos of 4 corners*
0 Add a 4 corners polygon primitive as box body*
4,1,4,$2,$3,$4,$5,$6,$7,$8,$9,$2,$3,0*
0 Add four circle primitives for the rounded corners*
1,1,$1+$1,$2,$3*
1,1,$1+$1,$4,$5*
1,1,$1+$1,$6,$7*
1,1,$1+$1,$8,$9*
0 Add four rect primitives between the rounded corners*
20,1,$1+$1,$2,$3,$4,$5,0*
20,1,$1+$1,$4,$5,$6,$7,0*
20,1,$1+$1,$6,$7,$8,$9,0*
20,1,$1+$1,$8,$9,$2,$3,0*%
G04 Aperture macros list end*
%TA.AperFunction,ComponentPad*%
%ADD10C,3.600000*%
%TD*%
%TA.AperFunction,ConnectorPad*%
%ADD11C,6.400000*%
%TD*%
%TA.AperFunction,ComponentPad*%
%ADD12R,1.700000X1.700000*%
%TD*%
%TA.AperFunction,ComponentPad*%
%ADD13O,1.700000X1.700000*%
%TD*%
%TA.AperFunction,ComponentPad*%
%ADD14RoundRect,0.250000X-0.620000X-0.845000X0.620000X-0.845000X0.620000X0.845000X-0.620000X0.845000X0*%
%TD*%
%TA.AperFunction,ComponentPad*%
%ADD15O,1.740000X2.190000*%
%TD*%
%TA.AperFunction,WasherPad*%
%ADD16C,1.800000*%
%TD*%
%TA.AperFunction,ComponentPad*%
%ADD17C,1.524000*%
%TD*%
%TA.AperFunction,ComponentPad*%
%ADD18RoundRect,1.500000X-1.500000X1.500000X-1.500000X-1.500000X1.500000X-1.500000X1.500000X1.500000X0*%
%TD*%
%TA.AperFunction,ComponentPad*%
%ADD19C,6.000000*%
%TD*%
%TA.AperFunction,ComponentPad*%
%ADD20C,1.600000*%
%TD*%
%TA.AperFunction,SMDPad,CuDef*%
%ADD21C,1.000000*%
%TD*%
%TA.AperFunction,ViaPad*%
%ADD22C,0.700000*%
%TD*%
%TA.AperFunction,ViaPad*%
%ADD23C,0.800000*%
%TD*%
%TA.AperFunction,Conductor*%
%ADD24C,0.200000*%
%TD*%
%TA.AperFunction,Conductor*%
%ADD25C,2.900000*%
%TD*%
%TA.AperFunction,Conductor*%
%ADD26C,0.400000*%
%TD*%
%TA.AperFunction,Conductor*%
%ADD27C,0.800000*%
%TD*%
%TA.AperFunction,Conductor*%
%ADD28C,7.500000*%
%TD*%
G04 APERTURE END LIST*
D10*
%TO.P,H2,1,1*%
%TO.N,unconnected-(H2-Pad1)*%
X100000000Y-130000000D03*
D11*
X100000000Y-130000000D03*
%TD*%
D10*
%TO.P,H4,1,1*%
%TO.N,unconnected-(H4-Pad1)*%
X165000000Y-130000000D03*
D11*
X165000000Y-130000000D03*
%TD*%
D12*
%TO.P,PWR1,1,Pin_1*%
%TO.N,GND*%
X118530000Y-128500000D03*
D13*
%TO.P,PWR1,2,Pin_2*%
%TO.N,+5VL*%
X118530000Y-125960000D03*
%TO.P,PWR1,3,Pin_3*%
%TO.N,GND*%
X121070000Y-128500000D03*
%TO.P,PWR1,4,Pin_4*%
%TO.N,+5VL*%
X121070000Y-125960000D03*
%TO.P,PWR1,5,Pin_5*%
%TO.N,GND*%
X123610000Y-128500000D03*
%TO.P,PWR1,6,Pin_6*%
%TO.N,+5VL*%
X123610000Y-125960000D03*
%TO.P,PWR1,7,Pin_7*%
%TO.N,GND*%
X126150000Y-128500000D03*
%TO.P,PWR1,8,Pin_8*%
%TO.N,+5VL*%
X126150000Y-125960000D03*
%TO.P,PWR1,9,Pin_9*%
%TO.N,GND*%
X128690000Y-128500000D03*
%TO.P,PWR1,10,Pin_10*%
%TO.N,+5VL*%
X128690000Y-125960000D03*
%TO.P,PWR1,11,Pin_11*%
%TO.N,GND*%
X131230000Y-128500000D03*
%TO.P,PWR1,12,Pin_12*%
%TO.N,+5VL*%
X131230000Y-125960000D03*
%TO.P,PWR1,13,Pin_13*%
%TO.N,GND*%
X133770000Y-128500000D03*
%TO.P,PWR1,14,Pin_14*%
%TO.N,+5VP*%
X133770000Y-125960000D03*
%TO.P,PWR1,15,Pin_15*%
%TO.N,GND*%
X136310000Y-128500000D03*
%TO.P,PWR1,16,Pin_16*%
%TO.N,+5VP*%
X136310000Y-125960000D03*
%TO.P,PWR1,17,Pin_17*%
%TO.N,GND*%
X138850000Y-128500000D03*
%TO.P,PWR1,18,Pin_18*%
%TO.N,+5VP*%
X138850000Y-125960000D03*
%TO.P,PWR1,19,Pin_19*%
%TO.N,GND*%
X141390000Y-128500000D03*
%TO.P,PWR1,20,Pin_20*%
%TO.N,+5VP*%
X141390000Y-125960000D03*
%TO.P,PWR1,21,Pin_21*%
%TO.N,GND*%
X143930000Y-128500000D03*
%TO.P,PWR1,22,Pin_22*%
%TO.N,+5VP*%
X143930000Y-125960000D03*
%TO.P,PWR1,23,Pin_23*%
%TO.N,GND*%
X146470000Y-128500000D03*
%TO.P,PWR1,24,Pin_24*%
%TO.N,+5VP*%
X146470000Y-125960000D03*
%TD*%
D14*
%TO.P,J2,1,Pin_1*%
%TO.N,I2C_1_SCL*%
X115950000Y-68240000D03*
D15*
%TO.P,J2,2,Pin_2*%
%TO.N,I2C_1_SDA*%
X118490000Y-68240000D03*
%TO.P,J2,3,Pin_3*%
%TO.N,+3V3*%
X121030000Y-68240000D03*
%TO.P,J2,4,Pin_4*%
%TO.N,GND*%
X123570000Y-68240000D03*
%TD*%
D14*
%TO.P,J3,1,Pin_1*%
%TO.N,GND*%
X141430000Y-68220000D03*
D15*
%TO.P,J3,2,Pin_2*%
%TO.N,SWCLK*%
X143970000Y-68220000D03*
%TO.P,J3,3,Pin_3*%
%TO.N,SWDIO*%
X146510000Y-68220000D03*
%TO.P,J3,4,Pin_4*%
%TO.N,+3V3*%
X149050000Y-68220000D03*
%TD*%
D12*
%TO.P,SIG1,1,Pin_1*%
%TO.N,PWM_0*%
X118530000Y-123420000D03*
D13*
%TO.P,SIG1,2,Pin_2*%
%TO.N,PWM_1*%
X121070000Y-123420000D03*
%TO.P,SIG1,3,Pin_3*%
%TO.N,PWM_2*%
X123610000Y-123420000D03*
%TO.P,SIG1,4,Pin_4*%
%TO.N,PWM_3*%
X126150000Y-123420000D03*
%TO.P,SIG1,5,Pin_5*%
%TO.N,PWM_4*%
X128690000Y-123420000D03*
%TO.P,SIG1,6,Pin_6*%
%TO.N,PWM_5*%
X131230000Y-123420000D03*
%TO.P,SIG1,7,Pin_7*%
%TO.N,PWM_6*%
X133770000Y-123420000D03*
%TO.P,SIG1,8,Pin_8*%
%TO.N,PWM_7*%
X136310000Y-123420000D03*
%TO.P,SIG1,9,Pin_9*%
%TO.N,PWM_8*%
X138850000Y-123420000D03*
%TO.P,SIG1,10,Pin_10*%
%TO.N,PWM_9*%
X141390000Y-123420000D03*
%TO.P,SIG1,11,Pin_11*%
%TO.N,PWM_10*%
X143930000Y-123420000D03*
%TO.P,SIG1,12,Pin_12*%
%TO.N,PWM_11*%
X146470000Y-123420000D03*
%TD*%
D16*
%TO.P,SW2,*%
%TO.N,*%
X127150000Y-68250000D03*
X137850000Y-68250000D03*
D17*
%TO.P,SW2,1,A*%
%TO.N,+3V3*%
X130000000Y-67050000D03*
%TO.P,SW2,2,B*%
%TO.N,Net-(R1-Pad1)*%
X132500000Y-67050000D03*
%TO.P,SW2,3,C*%
%TO.N,GND*%
X135000000Y-67050000D03*
%TO.P,SW2,4,A*%
%TO.N,+3V3*%
X130000000Y-69450000D03*
%TO.P,SW2,5,B*%
%TO.N,Net-(R1-Pad1)*%
X132500000Y-69450000D03*
%TO.P,SW2,6,C*%
%TO.N,GND*%
X135000000Y-69450000D03*
%TD*%
D10*
%TO.P,H3,1,1*%
%TO.N,unconnected-(H3-Pad1)*%
X165000000Y-65000000D03*
D11*
X165000000Y-65000000D03*
%TD*%
D18*
%TO.P,J5,1,Pin_1*%
%TO.N,GND*%
X104978200Y-77172000D03*
D19*
%TO.P,J5,2,Pin_2*%
%TO.N,VIN+*%
X104978200Y-84372000D03*
%TD*%
D12*
%TO.P,J1,1,Pin_1*%
%TO.N,GND*%
X162052000Y-100818000D03*
D13*
%TO.P,J1,2,Pin_2*%
%TO.N,+3V3*%
X162052000Y-103358000D03*
%TO.P,J1,3,Pin_3*%
%TO.N,CE*%
X159512000Y-100818000D03*
%TO.P,J1,4,Pin_4*%
%TO.N,CSN*%
X159512000Y-103358000D03*
%TO.P,J1,5,Pin_5*%
%TO.N,SPI2_SCK*%
X156972000Y-100818000D03*
%TO.P,J1,6,Pin_6*%
%TO.N,SPI2_MOSI*%
X156972000Y-103358000D03*
%TO.P,J1,7,Pin_7*%
%TO.N,SPI2_MISO*%
X154432000Y-100818000D03*
%TO.P,J1,8,Pin_8*%
%TO.N,IRQ*%
X154432000Y-103358000D03*
%TD*%
D10*
%TO.P,H1,1,1*%
%TO.N,unconnected-(H1-Pad1)*%
X100000000Y-65000000D03*
D11*
X100000000Y-65000000D03*
%TD*%
D20*
%TO.P,C15,1*%
%TO.N,VIN+*%
X103697400Y-96545400D03*
%TO.P,C15,2*%
%TO.N,GND*%
X108697400Y-96545400D03*
%TD*%
D21*
%TO.P,TP6,1,1*%
%TO.N,INT_GYR*%
X146304000Y-81788000D03*
%TD*%
%TO.P,TP3,1,1*%
%TO.N,I2C_1_SCL*%
X138176000Y-78532800D03*
%TD*%
%TO.P,TP2,1,1*%
%TO.N,GND*%
X142240000Y-85344000D03*
%TD*%
%TO.P,TP1,1,1*%
%TO.N,+3V3*%
X142240000Y-74168000D03*
%TD*%
%TO.P,TP4,1,1*%
%TO.N,I2C_1_SDA*%
X138176000Y-81788000D03*
%TD*%
%TO.P,TP5,1,1*%
%TO.N,INT_ACC*%
X146304000Y-78532800D03*
%TD*%
D22*
%TO.N,GND*%
X136728200Y-119075200D03*
X136728200Y-116509800D03*
X115038000Y-87826000D03*
X121843800Y-98501200D03*
X161750000Y-74000000D03*
D23*
X111990000Y-122301000D03*
D22*
X159250000Y-73000000D03*
X128538000Y-84426000D03*
D23*
X108990000Y-115704000D03*
D22*
X122538000Y-81026000D03*
D23*
X113283999Y-128778000D03*
D22*
X123190000Y-98552000D03*
D23*
X158750000Y-107950000D03*
D22*
X121038000Y-81026000D03*
X116738400Y-99949000D03*
D23*
X154487000Y-122301000D03*
D22*
X134525505Y-114452400D03*
D23*
X154559000Y-94820000D03*
D22*
X144169200Y-100104400D03*
X125538000Y-81026000D03*
D23*
X110490000Y-122301000D03*
X101600000Y-124460000D03*
D22*
X115038000Y-81026000D03*
D23*
X157480000Y-107950000D03*
D22*
X119538000Y-81026000D03*
D23*
X162560000Y-111760000D03*
X108990000Y-118304000D03*
X101600000Y-125730000D03*
X106934000Y-128778000D03*
X101600000Y-114300000D03*
X101600000Y-118110000D03*
X160020000Y-107950000D03*
D22*
X154254200Y-118541800D03*
X158250000Y-74000000D03*
X120650000Y-74422000D03*
X121750000Y-91649600D03*
X141356000Y-73020000D03*
D23*
X112014000Y-128778000D03*
D22*
X113487200Y-113944400D03*
X113538000Y-81026000D03*
X128538000Y-81026000D03*
X115038000Y-82169000D03*
D23*
X151487000Y-122301000D03*
X101600000Y-113030000D03*
X155987000Y-122301000D03*
X113490000Y-122301000D03*
D22*
X127038000Y-86741000D03*
X107619800Y-70612000D03*
X113538000Y-84426000D03*
X128538000Y-86126000D03*
D23*
X162560000Y-110490000D03*
D22*
X156657000Y-118552000D03*
D23*
X160020000Y-111736000D03*
X162560000Y-107950000D03*
X101600000Y-123190000D03*
D22*
X116538000Y-87826000D03*
D23*
X101600000Y-110490000D03*
X162560000Y-109220000D03*
X114554000Y-128778000D03*
X108204000Y-128778000D03*
X160020000Y-113236000D03*
D22*
X140258800Y-82804000D03*
X127038000Y-81026000D03*
D23*
X101600000Y-111760000D03*
X101600000Y-119380000D03*
D22*
X134546800Y-88270001D03*
D23*
X160020000Y-114736000D03*
X105664000Y-128778000D03*
X101600000Y-120650000D03*
X156210000Y-107950000D03*
D22*
X118038000Y-87826000D03*
X132029200Y-113487200D03*
D23*
X146202400Y-116408200D03*
D22*
X160500000Y-73000000D03*
X112049600Y-97148500D03*
X124038000Y-81026000D03*
X120396000Y-98449900D03*
D23*
X162560000Y-114300000D03*
X108990000Y-120904000D03*
X161290000Y-107950000D03*
D22*
X115874800Y-74422000D03*
X129997200Y-107151500D03*
X113538000Y-86126000D03*
D23*
X162560000Y-113030000D03*
X109474001Y-128778000D03*
D22*
X158250000Y-73000000D03*
X117002600Y-95782900D03*
D23*
X149987000Y-122301000D03*
X129032000Y-115824000D03*
D22*
X125628400Y-74396600D03*
D23*
X108990000Y-117004000D03*
X104394000Y-128778000D03*
D22*
X142899200Y-99850400D03*
X113538000Y-87826000D03*
D23*
X101600000Y-115570000D03*
X114990000Y-122301000D03*
D22*
X127038000Y-87826000D03*
D23*
X160020000Y-110236000D03*
D22*
X116538000Y-81026000D03*
D23*
X152987000Y-122301000D03*
X101600000Y-109220000D03*
D22*
X128538000Y-87826000D03*
D23*
X101600000Y-116840000D03*
D22*
X129844800Y-109778800D03*
X135004001Y-85730000D03*
D23*
X108990000Y-122301000D03*
D22*
X155651200Y-88493600D03*
X118038000Y-81026000D03*
X136006497Y-115316000D03*
D23*
X110744000Y-128778000D03*
D22*
X133469118Y-113538047D03*
X130556000Y-113487200D03*
X157022400Y-79756000D03*
X141629200Y-99647200D03*
X134750000Y-87000000D03*
X161750000Y-73000000D03*
D23*
X108990000Y-119604000D03*
D22*
X113538000Y-82726000D03*
X159250000Y-74000000D03*
X123020001Y-91852800D03*
X129946400Y-108305600D03*
X160500000Y-74000000D03*
X128538000Y-82726000D03*
X120480000Y-91395599D03*
D23*
X101600000Y-121920000D03*
%TO.N,+3V3*%
X112278200Y-99948500D03*
D22*
X144526000Y-74422000D03*
%TO.N,PWM_9*%
X136906000Y-115316000D03*
%TO.N,PWM_10*%
X135425000Y-114427000D03*
%TO.N,PWM_11*%
X134368620Y-113537939D03*
D23*
%TO.N,VIN-*%
X113309400Y-103936800D03*
X153162000Y-110839000D03*
X115133000Y-116739000D03*
X115133000Y-117739000D03*
X152273000Y-109331000D03*
X115133000Y-119739000D03*
X114198400Y-105444800D03*
X116022000Y-116247000D03*
X112344200Y-105924601D03*
X112344200Y-107924600D03*
X116022000Y-120247000D03*
X116022000Y-117247001D03*
X116022000Y-118246999D03*
X113309400Y-104936800D03*
X113309400Y-105936801D03*
X114198400Y-106444800D03*
X115133000Y-118739000D03*
X114198400Y-107444801D03*
X153162000Y-111839000D03*
X112344200Y-104924600D03*
X112344200Y-106924600D03*
X113309400Y-106936800D03*
X113309400Y-107936800D03*
X152273000Y-111331000D03*
X114198400Y-104444800D03*
X152273000Y-112331000D03*
X112344200Y-103924600D03*
X152273000Y-110331000D03*
X153162000Y-109839000D03*
X152273000Y-108331000D03*
X153162000Y-108839000D03*
X116022000Y-119247000D03*
D22*
%TO.N,I2C_1_SDA*%
X137947400Y-83083400D03*
%TO.N,I2C_1_SCL*%
X139079500Y-79629000D03*
%TO.N,INT_GYR*%
X146405600Y-83159600D03*
%TO.N,INT_ACC*%
X144653000Y-80183800D03*
%TO.N,/Power/VO*%
X155000000Y-68600000D03*
X155000000Y-67600000D03*
X156000000Y-68600000D03*
X157000000Y-68600000D03*
X156000000Y-67600000D03*
X156000000Y-69600000D03*
X157000000Y-67600000D03*
X155000000Y-69600000D03*
X157000000Y-69600000D03*
%TD*%
D24*
%TO.N,PWM_9*%
X140919200Y-122949200D02*
X141390000Y-123420000D01*
X140919200Y-119329200D02*
X140919200Y-122949200D01*
X136906000Y-115316000D02*
X140919200Y-119329200D01*
%TO.N,PWM_10*%
X143930000Y-119952400D02*
X143930000Y-123420000D01*
X135425000Y-114427000D02*
X138404600Y-114427000D01*
X138404600Y-114427000D02*
X143930000Y-119952400D01*
%TO.N,PWM_11*%
X140004800Y-113487200D02*
X146812000Y-120294400D01*
X134419359Y-113487200D02*
X140004800Y-113487200D01*
X146812000Y-120294400D02*
X146812000Y-123078000D01*
X146812000Y-123078000D02*
X146470000Y-123420000D01*
X134368620Y-113537939D02*
X134419359Y-113487200D01*
%TO.N,GND*%
X140462000Y-82804000D02*
X140258800Y-82804000D01*
X142240000Y-85344000D02*
X142240000Y-84582000D01*
X142240000Y-84582000D02*
X140462000Y-82804000D01*
D25*
%TO.N,+5VL*%
X118530000Y-125960000D02*
X130199000Y-125960000D01*
X130199000Y-125960000D02*
X130200400Y-125958600D01*
%TO.N,+5VP*%
X146470000Y-125960000D02*
X134621400Y-125960000D01*
D26*
%TO.N,+3V3*%
X142494000Y-74422000D02*
X142240000Y-74168000D01*
D27*
X159969200Y-105511600D02*
X162052000Y-103428800D01*
X162052000Y-103428800D02*
X162052000Y-103358000D01*
D26*
X144526000Y-74422000D02*
X142494000Y-74422000D01*
D27*
X150952200Y-105511600D02*
X159969200Y-105511600D01*
X125806200Y-93649800D02*
X139090400Y-93649800D01*
X164363400Y-101092000D02*
X162097400Y-103358000D01*
X122859800Y-96596200D02*
X125806200Y-93649800D01*
X159613600Y-65709800D02*
X164363400Y-70459600D01*
X139090400Y-93649800D02*
X150952200Y-105511600D01*
X149050000Y-68220000D02*
X151560200Y-65709800D01*
X162097400Y-103358000D02*
X162052000Y-103358000D01*
X112278200Y-99948500D02*
X115395397Y-99948500D01*
X151560200Y-65709800D02*
X159613600Y-65709800D01*
X164363400Y-70459600D02*
X164363400Y-101092000D01*
X118747697Y-96596200D02*
X122859800Y-96596200D01*
X115395397Y-99948500D02*
X118747697Y-96596200D01*
D28*
%TO.N,VIN-*%
X122682000Y-105740200D02*
X118668800Y-105740200D01*
X119982200Y-108434971D02*
X119982200Y-116517200D01*
X118548400Y-117951000D02*
X116022000Y-117951000D01*
X138752381Y-102851500D02*
X135672081Y-99771200D01*
X135672081Y-99771200D02*
X128651000Y-99771200D01*
X146297400Y-110331000D02*
X142843000Y-110331000D01*
X139913600Y-103947200D02*
X146297400Y-110331000D01*
X121408881Y-102852000D02*
X118586000Y-105674881D01*
X125570200Y-102852000D02*
X121408881Y-102852000D01*
X118586000Y-105823000D02*
X118586000Y-115387000D01*
X139848081Y-103947200D02*
X139913600Y-103947200D01*
X123935900Y-104486300D02*
X123930871Y-104486300D01*
X123930871Y-104486300D02*
X118586000Y-109831171D01*
X118668800Y-105740200D02*
X112852200Y-105740200D01*
X118586000Y-105674881D02*
X118586000Y-115387000D01*
X125570700Y-102851500D02*
X138752381Y-102851500D01*
X128651000Y-99771200D02*
X125570200Y-102852000D01*
X123935900Y-104486300D02*
X125570700Y-102851500D01*
X135364000Y-102852000D02*
X121408881Y-102852000D01*
X138752381Y-102851500D02*
X139848081Y-103947200D01*
X118586000Y-109831171D02*
X118586000Y-115387000D01*
X123935900Y-104486300D02*
X122682000Y-105740200D01*
X121557500Y-102851500D02*
X118668800Y-105740200D01*
X125570700Y-102851500D02*
X121557500Y-102851500D01*
X119982200Y-116517200D02*
X118548400Y-117951000D01*
X125570700Y-102851500D02*
X125565671Y-102851500D01*
X118668800Y-105740200D02*
X118586000Y-105823000D01*
X142843000Y-110331000D02*
X135364000Y-102852000D01*
X146297400Y-110331000D02*
X150622000Y-110331000D01*
X125565671Y-102851500D02*
X119982200Y-108434971D01*
D24*
%TO.N,I2C_1_SDA*%
X137947400Y-82016600D02*
X138176000Y-81788000D01*
X137947400Y-83083400D02*
X137947400Y-82016600D01*
%TO.N,I2C_1_SCL*%
X139079500Y-79629000D02*
X139079500Y-79436300D01*
X139079500Y-79436300D02*
X138176000Y-78532800D01*
%TO.N,INT_GYR*%
X146405600Y-81889600D02*
X146304000Y-81788000D01*
X146405600Y-83159600D02*
X146405600Y-81889600D01*
%TO.N,INT_ACC*%
X144653000Y-80183800D02*
X146304000Y-78532800D01*
%TD*%
%TA.AperFunction,Conductor*%
%TO.N,+5VP*%
G36*
X133627426Y-124512911D02*
G01*
X133668024Y-124520500D01*
X133668026Y-124520500D01*
X133871974Y-124520500D01*
X133871976Y-124520500D01*
X133912573Y-124512911D01*
X133935358Y-124510800D01*
X134496000Y-124510800D01*
X134563039Y-124530485D01*
X134608794Y-124583289D01*
X134620000Y-124634800D01*
X134620000Y-127282400D01*
X134600315Y-127349439D01*
X134547511Y-127395194D01*
X134496000Y-127406400D01*
X133920380Y-127406400D01*
X133897597Y-127404289D01*
X133871976Y-127399500D01*
X133668024Y-127399500D01*
X133642403Y-127404289D01*
X133619620Y-127406400D01*
X132712000Y-127406400D01*
X132644961Y-127386715D01*
X132599206Y-127333911D01*
X132588000Y-127282400D01*
X132588000Y-124634800D01*
X132607685Y-124567761D01*
X132660489Y-124522006D01*
X132712000Y-124510800D01*
X133604642Y-124510800D01*
X133627426Y-124512911D01*
G37*
%TD.AperFunction*%
%TD*%
%TA.AperFunction,Conductor*%
%TO.N,/Power/VO*%
G36*
X159312914Y-66379210D02*
G01*
X159413954Y-66433890D01*
X159446374Y-66462520D01*
X163610679Y-70626825D01*
X163677437Y-70720325D01*
X163710219Y-70830436D01*
X163712899Y-70873605D01*
X163712900Y-83725000D01*
X163693990Y-83838320D01*
X163639310Y-83939360D01*
X163554785Y-84017171D01*
X163449574Y-84063321D01*
X163363900Y-84074000D01*
X157734000Y-84074000D01*
X151266443Y-84074000D01*
X151153123Y-84055090D01*
X151052083Y-84000410D01*
X151019805Y-83971922D01*
X150723618Y-83676076D01*
X150656806Y-83582614D01*
X150623961Y-83472522D01*
X150621256Y-83429557D01*
X150617368Y-80058843D01*
X150617019Y-79756003D01*
X156416718Y-79756003D01*
X156437354Y-79912759D01*
X156497865Y-80058843D01*
X156537390Y-80110353D01*
X156594118Y-80184282D01*
X156719559Y-80280536D01*
X156838658Y-80329868D01*
X156865640Y-80341045D01*
X157022397Y-80361682D01*
X157022400Y-80361682D01*
X157022403Y-80361682D01*
X157179159Y-80341045D01*
X157179161Y-80341044D01*
X157179162Y-80341044D01*
X157325241Y-80280536D01*
X157450682Y-80184282D01*
X157546936Y-80058841D01*
X157607444Y-79912762D01*
X157607444Y-79912761D01*
X157607445Y-79912759D01*
X157628082Y-79756003D01*
X157628082Y-79755996D01*
X157607445Y-79599240D01*
X157596268Y-79572258D01*
X157546936Y-79453159D01*
X157450682Y-79327718D01*
X157376753Y-79270990D01*
X157325243Y-79231465D01*
X157179159Y-79170954D01*
X157022403Y-79150318D01*
X157022397Y-79150318D01*
X156865640Y-79170954D01*
X156719556Y-79231465D01*
X156594118Y-79327718D01*
X156497865Y-79453156D01*
X156437354Y-79599240D01*
X156416718Y-79755996D01*
X156416718Y-79756003D01*
X150617019Y-79756003D01*
X150610380Y-74000003D01*
X157644318Y-74000003D01*
X157664954Y-74156759D01*
X157725465Y-74302843D01*
X157750000Y-74334817D01*
X157821718Y-74428282D01*
X157892134Y-74482314D01*
X157936726Y-74516531D01*
X157947159Y-74524536D01*
X158066258Y-74573868D01*
X158093240Y-74585045D01*
X158249997Y-74605682D01*
X158250000Y-74605682D01*
X158250003Y-74605682D01*
X158406759Y-74585045D01*
X158406761Y-74585044D01*
X158406762Y-74585044D01*
X158552841Y-74524536D01*
X158552844Y-74524533D01*
X158572655Y-74513097D01*
X158574638Y-74516531D01*
X158638892Y-74482314D01*
X158752336Y-74464163D01*
X158865527Y-74483831D01*
X158925502Y-74516287D01*
X158927345Y-74513097D01*
X158947154Y-74524533D01*
X158947156Y-74524533D01*
X158947159Y-74524536D01*
X159070464Y-74575610D01*
X159093240Y-74585045D01*
X159249997Y-74605682D01*
X159250000Y-74605682D01*
X159250003Y-74605682D01*
X159406759Y-74585045D01*
X159406761Y-74585044D01*
X159406762Y-74585044D01*
X159552841Y-74524536D01*
X159563274Y-74516531D01*
X159605889Y-74483831D01*
X159662543Y-74440358D01*
X159763953Y-74386377D01*
X159877400Y-74368247D01*
X159990588Y-74387936D01*
X160087457Y-74440359D01*
X160186726Y-74516531D01*
X160197159Y-74524536D01*
X160316258Y-74573868D01*
X160343240Y-74585045D01*
X160499997Y-74605682D01*
X160500000Y-74605682D01*
X160500003Y-74605682D01*
X160656759Y-74585045D01*
X160656761Y-74585044D01*
X160656762Y-74585044D01*
X160802841Y-74524536D01*
X160912542Y-74440358D01*
X161013955Y-74386376D01*
X161127403Y-74368247D01*
X161240590Y-74387937D01*
X161337456Y-74440358D01*
X161337460Y-74440361D01*
X161436726Y-74516531D01*
X161447159Y-74524536D01*
X161566258Y-74573868D01*
X161593240Y-74585045D01*
X161749997Y-74605682D01*
X161750000Y-74605682D01*
X161750003Y-74605682D01*
X161906759Y-74585045D01*
X161906761Y-74585044D01*
X161906762Y-74585044D01*
X162052841Y-74524536D01*
X162178282Y-74428282D01*
X162274536Y-74302841D01*
X162335044Y-74156762D01*
X162335044Y-74156761D01*
X162335045Y-74156759D01*
X162355682Y-74000003D01*
X162355682Y-73999996D01*
X162335045Y-73843240D01*
X162325610Y-73820464D01*
X162274536Y-73697159D01*
X162274533Y-73697156D01*
X162274533Y-73697154D01*
X162263097Y-73677345D01*
X162266530Y-73675362D01*
X162232295Y-73611051D01*
X162214163Y-73497604D01*
X162233850Y-73384416D01*
X162266289Y-73324497D01*
X162263097Y-73322655D01*
X162274533Y-73302845D01*
X162274533Y-73302844D01*
X162274536Y-73302841D01*
X162335044Y-73156762D01*
X162335044Y-73156761D01*
X162335045Y-73156759D01*
X162355682Y-73000003D01*
X162355682Y-72999996D01*
X162335045Y-72843240D01*
X162323868Y-72816258D01*
X162274536Y-72697159D01*
X162178282Y-72571718D01*
X162067749Y-72486903D01*
X162052843Y-72475465D01*
X161906759Y-72414954D01*
X161750003Y-72394318D01*
X161749997Y-72394318D01*
X161593240Y-72414954D01*
X161447156Y-72475465D01*
X161337458Y-72559640D01*
X161236043Y-72613623D01*
X161122596Y-72631752D01*
X161009408Y-72612062D01*
X160912542Y-72559640D01*
X160802843Y-72475465D01*
X160656759Y-72414954D01*
X160500003Y-72394318D01*
X160499997Y-72394318D01*
X160343240Y-72414954D01*
X160197156Y-72475465D01*
X160087456Y-72559641D01*
X159986041Y-72613624D01*
X159872593Y-72631752D01*
X159759406Y-72612061D01*
X159662545Y-72559642D01*
X159552841Y-72475464D01*
X159406759Y-72414954D01*
X159250003Y-72394318D01*
X159249997Y-72394318D01*
X159093240Y-72414954D01*
X158947154Y-72475466D01*
X158927345Y-72486903D01*
X158925363Y-72483470D01*
X158861035Y-72517710D01*
X158747587Y-72535836D01*
X158634400Y-72516143D01*
X158574491Y-72483722D01*
X158572655Y-72486903D01*
X158552845Y-72475466D01*
X158552841Y-72475464D01*
X158507294Y-72456597D01*
X158406759Y-72414954D01*
X158250003Y-72394318D01*
X158249997Y-72394318D01*
X158093240Y-72414954D01*
X157947156Y-72475465D01*
X157821718Y-72571718D01*
X157725465Y-72697156D01*
X157664954Y-72843240D01*
X157644318Y-72999996D01*
X157644318Y-73000003D01*
X157664954Y-73156759D01*
X157725466Y-73302845D01*
X157736903Y-73322655D01*
X157733470Y-73324636D01*
X157767710Y-73388965D01*
X157785836Y-73502413D01*
X157766143Y-73615600D01*
X157733722Y-73675508D01*
X157736903Y-73677345D01*
X157725466Y-73697154D01*
X157664954Y-73843240D01*
X157644318Y-73999996D01*
X157644318Y-74000003D01*
X150610380Y-74000003D01*
X150603151Y-67731756D01*
X150621930Y-67618415D01*
X150676494Y-67517312D01*
X150705363Y-67484582D01*
X151727426Y-66462519D01*
X151820927Y-66395761D01*
X151931037Y-66362980D01*
X151974206Y-66360300D01*
X159199594Y-66360300D01*
X159312914Y-66379210D01*
G37*
%TD.AperFunction*%
%TD*%
%TA.AperFunction,Conductor*%
%TO.N,+5VL*%
G36*
X131087426Y-124512911D02*
G01*
X131128024Y-124520500D01*
X131128026Y-124520500D01*
X131331974Y-124520500D01*
X131331976Y-124520500D01*
X131372573Y-124512911D01*
X131395358Y-124510800D01*
X132210000Y-124510800D01*
X132277039Y-124530485D01*
X132322794Y-124583289D01*
X132334000Y-124634800D01*
X132334000Y-127282400D01*
X132314315Y-127349439D01*
X132261511Y-127395194D01*
X132210000Y-127406400D01*
X131380380Y-127406400D01*
X131357597Y-127404289D01*
X131331976Y-127399500D01*
X131128024Y-127399500D01*
X131102403Y-127404289D01*
X131079620Y-127406400D01*
X130197400Y-127406400D01*
X130130361Y-127386715D01*
X130084606Y-127333911D01*
X130073400Y-127282400D01*
X130073400Y-124634800D01*
X130093085Y-124567761D01*
X130145889Y-124522006D01*
X130197400Y-124510800D01*
X131064642Y-124510800D01*
X131087426Y-124512911D01*
G37*
%TD.AperFunction*%
%TD*%
%TA.AperFunction,Conductor*%
%TO.N,GND*%
G36*
X100121430Y-61006496D02*
G01*
X100123340Y-61006559D01*
X100304598Y-61015464D01*
X100333700Y-61016894D01*
X100337894Y-61017243D01*
X100385045Y-61022783D01*
X100515856Y-61038155D01*
X100517598Y-61038386D01*
X100726463Y-61069368D01*
X100730689Y-61070147D01*
X100788908Y-61082998D01*
X100905099Y-61108644D01*
X100906800Y-61109045D01*
X100963223Y-61123178D01*
X101112108Y-61160471D01*
X101116340Y-61161695D01*
X101285461Y-61217271D01*
X101286829Y-61217741D01*
X101486847Y-61289309D01*
X101491067Y-61290998D01*
X101652974Y-61362867D01*
X101654204Y-61363431D01*
X101847008Y-61454621D01*
X101851188Y-61456796D01*
X101914180Y-61492699D01*
X102004093Y-61543945D01*
X102005266Y-61544631D01*
X102189054Y-61654788D01*
X102193104Y-61657436D01*
X102289152Y-61725757D01*
X102335947Y-61759044D01*
X102509642Y-61887865D01*
X102513525Y-61890995D01*
X102644172Y-62005247D01*
X102805590Y-62151548D01*
X102809204Y-62155106D01*
X102926332Y-62280337D01*
X103073969Y-62443230D01*
X103077317Y-62447255D01*
X103179579Y-62581297D01*
X103312168Y-62760073D01*
X103315179Y-62764525D01*
X103401490Y-62904841D01*
X103517851Y-63098979D01*
X103520468Y-63103821D01*
X103589808Y-63246931D01*
X103688971Y-63456594D01*
X103691147Y-63461792D01*
X103742786Y-63602856D01*
X103823846Y-63829404D01*
X103825534Y-63834916D01*
X103858835Y-63964975D01*
X103921158Y-64213779D01*
X103922317Y-64219558D01*
X103936788Y-64315055D01*
X103936735Y-64315062D01*
X103936847Y-64315440D01*
X103979793Y-64604962D01*
X103980389Y-64611020D01*
X103999386Y-64997713D01*
X103999459Y-65000459D01*
X103999500Y-65000500D01*
X151048138Y-65000500D01*
X151115177Y-65020185D01*
X151160932Y-65072989D01*
X151170876Y-65142147D01*
X151141851Y-65205703D01*
X151121023Y-65224818D01*
X151111365Y-65231834D01*
X151080394Y-65269270D01*
X151076462Y-65273591D01*
X149469469Y-66880583D01*
X149408146Y-66914068D01*
X149341234Y-66910083D01*
X149315373Y-66901133D01*
X149315372Y-66901132D01*
X149315370Y-66901132D01*
X149103558Y-66870678D01*
X149103555Y-66870678D01*
X149073008Y-66872133D01*
X148889811Y-66880860D01*
X148681853Y-66931310D01*
X148638296Y-66951202D01*
X148487201Y-67020203D01*
X148487195Y-67020207D01*
X148312896Y-67144326D01*
X148312889Y-67144332D01*
X148165217Y-67299205D01*
X148049531Y-67479217D01*
X147969997Y-67677884D01*
X147934871Y-67860136D01*
X147929500Y-67888005D01*
X147929500Y-68498378D01*
X147939592Y-68604064D01*
X147944744Y-68658020D01*
X147944745Y-68658024D01*
X148005030Y-68863338D01*
X148005031Y-68863341D01*
X148005032Y-68863342D01*
X148065577Y-68980782D01*
X148103088Y-69053544D01*
X148235366Y-69221750D01*
X148235372Y-69221756D01*
X148397092Y-69361886D01*
X148582406Y-69468877D01*
X148582407Y-69468877D01*
X148582410Y-69468879D01*
X148784630Y-69538868D01*
X148996442Y-69569322D01*
X149210189Y-69559140D01*
X149418147Y-69508690D01*
X149612798Y-69419796D01*
X149639896Y-69400500D01*
X149699953Y-69357732D01*
X149787109Y-69295669D01*
X149934779Y-69140798D01*
X149939871Y-69132876D01*
X150037615Y-68980782D01*
X150050471Y-68960778D01*
X150109833Y-68812496D01*
X150153022Y-68757577D01*
X150219049Y-68734724D01*
X150286950Y-68751197D01*
X150335165Y-68801763D01*
X150348950Y-68858441D01*
X150354824Y-73951815D01*
X150354880Y-74000005D01*
X150354880Y-74000298D01*
X150356041Y-75007043D01*
X150361372Y-79629001D01*
X150361519Y-79756005D01*
X150361519Y-79756298D01*
X150361734Y-79942938D01*
X150365760Y-83433761D01*
X150365761Y-83433792D01*
X150366013Y-83441679D01*
X150368965Y-83488568D01*
X150379124Y-83545563D01*
X150379127Y-83545576D01*
X150411969Y-83655656D01*
X150411971Y-83655661D01*
X150448950Y-83731195D01*
X150515758Y-83824652D01*
X150515759Y-83824653D01*
X150515765Y-83824661D01*
X150543056Y-83856846D01*
X150842033Y-84155478D01*
X150847780Y-84160875D01*
X150883014Y-84191972D01*
X150930479Y-84225116D01*
X151031519Y-84279796D01*
X151072826Y-84293976D01*
X151111065Y-84307104D01*
X151111067Y-84307104D01*
X151111069Y-84307105D01*
X151224389Y-84326015D01*
X151224394Y-84326015D01*
X151224398Y-84326016D01*
X151265530Y-84329424D01*
X151266443Y-84329500D01*
X151266445Y-84329500D01*
X163371813Y-84329500D01*
X163371824Y-84329500D01*
X163387640Y-84328518D01*
X163481177Y-84316859D01*
X163552208Y-84297301D01*
X163552214Y-84297298D01*
X163555981Y-84296261D01*
X163625841Y-84297442D01*
X163683972Y-84336205D01*
X163711919Y-84400242D01*
X163712900Y-84415812D01*
X163712900Y-100771191D01*
X163693215Y-100838230D01*
X163676581Y-100858872D01*
X162304645Y-102230807D01*
X162243322Y-102264292D01*
X162194181Y-102265015D01*
X162153977Y-102257500D01*
X162153976Y-102257500D01*
X161950024Y-102257500D01*
X161749544Y-102294976D01*
X161749541Y-102294976D01*
X161749541Y-102294977D01*
X161559364Y-102368651D01*
X161559357Y-102368655D01*
X161385960Y-102476017D01*
X161385958Y-102476019D01*
X161235237Y-102613418D01*
X161112327Y-102776178D01*
X161021422Y-102958739D01*
X161021417Y-102958752D01*
X160965602Y-103154917D01*
X160946785Y-103357999D01*
X160946785Y-103358001D01*
X160963129Y-103534391D01*
X160949714Y-103602961D01*
X160927339Y-103633513D01*
X160776388Y-103784464D01*
X160715065Y-103817949D01*
X160645373Y-103812965D01*
X160589440Y-103771093D01*
X160565023Y-103705629D01*
X160569440Y-103662853D01*
X160598397Y-103561083D01*
X160617215Y-103358000D01*
X160598397Y-103154917D01*
X160542582Y-102958750D01*
X160451673Y-102776179D01*
X160328764Y-102613421D01*
X160328762Y-102613418D01*
X160178041Y-102476019D01*
X160178039Y-102476017D01*
X160004642Y-102368655D01*
X160004635Y-102368651D01*
X159909546Y-102331813D01*
X159814456Y-102294976D01*
X159613976Y-102257500D01*
X159410024Y-102257500D01*
X159209544Y-102294976D01*
X159209541Y-102294976D01*
X159209541Y-102294977D01*
X159019364Y-102368651D01*
X159019357Y-102368655D01*
X158845960Y-102476017D01*
X158845958Y-102476019D01*
X158695237Y-102613418D01*
X158572327Y-102776178D01*
X158481422Y-102958739D01*
X158481417Y-102958752D01*
X158425602Y-103154917D01*
X158406785Y-103357999D01*
X158406785Y-103358000D01*
X158425602Y-103561082D01*
X158481417Y-103757247D01*
X158481422Y-103757260D01*
X158572327Y-103939821D01*
X158695237Y-104102581D01*
X158845958Y-104239980D01*
X158845960Y-104239982D01*
X158905479Y-104276834D01*
X159019363Y-104347348D01*
X159209544Y-104421024D01*
X159410024Y-104458500D01*
X159410026Y-104458500D01*
X159613974Y-104458500D01*
X159613976Y-104458500D01*
X159814456Y-104421024D01*
X159814459Y-104421022D01*
X159820091Y-104419970D01*
X159820542Y-104422385D01*
X159879839Y-104422870D01*
X159938307Y-104461124D01*
X159966811Y-104524915D01*
X159956303Y-104593990D01*
X159931614Y-104629239D01*
X159736073Y-104824781D01*
X159674750Y-104858266D01*
X159648392Y-104861100D01*
X151273008Y-104861100D01*
X151205969Y-104841415D01*
X151185327Y-104824781D01*
X149718546Y-103358000D01*
X153326785Y-103358000D01*
X153345602Y-103561082D01*
X153401417Y-103757247D01*
X153401422Y-103757260D01*
X153492327Y-103939821D01*
X153615237Y-104102581D01*
X153765958Y-104239980D01*
X153765960Y-104239982D01*
X153825479Y-104276834D01*
X153939363Y-104347348D01*
X154129544Y-104421024D01*
X154330024Y-104458500D01*
X154330026Y-104458500D01*
X154533974Y-104458500D01*
X154533976Y-104458500D01*
X154734456Y-104421024D01*
X154924637Y-104347348D01*
X155098041Y-104239981D01*
X155248764Y-104102579D01*
X155371673Y-103939821D01*
X155462582Y-103757250D01*
X155518397Y-103561083D01*
X155537215Y-103358000D01*
X155866785Y-103358000D01*
X155885602Y-103561082D01*
X155941417Y-103757247D01*
X155941422Y-103757260D01*
X156032327Y-103939821D01*
X156155237Y-104102581D01*
X156305958Y-104239980D01*
X156305960Y-104239982D01*
X156365479Y-104276834D01*
X156479363Y-104347348D01*
X156669544Y-104421024D01*
X156870024Y-104458500D01*
X156870026Y-104458500D01*
X157073974Y-104458500D01*
X157073976Y-104458500D01*
X157274456Y-104421024D01*
X157464637Y-104347348D01*
X157638041Y-104239981D01*
X157788764Y-104102579D01*
X157911673Y-103939821D01*
X158002582Y-103757250D01*
X158058397Y-103561083D01*
X158077215Y-103358000D01*
X158058397Y-103154917D01*
X158002582Y-102958750D01*
X157911673Y-102776179D01*
X157788764Y-102613421D01*
X157788762Y-102613418D01*
X157638041Y-102476019D01*
X157638039Y-102476017D01*
X157464642Y-102368655D01*
X157464635Y-102368651D01*
X157369546Y-102331814D01*
X157274456Y-102294976D01*
X157073976Y-102257500D01*
X156870024Y-102257500D01*
X156669544Y-102294976D01*
X156669541Y-102294976D01*
X156669541Y-102294977D01*
X156479364Y-102368651D01*
X156479357Y-102368655D01*
X156305960Y-102476017D01*
X156305958Y-102476019D01*
X156155237Y-102613418D01*
X156032327Y-102776178D01*
X155941422Y-102958739D01*
X155941417Y-102958752D01*
X155885602Y-103154917D01*
X155866785Y-103357999D01*
X155866785Y-103358000D01*
X155537215Y-103358000D01*
X155518397Y-103154917D01*
X155462582Y-102958750D01*
X155371673Y-102776179D01*
X155248764Y-102613421D01*
X155248762Y-102613418D01*
X155098041Y-102476019D01*
X155098039Y-102476017D01*
X154924642Y-102368655D01*
X154924635Y-102368651D01*
X154829546Y-102331814D01*
X154734456Y-102294976D01*
X154533976Y-102257500D01*
X154330024Y-102257500D01*
X154129544Y-102294976D01*
X154129541Y-102294976D01*
X154129541Y-102294977D01*
X153939364Y-102368651D01*
X153939357Y-102368655D01*
X153765960Y-102476017D01*
X153765958Y-102476019D01*
X153615237Y-102613418D01*
X153492327Y-102776178D01*
X153401422Y-102958739D01*
X153401417Y-102958752D01*
X153345602Y-103154917D01*
X153326785Y-103357999D01*
X153326785Y-103358000D01*
X149718546Y-103358000D01*
X147178546Y-100818000D01*
X153326785Y-100818000D01*
X153345602Y-101021082D01*
X153401417Y-101217247D01*
X153401422Y-101217260D01*
X153492327Y-101399821D01*
X153615237Y-101562581D01*
X153765958Y-101699980D01*
X153765960Y-101699982D01*
X153854211Y-101754624D01*
X153939363Y-101807348D01*
X154129544Y-101881024D01*
X154330024Y-101918500D01*
X154330026Y-101918500D01*
X154533974Y-101918500D01*
X154533976Y-101918500D01*
X154734456Y-101881024D01*
X154924637Y-101807348D01*
X155098041Y-101699981D01*
X155248764Y-101562579D01*
X155371673Y-101399821D01*
X155462582Y-101217250D01*
X155518397Y-101021083D01*
X155537215Y-100818000D01*
X155866785Y-100818000D01*
X155885602Y-101021082D01*
X155941417Y-101217247D01*
X155941422Y-101217260D01*
X156032327Y-101399821D01*
X156155237Y-101562581D01*
X156305958Y-101699980D01*
X156305960Y-101699982D01*
X156394211Y-101754624D01*
X156479363Y-101807348D01*
X156669544Y-101881024D01*
X156870024Y-101918500D01*
X156870026Y-101918500D01*
X157073974Y-101918500D01*
X157073976Y-101918500D01*
X157274456Y-101881024D01*
X157464637Y-101807348D01*
X157638041Y-101699981D01*
X157788764Y-101562579D01*
X157911673Y-101399821D01*
X158002582Y-101217250D01*
X158058397Y-101021083D01*
X158077215Y-100818000D01*
X158406785Y-100818000D01*
X158425602Y-101021082D01*
X158481417Y-101217247D01*
X158481422Y-101217260D01*
X158572327Y-101399821D01*
X158695237Y-101562581D01*
X158845958Y-101699980D01*
X158845960Y-101699982D01*
X158934211Y-101754624D01*
X159019363Y-101807348D01*
X159209544Y-101881024D01*
X159410024Y-101918500D01*
X159410026Y-101918500D01*
X159613974Y-101918500D01*
X159613976Y-101918500D01*
X159814456Y-101881024D01*
X160004637Y-101807348D01*
X160178041Y-101699981D01*
X160328764Y-101562579D01*
X160451673Y-101399821D01*
X160542582Y-101217250D01*
X160598397Y-101021083D01*
X160617215Y-100818000D01*
X160611313Y-100754311D01*
X160598397Y-100614917D01*
X160584390Y-100565687D01*
X160542582Y-100418750D01*
X160522091Y-100377599D01*
X160487282Y-100307692D01*
X160451673Y-100236179D01*
X160358485Y-100112778D01*
X160328762Y-100073418D01*
X160178041Y-99936019D01*
X160178039Y-99936017D01*
X160004642Y-99828655D01*
X160004635Y-99828651D01*
X159828080Y-99760254D01*
X159814456Y-99754976D01*
X159613976Y-99717500D01*
X159410024Y-99717500D01*
X159209544Y-99754976D01*
X159209541Y-99754976D01*
X159209541Y-99754977D01*
X159019364Y-99828651D01*
X159019357Y-99828655D01*
X158845960Y-99936017D01*
X158845958Y-99936019D01*
X158695237Y-100073418D01*
X158572327Y-100236178D01*
X158481422Y-100418739D01*
X158481417Y-100418752D01*
X158425602Y-100614917D01*
X158406785Y-100817999D01*
X158406785Y-100818000D01*
X158077215Y-100818000D01*
X158071313Y-100754311D01*
X158058397Y-100614917D01*
X158044390Y-100565687D01*
X158002582Y-100418750D01*
X157982091Y-100377599D01*
X157947282Y-100307692D01*
X157911673Y-100236179D01*
X157818485Y-100112778D01*
X157788762Y-100073418D01*
X157638041Y-99936019D01*
X157638039Y-99936017D01*
X157464642Y-99828655D01*
X157464635Y-99828651D01*
X157288080Y-99760254D01*
X157274456Y-99754976D01*
X157073976Y-99717500D01*
X156870024Y-99717500D01*
X156669544Y-99754976D01*
X156669541Y-99754976D01*
X156669541Y-99754977D01*
X156479364Y-99828651D01*
X156479357Y-99828655D01*
X156305960Y-99936017D01*
X156305958Y-99936019D01*
X156155237Y-100073418D01*
X156032327Y-100236178D01*
X155941422Y-100418739D01*
X155941417Y-100418752D01*
X155885602Y-100614917D01*
X155866785Y-100817999D01*
X155866785Y-100818000D01*
X155537215Y-100818000D01*
X155531313Y-100754311D01*
X155518397Y-100614917D01*
X155504390Y-100565687D01*
X155462582Y-100418750D01*
X155442091Y-100377599D01*
X155407282Y-100307692D01*
X155371673Y-100236179D01*
X155278485Y-100112778D01*
X155248762Y-100073418D01*
X155098041Y-99936019D01*
X155098039Y-99936017D01*
X154924642Y-99828655D01*
X154924635Y-99828651D01*
X154748080Y-99760254D01*
X154734456Y-99754976D01*
X154533976Y-99717500D01*
X154330024Y-99717500D01*
X154129544Y-99754976D01*
X154129541Y-99754976D01*
X154129541Y-99754977D01*
X153939364Y-99828651D01*
X153939357Y-99828655D01*
X153765960Y-99936017D01*
X153765958Y-99936019D01*
X153615237Y-100073418D01*
X153492327Y-100236178D01*
X153401422Y-100418739D01*
X153401417Y-100418752D01*
X153345602Y-100614917D01*
X153326785Y-100817999D01*
X153326785Y-100818000D01*
X147178546Y-100818000D01*
X139610834Y-93250288D01*
X139600761Y-93237714D01*
X139600574Y-93237870D01*
X139595598Y-93231855D01*
X139562782Y-93201040D01*
X139543832Y-93183245D01*
X139542458Y-93181912D01*
X139521435Y-93160889D01*
X139515640Y-93156394D01*
X139511198Y-93152599D01*
X139475796Y-93119354D01*
X139475788Y-93119348D01*
X139457192Y-93109125D01*
X139440931Y-93098444D01*
X139424163Y-93085437D01*
X139400580Y-93075232D01*
X139379578Y-93066143D01*
X139374356Y-93063586D01*
X139331768Y-93040173D01*
X139331765Y-93040172D01*
X139311201Y-93034892D01*
X139292796Y-93028590D01*
X139273327Y-93020165D01*
X139273321Y-93020163D01*
X139225351Y-93012566D01*
X139219636Y-93011382D01*
X139203172Y-93007155D01*
X139172580Y-92999300D01*
X139172577Y-92999300D01*
X139151355Y-92999300D01*
X139131955Y-92997773D01*
X139110996Y-92994453D01*
X139110995Y-92994453D01*
X139087186Y-92996703D01*
X139062630Y-92999025D01*
X139056792Y-92999300D01*
X125891705Y-92999300D01*
X125875694Y-92997532D01*
X125875672Y-92997774D01*
X125867905Y-92997039D01*
X125796965Y-92999269D01*
X125795017Y-92999300D01*
X125765275Y-92999300D01*
X125765271Y-92999300D01*
X125765261Y-92999301D01*
X125757993Y-93000219D01*
X125752176Y-93000676D01*
X125703636Y-93002202D01*
X125703625Y-93002204D01*
X125683249Y-93008123D01*
X125664208Y-93012066D01*
X125643153Y-93014726D01*
X125643137Y-93014730D01*
X125597971Y-93032612D01*
X125592444Y-93034504D01*
X125545799Y-93048056D01*
X125527527Y-93058862D01*
X125510061Y-93067419D01*
X125490328Y-93075232D01*
X125451030Y-93103783D01*
X125446153Y-93106986D01*
X125432481Y-93115072D01*
X125404332Y-93131720D01*
X125389326Y-93146726D01*
X125374536Y-93159358D01*
X125357367Y-93171832D01*
X125357365Y-93171834D01*
X125326394Y-93209270D01*
X125322462Y-93213591D01*
X122626673Y-95909381D01*
X122565350Y-95942866D01*
X122538992Y-95945700D01*
X118833201Y-95945700D01*
X118817190Y-95943932D01*
X118817168Y-95944174D01*
X118809401Y-95943439D01*
X118738461Y-95945669D01*
X118736513Y-95945700D01*
X118706772Y-95945700D01*
X118706768Y-95945700D01*
X118706758Y-95945701D01*
X118699490Y-95946619D01*
X118693673Y-95947076D01*
X118645133Y-95948602D01*
X118645122Y-95948604D01*
X118624746Y-95954523D01*
X118605705Y-95958466D01*
X118584650Y-95961126D01*
X118584634Y-95961130D01*
X118539473Y-95979010D01*
X118533947Y-95980902D01*
X118487299Y-95994455D01*
X118469029Y-96005260D01*
X118451560Y-96013818D01*
X118431825Y-96021632D01*
X118431823Y-96021633D01*
X118392536Y-96050177D01*
X118387653Y-96053384D01*
X118345829Y-96078119D01*
X118330823Y-96093126D01*
X118316033Y-96105758D01*
X118298864Y-96118232D01*
X118298862Y-96118234D01*
X118267891Y-96155670D01*
X118263959Y-96159991D01*
X115162270Y-99261681D01*
X115100947Y-99295166D01*
X115074589Y-99298000D01*
X112199210Y-99298000D01*
X112162687Y-99307001D01*
X112155619Y-99308314D01*
X112115141Y-99313429D01*
X112115139Y-99313429D01*
X112083640Y-99325901D01*
X112075647Y-99328455D01*
X112045837Y-99335802D01*
X112045833Y-99335804D01*
X112009470Y-99354889D01*
X112003479Y-99357637D01*
X111962330Y-99373931D01*
X111962328Y-99373932D01*
X111962329Y-99373932D01*
X111941350Y-99389173D01*
X111926098Y-99398647D01*
X111905961Y-99409216D01*
X111872632Y-99438740D01*
X111867962Y-99442491D01*
X111829361Y-99470537D01*
X111815233Y-99487615D01*
X111801925Y-99501381D01*
X111787717Y-99513968D01*
X111787717Y-99513969D01*
X111760462Y-99553452D01*
X111757211Y-99557750D01*
X111724598Y-99597174D01*
X111716765Y-99613820D01*
X111706625Y-99631451D01*
X111697979Y-99643977D01*
X111679741Y-99692065D01*
X111677870Y-99696477D01*
X111654621Y-99745885D01*
X111654619Y-99745894D01*
X111651879Y-99760254D01*
X111646023Y-99780972D01*
X111641963Y-99791680D01*
X111641961Y-99791686D01*
X111635345Y-99846169D01*
X111634699Y-99850311D01*
X111623824Y-99907322D01*
X111623824Y-99907329D01*
X111624505Y-99918158D01*
X111623846Y-99940887D01*
X111622922Y-99948500D01*
X111625571Y-99970322D01*
X111629953Y-100006407D01*
X111630282Y-100009987D01*
X111634144Y-100071363D01*
X111634144Y-100071364D01*
X111636331Y-100078095D01*
X111641493Y-100101450D01*
X111641962Y-100105316D01*
X111663864Y-100163067D01*
X111664856Y-100165885D01*
X111684932Y-100227671D01*
X111684933Y-100227672D01*
X111684934Y-100227676D01*
X111686700Y-100230458D01*
X111697939Y-100252917D01*
X111697978Y-100253021D01*
X111735038Y-100306711D01*
X111736361Y-100308710D01*
X111773000Y-100366443D01*
X111774734Y-100368540D01*
X111782529Y-100377599D01*
X111782740Y-100377413D01*
X111787713Y-100383026D01*
X111787716Y-100383028D01*
X111787717Y-100383030D01*
X111839153Y-100428599D01*
X111840439Y-100429772D01*
X111892809Y-100478950D01*
X111899119Y-100483534D01*
X111898928Y-100483796D01*
X111899379Y-100484112D01*
X111899787Y-100483522D01*
X111905958Y-100487782D01*
X111905960Y-100487783D01*
X111970348Y-100521577D01*
X112036832Y-100558127D01*
X112036837Y-100558128D01*
X112037240Y-100558288D01*
X112042877Y-100560074D01*
X112045833Y-100561195D01*
X112045835Y-100561196D01*
X112119504Y-100579353D01*
X112196023Y-100599000D01*
X112199215Y-100599000D01*
X112357185Y-100599000D01*
X115309892Y-100599000D01*
X115325902Y-100600767D01*
X115325925Y-100600526D01*
X115333691Y-100601260D01*
X115333692Y-100601259D01*
X115333693Y-100601260D01*
X115340668Y-100601040D01*
X115404632Y-100599031D01*
X115406580Y-100599000D01*
X115436322Y-100599000D01*
X115443587Y-100598081D01*
X115449413Y-100597622D01*
X115497966Y-100596097D01*
X115518353Y-100590173D01*
X115537393Y-100586231D01*
X115558455Y-100583571D01*
X115603632Y-100565683D01*
X115609132Y-100563800D01*
X115655795Y-100550244D01*
X115674062Y-100539439D01*
X115691533Y-100530880D01*
X115711268Y-100523068D01*
X115750574Y-100494510D01*
X115755440Y-100491313D01*
X115797262Y-100466581D01*
X115812267Y-100451575D01*
X115827065Y-100438936D01*
X115844234Y-100426463D01*
X115875206Y-100389022D01*
X115879110Y-100384731D01*
X118980823Y-97283019D01*
X119042147Y-97249534D01*
X119068505Y-97246700D01*
X122774295Y-97246700D01*
X122790305Y-97248467D01*
X122790328Y-97248226D01*
X122798094Y-97248960D01*
X122798095Y-97248959D01*
X122798096Y-97248960D01*
X122805071Y-97248740D01*
X122869035Y-97246731D01*
X122870983Y-97246700D01*
X122900725Y-97246700D01*
X122907990Y-97245781D01*
X122913816Y-97245322D01*
X122962369Y-97243797D01*
X122982756Y-97237873D01*
X123001796Y-97233931D01*
X123022858Y-97231271D01*
X123068035Y-97213383D01*
X123073535Y-97211500D01*
X123120198Y-97197944D01*
X123138465Y-97187139D01*
X123155936Y-97178580D01*
X123175671Y-97170768D01*
X123214977Y-97142210D01*
X123219843Y-97139013D01*
X123261665Y-97114281D01*
X123276670Y-97099275D01*
X123291468Y-97086636D01*
X123308637Y-97074163D01*
X123339609Y-97036722D01*
X123343513Y-97032431D01*
X126039326Y-94336619D01*
X126100650Y-94303134D01*
X126127008Y-94300300D01*
X138769592Y-94300300D01*
X138836631Y-94319985D01*
X138857273Y-94336619D01*
X150431764Y-105911110D01*
X150441835Y-105923680D01*
X150442022Y-105923526D01*
X150446995Y-105929537D01*
X150498742Y-105978131D01*
X150500109Y-105979455D01*
X150521165Y-106000511D01*
X150521168Y-106000513D01*
X150526957Y-106005005D01*
X150531397Y-106008797D01*
X150560698Y-106036311D01*
X150566807Y-106042048D01*
X150566809Y-106042049D01*
X150585405Y-106052272D01*
X150601670Y-106062957D01*
X150618436Y-106075962D01*
X150618434Y-106075962D01*
X150657111Y-106092698D01*
X150710820Y-106137387D01*
X150731842Y-106204019D01*
X150713503Y-106271439D01*
X150661625Y-106318241D01*
X150607867Y-106330500D01*
X148005824Y-106330500D01*
X147938785Y-106310815D01*
X147918143Y-106294181D01*
X146668614Y-105044652D01*
X142760038Y-101136077D01*
X142638018Y-101010976D01*
X142638017Y-101010975D01*
X142638015Y-101010973D01*
X142638005Y-101010965D01*
X142543258Y-100931462D01*
X142541510Y-100929939D01*
X142517618Y-100908319D01*
X142449821Y-100846967D01*
X142391089Y-100803620D01*
X142388054Y-100801230D01*
X142332137Y-100754311D01*
X142332134Y-100754309D01*
X142332126Y-100754302D01*
X142280819Y-100719322D01*
X142262994Y-100704552D01*
X141933604Y-100375162D01*
X141598817Y-100040375D01*
X141476799Y-99915276D01*
X141476798Y-99915275D01*
X141476796Y-99915273D01*
X141476790Y-99915268D01*
X141459723Y-99900947D01*
X141455743Y-99897301D01*
X138518520Y-96960078D01*
X138396499Y-96834976D01*
X138396498Y-96834975D01*
X138396496Y-96834973D01*
X138396486Y-96834965D01*
X138301739Y-96755462D01*
X138299991Y-96753939D01*
X138243507Y-96702825D01*
X138208302Y-96670967D01*
X138149570Y-96627620D01*
X138146535Y-96625230D01*
X138090608Y-96578302D01*
X137988395Y-96508614D01*
X137986505Y-96507273D01*
X137924779Y-96461718D01*
X137887015Y-96433847D01*
X137824241Y-96396553D01*
X137821006Y-96394491D01*
X137760679Y-96353361D01*
X137760676Y-96353359D01*
X137760674Y-96353358D01*
X137652056Y-96294208D01*
X137650041Y-96293061D01*
X137543718Y-96229895D01*
X137477552Y-96199041D01*
X137474102Y-96197300D01*
X137409993Y-96162388D01*
X137409986Y-96162385D01*
X137409982Y-96162383D01*
X137296031Y-96114349D01*
X137293911Y-96113408D01*
X137181819Y-96061139D01*
X137181815Y-96061137D01*
X137181809Y-96061135D01*
X137181802Y-96061132D01*
X137112908Y-96037025D01*
X137109318Y-96035642D01*
X137076084Y-96021633D01*
X137042043Y-96007283D01*
X136923843Y-95970822D01*
X136921641Y-95970098D01*
X136804907Y-95929252D01*
X136733950Y-95912122D01*
X136730225Y-95911099D01*
X136694560Y-95900098D01*
X136660463Y-95889581D01*
X136660456Y-95889579D01*
X136660451Y-95889578D01*
X136660441Y-95889575D01*
X136560258Y-95869323D01*
X136539228Y-95865072D01*
X136536981Y-95864574D01*
X136416742Y-95835549D01*
X136344414Y-95825568D01*
X136340604Y-95824920D01*
X136310250Y-95818784D01*
X136269067Y-95810459D01*
X136269062Y-95810458D01*
X136269060Y-95810458D01*
X136146000Y-95798143D01*
X136143698Y-95797869D01*
X136021177Y-95780962D01*
X135948236Y-95778233D01*
X135944381Y-95777968D01*
X135871739Y-95770700D01*
X135871738Y-95770700D01*
X135748053Y-95770700D01*
X135745768Y-95770657D01*
X135698015Y-95768870D01*
X135622147Y-95766031D01*
X135576236Y-95768897D01*
X135549271Y-95770580D01*
X135545427Y-95770700D01*
X128675926Y-95770700D01*
X128629086Y-95770116D01*
X128501229Y-95768521D01*
X128378026Y-95779300D01*
X128375713Y-95779459D01*
X128252180Y-95785624D01*
X128180003Y-95796503D01*
X128176167Y-95796960D01*
X128103438Y-95803323D01*
X128012447Y-95820539D01*
X127981892Y-95826320D01*
X127979617Y-95826707D01*
X127857323Y-95845141D01*
X127786597Y-95863149D01*
X127782827Y-95863985D01*
X127711079Y-95877562D01*
X127592426Y-95912547D01*
X127590191Y-95913160D01*
X127470365Y-95943672D01*
X127470355Y-95943675D01*
X127401768Y-95968639D01*
X127398098Y-95969847D01*
X127328076Y-95990493D01*
X127213523Y-96037108D01*
X127211361Y-96037941D01*
X127095132Y-96080245D01*
X127029355Y-96111921D01*
X127025824Y-96113488D01*
X126958215Y-96141001D01*
X126958200Y-96141008D01*
X126848868Y-96198791D01*
X126846799Y-96199836D01*
X126735368Y-96253499D01*
X126673079Y-96291561D01*
X126669722Y-96293472D01*
X126605182Y-96327582D01*
X126605163Y-96327594D01*
X126502097Y-96395997D01*
X126500142Y-96397242D01*
X126394633Y-96461718D01*
X126394628Y-96461721D01*
X126394621Y-96461726D01*
X126336443Y-96505795D01*
X126333291Y-96508031D01*
X126272467Y-96548399D01*
X126176731Y-96626716D01*
X126174910Y-96628150D01*
X126076328Y-96702824D01*
X126076327Y-96702826D01*
X126022816Y-96752475D01*
X126019904Y-96755012D01*
X125963399Y-96801240D01*
X125963385Y-96801252D01*
X125875942Y-96888695D01*
X125874273Y-96890302D01*
X125783611Y-96974425D01*
X125783606Y-96974430D01*
X125735297Y-97029170D01*
X125732651Y-97031986D01*
X123949958Y-98814681D01*
X123888635Y-98848166D01*
X123862277Y-98851000D01*
X121582507Y-98851000D01*
X121538107Y-98850446D01*
X121407736Y-98848820D01*
X121387273Y-98850610D01*
X121381095Y-98850841D01*
X121259111Y-98849320D01*
X121135891Y-98860101D01*
X121133578Y-98860260D01*
X121010061Y-98866424D01*
X120937884Y-98877303D01*
X120934048Y-98877760D01*
X120861319Y-98884123D01*
X120739792Y-98907117D01*
X120737508Y-98907505D01*
X120615207Y-98925940D01*
X120544469Y-98943952D01*
X120540701Y-98944787D01*
X120518207Y-98949043D01*
X120468964Y-98958361D01*
X120350306Y-98993347D01*
X120348072Y-98993960D01*
X120228246Y-99024472D01*
X120228236Y-99024475D01*
X120159649Y-99049439D01*
X120155979Y-99050647D01*
X120085957Y-99071293D01*
X119971404Y-99117908D01*
X119969242Y-99118741D01*
X119853013Y-99161045D01*
X119787236Y-99192721D01*
X119783705Y-99194288D01*
X119716096Y-99221801D01*
X119606752Y-99279589D01*
X119604684Y-99280634D01*
X119493249Y-99334299D01*
X119430955Y-99372364D01*
X119427598Y-99374275D01*
X119363053Y-99408389D01*
X119259986Y-99476791D01*
X119258031Y-99478037D01*
X119152525Y-99542510D01*
X119152506Y-99542523D01*
X119094324Y-99586593D01*
X119091175Y-99588828D01*
X119030341Y-99629204D01*
X118934606Y-99707520D01*
X118932786Y-99708954D01*
X118834221Y-99783614D01*
X118834207Y-99783626D01*
X118780698Y-99833274D01*
X118777786Y-99835811D01*
X118739717Y-99866955D01*
X118721279Y-99882040D01*
X118721276Y-99882042D01*
X118721277Y-99882042D01*
X118633810Y-99969507D01*
X118632141Y-99971114D01*
X118541492Y-100055225D01*
X118541487Y-100055230D01*
X118493185Y-100109962D01*
X118490539Y-100112778D01*
X116899939Y-101703381D01*
X116838616Y-101736866D01*
X116812258Y-101739700D01*
X112752421Y-101739700D01*
X112453388Y-101754624D01*
X112453375Y-101754625D01*
X112058530Y-101814140D01*
X111671562Y-101912673D01*
X111296324Y-102049249D01*
X110936558Y-102222504D01*
X110595837Y-102430714D01*
X110595826Y-102430722D01*
X110277537Y-102671817D01*
X110277526Y-102671826D01*
X109984804Y-102943432D01*
X109720586Y-103242829D01*
X109487499Y-103567035D01*
X109487486Y-103567055D01*
X109287838Y-103912855D01*
X109123604Y-104276834D01*
X108996429Y-104655351D01*
X108996428Y-104655355D01*
X108907573Y-105044652D01*
X108857920Y-105440876D01*
X108847965Y-105840043D01*
X108847965Y-105840054D01*
X108877806Y-106238249D01*
X108877808Y-106238263D01*
X108947147Y-106631505D01*
X109055294Y-107015884D01*
X109055298Y-107015897D01*
X109201176Y-107387589D01*
X109201181Y-107387601D01*
X109351406Y-107680625D01*
X109383353Y-107742939D01*
X109599999Y-108078373D01*
X109848967Y-108390569D01*
X109848972Y-108390574D01*
X110127783Y-108676425D01*
X110136346Y-108683610D01*
X110433674Y-108933098D01*
X110763602Y-109158039D01*
X111114288Y-109349012D01*
X111482245Y-109504119D01*
X111482255Y-109504122D01*
X111482260Y-109504124D01*
X111863813Y-109621818D01*
X111863826Y-109621821D01*
X112255199Y-109700938D01*
X112255214Y-109700941D01*
X112652543Y-109740700D01*
X114457359Y-109740700D01*
X114524398Y-109760385D01*
X114570153Y-109813189D01*
X114581272Y-109869337D01*
X114580831Y-109881104D01*
X114583625Y-109925864D01*
X114585380Y-109953979D01*
X114585500Y-109957824D01*
X114585500Y-114129773D01*
X114565815Y-114196812D01*
X114513011Y-114242567D01*
X114503914Y-114246294D01*
X114466127Y-114260048D01*
X114106358Y-114433304D01*
X113765637Y-114641514D01*
X113765626Y-114641522D01*
X113447337Y-114882617D01*
X113447326Y-114882626D01*
X113154604Y-115154232D01*
X112890386Y-115453629D01*
X112657299Y-115777835D01*
X112657286Y-115777855D01*
X112457638Y-116123655D01*
X112293404Y-116487634D01*
X112166229Y-116866151D01*
X112166228Y-116866155D01*
X112077373Y-117255452D01*
X112027720Y-117651676D01*
X112017765Y-118050843D01*
X112017765Y-118050854D01*
X112047606Y-118449049D01*
X112047608Y-118449063D01*
X112116947Y-118842305D01*
X112225094Y-119226684D01*
X112225098Y-119226697D01*
X112370976Y-119598389D01*
X112370981Y-119598401D01*
X112553148Y-119953730D01*
X112553159Y-119953749D01*
X112575765Y-119988750D01*
X112769799Y-120289173D01*
X113018767Y-120601369D01*
X113297582Y-120887224D01*
X113603474Y-121143898D01*
X113933402Y-121368839D01*
X114284088Y-121559812D01*
X114652045Y-121714919D01*
X114652055Y-121714922D01*
X114652060Y-121714924D01*
X115033613Y-121832618D01*
X115033626Y-121832621D01*
X115424999Y-121911738D01*
X115425014Y-121911741D01*
X115822343Y-121951500D01*
X118523473Y-121951500D01*
X118686898Y-121953537D01*
X118698167Y-121953678D01*
X118698167Y-121953677D01*
X118698169Y-121953678D01*
X118821403Y-121942895D01*
X118823666Y-121942740D01*
X118947217Y-121936575D01*
X119019418Y-121925691D01*
X119023208Y-121925240D01*
X119095964Y-121918876D01*
X119217540Y-121895871D01*
X119219784Y-121895491D01*
X119342070Y-121877060D01*
X119342072Y-121877059D01*
X119342075Y-121877059D01*
X119412813Y-121859047D01*
X119416568Y-121858214D01*
X119488315Y-121844639D01*
X119607014Y-121809639D01*
X119609104Y-121809064D01*
X119729036Y-121778527D01*
X119797663Y-121753547D01*
X119801295Y-121752353D01*
X119871326Y-121731705D01*
X119985910Y-121685076D01*
X119988019Y-121684264D01*
X120104267Y-121641954D01*
X120170061Y-121610268D01*
X120173573Y-121608711D01*
X120241188Y-121581197D01*
X120350573Y-121523385D01*
X120352579Y-121522372D01*
X120464036Y-121468698D01*
X120526345Y-121430620D01*
X120529647Y-121428741D01*
X120594228Y-121394611D01*
X120697312Y-121326194D01*
X120699214Y-121324982D01*
X120782607Y-121274023D01*
X120804761Y-121260486D01*
X120804763Y-121260484D01*
X120804767Y-121260482D01*
X120862954Y-121216405D01*
X120866107Y-121214168D01*
X120926934Y-121173800D01*
X121022689Y-121095464D01*
X121024436Y-121094087D01*
X121123072Y-121019375D01*
X121176597Y-120969709D01*
X121179490Y-120967188D01*
X121236002Y-120920959D01*
X121323481Y-120833478D01*
X121325105Y-120831914D01*
X121415790Y-120747773D01*
X121464113Y-120693014D01*
X121466733Y-120690226D01*
X122793321Y-119363639D01*
X122918424Y-119241618D01*
X122997960Y-119146828D01*
X122999422Y-119145151D01*
X123082433Y-119053421D01*
X123125798Y-118994662D01*
X123128149Y-118991677D01*
X123175098Y-118935726D01*
X123244798Y-118833493D01*
X123246121Y-118831630D01*
X123319553Y-118732134D01*
X123356860Y-118669336D01*
X123358876Y-118666171D01*
X123400039Y-118605798D01*
X123459195Y-118497168D01*
X123460322Y-118495184D01*
X123523506Y-118388835D01*
X123554378Y-118322627D01*
X123556083Y-118319250D01*
X123591012Y-118255112D01*
X123639071Y-118141100D01*
X123639971Y-118139071D01*
X123692262Y-118026935D01*
X123716370Y-117958035D01*
X123717760Y-117954430D01*
X123724967Y-117937331D01*
X123746119Y-117887155D01*
X123782601Y-117768877D01*
X123783283Y-117766808D01*
X123824147Y-117650029D01*
X123841282Y-117579040D01*
X123842290Y-117575371D01*
X123863819Y-117505582D01*
X123888329Y-117384329D01*
X123888830Y-117382073D01*
X123917849Y-117261865D01*
X123927831Y-117189525D01*
X123928471Y-117185763D01*
X123942941Y-117114186D01*
X123955257Y-116991104D01*
X123955529Y-116988819D01*
X123972437Y-116866301D01*
X123975165Y-116793352D01*
X123975430Y-116789504D01*
X123982700Y-116716857D01*
X123982700Y-116593172D01*
X123982742Y-116590887D01*
X123987368Y-116467267D01*
X123982819Y-116394390D01*
X123982700Y-116390546D01*
X123982700Y-110143393D01*
X124002385Y-110076354D01*
X124019019Y-110055712D01*
X124334031Y-109740700D01*
X125339785Y-108734945D01*
X125344343Y-108730821D01*
X125369602Y-108710159D01*
X125457081Y-108622678D01*
X125458705Y-108621114D01*
X125549390Y-108536973D01*
X125597713Y-108482214D01*
X125600333Y-108479426D01*
X126710968Y-107368791D01*
X126712592Y-107367227D01*
X126803290Y-107283073D01*
X126851613Y-107228314D01*
X126854217Y-107225542D01*
X127190943Y-106888816D01*
X127252265Y-106855334D01*
X127278623Y-106852500D01*
X133655577Y-106852500D01*
X133722616Y-106872185D01*
X133743258Y-106888819D01*
X139779458Y-112925019D01*
X139812943Y-112986342D01*
X139807959Y-113056034D01*
X139766087Y-113111967D01*
X139700623Y-113136384D01*
X139691777Y-113136700D01*
X134874237Y-113136700D01*
X134807198Y-113117015D01*
X134798750Y-113111076D01*
X134796903Y-113109659D01*
X134796902Y-113109657D01*
X134671461Y-113013403D01*
X134525382Y-112952895D01*
X134525380Y-112952894D01*
X134368621Y-112932257D01*
X134368619Y-112932257D01*
X134211859Y-112952894D01*
X134211857Y-112952895D01*
X134065780Y-113013402D01*
X133940338Y-113109657D01*
X133844083Y-113235099D01*
X133783576Y-113381176D01*
X133783575Y-113381178D01*
X133762938Y-113537937D01*
X133762938Y-113537940D01*
X133783575Y-113694699D01*
X133783576Y-113694701D01*
X133809823Y-113758068D01*
X133844084Y-113840780D01*
X133940338Y-113966221D01*
X134065779Y-114062475D01*
X134211858Y-114122983D01*
X134278207Y-114131718D01*
X134368619Y-114143621D01*
X134368620Y-114143621D01*
X134368621Y-114143621D01*
X134420873Y-114136741D01*
X134525382Y-114122983D01*
X134671461Y-114062475D01*
X134677473Y-114057861D01*
X134742641Y-114032667D01*
X134811086Y-114046704D01*
X134861076Y-114095517D01*
X134876741Y-114163609D01*
X134867521Y-114203689D01*
X134839957Y-114270234D01*
X134839955Y-114270239D01*
X134819318Y-114426998D01*
X134819318Y-114427001D01*
X134839955Y-114583760D01*
X134839956Y-114583762D01*
X134900464Y-114729841D01*
X134996718Y-114855282D01*
X135122159Y-114951536D01*
X135268238Y-115012044D01*
X135346618Y-115022362D01*
X135424999Y-115032682D01*
X135425000Y-115032682D01*
X135425001Y-115032682D01*
X135477253Y-115025802D01*
X135581762Y-115012044D01*
X135727841Y-114951536D01*
X135853282Y-114855282D01*
X135875741Y-114826011D01*
X135932168Y-114784811D01*
X135974116Y-114777500D01*
X136310844Y-114777500D01*
X136377883Y-114797185D01*
X136423638Y-114849989D01*
X136433582Y-114919147D01*
X136409220Y-114976986D01*
X136381464Y-115013157D01*
X136320956Y-115159237D01*
X136320955Y-115159239D01*
X136300318Y-115315998D01*
X136300318Y-115316001D01*
X136320955Y-115472760D01*
X136320956Y-115472762D01*
X136381464Y-115618841D01*
X136477718Y-115744282D01*
X136603159Y-115840536D01*
X136749238Y-115901044D01*
X136906000Y-115921682D01*
X136942577Y-115916866D01*
X137011609Y-115927631D01*
X137046442Y-115952124D01*
X140532381Y-119438062D01*
X140565866Y-119499385D01*
X140568700Y-119525743D01*
X140568700Y-122639867D01*
X140549015Y-122706906D01*
X140543654Y-122714594D01*
X140450327Y-122838178D01*
X140359422Y-123020739D01*
X140359417Y-123020752D01*
X140303602Y-123216917D01*
X140284785Y-123419999D01*
X140284785Y-123420000D01*
X140303602Y-123623082D01*
X140359417Y-123819247D01*
X140359422Y-123819260D01*
X140450328Y-124001824D01*
X140494845Y-124060774D01*
X140519537Y-124126135D01*
X140504972Y-124194470D01*
X140455774Y-124244082D01*
X140395891Y-124259500D01*
X139844109Y-124259500D01*
X139777070Y-124239815D01*
X139731315Y-124187011D01*
X139721371Y-124117853D01*
X139745155Y-124060774D01*
X139789671Y-124001824D01*
X139789671Y-124001822D01*
X139789673Y-124001821D01*
X139880582Y-123819250D01*
X139936397Y-123623083D01*
X139955215Y-123420000D01*
X139936397Y-123216917D01*
X139880582Y-123020750D01*
X139789673Y-122838179D01*
X139696346Y-122714594D01*
X139666762Y-122675418D01*
X139516041Y-122538019D01*
X139516039Y-122538017D01*
X139342642Y-122430655D01*
X139342639Y-122430653D01*
X139342637Y-122430652D01*
X139342636Y-122430651D01*
X139342635Y-122430651D01*
X139200499Y-122375588D01*
X139152456Y-122356976D01*
X138951976Y-122319500D01*
X138748024Y-122319500D01*
X138547544Y-122356976D01*
X138547541Y-122356976D01*
X138547541Y-122356977D01*
X138357364Y-122430651D01*
X138357357Y-122430655D01*
X138183960Y-122538017D01*
X138183958Y-122538019D01*
X138033237Y-122675418D01*
X137910327Y-122838178D01*
X137819422Y-123020739D01*
X137819417Y-123020752D01*
X137763602Y-123216917D01*
X137744785Y-123419999D01*
X137744785Y-123420000D01*
X137763602Y-123623082D01*
X137819417Y-123819247D01*
X137819422Y-123819260D01*
X137910328Y-124001824D01*
X137954845Y-124060774D01*
X137979537Y-124126135D01*
X137964972Y-124194470D01*
X137915774Y-124244082D01*
X137855891Y-124259500D01*
X137304109Y-124259500D01*
X137237070Y-124239815D01*
X137191315Y-124187011D01*
X137181371Y-124117853D01*
X137205155Y-124060774D01*
X137249671Y-124001824D01*
X137249671Y-124001822D01*
X137249673Y-124001821D01*
X137340582Y-123819250D01*
X137396397Y-123623083D01*
X137415215Y-123420000D01*
X137396397Y-123216917D01*
X137340582Y-123020750D01*
X137249673Y-122838179D01*
X137156346Y-122714594D01*
X137126762Y-122675418D01*
X136976041Y-122538019D01*
X136976039Y-122538017D01*
X136802642Y-122430655D01*
X136802639Y-122430653D01*
X136802637Y-122430652D01*
X136802636Y-122430651D01*
X136802635Y-122430651D01*
X136660499Y-122375588D01*
X136612456Y-122356976D01*
X136411976Y-122319500D01*
X136208024Y-122319500D01*
X136007544Y-122356976D01*
X136007541Y-122356976D01*
X136007541Y-122356977D01*
X135817364Y-122430651D01*
X135817357Y-122430655D01*
X135643960Y-122538017D01*
X135643958Y-122538019D01*
X135493237Y-122675418D01*
X135370327Y-122838178D01*
X135279422Y-123020739D01*
X135279417Y-123020752D01*
X135223602Y-123216917D01*
X135204785Y-123419999D01*
X135204785Y-123420000D01*
X135223602Y-123623082D01*
X135279417Y-123819247D01*
X135279422Y-123819260D01*
X135370328Y-124001824D01*
X135414845Y-124060774D01*
X135439537Y-124126135D01*
X135424972Y-124194470D01*
X135375774Y-124244082D01*
X135315891Y-124259500D01*
X134764109Y-124259500D01*
X134697070Y-124239815D01*
X134651315Y-124187011D01*
X134641371Y-124117853D01*
X134665155Y-124060774D01*
X134709671Y-124001824D01*
X134709671Y-124001822D01*
X134709673Y-124001821D01*
X134800582Y-123819250D01*
X134856397Y-123623083D01*
X134875215Y-123420000D01*
X134856397Y-123216917D01*
X134800582Y-123020750D01*
X134709673Y-122838179D01*
X134616346Y-122714594D01*
X134586762Y-122675418D01*
X134436041Y-122538019D01*
X134436039Y-122538017D01*
X134262642Y-122430655D01*
X134262639Y-122430653D01*
X134262637Y-122430652D01*
X134262636Y-122430651D01*
X134262635Y-122430651D01*
X134120499Y-122375588D01*
X134072456Y-122356976D01*
X133871976Y-122319500D01*
X133668024Y-122319500D01*
X133467544Y-122356976D01*
X133467541Y-122356976D01*
X133467541Y-122356977D01*
X133277364Y-122430651D01*
X133277357Y-122430655D01*
X133103960Y-122538017D01*
X133103958Y-122538019D01*
X132953237Y-122675418D01*
X132830327Y-122838178D01*
X132739422Y-123020739D01*
X132739417Y-123020752D01*
X132683602Y-123216917D01*
X132664785Y-123419999D01*
X132664785Y-123420000D01*
X132683602Y-123623082D01*
X132739417Y-123819247D01*
X132739422Y-123819260D01*
X132830327Y-124001821D01*
X132871674Y-124056573D01*
X132896366Y-124121934D01*
X132881801Y-124190269D01*
X132832604Y-124239881D01*
X132772720Y-124255300D01*
X132711997Y-124255300D01*
X132657687Y-124261138D01*
X132606181Y-124272343D01*
X132606172Y-124272346D01*
X132579807Y-124279579D01*
X132579802Y-124279581D01*
X132522879Y-124311995D01*
X132454882Y-124328062D01*
X132404045Y-124314116D01*
X132349021Y-124285333D01*
X132281990Y-124265651D01*
X132281981Y-124265649D01*
X132208808Y-124255128D01*
X132145253Y-124226102D01*
X132107479Y-124167324D01*
X132107479Y-124097454D01*
X132127501Y-124057665D01*
X132169673Y-124001821D01*
X132260582Y-123819250D01*
X132316397Y-123623083D01*
X132335215Y-123420000D01*
X132316397Y-123216917D01*
X132260582Y-123020750D01*
X132169673Y-122838179D01*
X132076346Y-122714594D01*
X132046762Y-122675418D01*
X131896041Y-122538019D01*
X131896039Y-122538017D01*
X131722642Y-122430655D01*
X131722639Y-122430653D01*
X131722637Y-122430652D01*
X131722636Y-122430651D01*
X131722635Y-122430651D01*
X131580499Y-122375588D01*
X131532456Y-122356976D01*
X131331976Y-122319500D01*
X131128024Y-122319500D01*
X130927544Y-122356976D01*
X130927541Y-122356976D01*
X130927541Y-122356977D01*
X130737364Y-122430651D01*
X130737357Y-122430655D01*
X130563960Y-122538017D01*
X130563958Y-122538019D01*
X130413237Y-122675418D01*
X130290327Y-122838178D01*
X130199422Y-123020739D01*
X130199417Y-123020752D01*
X130143602Y-123216917D01*
X130124785Y-123419999D01*
X130124785Y-123420000D01*
X130143602Y-123623082D01*
X130199417Y-123819247D01*
X130199422Y-123819260D01*
X130290327Y-124001821D01*
X130331674Y-124056573D01*
X130356366Y-124121934D01*
X130341801Y-124190269D01*
X130292604Y-124239881D01*
X130232720Y-124255300D01*
X130197388Y-124255300D01*
X130171294Y-124258105D01*
X130165855Y-124258449D01*
X130132584Y-124259087D01*
X130111043Y-124259500D01*
X129684109Y-124259500D01*
X129617070Y-124239815D01*
X129571315Y-124187011D01*
X129561371Y-124117853D01*
X129585155Y-124060774D01*
X129629671Y-124001824D01*
X129629671Y-124001822D01*
X129629673Y-124001821D01*
X129720582Y-123819250D01*
X129776397Y-123623083D01*
X129795215Y-123420000D01*
X129776397Y-123216917D01*
X129720582Y-123020750D01*
X129629673Y-122838179D01*
X129536346Y-122714594D01*
X129506762Y-122675418D01*
X129356041Y-122538019D01*
X129356039Y-122538017D01*
X129182642Y-122430655D01*
X129182639Y-122430653D01*
X129182637Y-122430652D01*
X129182636Y-122430651D01*
X129182635Y-122430651D01*
X129040499Y-122375588D01*
X128992456Y-122356976D01*
X128791976Y-122319500D01*
X128588024Y-122319500D01*
X128387544Y-122356976D01*
X128387541Y-122356976D01*
X128387541Y-122356977D01*
X128197364Y-122430651D01*
X128197357Y-122430655D01*
X128023960Y-122538017D01*
X128023958Y-122538019D01*
X127873237Y-122675418D01*
X127750327Y-122838178D01*
X127659422Y-123020739D01*
X127659417Y-123020752D01*
X127603602Y-123216917D01*
X127584785Y-123419999D01*
X127584785Y-123420000D01*
X127603602Y-123623082D01*
X127659417Y-123819247D01*
X127659422Y-123819260D01*
X127750328Y-124001824D01*
X127794845Y-124060774D01*
X127819537Y-124126135D01*
X127804972Y-124194470D01*
X127755774Y-124244082D01*
X127695891Y-124259500D01*
X127144109Y-124259500D01*
X127077070Y-124239815D01*
X127031315Y-124187011D01*
X127021371Y-124117853D01*
X127045155Y-124060774D01*
X127089671Y-124001824D01*
X127089671Y-124001822D01*
X127089673Y-124001821D01*
X127180582Y-123819250D01*
X127236397Y-123623083D01*
X127255215Y-123420000D01*
X127236397Y-123216917D01*
X127180582Y-123020750D01*
X127089673Y-122838179D01*
X126996346Y-122714594D01*
X126966762Y-122675418D01*
X126816041Y-122538019D01*
X126816039Y-122538017D01*
X126642642Y-122430655D01*
X126642639Y-122430653D01*
X126642637Y-122430652D01*
X126642636Y-122430651D01*
X126642635Y-122430651D01*
X126500499Y-122375588D01*
X126452456Y-122356976D01*
X126251976Y-122319500D01*
X126048024Y-122319500D01*
X125847544Y-122356976D01*
X125847541Y-122356976D01*
X125847541Y-122356977D01*
X125657364Y-122430651D01*
X125657357Y-122430655D01*
X125483960Y-122538017D01*
X125483958Y-122538019D01*
X125333237Y-122675418D01*
X125210327Y-122838178D01*
X125119422Y-123020739D01*
X125119417Y-123020752D01*
X125063602Y-123216917D01*
X125044785Y-123419999D01*
X125044785Y-123420000D01*
X125063602Y-123623082D01*
X125119417Y-123819247D01*
X125119422Y-123819260D01*
X125210328Y-124001824D01*
X125254845Y-124060774D01*
X125279537Y-124126135D01*
X125264972Y-124194470D01*
X125215774Y-124244082D01*
X125155891Y-124259500D01*
X124604109Y-124259500D01*
X124537070Y-124239815D01*
X124491315Y-124187011D01*
X124481371Y-124117853D01*
X124505155Y-124060774D01*
X124549671Y-124001824D01*
X124549671Y-124001822D01*
X124549673Y-124001821D01*
X124640582Y-123819250D01*
X124696397Y-123623083D01*
X124715215Y-123420000D01*
X124696397Y-123216917D01*
X124640582Y-123020750D01*
X124549673Y-122838179D01*
X124456346Y-122714594D01*
X124426762Y-122675418D01*
X124276041Y-122538019D01*
X124276039Y-122538017D01*
X124102642Y-122430655D01*
X124102639Y-122430653D01*
X124102637Y-122430652D01*
X124102636Y-122430651D01*
X124102635Y-122430651D01*
X123960499Y-122375588D01*
X123912456Y-122356976D01*
X123711976Y-122319500D01*
X123508024Y-122319500D01*
X123307544Y-122356976D01*
X123307541Y-122356976D01*
X123307541Y-122356977D01*
X123117364Y-122430651D01*
X123117357Y-122430655D01*
X122943960Y-122538017D01*
X122943958Y-122538019D01*
X122793237Y-122675418D01*
X122670327Y-122838178D01*
X122579422Y-123020739D01*
X122579417Y-123020752D01*
X122523602Y-123216917D01*
X122504785Y-123419999D01*
X122504785Y-123420000D01*
X122523602Y-123623082D01*
X122579417Y-123819247D01*
X122579422Y-123819260D01*
X122670328Y-124001824D01*
X122714845Y-124060774D01*
X122739537Y-124126135D01*
X122724972Y-124194470D01*
X122675774Y-124244082D01*
X122615891Y-124259500D01*
X122064109Y-124259500D01*
X121997070Y-124239815D01*
X121951315Y-124187011D01*
X121941371Y-124117853D01*
X121965155Y-124060774D01*
X122009671Y-124001824D01*
X122009671Y-124001822D01*
X122009673Y-124001821D01*
X122100582Y-123819250D01*
X122156397Y-123623083D01*
X122175215Y-123420000D01*
X122156397Y-123216917D01*
X122100582Y-123020750D01*
X122009673Y-122838179D01*
X121916346Y-122714594D01*
X121886762Y-122675418D01*
X121736041Y-122538019D01*
X121736039Y-122538017D01*
X121562642Y-122430655D01*
X121562639Y-122430653D01*
X121562637Y-122430652D01*
X121562636Y-122430651D01*
X121562635Y-122430651D01*
X121420499Y-122375588D01*
X121372456Y-122356976D01*
X121171976Y-122319500D01*
X120968024Y-122319500D01*
X120767544Y-122356976D01*
X120767541Y-122356976D01*
X120767541Y-122356977D01*
X120577364Y-122430651D01*
X120577357Y-122430655D01*
X120403960Y-122538017D01*
X120403958Y-122538019D01*
X120253237Y-122675418D01*
X120130327Y-122838178D01*
X120039422Y-123020739D01*
X120039417Y-123020752D01*
X119983602Y-123216917D01*
X119964785Y-123419999D01*
X119964785Y-123420000D01*
X119983602Y-123623082D01*
X120039417Y-123819247D01*
X120039422Y-123819260D01*
X120130328Y-124001824D01*
X120174845Y-124060774D01*
X120199537Y-124126135D01*
X120184972Y-124194470D01*
X120135774Y-124244082D01*
X120075891Y-124259500D01*
X119754500Y-124259500D01*
X119687461Y-124239815D01*
X119641706Y-124187011D01*
X119630500Y-124135500D01*
X119630500Y-123419999D01*
X119630500Y-122545326D01*
X119615966Y-122472260D01*
X119560601Y-122389399D01*
X119477740Y-122334034D01*
X119477739Y-122334033D01*
X119477735Y-122334032D01*
X119404677Y-122319500D01*
X119404674Y-122319500D01*
X117655326Y-122319500D01*
X117655323Y-122319500D01*
X117582264Y-122334032D01*
X117582260Y-122334033D01*
X117499399Y-122389399D01*
X117444033Y-122472260D01*
X117444032Y-122472264D01*
X117429500Y-122545321D01*
X117429500Y-124294678D01*
X117444032Y-124367735D01*
X117444034Y-124367740D01*
X117499399Y-124450601D01*
X117499400Y-124450601D01*
X117503948Y-124457408D01*
X117524826Y-124524086D01*
X117506341Y-124591466D01*
X117479740Y-124621963D01*
X117347351Y-124731143D01*
X117347345Y-124731149D01*
X117173631Y-124926071D01*
X117173618Y-124926088D01*
X117031695Y-125145242D01*
X117031694Y-125145246D01*
X116924881Y-125383511D01*
X116855693Y-125635285D01*
X116825748Y-125894675D01*
X116835748Y-126155593D01*
X116885462Y-126411928D01*
X116885462Y-126411930D01*
X116973718Y-126657663D01*
X117027683Y-126756903D01*
X117062222Y-126820419D01*
X117098461Y-126887060D01*
X117128171Y-126926036D01*
X117256750Y-127094716D01*
X117444886Y-127275778D01*
X117444891Y-127275781D01*
X117444895Y-127275785D01*
X117658441Y-127425989D01*
X117658445Y-127425991D01*
X117658456Y-127425999D01*
X117890155Y-127540721D01*
X117892455Y-127541860D01*
X117954712Y-127561562D01*
X118141395Y-127620641D01*
X118399445Y-127660500D01*
X130080648Y-127660500D01*
X130088943Y-127661056D01*
X130101042Y-127662689D01*
X130180856Y-127661159D01*
X130192960Y-127661913D01*
X130192984Y-127661584D01*
X130197399Y-127661899D01*
X130197400Y-127661900D01*
X130197401Y-127661900D01*
X131085524Y-127661900D01*
X131087488Y-127661809D01*
X131097315Y-127661355D01*
X131127115Y-127658593D01*
X131131843Y-127658156D01*
X131131844Y-127658155D01*
X131131853Y-127658155D01*
X131143545Y-127656524D01*
X131143554Y-127656522D01*
X131144961Y-127656326D01*
X131144978Y-127656454D01*
X131162935Y-127655000D01*
X131297065Y-127655000D01*
X131315021Y-127656454D01*
X131315039Y-127656326D01*
X131316445Y-127656522D01*
X131316455Y-127656524D01*
X131328147Y-127658155D01*
X131328152Y-127658155D01*
X131328156Y-127658156D01*
X131338844Y-127659146D01*
X131362685Y-127661355D01*
X131372118Y-127661791D01*
X131374476Y-127661900D01*
X131374477Y-127661900D01*
X132210000Y-127661900D01*
X132264313Y-127656061D01*
X132315824Y-127644855D01*
X132342198Y-127637619D01*
X132399121Y-127605204D01*
X132467115Y-127589137D01*
X132517954Y-127603084D01*
X132572972Y-127631863D01*
X132572977Y-127631866D01*
X132617218Y-127644856D01*
X132640015Y-127651550D01*
X132640019Y-127651550D01*
X132640021Y-127651551D01*
X132651652Y-127653223D01*
X132712000Y-127661900D01*
X132712001Y-127661900D01*
X133625524Y-127661900D01*
X133627488Y-127661809D01*
X133637315Y-127661355D01*
X133667115Y-127658593D01*
X133671843Y-127658156D01*
X133671844Y-127658155D01*
X133671853Y-127658155D01*
X133683545Y-127656524D01*
X133683554Y-127656522D01*
X133684961Y-127656326D01*
X133684978Y-127656454D01*
X133702935Y-127655000D01*
X133837065Y-127655000D01*
X133855021Y-127656454D01*
X133855039Y-127656326D01*
X133856445Y-127656522D01*
X133856455Y-127656524D01*
X133868147Y-127658155D01*
X133868152Y-127658155D01*
X133868156Y-127658156D01*
X133878844Y-127659146D01*
X133902685Y-127661355D01*
X133912118Y-127661791D01*
X133914476Y-127661900D01*
X133914477Y-127661900D01*
X134496000Y-127661900D01*
X134505719Y-127660855D01*
X134512352Y-127660500D01*
X146535177Y-127660500D01*
X146730344Y-127645516D01*
X146984586Y-127586021D01*
X147045273Y-127561562D01*
X147226758Y-127488418D01*
X147226763Y-127488415D01*
X147226766Y-127488414D01*
X147451208Y-127354982D01*
X147652652Y-127188852D01*
X147826375Y-126993920D01*
X147856782Y-126946966D01*
X147968304Y-126774757D01*
X147968304Y-126774755D01*
X147968306Y-126774753D01*
X148075118Y-126536489D01*
X148144307Y-126284713D01*
X148174252Y-126025325D01*
X148164251Y-125764407D01*
X148114538Y-125508073D01*
X148069801Y-125383511D01*
X148026281Y-125262336D01*
X147962610Y-125145247D01*
X147901541Y-125032943D01*
X147743250Y-124825284D01*
X147555114Y-124644222D01*
X147555108Y-124644218D01*
X147555104Y-124644214D01*
X147341558Y-124494010D01*
X147341551Y-124494006D01*
X147341544Y-124494001D01*
X147234485Y-124440992D01*
X147183143Y-124393606D01*
X147165569Y-124325982D01*
X147187345Y-124259593D01*
X147205964Y-124238237D01*
X147286764Y-124164579D01*
X147409673Y-124001821D01*
X147500582Y-123819250D01*
X147556397Y-123623083D01*
X147575215Y-123420000D01*
X147556397Y-123216917D01*
X147500582Y-123020750D01*
X147409673Y-122838179D01*
X147286764Y-122675421D01*
X147202961Y-122599024D01*
X147166680Y-122539312D01*
X147162500Y-122507387D01*
X147162500Y-120343612D01*
X147165139Y-120318165D01*
X147167043Y-120309086D01*
X147164560Y-120289168D01*
X147162977Y-120276462D01*
X147162500Y-120268786D01*
X147162500Y-120265362D01*
X147162499Y-120265354D01*
X147162494Y-120265329D01*
X147159115Y-120245080D01*
X147158753Y-120242591D01*
X147152573Y-120193011D01*
X147152573Y-120193008D01*
X147152570Y-120193003D01*
X147150477Y-120185972D01*
X147148093Y-120179028D01*
X147148092Y-120179019D01*
X147124312Y-120135078D01*
X147123139Y-120132798D01*
X147101199Y-120087918D01*
X147096928Y-120081938D01*
X147092420Y-120076147D01*
X147092418Y-120076142D01*
X147074564Y-120059706D01*
X147055645Y-120042289D01*
X147053796Y-120040515D01*
X141290430Y-114277148D01*
X141256945Y-114215825D01*
X141261929Y-114146133D01*
X141303801Y-114090200D01*
X141369265Y-114065783D01*
X141426278Y-114075205D01*
X141452415Y-114086222D01*
X141473045Y-114094919D01*
X141473052Y-114094921D01*
X141473057Y-114094923D01*
X141499025Y-114102932D01*
X141591268Y-114131385D01*
X141593412Y-114132091D01*
X141710171Y-114172947D01*
X141757530Y-114184378D01*
X141781113Y-114190072D01*
X141784841Y-114191095D01*
X141802792Y-114196632D01*
X141854618Y-114212619D01*
X141958028Y-114233523D01*
X141975865Y-114237129D01*
X141978127Y-114237630D01*
X142098335Y-114266649D01*
X142170673Y-114276631D01*
X142174441Y-114277272D01*
X142246014Y-114291741D01*
X142326156Y-114299760D01*
X142369080Y-114304056D01*
X142371383Y-114304330D01*
X142414443Y-114310272D01*
X142493899Y-114321237D01*
X142566843Y-114323965D01*
X142570694Y-114324230D01*
X142643342Y-114331500D01*
X142643343Y-114331500D01*
X142767028Y-114331500D01*
X142769312Y-114331542D01*
X142885993Y-114335908D01*
X142892933Y-114336168D01*
X142892933Y-114336167D01*
X142892934Y-114336168D01*
X142965809Y-114331619D01*
X142969654Y-114331500D01*
X146097743Y-114331500D01*
X146221429Y-114331500D01*
X146223713Y-114331542D01*
X146340397Y-114335908D01*
X146347333Y-114336168D01*
X146347333Y-114336167D01*
X146347334Y-114336168D01*
X146420213Y-114331619D01*
X146424056Y-114331500D01*
X150721747Y-114331500D01*
X150721764Y-114331500D01*
X151020817Y-114316575D01*
X151415670Y-114257060D01*
X151802636Y-114158527D01*
X152177867Y-114021954D01*
X152537636Y-113848698D01*
X152555634Y-113837700D01*
X152878362Y-113640485D01*
X152878361Y-113640485D01*
X152878367Y-113640482D01*
X153196672Y-113399375D01*
X153489390Y-113127773D01*
X153753610Y-112828375D01*
X153986706Y-112504158D01*
X154186363Y-112158342D01*
X154350595Y-111794366D01*
X154477771Y-111415846D01*
X154566627Y-111026544D01*
X154616279Y-110630330D01*
X154626234Y-110231141D01*
X154596393Y-109832944D01*
X154527053Y-109439697D01*
X154418903Y-109055308D01*
X154370940Y-108933101D01*
X154273023Y-108683610D01*
X154273018Y-108683598D01*
X154122793Y-108390574D01*
X154090847Y-108328261D01*
X153874201Y-107992827D01*
X153625233Y-107680631D01*
X153346418Y-107394776D01*
X153337868Y-107387602D01*
X153273843Y-107333878D01*
X153040526Y-107138102D01*
X152710598Y-106913161D01*
X152710597Y-106913160D01*
X152593702Y-106849503D01*
X152359912Y-106722188D01*
X152359904Y-106722184D01*
X152359901Y-106722183D01*
X152189626Y-106650406D01*
X151991955Y-106567081D01*
X151991950Y-106567079D01*
X151991939Y-106567075D01*
X151610386Y-106449381D01*
X151610373Y-106449378D01*
X151403907Y-106407641D01*
X151342097Y-106375064D01*
X151307712Y-106314241D01*
X151311669Y-106244483D01*
X151352712Y-106187939D01*
X151417809Y-106162560D01*
X151428477Y-106162100D01*
X159883695Y-106162100D01*
X159899705Y-106163867D01*
X159899728Y-106163626D01*
X159907494Y-106164360D01*
X159907495Y-106164359D01*
X159907496Y-106164360D01*
X159914471Y-106164140D01*
X159978435Y-106162131D01*
X159980383Y-106162100D01*
X160010125Y-106162100D01*
X160017390Y-106161181D01*
X160023216Y-106160722D01*
X160071769Y-106159197D01*
X160092156Y-106153273D01*
X160111196Y-106149331D01*
X160132258Y-106146671D01*
X160177435Y-106128783D01*
X160182935Y-106126900D01*
X160229598Y-106113344D01*
X160247865Y-106102539D01*
X160265336Y-106093980D01*
X160285071Y-106086168D01*
X160324377Y-106057610D01*
X160329243Y-106054413D01*
X160371065Y-106029681D01*
X160386070Y-106014675D01*
X160400868Y-106002036D01*
X160418037Y-105989563D01*
X160449009Y-105952122D01*
X160452913Y-105947831D01*
X161905926Y-104494819D01*
X161967249Y-104461334D01*
X161993607Y-104458500D01*
X162153974Y-104458500D01*
X162153976Y-104458500D01*
X162354456Y-104421024D01*
X162544637Y-104347348D01*
X162718041Y-104239981D01*
X162868764Y-104102579D01*
X162991673Y-103939821D01*
X163082582Y-103757250D01*
X163138397Y-103561083D01*
X163157215Y-103358000D01*
X163150724Y-103287952D01*
X163164139Y-103219383D01*
X163186511Y-103188833D01*
X164762913Y-101612431D01*
X164775479Y-101602365D01*
X164775325Y-101602178D01*
X164781334Y-101597206D01*
X164781334Y-101597205D01*
X164781340Y-101597202D01*
X164785107Y-101593189D01*
X164845343Y-101557795D01*
X164915157Y-101560585D01*
X164972380Y-101600676D01*
X164998845Y-101665340D01*
X164999500Y-101678071D01*
X164999500Y-125999500D01*
X164999500Y-126000500D01*
X164999501Y-126000500D01*
X164999550Y-126000550D01*
X165002386Y-126000616D01*
X165083903Y-126004621D01*
X165388980Y-126019610D01*
X165395024Y-126020204D01*
X165684805Y-126063189D01*
X165780466Y-126077686D01*
X165786205Y-126078837D01*
X165994742Y-126131073D01*
X166035023Y-126141163D01*
X166165082Y-126174464D01*
X166170594Y-126176152D01*
X166397186Y-126257228D01*
X166538221Y-126308857D01*
X166543399Y-126311024D01*
X166753131Y-126410220D01*
X166756658Y-126411930D01*
X166896177Y-126479530D01*
X166901018Y-126482146D01*
X167095156Y-126598508D01*
X167122885Y-126615564D01*
X167235473Y-126684819D01*
X167239925Y-126687830D01*
X167418701Y-126820419D01*
X167552743Y-126922681D01*
X167556764Y-126926026D01*
X167719677Y-127073681D01*
X167844892Y-127190794D01*
X167848451Y-127194409D01*
X167953387Y-127310188D01*
X167994739Y-127355813D01*
X168109003Y-127486473D01*
X168112133Y-127490356D01*
X168240954Y-127664051D01*
X168342552Y-127806878D01*
X168345210Y-127810944D01*
X168455367Y-127994732D01*
X168456053Y-127995905D01*
X168543197Y-128148802D01*
X168545380Y-128152996D01*
X168636547Y-128345752D01*
X168637168Y-128347106D01*
X168708990Y-128508906D01*
X168710698Y-128513175D01*
X168782236Y-128713110D01*
X168782762Y-128714641D01*
X168838292Y-128883620D01*
X168839533Y-128887913D01*
X168890953Y-129093198D01*
X168891354Y-129094899D01*
X168929849Y-129269303D01*
X168930636Y-129273570D01*
X168961600Y-129482314D01*
X168961847Y-129484176D01*
X168982755Y-129662104D01*
X168983104Y-129666298D01*
X168993437Y-129876610D01*
X168993503Y-129878617D01*
X168996504Y-130058220D01*
X168996438Y-130062299D01*
X168986126Y-130272198D01*
X168985985Y-130274331D01*
X168970963Y-130453708D01*
X168970508Y-130457632D01*
X168939724Y-130665162D01*
X168939350Y-130667397D01*
X168906383Y-130844719D01*
X168905569Y-130848451D01*
X168854663Y-131051681D01*
X168854036Y-131053994D01*
X168803408Y-131227392D01*
X168802268Y-131230903D01*
X168731771Y-131427928D01*
X168730872Y-131430288D01*
X168663064Y-131597942D01*
X168661634Y-131601204D01*
X168572218Y-131790257D01*
X168571032Y-131792632D01*
X168486720Y-131952775D01*
X168485037Y-131955767D01*
X168377598Y-132135016D01*
X168376114Y-132137371D01*
X168276137Y-132288362D01*
X168274241Y-132291066D01*
X168149780Y-132458882D01*
X168147989Y-132461182D01*
X168033365Y-132601446D01*
X168031295Y-132603851D01*
X167891037Y-132758603D01*
X167888938Y-132760807D01*
X167760807Y-132888938D01*
X167758603Y-132891037D01*
X167603851Y-133031295D01*
X167601446Y-133033365D01*
X167461182Y-133147989D01*
X167458882Y-133149780D01*
X167291066Y-133274241D01*
X167288362Y-133276137D01*
X167137371Y-133376114D01*
X167135016Y-133377598D01*
X166955767Y-133485037D01*
X166952775Y-133486720D01*
X166792632Y-133571032D01*
X166790257Y-133572218D01*
X166601204Y-133661634D01*
X166597942Y-133663064D01*
X166430288Y-133730872D01*
X166427928Y-133731771D01*
X166230903Y-133802268D01*
X166227392Y-133803408D01*
X166053994Y-133854036D01*
X166051681Y-133854663D01*
X165848451Y-133905569D01*
X165844719Y-133906383D01*
X165667397Y-133939350D01*
X165665162Y-133939724D01*
X165457632Y-133970508D01*
X165453711Y-133970962D01*
X165385100Y-133976708D01*
X165274331Y-133985985D01*
X165272198Y-133986126D01*
X165062299Y-133996438D01*
X165058220Y-133996504D01*
X164878617Y-133993503D01*
X164876610Y-133993437D01*
X164666298Y-133983104D01*
X164662104Y-133982755D01*
X164484176Y-133961847D01*
X164482314Y-133961600D01*
X164273570Y-133930636D01*
X164269303Y-133929849D01*
X164094899Y-133891354D01*
X164093198Y-133890953D01*
X163887913Y-133839533D01*
X163883620Y-133838292D01*
X163714626Y-133782757D01*
X163713110Y-133782236D01*
X163513175Y-133710698D01*
X163508906Y-133708990D01*
X163347106Y-133637168D01*
X163345752Y-133636547D01*
X163152996Y-133545380D01*
X163148802Y-133543197D01*
X162995905Y-133456053D01*
X162994732Y-133455367D01*
X162810944Y-133345210D01*
X162806878Y-133342552D01*
X162788688Y-133329613D01*
X162710846Y-133274241D01*
X162664051Y-133240954D01*
X162490356Y-133112133D01*
X162486473Y-133109003D01*
X162355813Y-132994739D01*
X162326035Y-132967750D01*
X162194409Y-132848451D01*
X162190794Y-132844892D01*
X162073677Y-132719673D01*
X161926026Y-132556764D01*
X161922681Y-132552743D01*
X161820419Y-132418701D01*
X161687830Y-132239925D01*
X161684819Y-132235473D01*
X161598531Y-132095195D01*
X161482146Y-131901018D01*
X161479530Y-131896177D01*
X161429360Y-131792632D01*
X161410190Y-131753067D01*
X161311024Y-131543399D01*
X161308857Y-131538221D01*
X161257207Y-131397128D01*
X161176152Y-131170594D01*
X161174464Y-131165082D01*
X161141163Y-131035023D01*
X161093494Y-130844719D01*
X161078837Y-130786205D01*
X161077686Y-130780466D01*
X161063169Y-130684669D01*
X161020204Y-130395024D01*
X161019610Y-130388980D01*
X161000619Y-130002425D01*
X161000565Y-130000002D01*
X161544432Y-130000002D01*
X161564688Y-130373610D01*
X161625222Y-130742850D01*
X161625223Y-130742853D01*
X161725317Y-131103362D01*
X161725318Y-131103364D01*
X161863806Y-131450945D01*
X161863815Y-131450963D01*
X162039073Y-131781534D01*
X162249045Y-132091219D01*
X162249052Y-132091229D01*
X162418796Y-132291066D01*
X162491273Y-132376392D01*
X162762913Y-132633703D01*
X163060780Y-132860136D01*
X163060785Y-132860139D01*
X163060789Y-132860142D01*
X163060794Y-132860146D01*
X163284492Y-132994739D01*
X163381383Y-133053036D01*
X163381387Y-133053037D01*
X163381391Y-133053040D01*
X163720951Y-133210137D01*
X163720962Y-133210142D01*
X164075538Y-133329613D01*
X164440951Y-133410046D01*
X164812919Y-133450500D01*
X164812925Y-133450500D01*
X165187075Y-133450500D01*
X165187081Y-133450500D01*
X165559049Y-133410046D01*
X165924462Y-133329613D01*
X166279038Y-133210142D01*
X166618617Y-133053036D01*
X166760364Y-132967750D01*
X166939205Y-132860146D01*
X166939210Y-132860142D01*
X166939209Y-132860142D01*
X166939220Y-132860136D01*
X167237087Y-132633703D01*
X167508727Y-132376392D01*
X167750954Y-132091221D01*
X167960928Y-131781531D01*
X168136189Y-131450955D01*
X168274680Y-131103368D01*
X168374779Y-130742845D01*
X168435311Y-130373613D01*
X168455568Y-130000000D01*
X168455543Y-129999547D01*
X168437475Y-129666298D01*
X168435311Y-129626387D01*
X168374779Y-129257155D01*
X168310817Y-129026785D01*
X168274682Y-128896637D01*
X168274681Y-128896635D01*
X168269495Y-128883620D01*
X168136189Y-128549045D01*
X167960928Y-128218469D01*
X167960926Y-128218465D01*
X167853369Y-128059830D01*
X167750954Y-127908779D01*
X167750950Y-127908774D01*
X167750947Y-127908770D01*
X167508727Y-127623608D01*
X167237087Y-127366297D01*
X167237086Y-127366296D01*
X167118009Y-127275776D01*
X166939220Y-127139864D01*
X166939216Y-127139861D01*
X166939210Y-127139857D01*
X166939205Y-127139853D01*
X166618621Y-126946966D01*
X166618608Y-126946959D01*
X166279048Y-126789862D01*
X166279043Y-126789860D01*
X166279038Y-126789858D01*
X166106203Y-126731623D01*
X165924461Y-126670386D01*
X165559047Y-126589953D01*
X165187082Y-126549500D01*
X165187081Y-126549500D01*
X164812919Y-126549500D01*
X164812917Y-126549500D01*
X164440952Y-126589953D01*
X164075538Y-126670386D01*
X163801440Y-126762741D01*
X163720962Y-126789858D01*
X163720959Y-126789859D01*
X163720951Y-126789862D01*
X163381391Y-126946959D01*
X163381378Y-126946966D01*
X163060794Y-127139853D01*
X163060789Y-127139857D01*
X162762913Y-127366296D01*
X162762912Y-127366297D01*
X162491272Y-127623608D01*
X162249052Y-127908770D01*
X162249045Y-127908780D01*
X162039073Y-128218465D01*
X161863815Y-128549036D01*
X161863806Y-128549054D01*
X161725318Y-128896635D01*
X161725317Y-128896637D01*
X161625223Y-129257146D01*
X161625222Y-129257149D01*
X161564688Y-129626389D01*
X161544432Y-129999997D01*
X161544432Y-130000002D01*
X161000565Y-130000002D01*
X161000555Y-129999555D01*
X161000500Y-129999500D01*
X161000099Y-129999500D01*
X104000500Y-129999500D01*
X103999500Y-129999500D01*
X103999452Y-129999547D01*
X103999385Y-130002319D01*
X103980389Y-130388977D01*
X103979793Y-130395035D01*
X103936830Y-130684669D01*
X103922317Y-130780441D01*
X103921158Y-130786219D01*
X103858835Y-131035023D01*
X103825534Y-131165082D01*
X103823846Y-131170594D01*
X103742786Y-131397142D01*
X103691147Y-131538206D01*
X103688971Y-131543404D01*
X103589808Y-131753067D01*
X103520468Y-131896177D01*
X103517851Y-131901019D01*
X103401490Y-132095157D01*
X103315179Y-132235473D01*
X103312168Y-132239925D01*
X103179579Y-132418701D01*
X103077317Y-132552743D01*
X103073962Y-132556776D01*
X102926321Y-132719673D01*
X102809218Y-132844878D01*
X102805572Y-132848468D01*
X102644185Y-132994739D01*
X102513525Y-133109003D01*
X102509642Y-133112133D01*
X102335947Y-133240954D01*
X102193120Y-133342552D01*
X102189054Y-133345210D01*
X102005266Y-133455367D01*
X102004093Y-133456053D01*
X101851196Y-133543197D01*
X101847002Y-133545380D01*
X101654246Y-133636547D01*
X101652892Y-133637168D01*
X101491092Y-133708990D01*
X101486823Y-133710698D01*
X101286888Y-133782236D01*
X101285357Y-133782762D01*
X101116378Y-133838292D01*
X101112085Y-133839533D01*
X100906800Y-133890953D01*
X100905099Y-133891354D01*
X100730695Y-133929849D01*
X100726428Y-133930636D01*
X100517684Y-133961600D01*
X100515822Y-133961847D01*
X100337894Y-133982755D01*
X100333700Y-133983104D01*
X100123388Y-133993437D01*
X100121381Y-133993503D01*
X99941778Y-133996504D01*
X99937699Y-133996438D01*
X99727800Y-133986126D01*
X99725667Y-133985985D01*
X99687098Y-133982755D01*
X99546280Y-133970961D01*
X99542366Y-133970508D01*
X99334836Y-133939724D01*
X99332601Y-133939350D01*
X99155279Y-133906383D01*
X99151547Y-133905569D01*
X98948317Y-133854663D01*
X98946004Y-133854036D01*
X98772606Y-133803408D01*
X98769095Y-133802268D01*
X98572070Y-133731771D01*
X98569710Y-133730872D01*
X98402056Y-133663064D01*
X98398794Y-133661634D01*
X98209741Y-133572218D01*
X98207366Y-133571032D01*
X98047223Y-133486720D01*
X98044231Y-133485037D01*
X97864982Y-133377598D01*
X97862627Y-133376114D01*
X97786776Y-133325890D01*
X97711608Y-133276117D01*
X97708932Y-133274241D01*
X97541116Y-133149780D01*
X97538859Y-133148022D01*
X97398552Y-133033365D01*
X97396147Y-133031295D01*
X97241395Y-132891037D01*
X97239191Y-132888938D01*
X97111060Y-132760807D01*
X97108961Y-132758603D01*
X96968703Y-132603851D01*
X96966633Y-132601446D01*
X96851967Y-132461128D01*
X96850234Y-132458902D01*
X96725744Y-132291048D01*
X96723892Y-132288406D01*
X96623884Y-132137371D01*
X96622400Y-132135016D01*
X96559727Y-132030455D01*
X96514951Y-131955749D01*
X96513288Y-131952793D01*
X96428961Y-131792623D01*
X96427780Y-131790257D01*
X96391002Y-131712497D01*
X96338356Y-131601186D01*
X96336945Y-131597968D01*
X96269122Y-131430277D01*
X96268242Y-131427969D01*
X96197720Y-131230873D01*
X96196602Y-131227431D01*
X96145954Y-131053964D01*
X96145335Y-131051681D01*
X96141162Y-131035023D01*
X96094429Y-130848451D01*
X96093618Y-130844735D01*
X96060640Y-130667352D01*
X96060286Y-130665236D01*
X96029484Y-130457584D01*
X96029042Y-130453773D01*
X96014006Y-130274228D01*
X96013872Y-130272198D01*
X96010155Y-130196532D01*
X96003559Y-130062280D01*
X96003494Y-130058238D01*
X96004467Y-130000002D01*
X96544432Y-130000002D01*
X96564688Y-130373610D01*
X96625222Y-130742850D01*
X96625223Y-130742853D01*
X96725317Y-131103362D01*
X96725318Y-131103364D01*
X96863806Y-131450945D01*
X96863815Y-131450963D01*
X97039073Y-131781534D01*
X97249045Y-132091219D01*
X97249052Y-132091229D01*
X97418796Y-132291066D01*
X97491273Y-132376392D01*
X97762913Y-132633703D01*
X98060780Y-132860136D01*
X98060785Y-132860139D01*
X98060789Y-132860142D01*
X98060794Y-132860146D01*
X98284492Y-132994739D01*
X98381383Y-133053036D01*
X98381387Y-133053037D01*
X98381391Y-133053040D01*
X98720951Y-133210137D01*
X98720962Y-133210142D01*
X99075538Y-133329613D01*
X99440951Y-133410046D01*
X99812919Y-133450500D01*
X99812925Y-133450500D01*
X100187075Y-133450500D01*
X100187081Y-133450500D01*
X100559049Y-133410046D01*
X100924462Y-133329613D01*
X101279038Y-133210142D01*
X101618617Y-133053036D01*
X101760364Y-132967750D01*
X101939205Y-132860146D01*
X101939210Y-132860142D01*
X101939209Y-132860142D01*
X101939220Y-132860136D01*
X102237087Y-132633703D01*
X102508727Y-132376392D01*
X102750954Y-132091221D01*
X102960928Y-131781531D01*
X103136189Y-131450955D01*
X103274680Y-131103368D01*
X103374779Y-130742845D01*
X103435311Y-130373613D01*
X103455568Y-130000000D01*
X103455543Y-129999547D01*
X103437475Y-129666298D01*
X103435311Y-129626387D01*
X103374779Y-129257155D01*
X103310817Y-129026785D01*
X103274682Y-128896637D01*
X103274681Y-128896635D01*
X103269495Y-128883620D01*
X103136189Y-128549045D01*
X102960928Y-128218469D01*
X102960926Y-128218465D01*
X102853369Y-128059830D01*
X102750954Y-127908779D01*
X102750950Y-127908774D01*
X102750947Y-127908770D01*
X102508727Y-127623608D01*
X102237087Y-127366297D01*
X102237086Y-127366296D01*
X102118009Y-127275776D01*
X101939220Y-127139864D01*
X101939216Y-127139861D01*
X101939210Y-127139857D01*
X101939205Y-127139853D01*
X101618621Y-126946966D01*
X101618608Y-126946959D01*
X101279048Y-126789862D01*
X101279043Y-126789860D01*
X101279038Y-126789858D01*
X101106203Y-126731623D01*
X100924461Y-126670386D01*
X100559047Y-126589953D01*
X100187082Y-126549500D01*
X100187081Y-126549500D01*
X99812919Y-126549500D01*
X99812917Y-126549500D01*
X99440952Y-126589953D01*
X99075538Y-126670386D01*
X98801440Y-126762741D01*
X98720962Y-126789858D01*
X98720959Y-126789859D01*
X98720951Y-126789862D01*
X98381391Y-126946959D01*
X98381378Y-126946966D01*
X98060794Y-127139853D01*
X98060789Y-127139857D01*
X97762913Y-127366296D01*
X97762912Y-127366297D01*
X97491272Y-127623608D01*
X97249052Y-127908770D01*
X97249045Y-127908780D01*
X97039073Y-128218465D01*
X96863815Y-128549036D01*
X96863806Y-128549054D01*
X96725318Y-128896635D01*
X96725317Y-128896637D01*
X96625223Y-129257146D01*
X96625222Y-129257149D01*
X96564688Y-129626389D01*
X96544432Y-129999997D01*
X96544432Y-130000002D01*
X96004467Y-130000002D01*
X96006496Y-129878565D01*
X96006559Y-129876663D01*
X96016893Y-129666298D01*
X96017243Y-129662104D01*
X96021440Y-129626389D01*
X96038157Y-129484126D01*
X96038384Y-129482418D01*
X96069369Y-129273526D01*
X96070145Y-129269320D01*
X96108644Y-129094897D01*
X96109045Y-129093198D01*
X96160475Y-128887876D01*
X96161690Y-128883674D01*
X96217286Y-128714492D01*
X96217722Y-128713223D01*
X96289316Y-128513133D01*
X96290990Y-128508950D01*
X96362895Y-128346963D01*
X96363400Y-128345862D01*
X96454631Y-128152969D01*
X96456784Y-128148832D01*
X96543968Y-127995865D01*
X96544631Y-127994732D01*
X96576926Y-127940851D01*
X96654804Y-127810918D01*
X96657419Y-127806917D01*
X96759045Y-127664051D01*
X96887883Y-127490332D01*
X96890977Y-127486494D01*
X97005234Y-127355842D01*
X97151571Y-127194384D01*
X97155082Y-127190818D01*
X97280321Y-127073682D01*
X97443257Y-126926006D01*
X97447237Y-126922695D01*
X97581298Y-126820419D01*
X97760078Y-126687826D01*
X97764525Y-126684819D01*
X97808673Y-126657663D01*
X97904788Y-126598541D01*
X98098999Y-126482135D01*
X98103806Y-126479537D01*
X98246888Y-126410211D01*
X98456616Y-126311017D01*
X98461762Y-126308863D01*
X98602750Y-126257250D01*
X98829416Y-126176148D01*
X98834906Y-126174467D01*
X98964840Y-126141196D01*
X99213802Y-126078835D01*
X99219525Y-126077687D01*
X99315128Y-126063198D01*
X99604977Y-126020204D01*
X99611019Y-126019610D01*
X99997635Y-126000616D01*
X100000452Y-126000547D01*
X100000500Y-126000500D01*
X100000500Y-96545400D01*
X102641817Y-96545400D01*
X102662099Y-96751332D01*
X102677239Y-96801241D01*
X102722168Y-96949354D01*
X102819715Y-97131850D01*
X102826812Y-97140498D01*
X102950989Y-97291810D01*
X103047609Y-97371102D01*
X103110950Y-97423085D01*
X103293446Y-97520632D01*
X103491466Y-97580700D01*
X103491465Y-97580700D01*
X103511748Y-97582697D01*
X103697400Y-97600983D01*
X103903334Y-97580700D01*
X104101354Y-97520632D01*
X104283850Y-97423085D01*
X104443810Y-97291810D01*
X104575085Y-97131850D01*
X104672632Y-96949354D01*
X104732700Y-96751334D01*
X104752983Y-96545400D01*
X104732700Y-96339466D01*
X104672632Y-96141446D01*
X104575085Y-95958950D01*
X104481685Y-95845141D01*
X104443810Y-95798989D01*
X104283852Y-95667717D01*
X104283853Y-95667717D01*
X104283850Y-95667715D01*
X104101354Y-95570168D01*
X103903334Y-95510100D01*
X103903332Y-95510099D01*
X103903334Y-95510099D01*
X103697400Y-95489817D01*
X103491467Y-95510099D01*
X103293443Y-95570169D01*
X103183298Y-95629043D01*
X103110950Y-95667715D01*
X103110948Y-95667716D01*
X103110947Y-95667717D01*
X102950989Y-95798989D01*
X102823348Y-95954523D01*
X102819715Y-95958950D01*
X102786210Y-96021633D01*
X102722169Y-96141443D01*
X102662099Y-96339467D01*
X102641817Y-96545400D01*
X100000500Y-96545400D01*
X100000500Y-92373055D01*
X159691500Y-92373055D01*
X159732210Y-92538226D01*
X159811263Y-92688849D01*
X159811266Y-92688852D01*
X159924071Y-92816183D01*
X160014318Y-92878476D01*
X160064068Y-92912817D01*
X160064069Y-92912817D01*
X160064070Y-92912818D01*
X160223128Y-92973140D01*
X160299028Y-92982356D01*
X160349626Y-92988500D01*
X160349628Y-92988500D01*
X160434374Y-92988500D01*
X160476538Y-92983380D01*
X160560872Y-92973140D01*
X160719930Y-92912818D01*
X160859929Y-92816183D01*
X160972734Y-92688852D01*
X161051790Y-92538225D01*
X161092500Y-92373056D01*
X161092500Y-92202944D01*
X161051790Y-92037775D01*
X161051789Y-92037773D01*
X160972736Y-91887150D01*
X160953560Y-91865505D01*
X160859929Y-91759817D01*
X160810177Y-91725475D01*
X160719931Y-91663182D01*
X160560874Y-91602860D01*
X160560868Y-91602859D01*
X160434374Y-91587500D01*
X160434372Y-91587500D01*
X160349628Y-91587500D01*
X160349626Y-91587500D01*
X160223131Y-91602859D01*
X160223125Y-91602860D01*
X160064068Y-91663182D01*
X159924072Y-91759816D01*
X159811263Y-91887150D01*
X159732210Y-92037773D01*
X159691500Y-92202944D01*
X159691500Y-92373055D01*
X100000500Y-92373055D01*
X100000500Y-87973055D01*
X159691500Y-87973055D01*
X159732210Y-88138226D01*
X159811263Y-88288849D01*
X159811266Y-88288852D01*
X159924071Y-88416183D01*
X160014318Y-88478476D01*
X160064068Y-88512817D01*
X160064069Y-88512817D01*
X160064070Y-88512818D01*
X160223128Y-88573140D01*
X160299028Y-88582356D01*
X160349626Y-88588500D01*
X160349628Y-88588500D01*
X160434374Y-88588500D01*
X160476538Y-88583380D01*
X160560872Y-88573140D01*
X160719930Y-88512818D01*
X160859929Y-88416183D01*
X160972734Y-88288852D01*
X161051790Y-88138225D01*
X161092500Y-87973056D01*
X161092500Y-87802944D01*
X161051790Y-87637775D01*
X161043773Y-87622500D01*
X160972736Y-87487150D01*
X160953560Y-87465505D01*
X160859929Y-87359817D01*
X160810177Y-87325475D01*
X160719931Y-87263182D01*
X160560874Y-87202860D01*
X160560868Y-87202859D01*
X160434374Y-87187500D01*
X160434372Y-87187500D01*
X160349628Y-87187500D01*
X160349626Y-87187500D01*
X160223131Y-87202859D01*
X160223125Y-87202860D01*
X160064068Y-87263182D01*
X159924072Y-87359816D01*
X159811263Y-87487150D01*
X159732210Y-87637773D01*
X159691500Y-87802944D01*
X159691500Y-87973055D01*
X100000500Y-87973055D01*
X100000500Y-84372002D01*
X101722926Y-84372002D01*
X101742008Y-84723954D01*
X101799033Y-85071793D01*
X101799034Y-85071796D01*
X101893326Y-85411408D01*
X101893327Y-85411410D01*
X102023788Y-85738844D01*
X102023797Y-85738862D01*
X102188895Y-86050269D01*
X102386698Y-86342006D01*
X102386705Y-86342016D01*
X102614885Y-86610649D01*
X102614886Y-86610650D01*
X102870780Y-86853046D01*
X103151382Y-87066354D01*
X103453402Y-87248074D01*
X103453406Y-87248075D01*
X103453410Y-87248078D01*
X103773288Y-87396070D01*
X103773292Y-87396070D01*
X103773299Y-87396074D01*
X104107322Y-87508619D01*
X104451555Y-87584391D01*
X104801963Y-87622500D01*
X104801969Y-87622500D01*
X105154431Y-87622500D01*
X105154437Y-87622500D01*
X105504845Y-87584391D01*
X105849078Y-87508619D01*
X106183101Y-87396074D01*
X106183108Y-87396070D01*
X106183111Y-87396070D01*
X106436676Y-87278757D01*
X106502998Y-87248074D01*
X106805018Y-87066354D01*
X107085620Y-86853046D01*
X107341514Y-86610650D01*
X107569701Y-86342008D01*
X107767505Y-86050269D01*
X107932607Y-85738854D01*
X108063071Y-85411414D01*
X108157368Y-85071788D01*
X108214391Y-84723957D01*
X108233474Y-84372000D01*
X108231116Y-84328518D01*
X108214391Y-84020045D01*
X108214391Y-84020043D01*
X108157368Y-83672212D01*
X108093360Y-83441676D01*
X108063073Y-83332591D01*
X108063072Y-83332589D01*
X107963787Y-83083401D01*
X137341718Y-83083401D01*
X137362355Y-83240160D01*
X137362356Y-83240162D01*
X137400640Y-83332589D01*
X137422864Y-83386241D01*
X137519118Y-83511682D01*
X137644559Y-83607936D01*
X137790638Y-83668444D01*
X137869018Y-83678763D01*
X137947399Y-83689082D01*
X137947400Y-83689082D01*
X137947401Y-83689082D01*
X137999653Y-83682202D01*
X138104162Y-83668444D01*
X138250241Y-83607936D01*
X138375682Y-83511682D01*
X138471936Y-83386241D01*
X138532444Y-83240162D01*
X138553082Y-83083400D01*
X138532444Y-82926638D01*
X138471936Y-82780559D01*
X138471935Y-82780558D01*
X138471935Y-82780557D01*
X138416918Y-82708858D01*
X138394170Y-82679212D01*
X138368976Y-82614045D01*
X138383014Y-82545600D01*
X138431828Y-82495610D01*
X138451588Y-82486686D01*
X138503690Y-82468456D01*
X138503693Y-82468453D01*
X138503697Y-82468452D01*
X138646884Y-82378481D01*
X138646885Y-82378480D01*
X138646890Y-82378477D01*
X138766477Y-82258890D01*
X138774107Y-82246747D01*
X138856452Y-82115697D01*
X138856454Y-82115694D01*
X138856454Y-82115692D01*
X138856456Y-82115690D01*
X138912313Y-81956059D01*
X138912313Y-81956058D01*
X138912314Y-81956056D01*
X138931249Y-81788002D01*
X145548751Y-81788002D01*
X145567685Y-81956056D01*
X145623545Y-82115694D01*
X145623547Y-82115697D01*
X145713518Y-82258884D01*
X145713523Y-82258890D01*
X145833109Y-82378476D01*
X145833115Y-82378481D01*
X145976302Y-82468452D01*
X145982583Y-82471477D01*
X145981491Y-82473743D01*
X146028809Y-82507660D01*
X146054575Y-82572605D01*
X146055100Y-82584008D01*
X146055100Y-82610483D01*
X146035415Y-82677522D01*
X146006587Y-82708858D01*
X145977321Y-82731314D01*
X145881063Y-82856760D01*
X145820556Y-83002837D01*
X145820555Y-83002839D01*
X145799918Y-83159598D01*
X145799918Y-83159601D01*
X145820555Y-83316360D01*
X145820556Y-83316362D01*
X145881064Y-83462441D01*
X145977318Y-83587882D01*
X146102759Y-83684136D01*
X146248838Y-83744644D01*
X146327219Y-83754963D01*
X146405599Y-83765282D01*
X146405600Y-83765282D01*
X146405601Y-83765282D01*
X146457853Y-83758402D01*
X146562362Y-83744644D01*
X146708441Y-83684136D01*
X146833882Y-83587882D01*
X146930136Y-83462441D01*
X146990644Y-83316362D01*
X147011282Y-83159600D01*
X146990644Y-83002838D01*
X146930136Y-82856759D01*
X146833882Y-82731318D01*
X146833879Y-82731316D01*
X146833878Y-82731314D01*
X146804613Y-82708858D01*
X146763411Y-82652430D01*
X146756100Y-82610483D01*
X146756100Y-82448629D01*
X146775785Y-82381590D01*
X146792419Y-82360948D01*
X146840647Y-82312720D01*
X146894477Y-82258890D01*
X146902107Y-82246747D01*
X146984452Y-82115697D01*
X146984454Y-82115694D01*
X146984454Y-82115692D01*
X146984456Y-82115690D01*
X147040313Y-81956059D01*
X147040313Y-81956058D01*
X147040314Y-81956056D01*
X147059249Y-81788002D01*
X147059249Y-81787997D01*
X147040314Y-81619943D01*
X146996919Y-81495928D01*
X146984456Y-81460310D01*
X146984455Y-81460309D01*
X146984454Y-81460305D01*
X146984452Y-81460302D01*
X146894481Y-81317115D01*
X146894476Y-81317109D01*
X146774890Y-81197523D01*
X146774884Y-81197518D01*
X146631697Y-81107547D01*
X146631694Y-81107545D01*
X146472056Y-81051685D01*
X146304003Y-81032751D01*
X146303997Y-81032751D01*
X146135943Y-81051685D01*
X145976305Y-81107545D01*
X145976302Y-81107547D01*
X145833115Y-81197518D01*
X145833109Y-81197523D01*
X145713523Y-81317109D01*
X145713518Y-81317115D01*
X145623547Y-81460302D01*
X145623545Y-81460305D01*
X145567685Y-81619943D01*
X145548751Y-81787997D01*
X145548751Y-81788002D01*
X138931249Y-81788002D01*
X138931249Y-81787997D01*
X138912314Y-81619943D01*
X138868919Y-81495928D01*
X138856456Y-81460310D01*
X138856455Y-81460309D01*
X138856454Y-81460305D01*
X138856452Y-81460302D01*
X138766481Y-81317115D01*
X138766476Y-81317109D01*
X138646890Y-81197523D01*
X138646884Y-81197518D01*
X138503697Y-81107547D01*
X138503694Y-81107545D01*
X138344056Y-81051685D01*
X138176003Y-81032751D01*
X138175997Y-81032751D01*
X138007943Y-81051685D01*
X137848305Y-81107545D01*
X137848302Y-81107547D01*
X137705115Y-81197518D01*
X137705109Y-81197523D01*
X137585523Y-81317109D01*
X137585518Y-81317115D01*
X137495547Y-81460302D01*
X137495545Y-81460305D01*
X137439685Y-81619943D01*
X137420751Y-81787997D01*
X137420751Y-81788002D01*
X137439685Y-81956056D01*
X137495545Y-82115693D01*
X137577893Y-82246747D01*
X137596900Y-82312720D01*
X137596900Y-82534283D01*
X137577215Y-82601322D01*
X137548387Y-82632658D01*
X137519121Y-82655114D01*
X137422863Y-82780560D01*
X137362356Y-82926637D01*
X137362355Y-82926639D01*
X137341718Y-83083398D01*
X137341718Y-83083401D01*
X107963787Y-83083401D01*
X107932611Y-83005155D01*
X107932602Y-83005137D01*
X107890985Y-82926639D01*
X107767505Y-82693731D01*
X107569701Y-82401992D01*
X107569697Y-82401987D01*
X107569694Y-82401983D01*
X107341514Y-82133350D01*
X107154347Y-81956056D01*
X107085620Y-81890954D01*
X107085613Y-81890948D01*
X107085610Y-81890946D01*
X106805015Y-81677644D01*
X106503002Y-81495928D01*
X106502989Y-81495921D01*
X106183111Y-81347929D01*
X106183106Y-81347928D01*
X106183103Y-81347927D01*
X106183101Y-81347926D01*
X106076632Y-81312052D01*
X105849080Y-81235381D01*
X105504843Y-81159608D01*
X105154438Y-81121500D01*
X105154437Y-81121500D01*
X104801963Y-81121500D01*
X104801961Y-81121500D01*
X104451556Y-81159608D01*
X104107319Y-81235381D01*
X103773293Y-81347928D01*
X103773288Y-81347929D01*
X103453410Y-81495921D01*
X103453397Y-81495928D01*
X103151384Y-81677644D01*
X102870789Y-81890946D01*
X102870780Y-81890954D01*
X102614885Y-82133350D01*
X102386705Y-82401983D01*
X102386698Y-82401993D01*
X102188895Y-82693730D01*
X102023797Y-83005137D01*
X102023788Y-83005155D01*
X101893327Y-83332589D01*
X101893326Y-83332591D01*
X101799034Y-83672203D01*
X101799033Y-83672206D01*
X101742008Y-84020045D01*
X101722926Y-84371997D01*
X101722926Y-84372002D01*
X100000500Y-84372002D01*
X100000500Y-78532802D01*
X137420751Y-78532802D01*
X137439685Y-78700856D01*
X137495545Y-78860494D01*
X137495547Y-78860497D01*
X137585518Y-79003684D01*
X137585523Y-79003690D01*
X137705109Y-79123276D01*
X137705115Y-79123281D01*
X137848302Y-79213252D01*
X137848305Y-79213254D01*
X137848309Y-79213255D01*
X137848310Y-79213256D01*
X137920913Y-79238660D01*
X138007943Y-79269114D01*
X138175997Y-79288049D01*
X138176000Y-79288049D01*
X138176002Y-79288049D01*
X138284883Y-79275780D01*
X138344059Y-79269113D01*
X138344059Y-79269112D01*
X138349942Y-79268450D01*
X138418764Y-79280504D01*
X138451507Y-79303989D01*
X138472569Y-79325051D01*
X138506054Y-79386374D01*
X138501070Y-79456066D01*
X138499464Y-79460146D01*
X138495379Y-79470008D01*
X138494455Y-79472240D01*
X138473818Y-79628998D01*
X138473818Y-79629001D01*
X138494455Y-79785760D01*
X138494456Y-79785762D01*
X138547950Y-79914909D01*
X138554964Y-79931841D01*
X138651218Y-80057282D01*
X138776659Y-80153536D01*
X138922738Y-80214044D01*
X139001119Y-80224362D01*
X139079499Y-80234682D01*
X139079500Y-80234682D01*
X139079501Y-80234682D01*
X139131753Y-80227802D01*
X139236262Y-80214044D01*
X139309275Y-80183801D01*
X144047318Y-80183801D01*
X144067955Y-80340560D01*
X144067956Y-80340562D01*
X144128464Y-80486641D01*
X144224718Y-80612082D01*
X144350159Y-80708336D01*
X144496238Y-80768844D01*
X144574618Y-80779163D01*
X144652999Y-80789482D01*
X144653000Y-80789482D01*
X144653001Y-80789482D01*
X144705254Y-80782602D01*
X144809762Y-80768844D01*
X144955841Y-80708336D01*
X145081282Y-80612082D01*
X145177536Y-80486641D01*
X145238044Y-80340562D01*
X145254700Y-80214044D01*
X145258682Y-80183801D01*
X145258682Y-80183798D01*
X145253866Y-80147221D01*
X145264631Y-80078188D01*
X145289121Y-80043359D01*
X146028493Y-79303987D01*
X146089814Y-79270504D01*
X146130056Y-79268450D01*
X146303997Y-79288049D01*
X146304000Y-79288049D01*
X146304003Y-79288049D01*
X146472056Y-79269114D01*
X146473954Y-79268450D01*
X146631690Y-79213256D01*
X146631692Y-79213254D01*
X146631694Y-79213254D01*
X146631697Y-79213252D01*
X146774884Y-79123281D01*
X146774885Y-79123280D01*
X146774890Y-79123277D01*
X146894477Y-79003690D01*
X146984452Y-78860497D01*
X146984454Y-78860494D01*
X146984454Y-78860492D01*
X146984456Y-78860490D01*
X147040313Y-78700859D01*
X147040313Y-78700858D01*
X147040314Y-78700856D01*
X147059249Y-78532802D01*
X147059249Y-78532797D01*
X147040314Y-78364743D01*
X146984454Y-78205105D01*
X146984452Y-78205102D01*
X146894481Y-78061915D01*
X146894476Y-78061909D01*
X146774890Y-77942323D01*
X146774884Y-77942318D01*
X146631697Y-77852347D01*
X146631694Y-77852345D01*
X146472056Y-77796485D01*
X146304003Y-77777551D01*
X146303997Y-77777551D01*
X146135943Y-77796485D01*
X145976305Y-77852345D01*
X145976302Y-77852347D01*
X145833115Y-77942318D01*
X145833109Y-77942323D01*
X145713523Y-78061909D01*
X145713518Y-78061915D01*
X145623547Y-78205102D01*
X145623545Y-78205105D01*
X145567685Y-78364743D01*
X145548751Y-78532797D01*
X145548751Y-78532803D01*
X145568349Y-78706743D01*
X145556294Y-78775564D01*
X145532810Y-78808307D01*
X144793442Y-79547674D01*
X144732119Y-79581159D01*
X144689579Y-79582933D01*
X144672824Y-79580727D01*
X144653000Y-79578118D01*
X144652998Y-79578118D01*
X144652997Y-79578118D01*
X144496239Y-79598755D01*
X144496237Y-79598756D01*
X144350160Y-79659263D01*
X144224718Y-79755518D01*
X144128463Y-79880960D01*
X144067956Y-80027037D01*
X144067955Y-80027039D01*
X144047318Y-80183798D01*
X144047318Y-80183801D01*
X139309275Y-80183801D01*
X139382341Y-80153536D01*
X139507782Y-80057282D01*
X139604036Y-79931841D01*
X139664544Y-79785762D01*
X139685182Y-79629000D01*
X139681200Y-79598756D01*
X139664544Y-79472239D01*
X139664544Y-79472238D01*
X139604036Y-79326159D01*
X139507782Y-79200718D01*
X139382341Y-79104464D01*
X139236262Y-79043956D01*
X139216468Y-79041350D01*
X139152572Y-79013082D01*
X139144974Y-79006092D01*
X138947189Y-78808307D01*
X138913704Y-78746984D01*
X138911650Y-78706742D01*
X138931249Y-78532802D01*
X138931249Y-78532797D01*
X138912314Y-78364743D01*
X138856454Y-78205105D01*
X138856452Y-78205102D01*
X138766481Y-78061915D01*
X138766476Y-78061909D01*
X138646890Y-77942323D01*
X138646884Y-77942318D01*
X138503697Y-77852347D01*
X138503694Y-77852345D01*
X138344056Y-77796485D01*
X138176003Y-77777551D01*
X138175997Y-77777551D01*
X138007943Y-77796485D01*
X137848305Y-77852345D01*
X137848302Y-77852347D01*
X137705115Y-77942318D01*
X137705109Y-77942323D01*
X137585523Y-78061909D01*
X137585518Y-78061915D01*
X137495547Y-78205102D01*
X137495545Y-78205105D01*
X137439685Y-78364743D01*
X137420751Y-78532797D01*
X137420751Y-78532802D01*
X100000500Y-78532802D01*
X100000500Y-74168002D01*
X141484751Y-74168002D01*
X141503685Y-74336056D01*
X141559545Y-74495694D01*
X141559547Y-74495697D01*
X141649518Y-74638884D01*
X141649523Y-74638890D01*
X141769109Y-74758476D01*
X141769115Y-74758481D01*
X141912302Y-74848452D01*
X141912305Y-74848454D01*
X141912309Y-74848455D01*
X141912310Y-74848456D01*
X141981024Y-74872500D01*
X142071943Y-74904314D01*
X142239997Y-74923249D01*
X142240000Y-74923249D01*
X142240003Y-74923249D01*
X142408056Y-74904314D01*
X142442719Y-74892185D01*
X142475535Y-74880701D01*
X142521127Y-74873830D01*
X142545010Y-74874724D01*
X142545010Y-74874723D01*
X142545011Y-74874724D01*
X142554244Y-74873684D01*
X142554337Y-74874513D01*
X142569636Y-74872500D01*
X144084581Y-74872500D01*
X144151620Y-74892185D01*
X144160067Y-74898124D01*
X144223157Y-74946535D01*
X144223158Y-74946535D01*
X144223159Y-74946536D01*
X144369238Y-75007044D01*
X144447619Y-75017363D01*
X144525999Y-75027682D01*
X144526000Y-75027682D01*
X144526001Y-75027682D01*
X144578254Y-75020802D01*
X144682762Y-75007044D01*
X144828841Y-74946536D01*
X144954282Y-74850282D01*
X145050536Y-74724841D01*
X145111044Y-74578762D01*
X145131682Y-74422000D01*
X145111044Y-74265238D01*
X145050536Y-74119159D01*
X144954282Y-73993718D01*
X144828841Y-73897464D01*
X144822554Y-73894860D01*
X144682762Y-73836956D01*
X144682760Y-73836955D01*
X144526001Y-73816318D01*
X144525999Y-73816318D01*
X144369239Y-73836955D01*
X144369237Y-73836956D01*
X144223157Y-73897464D01*
X144160067Y-73945876D01*
X144094898Y-73971070D01*
X144084581Y-73971500D01*
X143054344Y-73971500D01*
X142987305Y-73951815D01*
X142941550Y-73899011D01*
X142937302Y-73888454D01*
X142920455Y-73840307D01*
X142920452Y-73840302D01*
X142830481Y-73697115D01*
X142830476Y-73697109D01*
X142710890Y-73577523D01*
X142710884Y-73577518D01*
X142567697Y-73487547D01*
X142567694Y-73487545D01*
X142408056Y-73431685D01*
X142240003Y-73412751D01*
X142239997Y-73412751D01*
X142071943Y-73431685D01*
X141912305Y-73487545D01*
X141912302Y-73487547D01*
X141769115Y-73577518D01*
X141769109Y-73577523D01*
X141649523Y-73697109D01*
X141649518Y-73697115D01*
X141559547Y-73840302D01*
X141559545Y-73840305D01*
X141503685Y-73999943D01*
X141484751Y-74167997D01*
X141484751Y-74168002D01*
X100000500Y-74168002D01*
X100000500Y-69132870D01*
X114829500Y-69132870D01*
X114829501Y-69132876D01*
X114835908Y-69192483D01*
X114886202Y-69327328D01*
X114886206Y-69327335D01*
X114972452Y-69442544D01*
X114972455Y-69442547D01*
X115087664Y-69528793D01*
X115087671Y-69528797D01*
X115222517Y-69579091D01*
X115222516Y-69579091D01*
X115229444Y-69579835D01*
X115282127Y-69585500D01*
X116617872Y-69585499D01*
X116677483Y-69579091D01*
X116812331Y-69528796D01*
X116927546Y-69442546D01*
X117013796Y-69327331D01*
X117064091Y-69192483D01*
X117070500Y-69132873D01*
X117070500Y-68518378D01*
X117369500Y-68518378D01*
X117382834Y-68658020D01*
X117384744Y-68678020D01*
X117384745Y-68678024D01*
X117445030Y-68883338D01*
X117543088Y-69073544D01*
X117675366Y-69241750D01*
X117675372Y-69241756D01*
X117837092Y-69381886D01*
X118022406Y-69488877D01*
X118022407Y-69488877D01*
X118022410Y-69488879D01*
X118224630Y-69558868D01*
X118436442Y-69589322D01*
X118650189Y-69579140D01*
X118858147Y-69528690D01*
X119052798Y-69439796D01*
X119227109Y-69315669D01*
X119374779Y-69160798D01*
X119387633Y-69140798D01*
X119443707Y-69053544D01*
X119490471Y-68980778D01*
X119570002Y-68782117D01*
X119610500Y-68571995D01*
X119610500Y-68518378D01*
X119909500Y-68518378D01*
X119922834Y-68658020D01*
X119924744Y-68678020D01*
X119924745Y-68678024D01*
X119985030Y-68883338D01*
X120083088Y-69073544D01*
X120215366Y-69241750D01*
X120215372Y-69241756D01*
X120377092Y-69381886D01*
X120562406Y-69488877D01*
X120562407Y-69488877D01*
X120562410Y-69488879D01*
X120764630Y-69558868D01*
X120976442Y-69589322D01*
X121190189Y-69579140D01*
X121398147Y-69528690D01*
X121570454Y-69450000D01*
X128982601Y-69450000D01*
X129002149Y-69648481D01*
X129060048Y-69839348D01*
X129154060Y-70015231D01*
X129154065Y-70015238D01*
X129280589Y-70169410D01*
X129377163Y-70248665D01*
X129434763Y-70295936D01*
X129434766Y-70295937D01*
X129434768Y-70295939D01*
X129610651Y-70389951D01*
X129610654Y-70389951D01*
X129610658Y-70389954D01*
X129801515Y-70447850D01*
X130000000Y-70467399D01*
X130198485Y-70447850D01*
X130389342Y-70389954D01*
X130450937Y-70357031D01*
X130565231Y-70295939D01*
X130565229Y-70295939D01*
X130565237Y-70295936D01*
X130719410Y-70169410D01*
X130845936Y-70015237D01*
X130939954Y-69839342D01*
X130997850Y-69648485D01*
X131017399Y-69450000D01*
X131482601Y-69450000D01*
X131502149Y-69648481D01*
X131560048Y-69839348D01*
X131654060Y-70015231D01*
X131654065Y-70015238D01*
X131780589Y-70169410D01*
X131877163Y-70248665D01*
X131934763Y-70295936D01*
X131934766Y-70295937D01*
X131934768Y-70295939D01*
X132110651Y-70389951D01*
X132110654Y-70389951D01*
X132110658Y-70389954D01*
X132301515Y-70447850D01*
X132500000Y-70467399D01*
X132698485Y-70447850D01*
X132889342Y-70389954D01*
X132950937Y-70357031D01*
X133065231Y-70295939D01*
X133065229Y-70295939D01*
X133065237Y-70295936D01*
X133219410Y-70169410D01*
X133345936Y-70015237D01*
X133439954Y-69839342D01*
X133497850Y-69648485D01*
X133517399Y-69450000D01*
X133497850Y-69251515D01*
X133439954Y-69060658D01*
X133439951Y-69060654D01*
X133439951Y-69060651D01*
X133345939Y-68884768D01*
X133345937Y-68884766D01*
X133345936Y-68884763D01*
X133261697Y-68782117D01*
X133219410Y-68730589D01*
X133065238Y-68604065D01*
X133065231Y-68604060D01*
X132889348Y-68510048D01*
X132889342Y-68510046D01*
X132698485Y-68452150D01*
X132698483Y-68452149D01*
X132698481Y-68452149D01*
X132500000Y-68432601D01*
X132301518Y-68452149D01*
X132110651Y-68510048D01*
X131934768Y-68604060D01*
X131934761Y-68604065D01*
X131780589Y-68730589D01*
X131654065Y-68884761D01*
X131654060Y-68884768D01*
X131560048Y-69060651D01*
X131502149Y-69251518D01*
X131482601Y-69450000D01*
X131017399Y-69450000D01*
X130997850Y-69251515D01*
X130939954Y-69060658D01*
X130939951Y-69060654D01*
X130939951Y-69060651D01*
X130845939Y-68884768D01*
X130845937Y-68884766D01*
X130845936Y-68884763D01*
X130761697Y-68782117D01*
X130719410Y-68730589D01*
X130565238Y-68604065D01*
X130565231Y-68604060D01*
X130389348Y-68510048D01*
X130389342Y-68510046D01*
X130198485Y-68452150D01*
X130198483Y-68452149D01*
X130198481Y-68452149D01*
X130000000Y-68432601D01*
X129801518Y-68452149D01*
X129610651Y-68510048D01*
X129434768Y-68604060D01*
X129434761Y-68604065D01*
X129280589Y-68730589D01*
X129154065Y-68884761D01*
X129154060Y-68884768D01*
X129060048Y-69060651D01*
X129002149Y-69251518D01*
X128982601Y-69450000D01*
X121570454Y-69450000D01*
X121592798Y-69439796D01*
X121767109Y-69315669D01*
X121914779Y-69160798D01*
X121927633Y-69140798D01*
X121983707Y-69053544D01*
X122030471Y-68980778D01*
X122110002Y-68782117D01*
X122150500Y-68571995D01*
X122150500Y-68250000D01*
X125994570Y-68250000D01*
X126008608Y-68401490D01*
X126014244Y-68462310D01*
X126069930Y-68658024D01*
X126072596Y-68667392D01*
X126072596Y-68667394D01*
X126167632Y-68858253D01*
X126245959Y-68961973D01*
X126296128Y-69028407D01*
X126453698Y-69172052D01*
X126634981Y-69284298D01*
X126833802Y-69361321D01*
X127043390Y-69400500D01*
X127043392Y-69400500D01*
X127256608Y-69400500D01*
X127256610Y-69400500D01*
X127466198Y-69361321D01*
X127665019Y-69284298D01*
X127846302Y-69172052D01*
X128003872Y-69028407D01*
X128132366Y-68858255D01*
X128148659Y-68825534D01*
X128227403Y-68667394D01*
X128227403Y-68667393D01*
X128227405Y-68667389D01*
X128285756Y-68462310D01*
X128305429Y-68250000D01*
X136694571Y-68250000D01*
X136714244Y-68462310D01*
X136769930Y-68658024D01*
X136772596Y-68667392D01*
X136772596Y-68667394D01*
X136867632Y-68858253D01*
X136945959Y-68961973D01*
X136996128Y-69028407D01*
X137153698Y-69172052D01*
X137334981Y-69284298D01*
X137533802Y-69361321D01*
X137743390Y-69400500D01*
X137743392Y-69400500D01*
X137956608Y-69400500D01*
X137956610Y-69400500D01*
X138166198Y-69361321D01*
X138365019Y-69284298D01*
X138546302Y-69172052D01*
X138703872Y-69028407D01*
X138832366Y-68858255D01*
X138848659Y-68825534D01*
X138927403Y-68667394D01*
X138927403Y-68667393D01*
X138927405Y-68667389D01*
X138975494Y-68498378D01*
X142849500Y-68498378D01*
X142859592Y-68604064D01*
X142864744Y-68658020D01*
X142864745Y-68658024D01*
X142925030Y-68863338D01*
X142925031Y-68863341D01*
X142925032Y-68863342D01*
X142985577Y-68980782D01*
X143023088Y-69053544D01*
X143155366Y-69221750D01*
X143155372Y-69221756D01*
X143317092Y-69361886D01*
X143502406Y-69468877D01*
X143502407Y-69468877D01*
X143502410Y-69468879D01*
X143704630Y-69538868D01*
X143916442Y-69569322D01*
X144130189Y-69559140D01*
X144338147Y-69508690D01*
X144532798Y-69419796D01*
X144559896Y-69400500D01*
X144619953Y-69357732D01*
X144707109Y-69295669D01*
X144854779Y-69140798D01*
X144859871Y-69132876D01*
X144957615Y-68980782D01*
X144970471Y-68960778D01*
X145050002Y-68762117D01*
X145090500Y-68551995D01*
X145090500Y-68498378D01*
X145389500Y-68498378D01*
X145399592Y-68604064D01*
X145404744Y-68658020D01*
X145404745Y-68658024D01*
X145465030Y-68863338D01*
X145465031Y-68863341D01*
X145465032Y-68863342D01*
X145525577Y-68980782D01*
X145563088Y-69053544D01*
X145695366Y-69221750D01*
X145695372Y-69221756D01*
X145857092Y-69361886D01*
X146042406Y-69468877D01*
X146042407Y-69468877D01*
X146042410Y-69468879D01*
X146244630Y-69538868D01*
X146456442Y-69569322D01*
X146670189Y-69559140D01*
X146878147Y-69508690D01*
X147072798Y-69419796D01*
X147099896Y-69400500D01*
X147159953Y-69357732D01*
X147247109Y-69295669D01*
X147394779Y-69140798D01*
X147399871Y-69132876D01*
X147497615Y-68980782D01*
X147510471Y-68960778D01*
X147590002Y-68762117D01*
X147630500Y-68551995D01*
X147630500Y-67941622D01*
X147615256Y-67781979D01*
X147554968Y-67576658D01*
X147456912Y-67386456D01*
X147324633Y-67218249D01*
X147324627Y-67218243D01*
X147162907Y-67078113D01*
X146977593Y-66971122D01*
X146775375Y-66901133D01*
X146775371Y-66901132D01*
X146775370Y-66901132D01*
X146563558Y-66870678D01*
X146563555Y-66870678D01*
X146533009Y-66872133D01*
X146349811Y-66880860D01*
X146141853Y-66931310D01*
X146098296Y-66951202D01*
X145947201Y-67020203D01*
X145947195Y-67020207D01*
X145772896Y-67144326D01*
X145772889Y-67144332D01*
X145625217Y-67299205D01*
X145509531Y-67479217D01*
X145429997Y-67677884D01*
X145394871Y-67860136D01*
X145389500Y-67888005D01*
X145389500Y-68498378D01*
X145090500Y-68498378D01*
X145090500Y-67941622D01*
X145075256Y-67781979D01*
X145014968Y-67576658D01*
X144916912Y-67386456D01*
X144784633Y-67218249D01*
X144784627Y-67218243D01*
X144622907Y-67078113D01*
X144437593Y-66971122D01*
X144235375Y-66901133D01*
X144235371Y-66901132D01*
X144235370Y-66901132D01*
X144023558Y-66870678D01*
X144023555Y-66870678D01*
X143993008Y-66872133D01*
X143809811Y-66880860D01*
X143601853Y-66931310D01*
X143558296Y-66951202D01*
X143407201Y-67020203D01*
X143407195Y-67020207D01*
X143232896Y-67144326D01*
X143232889Y-67144332D01*
X143085217Y-67299205D01*
X142969531Y-67479217D01*
X142889997Y-67677884D01*
X142854871Y-67860136D01*
X142849500Y-67888005D01*
X142849500Y-68498378D01*
X138975494Y-68498378D01*
X138985756Y-68462310D01*
X139005429Y-68250000D01*
X138985756Y-68037690D01*
X138927405Y-67832611D01*
X138927403Y-67832606D01*
X138927403Y-67832605D01*
X138832367Y-67641746D01*
X138703872Y-67471593D01*
X138668501Y-67439348D01*
X138546302Y-67327948D01*
X138365019Y-67215702D01*
X138365017Y-67215701D01*
X138265608Y-67177190D01*
X138166198Y-67138679D01*
X137956610Y-67099500D01*
X137743390Y-67099500D01*
X137533802Y-67138679D01*
X137533799Y-67138679D01*
X137533799Y-67138680D01*
X137334982Y-67215701D01*
X137334980Y-67215702D01*
X137153699Y-67327947D01*
X136996127Y-67471593D01*
X136867632Y-67641746D01*
X136772596Y-67832605D01*
X136772596Y-67832607D01*
X136714244Y-68037689D01*
X136709244Y-68091655D01*
X136694571Y-68250000D01*
X128305429Y-68250000D01*
X128285756Y-68037690D01*
X128227405Y-67832611D01*
X128227403Y-67832606D01*
X128227403Y-67832605D01*
X128132367Y-67641746D01*
X128003872Y-67471593D01*
X127968501Y-67439348D01*
X127846302Y-67327948D01*
X127665019Y-67215702D01*
X127665017Y-67215701D01*
X127565608Y-67177190D01*
X127466198Y-67138679D01*
X127256610Y-67099500D01*
X127043390Y-67099500D01*
X126833802Y-67138679D01*
X126833799Y-67138679D01*
X126833799Y-67138680D01*
X126634982Y-67215701D01*
X126634980Y-67215702D01*
X126453699Y-67327947D01*
X126296127Y-67471593D01*
X126167632Y-67641746D01*
X126072596Y-67832605D01*
X126072596Y-67832607D01*
X126014244Y-68037689D01*
X125994570Y-68249999D01*
X125994570Y-68250000D01*
X122150500Y-68250000D01*
X122150500Y-67961622D01*
X122135256Y-67801979D01*
X122074968Y-67596658D01*
X121976912Y-67406456D01*
X121844633Y-67238249D01*
X121844627Y-67238243D01*
X121682907Y-67098113D01*
X121599573Y-67050000D01*
X128982601Y-67050000D01*
X129002149Y-67248481D01*
X129002149Y-67248483D01*
X129002150Y-67248485D01*
X129044003Y-67386455D01*
X129060048Y-67439348D01*
X129154060Y-67615231D01*
X129154065Y-67615238D01*
X129280589Y-67769410D01*
X129357596Y-67832607D01*
X129434763Y-67895936D01*
X129434766Y-67895937D01*
X129434768Y-67895939D01*
X129610651Y-67989951D01*
X129610654Y-67989951D01*
X129610658Y-67989954D01*
X129801515Y-68047850D01*
X130000000Y-68067399D01*
X130198485Y-68047850D01*
X130389342Y-67989954D01*
X130442348Y-67961622D01*
X130508391Y-67926321D01*
X130565237Y-67895936D01*
X130719410Y-67769410D01*
X130845936Y-67615237D01*
X130918640Y-67479217D01*
X130939951Y-67439348D01*
X130939951Y-67439347D01*
X130939954Y-67439342D01*
X130997850Y-67248485D01*
X131017399Y-67050000D01*
X131482601Y-67050000D01*
X131502149Y-67248481D01*
X131502149Y-67248483D01*
X131502150Y-67248485D01*
X131544003Y-67386455D01*
X131560048Y-67439348D01*
X131654060Y-67615231D01*
X131654065Y-67615238D01*
X131780589Y-67769410D01*
X131857596Y-67832607D01*
X131934763Y-67895936D01*
X131934766Y-67895937D01*
X131934768Y-67895939D01*
X132110651Y-67989951D01*
X132110654Y-67989951D01*
X132110658Y-67989954D01*
X132301515Y-68047850D01*
X132500000Y-68067399D01*
X132698485Y-68047850D01*
X132889342Y-67989954D01*
X132942348Y-67961622D01*
X133008391Y-67926321D01*
X133065237Y-67895936D01*
X133219410Y-67769410D01*
X133345936Y-67615237D01*
X133418640Y-67479217D01*
X133439951Y-67439348D01*
X133439951Y-67439347D01*
X133439954Y-67439342D01*
X133497850Y-67248485D01*
X133517399Y-67050000D01*
X133497850Y-66851515D01*
X133439954Y-66660658D01*
X133439951Y-66660654D01*
X133439951Y-66660651D01*
X133345939Y-66484768D01*
X133345937Y-66484766D01*
X133345936Y-66484763D01*
X133307456Y-66437875D01*
X133219410Y-66330589D01*
X133065238Y-66204065D01*
X133065231Y-66204060D01*
X132889348Y-66110048D01*
X132889342Y-66110046D01*
X132698485Y-66052150D01*
X132698483Y-66052149D01*
X132698481Y-66052149D01*
X132500000Y-66032601D01*
X132301518Y-66052149D01*
X132110651Y-66110048D01*
X131934768Y-66204060D01*
X131934761Y-66204065D01*
X131780589Y-66330589D01*
X131654065Y-66484761D01*
X131654060Y-66484768D01*
X131560048Y-66660651D01*
X131502149Y-66851518D01*
X131482601Y-67050000D01*
X131017399Y-67050000D01*
X130997850Y-66851515D01*
X130939954Y-66660658D01*
X130939951Y-66660654D01*
X130939951Y-66660651D01*
X130845939Y-66484768D01*
X130845937Y-66484766D01*
X130845936Y-66484763D01*
X130807456Y-66437875D01*
X130719410Y-66330589D01*
X130565238Y-66204065D01*
X130565231Y-66204060D01*
X130389348Y-66110048D01*
X130389342Y-66110046D01*
X130198485Y-66052150D01*
X130198483Y-66052149D01*
X130198481Y-66052149D01*
X130000000Y-66032601D01*
X129801518Y-66052149D01*
X129610651Y-66110048D01*
X129434768Y-66204060D01*
X129434761Y-66204065D01*
X129280589Y-66330589D01*
X129154065Y-66484761D01*
X129154060Y-66484768D01*
X129060048Y-66660651D01*
X129002149Y-66851518D01*
X128982601Y-67050000D01*
X121599573Y-67050000D01*
X121497593Y-66991122D01*
X121295375Y-66921133D01*
X121295371Y-66921132D01*
X121295370Y-66921132D01*
X121083558Y-66890678D01*
X121083555Y-66890678D01*
X121053009Y-66892133D01*
X120869811Y-66900860D01*
X120661853Y-66951310D01*
X120618473Y-66971121D01*
X120467201Y-67040203D01*
X120467195Y-67040207D01*
X120292896Y-67164326D01*
X120292889Y-67164332D01*
X120145217Y-67319205D01*
X120029531Y-67499217D01*
X119949997Y-67697884D01*
X119911591Y-67897156D01*
X119909500Y-67908005D01*
X119909500Y-68518378D01*
X119610500Y-68518378D01*
X119610500Y-67961622D01*
X119595256Y-67801979D01*
X119534968Y-67596658D01*
X119436912Y-67406456D01*
X119304633Y-67238249D01*
X119304627Y-67238243D01*
X119142907Y-67098113D01*
X118957593Y-66991122D01*
X118755375Y-66921133D01*
X118755371Y-66921132D01*
X118755370Y-66921132D01*
X118543558Y-66890678D01*
X118543555Y-66890678D01*
X118513008Y-66892133D01*
X118329811Y-66900860D01*
X118121853Y-66951310D01*
X118078473Y-66971121D01*
X117927201Y-67040203D01*
X117927195Y-67040207D01*
X117752896Y-67164326D01*
X117752889Y-67164332D01*
X117605217Y-67319205D01*
X117489531Y-67499217D01*
X117409997Y-67697884D01*
X117371591Y-67897156D01*
X117369500Y-67908005D01*
X117369500Y-68518378D01*
X117070500Y-68518378D01*
X117070499Y-67347128D01*
X117064091Y-67287517D01*
X117045715Y-67238249D01*
X117013797Y-67152671D01*
X117013793Y-67152664D01*
X116927547Y-67037455D01*
X116927544Y-67037452D01*
X116812335Y-66951206D01*
X116812328Y-66951202D01*
X116677482Y-66900908D01*
X116677483Y-66900908D01*
X116617883Y-66894501D01*
X116617881Y-66894500D01*
X116617873Y-66894500D01*
X116617864Y-66894500D01*
X115282129Y-66894500D01*
X115282123Y-66894501D01*
X115222516Y-66900908D01*
X115087671Y-66951202D01*
X115087664Y-66951206D01*
X114972455Y-67037452D01*
X114972452Y-67037455D01*
X114886206Y-67152664D01*
X114886202Y-67152671D01*
X114835908Y-67287517D01*
X114831562Y-67327947D01*
X114829501Y-67347123D01*
X114829500Y-67347135D01*
X114829500Y-69132870D01*
X100000500Y-69132870D01*
X100000500Y-68999500D01*
X100000459Y-68999459D01*
X99997713Y-68999386D01*
X99611020Y-68980389D01*
X99604962Y-68979793D01*
X99315355Y-68936833D01*
X99219558Y-68922317D01*
X99213779Y-68921158D01*
X98964975Y-68858835D01*
X98834916Y-68825534D01*
X98829404Y-68823846D01*
X98602856Y-68742786D01*
X98461792Y-68691147D01*
X98456594Y-68688971D01*
X98246931Y-68589808D01*
X98103821Y-68520468D01*
X98098979Y-68517851D01*
X97904841Y-68401490D01*
X97764525Y-68315179D01*
X97760073Y-68312168D01*
X97581297Y-68179579D01*
X97447255Y-68077317D01*
X97443230Y-68073969D01*
X97280337Y-67926332D01*
X97155106Y-67809204D01*
X97151548Y-67805590D01*
X97005247Y-67644172D01*
X96996091Y-67633702D01*
X96890995Y-67513525D01*
X96887865Y-67509642D01*
X96759044Y-67335947D01*
X96724594Y-67287517D01*
X96657436Y-67193104D01*
X96654788Y-67189054D01*
X96651352Y-67183322D01*
X96624595Y-67138679D01*
X96544631Y-67005266D01*
X96543945Y-67004093D01*
X96485262Y-66901132D01*
X96456796Y-66851188D01*
X96454618Y-66847002D01*
X96423654Y-66781534D01*
X96363431Y-66654204D01*
X96362867Y-66652974D01*
X96290998Y-66491067D01*
X96289309Y-66486847D01*
X96217741Y-66286829D01*
X96217271Y-66285461D01*
X96161695Y-66116340D01*
X96160471Y-66112108D01*
X96109045Y-65906800D01*
X96108644Y-65905099D01*
X96070149Y-65730695D01*
X96069368Y-65726462D01*
X96038386Y-65517598D01*
X96038155Y-65515856D01*
X96017243Y-65337894D01*
X96016894Y-65333700D01*
X96013839Y-65271517D01*
X96006559Y-65123340D01*
X96006496Y-65121430D01*
X96004467Y-65000002D01*
X96544432Y-65000002D01*
X96564688Y-65373610D01*
X96625222Y-65742850D01*
X96625223Y-65742853D01*
X96725317Y-66103362D01*
X96725318Y-66103364D01*
X96863806Y-66450945D01*
X96863815Y-66450963D01*
X97039073Y-66781534D01*
X97249045Y-67091219D01*
X97249052Y-67091229D01*
X97466415Y-67347127D01*
X97491273Y-67376392D01*
X97762913Y-67633703D01*
X98060780Y-67860136D01*
X98060785Y-67860139D01*
X98060789Y-67860142D01*
X98060794Y-67860146D01*
X98372764Y-68047850D01*
X98381383Y-68053036D01*
X98381387Y-68053037D01*
X98381391Y-68053040D01*
X98654901Y-68179579D01*
X98720962Y-68210142D01*
X99075538Y-68329613D01*
X99440951Y-68410046D01*
X99812919Y-68450500D01*
X99812925Y-68450500D01*
X100187075Y-68450500D01*
X100187081Y-68450500D01*
X100559049Y-68410046D01*
X100924462Y-68329613D01*
X101279038Y-68210142D01*
X101618617Y-68053036D01*
X101760364Y-67967750D01*
X101939205Y-67860146D01*
X101939210Y-67860142D01*
X101939209Y-67860142D01*
X101939220Y-67860136D01*
X102237087Y-67633703D01*
X102508727Y-67376392D01*
X102750954Y-67091221D01*
X102960928Y-66781531D01*
X103136189Y-66450955D01*
X103274680Y-66103368D01*
X103294329Y-66032601D01*
X103329729Y-65905099D01*
X103374779Y-65742845D01*
X103435311Y-65373613D01*
X103455543Y-65000459D01*
X103455568Y-65000002D01*
X103455568Y-64999997D01*
X103443413Y-64775832D01*
X103435311Y-64626387D01*
X103374779Y-64257155D01*
X103310817Y-64026785D01*
X103274682Y-63896637D01*
X103274681Y-63896635D01*
X103136193Y-63549054D01*
X103136184Y-63549036D01*
X102960926Y-63218465D01*
X102772699Y-62940851D01*
X102750954Y-62908779D01*
X102750950Y-62908774D01*
X102750947Y-62908770D01*
X102508727Y-62623608D01*
X102237087Y-62366297D01*
X102237086Y-62366296D01*
X102124111Y-62280415D01*
X101939220Y-62139864D01*
X101939216Y-62139861D01*
X101939210Y-62139857D01*
X101939205Y-62139853D01*
X101618621Y-61946966D01*
X101618608Y-61946959D01*
X101279048Y-61789862D01*
X101279043Y-61789860D01*
X101279038Y-61789858D01*
X101083259Y-61723892D01*
X100924461Y-61670386D01*
X100559047Y-61589953D01*
X100187082Y-61549500D01*
X100187081Y-61549500D01*
X99812919Y-61549500D01*
X99812917Y-61549500D01*
X99440952Y-61589953D01*
X99075538Y-61670386D01*
X98801440Y-61762741D01*
X98720962Y-61789858D01*
X98720959Y-61789859D01*
X98720951Y-61789862D01*
X98381391Y-61946959D01*
X98381378Y-61946966D01*
X98060794Y-62139853D01*
X98060789Y-62139857D01*
X97762913Y-62366296D01*
X97762912Y-62366297D01*
X97491272Y-62623608D01*
X97249052Y-62908770D01*
X97249045Y-62908780D01*
X97039073Y-63218465D01*
X96863815Y-63549036D01*
X96863806Y-63549054D01*
X96725318Y-63896635D01*
X96725317Y-63896637D01*
X96625223Y-64257146D01*
X96625222Y-64257149D01*
X96564688Y-64626389D01*
X96544432Y-64999997D01*
X96544432Y-65000002D01*
X96004467Y-65000002D01*
X96003494Y-64941760D01*
X96003559Y-64937720D01*
X96013874Y-64727768D01*
X96014005Y-64725778D01*
X96029043Y-64546218D01*
X96029483Y-64542422D01*
X96060289Y-64334746D01*
X96060637Y-64332665D01*
X96093621Y-64155250D01*
X96094429Y-64151547D01*
X96145348Y-63948268D01*
X96145946Y-63946061D01*
X96196608Y-63772548D01*
X96197713Y-63769145D01*
X96268255Y-63571996D01*
X96269108Y-63569754D01*
X96336956Y-63402005D01*
X96338344Y-63398838D01*
X96427796Y-63209707D01*
X96428942Y-63207413D01*
X96513305Y-63047174D01*
X96514932Y-63044280D01*
X96622406Y-62864971D01*
X96623865Y-62862655D01*
X96723916Y-62711557D01*
X96725718Y-62708986D01*
X96850265Y-62541054D01*
X96851934Y-62538911D01*
X96966671Y-62398506D01*
X96968669Y-62396186D01*
X97109007Y-62241346D01*
X97111020Y-62239232D01*
X97239232Y-62111020D01*
X97241346Y-62109007D01*
X97396186Y-61968669D01*
X97398506Y-61966671D01*
X97538911Y-61851934D01*
X97541054Y-61850265D01*
X97708986Y-61725718D01*
X97711557Y-61723916D01*
X97862655Y-61623865D01*
X97864971Y-61622406D01*
X98044280Y-61514932D01*
X98047174Y-61513305D01*
X98207413Y-61428942D01*
X98209707Y-61427796D01*
X98398838Y-61338344D01*
X98402005Y-61336956D01*
X98569754Y-61269108D01*
X98571996Y-61268255D01*
X98769145Y-61197713D01*
X98772548Y-61196608D01*
X98946061Y-61145946D01*
X98948268Y-61145348D01*
X99151561Y-61094425D01*
X99155250Y-61093621D01*
X99332665Y-61060637D01*
X99334746Y-61060289D01*
X99542422Y-61029483D01*
X99546218Y-61029043D01*
X99725778Y-61014005D01*
X99727768Y-61013874D01*
X99937720Y-61003559D01*
X99941760Y-61003494D01*
X100121430Y-61006496D01*
G37*
%TD.AperFunction*%
%TA.AperFunction,Conductor*%
G36*
X157096282Y-79417748D02*
G01*
X157127537Y-79426123D01*
X157181312Y-79448397D01*
X157209339Y-79464580D01*
X157219322Y-79472240D01*
X157255507Y-79500006D01*
X157278391Y-79522889D01*
X157313820Y-79569060D01*
X157330004Y-79597093D01*
X157352273Y-79650856D01*
X157360651Y-79682120D01*
X157368247Y-79739808D01*
X157368247Y-79772182D01*
X157360651Y-79829875D01*
X157352273Y-79861142D01*
X157330003Y-79914906D01*
X157313819Y-79942938D01*
X157278397Y-79989102D01*
X157255507Y-80011993D01*
X157209338Y-80047420D01*
X157181302Y-80063606D01*
X157127543Y-80085873D01*
X157096278Y-80094250D01*
X157038584Y-80101846D01*
X157006213Y-80101846D01*
X156948523Y-80094251D01*
X156917256Y-80085873D01*
X156863493Y-80063604D01*
X156835460Y-80047420D01*
X156789289Y-80011991D01*
X156766405Y-79989106D01*
X156730981Y-79942940D01*
X156714797Y-79914909D01*
X156692525Y-79861142D01*
X156692522Y-79861135D01*
X156684146Y-79829873D01*
X156676552Y-79772182D01*
X156676551Y-79739831D01*
X156684148Y-79682115D01*
X156692522Y-79650862D01*
X156714799Y-79597082D01*
X156730977Y-79569062D01*
X156766408Y-79522887D01*
X156789282Y-79500012D01*
X156835467Y-79464573D01*
X156863483Y-79448398D01*
X156917263Y-79426122D01*
X156948525Y-79417746D01*
X157006214Y-79410151D01*
X157038567Y-79410151D01*
X157096282Y-79417748D01*
G37*
%TD.AperFunction*%
%TA.AperFunction,Conductor*%
G36*
X159323882Y-72661748D02*
G01*
X159355139Y-72670123D01*
X159408903Y-72692394D01*
X159408906Y-72692395D01*
X159436934Y-72708576D01*
X159507007Y-72762345D01*
X159507014Y-72762350D01*
X159540941Y-72784348D01*
X159540945Y-72784350D01*
X159637794Y-72836763D01*
X159637797Y-72836764D01*
X159637801Y-72836766D01*
X159715615Y-72863780D01*
X159828802Y-72883471D01*
X159912908Y-72884051D01*
X160026356Y-72865923D01*
X160106094Y-72839162D01*
X160207509Y-72785179D01*
X160242995Y-72762343D01*
X160313063Y-72708576D01*
X160341083Y-72692398D01*
X160394863Y-72670122D01*
X160426125Y-72661746D01*
X160483814Y-72654151D01*
X160516167Y-72654151D01*
X160573882Y-72661748D01*
X160605139Y-72670123D01*
X160658907Y-72692395D01*
X160686936Y-72708577D01*
X160757003Y-72762342D01*
X160790936Y-72784345D01*
X160867923Y-72826009D01*
X160887794Y-72836763D01*
X160887802Y-72836767D01*
X160965619Y-72863782D01*
X160965623Y-72863782D01*
X160965627Y-72863784D01*
X161037629Y-72876308D01*
X161078807Y-72883472D01*
X161078805Y-72883472D01*
X161079963Y-72883479D01*
X161162914Y-72884051D01*
X161166538Y-72883472D01*
X161175181Y-72882090D01*
X161276361Y-72865922D01*
X161356096Y-72839161D01*
X161360594Y-72836767D01*
X161380804Y-72826009D01*
X161457511Y-72785178D01*
X161492997Y-72762341D01*
X161563062Y-72708577D01*
X161591080Y-72692400D01*
X161644867Y-72670120D01*
X161676122Y-72661746D01*
X161733814Y-72654151D01*
X161766167Y-72654151D01*
X161823882Y-72661748D01*
X161855137Y-72670123D01*
X161908912Y-72692397D01*
X161936939Y-72708580D01*
X161983103Y-72744003D01*
X161983107Y-72744006D01*
X162005991Y-72766889D01*
X162041420Y-72813060D01*
X162057604Y-72841093D01*
X162079873Y-72894856D01*
X162088251Y-72926120D01*
X162095847Y-72983808D01*
X162095847Y-73016182D01*
X162088251Y-73073875D01*
X162079873Y-73105141D01*
X162048099Y-73181851D01*
X162044503Y-73189022D01*
X162044528Y-73189034D01*
X162041802Y-73194947D01*
X162038325Y-73205195D01*
X162029947Y-73224384D01*
X162009163Y-73262775D01*
X161982130Y-73340628D01*
X161982128Y-73340638D01*
X161962442Y-73453817D01*
X161962441Y-73453827D01*
X161961865Y-73537922D01*
X161961865Y-73537932D01*
X161979995Y-73651367D01*
X161979997Y-73651375D01*
X162006760Y-73731111D01*
X162029503Y-73773834D01*
X162037464Y-73792243D01*
X162041821Y-73805083D01*
X162041823Y-73805086D01*
X162041824Y-73805089D01*
X162042857Y-73806878D01*
X162046444Y-73814152D01*
X162079873Y-73894860D01*
X162088251Y-73926123D01*
X162090852Y-73945876D01*
X162095847Y-73983810D01*
X162095847Y-74016182D01*
X162088251Y-74073875D01*
X162079873Y-74105142D01*
X162057603Y-74158906D01*
X162041419Y-74186938D01*
X162005997Y-74233102D01*
X161983107Y-74255993D01*
X161936938Y-74291420D01*
X161908902Y-74307606D01*
X161855143Y-74329873D01*
X161823878Y-74338250D01*
X161766184Y-74345846D01*
X161733813Y-74345846D01*
X161676123Y-74338251D01*
X161644856Y-74329873D01*
X161591098Y-74307606D01*
X161563064Y-74291421D01*
X161493011Y-74237668D01*
X161493009Y-74237666D01*
X161492999Y-74237659D01*
X161459066Y-74215656D01*
X161406000Y-74186938D01*
X161362199Y-74163233D01*
X161284379Y-74136217D01*
X161284370Y-74136214D01*
X161171189Y-74116526D01*
X161171193Y-74116526D01*
X161087087Y-74115948D01*
X161087086Y-74115948D01*
X161087085Y-74115948D01*
X161087072Y-74115949D01*
X160973639Y-74134076D01*
X160973636Y-74134077D01*
X160893903Y-74160837D01*
X160893899Y-74160839D01*
X160792480Y-74214824D01*
X160792474Y-74214828D01*
X160757005Y-74237655D01*
X160686939Y-74291419D01*
X160658905Y-74307604D01*
X160605144Y-74329872D01*
X160573878Y-74338250D01*
X160516184Y-74345846D01*
X160483813Y-74345846D01*
X160426123Y-74338251D01*
X160394856Y-74329873D01*
X160341095Y-74307605D01*
X160313061Y-74291420D01*
X160243007Y-74237666D01*
X160243005Y-74237664D01*
X160242995Y-74237657D01*
X160209062Y-74215654D01*
X160209055Y-74215650D01*
X160209047Y-74215645D01*
X160112194Y-74163231D01*
X160112190Y-74163229D01*
X160034379Y-74136217D01*
X160034375Y-74136216D01*
X160022078Y-74134077D01*
X159921187Y-74116527D01*
X159921185Y-74116526D01*
X159921180Y-74116526D01*
X159837080Y-74115948D01*
X159837068Y-74115949D01*
X159723634Y-74134077D01*
X159643902Y-74160838D01*
X159643900Y-74160839D01*
X159643898Y-74160839D01*
X159643898Y-74160840D01*
X159634876Y-74165642D01*
X159542483Y-74214823D01*
X159542482Y-74214824D01*
X159507009Y-74237653D01*
X159436936Y-74291421D01*
X159408902Y-74307606D01*
X159355143Y-74329873D01*
X159323878Y-74338250D01*
X159266184Y-74345846D01*
X159233812Y-74345846D01*
X159176124Y-74338251D01*
X159144858Y-74329873D01*
X159064159Y-74296447D01*
X159056883Y-74292860D01*
X159055095Y-74291827D01*
X159055077Y-74291820D01*
X159044777Y-74288321D01*
X159025647Y-74279968D01*
X158987129Y-74259124D01*
X158987123Y-74259122D01*
X158987120Y-74259120D01*
X158909280Y-74232106D01*
X158909259Y-74232101D01*
X158796083Y-74212436D01*
X158796079Y-74212435D01*
X158796076Y-74212435D01*
X158796073Y-74212434D01*
X158796064Y-74212434D01*
X158711976Y-74211871D01*
X158711975Y-74211871D01*
X158688332Y-74215654D01*
X158598526Y-74230023D01*
X158598523Y-74230023D01*
X158598523Y-74230024D01*
X158518792Y-74256799D01*
X158476177Y-74279492D01*
X158457756Y-74287461D01*
X158444922Y-74291817D01*
X158444914Y-74291821D01*
X158443113Y-74292861D01*
X158435844Y-74296444D01*
X158355141Y-74329873D01*
X158323873Y-74338251D01*
X158266183Y-74345846D01*
X158233813Y-74345846D01*
X158176123Y-74338251D01*
X158144856Y-74329873D01*
X158091093Y-74307604D01*
X158063060Y-74291420D01*
X158016889Y-74255991D01*
X157994005Y-74233106D01*
X157993235Y-74232103D01*
X157958581Y-74186940D01*
X157942397Y-74158909D01*
X157925932Y-74119160D01*
X157920122Y-74105135D01*
X157911746Y-74073873D01*
X157904152Y-74016182D01*
X157904152Y-73983823D01*
X157911747Y-73926122D01*
X157920125Y-73894855D01*
X157953559Y-73814138D01*
X157957141Y-73806878D01*
X157958171Y-73805097D01*
X157961643Y-73794867D01*
X157970002Y-73775723D01*
X157990848Y-73737206D01*
X158017861Y-73659396D01*
X158037554Y-73546209D01*
X158038136Y-73462102D01*
X158020010Y-73348654D01*
X157993251Y-73268918D01*
X157970494Y-73226164D01*
X157962536Y-73207760D01*
X157958174Y-73194908D01*
X157957140Y-73193117D01*
X157953554Y-73185843D01*
X157920124Y-73105139D01*
X157911746Y-73073873D01*
X157904152Y-73016182D01*
X157904151Y-72983831D01*
X157911748Y-72926115D01*
X157920122Y-72894862D01*
X157942399Y-72841082D01*
X157958577Y-72813062D01*
X157994008Y-72766887D01*
X158016882Y-72744012D01*
X158063067Y-72708573D01*
X158091083Y-72692398D01*
X158144863Y-72670122D01*
X158176125Y-72661746D01*
X158233814Y-72654152D01*
X158266175Y-72654152D01*
X158323873Y-72661747D01*
X158355142Y-72670125D01*
X158435896Y-72703575D01*
X158443313Y-72707253D01*
X158444910Y-72708175D01*
X158444934Y-72708189D01*
X158453443Y-72711076D01*
X158455132Y-72711649D01*
X158474308Y-72720020D01*
X158512796Y-72740849D01*
X158590604Y-72767861D01*
X158703791Y-72787554D01*
X158726729Y-72787712D01*
X158787890Y-72788136D01*
X158787890Y-72788135D01*
X158787898Y-72788136D01*
X158901346Y-72770010D01*
X158981084Y-72743250D01*
X159023838Y-72720492D01*
X159042233Y-72712537D01*
X159055097Y-72708171D01*
X159056883Y-72707138D01*
X159064132Y-72703562D01*
X159144863Y-72670122D01*
X159176125Y-72661746D01*
X159233814Y-72654151D01*
X159266167Y-72654151D01*
X159323882Y-72661748D01*
G37*
%TD.AperFunction*%
%TD*%
M02*
