%TF.GenerationSoftware,KiCad,Pcbnew,7.0.5*%
%TF.CreationDate,2023-12-13T15:43:58+01:00*%
%TF.ProjectId,Hexapod UGV v1.0,48657861-706f-4642-9055-47562076312e,rev?*%
%TF.SameCoordinates,Original*%
%TF.FileFunction,Paste,Top*%
%TF.FilePolarity,Positive*%
%FSLAX46Y46*%
G04 Gerber Fmt 4.6, Leading zero omitted, Abs format (unit mm)*
G04 Created by KiCad (PCBNEW 7.0.5) date 2023-12-13 15:43:58*
%MOMM*%
%LPD*%
G01*
G04 APERTURE LIST*
G04 Aperture macros list*
%AMRoundRect*
0 Rectangle with rounded corners*
0 $1 Rounding radius*
0 $2 $3 $4 $5 $6 $7 $8 $9 X,Y pos of 4 corners*
0 Add a 4 corners polygon primitive as box body*
4,1,4,$2,$3,$4,$5,$6,$7,$8,$9,$2,$3,0*
0 Add four circle primitives for the rounded corners*
1,1,$1+$1,$2,$3*
1,1,$1+$1,$4,$5*
1,1,$1+$1,$6,$7*
1,1,$1+$1,$8,$9*
0 Add four rect primitives between the rounded corners*
20,1,$1+$1,$2,$3,$4,$5,0*
20,1,$1+$1,$4,$5,$6,$7,0*
20,1,$1+$1,$6,$7,$8,$9,0*
20,1,$1+$1,$8,$9,$2,$3,0*%
G04 Aperture macros list end*
%ADD10R,0.250000X0.675000*%
%ADD11R,0.675000X0.250000*%
%ADD12RoundRect,0.125000X-0.537500X-0.125000X0.537500X-0.125000X0.537500X0.125000X-0.537500X0.125000X0*%
%ADD13RoundRect,0.250000X1.100000X-0.325000X1.100000X0.325000X-1.100000X0.325000X-1.100000X-0.325000X0*%
%ADD14R,2.500000X0.500000*%
%ADD15R,2.500000X2.000000*%
%ADD16RoundRect,0.250000X-0.262500X-0.450000X0.262500X-0.450000X0.262500X0.450000X-0.262500X0.450000X0*%
%ADD17RoundRect,0.150000X0.587500X0.150000X-0.587500X0.150000X-0.587500X-0.150000X0.587500X-0.150000X0*%
%ADD18RoundRect,0.250000X-0.375000X-0.625000X0.375000X-0.625000X0.375000X0.625000X-0.375000X0.625000X0*%
%ADD19RoundRect,0.250000X-0.475000X0.250000X-0.475000X-0.250000X0.475000X-0.250000X0.475000X0.250000X0*%
%ADD20RoundRect,0.250000X0.325000X0.650000X-0.325000X0.650000X-0.325000X-0.650000X0.325000X-0.650000X0*%
%ADD21RoundRect,0.150000X0.150000X-0.512500X0.150000X0.512500X-0.150000X0.512500X-0.150000X-0.512500X0*%
%ADD22RoundRect,0.250000X-0.650000X0.325000X-0.650000X-0.325000X0.650000X-0.325000X0.650000X0.325000X0*%
%ADD23RoundRect,0.250000X-0.250000X-0.475000X0.250000X-0.475000X0.250000X0.475000X-0.250000X0.475000X0*%
%ADD24RoundRect,0.250000X0.262500X0.450000X-0.262500X0.450000X-0.262500X-0.450000X0.262500X-0.450000X0*%
%ADD25RoundRect,0.250000X0.475000X-0.250000X0.475000X0.250000X-0.475000X0.250000X-0.475000X-0.250000X0*%
%ADD26RoundRect,0.250000X-0.425000X0.450000X-0.425000X-0.450000X0.425000X-0.450000X0.425000X0.450000X0*%
%ADD27R,3.000000X2.500000*%
%ADD28RoundRect,0.250000X-0.362500X-1.425000X0.362500X-1.425000X0.362500X1.425000X-0.362500X1.425000X0*%
%ADD29RoundRect,0.075000X-0.548008X0.441942X0.441942X-0.548008X0.548008X-0.441942X-0.441942X0.548008X0*%
%ADD30RoundRect,0.075000X-0.548008X-0.441942X-0.441942X-0.548008X0.548008X0.441942X0.441942X0.548008X0*%
%ADD31RoundRect,0.250000X-0.450000X0.262500X-0.450000X-0.262500X0.450000X-0.262500X0.450000X0.262500X0*%
%ADD32RoundRect,0.250000X0.250000X0.475000X-0.250000X0.475000X-0.250000X-0.475000X0.250000X-0.475000X0*%
%ADD33RoundRect,0.243750X-0.243750X-0.456250X0.243750X-0.456250X0.243750X0.456250X-0.243750X0.456250X0*%
%ADD34R,2.000000X1.500000*%
%ADD35R,2.000000X3.800000*%
%ADD36RoundRect,0.150000X0.512500X0.150000X-0.512500X0.150000X-0.512500X-0.150000X0.512500X-0.150000X0*%
%ADD37RoundRect,0.250000X0.325000X1.100000X-0.325000X1.100000X-0.325000X-1.100000X0.325000X-1.100000X0*%
%ADD38RoundRect,0.250000X0.450000X-0.262500X0.450000X0.262500X-0.450000X0.262500X-0.450000X-0.262500X0*%
%ADD39RoundRect,0.250000X0.425000X-0.450000X0.425000X0.450000X-0.425000X0.450000X-0.425000X-0.450000X0*%
%ADD40RoundRect,0.250000X-0.325000X-1.100000X0.325000X-1.100000X0.325000X1.100000X-0.325000X1.100000X0*%
%ADD41R,2.750000X1.000000*%
%ADD42RoundRect,0.250000X-0.650000X1.000000X-0.650000X-1.000000X0.650000X-1.000000X0.650000X1.000000X0*%
%ADD43RoundRect,0.250000X0.450000X0.425000X-0.450000X0.425000X-0.450000X-0.425000X0.450000X-0.425000X0*%
%ADD44RoundRect,0.250000X-0.450000X-0.425000X0.450000X-0.425000X0.450000X0.425000X-0.450000X0.425000X0*%
%ADD45RoundRect,0.100000X0.100000X-0.637500X0.100000X0.637500X-0.100000X0.637500X-0.100000X-0.637500X0*%
%ADD46RoundRect,0.250000X-0.325000X-0.650000X0.325000X-0.650000X0.325000X0.650000X-0.325000X0.650000X0*%
%ADD47R,2.200000X1.400000*%
%ADD48RoundRect,0.218750X0.218750X0.256250X-0.218750X0.256250X-0.218750X-0.256250X0.218750X-0.256250X0*%
G04 APERTURE END LIST*
D10*
%TO.C,IC1*%
X143806000Y-79397000D03*
X143306000Y-79397000D03*
X142806000Y-79397000D03*
X142306000Y-79397000D03*
X141806000Y-79397000D03*
X141306000Y-79397000D03*
X140806000Y-79397000D03*
D11*
X140391000Y-78232000D03*
D10*
X140806000Y-77067000D03*
X141306000Y-77067000D03*
X141806000Y-77067000D03*
X142306000Y-77067000D03*
X142806000Y-77067000D03*
X143306000Y-77067000D03*
X143806000Y-77067000D03*
D11*
X144221000Y-78232000D03*
%TD*%
D12*
%TO.C,U6*%
X113416500Y-95799000D03*
X113416500Y-96449000D03*
X113416500Y-97099000D03*
X113416500Y-97749000D03*
X115691500Y-97749000D03*
X115691500Y-97099000D03*
X115691500Y-96449000D03*
X115691500Y-95799000D03*
%TD*%
D13*
%TO.C,C21*%
X113792000Y-126697000D03*
X113792000Y-123747000D03*
%TD*%
D14*
%TO.C,J4*%
X157792000Y-91688000D03*
X157792000Y-90888000D03*
X157792000Y-90088000D03*
X157792000Y-89288000D03*
X157792000Y-88488000D03*
D15*
X157792000Y-94488000D03*
X163292000Y-94488000D03*
X157792000Y-85688000D03*
X163292000Y-85688000D03*
%TD*%
D16*
%TO.C,R9*%
X121466600Y-106680000D03*
X123291600Y-106680000D03*
%TD*%
D17*
%TO.C,Q1*%
X160020000Y-77211000D03*
X160020000Y-75311000D03*
X158145000Y-76261000D03*
%TD*%
D16*
%TO.C,R2*%
X120143500Y-88900000D03*
X121968500Y-88900000D03*
%TD*%
D18*
%TO.C,D3*%
X131100000Y-74422000D03*
X133900000Y-74422000D03*
%TD*%
D19*
%TO.C,C20*%
X107442000Y-112080000D03*
X107442000Y-113980000D03*
%TD*%
D20*
%TO.C,C18*%
X113489000Y-116840000D03*
X110539000Y-116840000D03*
%TD*%
D21*
%TO.C,U4*%
X110048000Y-114167500D03*
X110998000Y-114167500D03*
X111948000Y-114167500D03*
X111948000Y-111892500D03*
X110998000Y-111892500D03*
X110048000Y-111892500D03*
%TD*%
D16*
%TO.C,R6*%
X136605000Y-85852000D03*
X138430000Y-85852000D03*
%TD*%
D22*
%TO.C,C16*%
X161925000Y-68805000D03*
X161925000Y-71755000D03*
%TD*%
D23*
%TO.C,C30*%
X141356000Y-82804000D03*
X143256000Y-82804000D03*
%TD*%
D24*
%TO.C,R3*%
X123673000Y-74422000D03*
X121848000Y-74422000D03*
%TD*%
D25*
%TO.C,C3*%
X115062000Y-85344000D03*
X115062000Y-83444000D03*
%TD*%
D26*
%TO.C,C10*%
X144272000Y-96150000D03*
X144272000Y-98850000D03*
%TD*%
D27*
%TO.C,L2*%
X160782000Y-117438000D03*
X160782000Y-122338000D03*
%TD*%
D23*
%TO.C,C29*%
X141356000Y-74422000D03*
X143256000Y-74422000D03*
%TD*%
D28*
%TO.C,R11*%
X103666700Y-105841800D03*
X109591700Y-105841800D03*
%TD*%
D27*
%TO.C,L1*%
X104394000Y-117438000D03*
X104394000Y-122338000D03*
%TD*%
D29*
%TO.C,U2*%
X131138819Y-90835519D03*
X130785266Y-91189072D03*
X130431713Y-91542625D03*
X130078159Y-91896179D03*
X129724606Y-92249732D03*
X129371052Y-92603286D03*
X129017499Y-92956839D03*
X128663946Y-93310392D03*
X128310392Y-93663946D03*
X127956839Y-94017499D03*
X127603286Y-94371052D03*
X127249732Y-94724606D03*
X126896179Y-95078159D03*
X126542625Y-95431713D03*
X126189072Y-95785266D03*
X125835519Y-96138819D03*
D30*
X125835519Y-98861181D03*
X126189072Y-99214734D03*
X126542625Y-99568287D03*
X126896179Y-99921841D03*
X127249732Y-100275394D03*
X127603286Y-100628948D03*
X127956839Y-100982501D03*
X128310392Y-101336054D03*
X128663946Y-101689608D03*
X129017499Y-102043161D03*
X129371052Y-102396714D03*
X129724606Y-102750268D03*
X130078159Y-103103821D03*
X130431713Y-103457375D03*
X130785266Y-103810928D03*
X131138819Y-104164481D03*
D29*
X133861181Y-104164481D03*
X134214734Y-103810928D03*
X134568287Y-103457375D03*
X134921841Y-103103821D03*
X135275394Y-102750268D03*
X135628948Y-102396714D03*
X135982501Y-102043161D03*
X136336054Y-101689608D03*
X136689608Y-101336054D03*
X137043161Y-100982501D03*
X137396714Y-100628948D03*
X137750268Y-100275394D03*
X138103821Y-99921841D03*
X138457375Y-99568287D03*
X138810928Y-99214734D03*
X139164481Y-98861181D03*
D30*
X139164481Y-96138819D03*
X138810928Y-95785266D03*
X138457375Y-95431713D03*
X138103821Y-95078159D03*
X137750268Y-94724606D03*
X137396714Y-94371052D03*
X137043161Y-94017499D03*
X136689608Y-93663946D03*
X136336054Y-93310392D03*
X135982501Y-92956839D03*
X135628948Y-92603286D03*
X135275394Y-92249732D03*
X134921841Y-91896179D03*
X134568287Y-91542625D03*
X134214734Y-91189072D03*
X133861181Y-90835519D03*
%TD*%
D16*
%TO.C,R17*%
X147273000Y-116408200D03*
X149098000Y-116408200D03*
%TD*%
D31*
%TO.C,R14*%
X114808000Y-112117500D03*
X114808000Y-113942500D03*
%TD*%
D32*
%TO.C,C25*%
X155128000Y-120650000D03*
X153228000Y-120650000D03*
%TD*%
D22*
%TO.C,C13*%
X153060400Y-91870000D03*
X153060400Y-94820000D03*
%TD*%
D33*
%TO.C,D2*%
X116997000Y-77470000D03*
X118872000Y-77470000D03*
%TD*%
D32*
%TO.C,C5*%
X133450000Y-88392000D03*
X131550000Y-88392000D03*
%TD*%
D16*
%TO.C,A1*%
X124309500Y-116078000D03*
X126134500Y-116078000D03*
%TD*%
%TO.C,R16*%
X147273000Y-113792000D03*
X149098000Y-113792000D03*
%TD*%
D24*
%TO.C,R7*%
X143256000Y-85852000D03*
X141431000Y-85852000D03*
%TD*%
D23*
%TO.C,C8*%
X131550000Y-106680000D03*
X133450000Y-106680000D03*
%TD*%
D24*
%TO.C,R10*%
X128571000Y-74422000D03*
X126746000Y-74422000D03*
%TD*%
D34*
%TO.C,U3*%
X159004000Y-71134000D03*
X159004000Y-68834000D03*
D35*
X152704000Y-68834000D03*
D34*
X159004000Y-66534000D03*
%TD*%
D24*
%TO.C,R12*%
X159994600Y-79756000D03*
X158169600Y-79756000D03*
%TD*%
D36*
%TO.C,U5*%
X155315501Y-118552000D03*
X155315501Y-117602000D03*
X155315501Y-116652000D03*
X153040501Y-116652000D03*
X153040501Y-117602000D03*
X153040501Y-118552000D03*
%TD*%
D32*
%TO.C,C31*%
X126471600Y-109220000D03*
X128371600Y-109220000D03*
%TD*%
D37*
%TO.C,C17*%
X113489000Y-119888000D03*
X110539000Y-119888000D03*
%TD*%
D38*
%TO.C,R15*%
X117602000Y-113942500D03*
X117602000Y-112117500D03*
%TD*%
D39*
%TO.C,C11*%
X120396000Y-95250000D03*
X120396000Y-92550000D03*
%TD*%
D40*
%TO.C,C23*%
X155243000Y-110998000D03*
X158193000Y-110998000D03*
%TD*%
D16*
%TO.C,R18*%
X147273000Y-118999000D03*
X149098000Y-118999000D03*
%TD*%
D41*
%TO.C,SW1*%
X111333001Y-70612000D03*
X105582999Y-70612000D03*
X111333001Y-66611998D03*
X105582999Y-66611998D03*
%TD*%
D42*
%TO.C,D4*%
X163195000Y-75851000D03*
X163195000Y-79851000D03*
%TD*%
D13*
%TO.C,C27*%
X154940000Y-126697000D03*
X154940000Y-123747000D03*
%TD*%
D19*
%TO.C,C4*%
X123139200Y-99634000D03*
X123139200Y-101534000D03*
%TD*%
D25*
%TO.C,C6*%
X141732000Y-98450000D03*
X141732000Y-96550000D03*
%TD*%
D43*
%TO.C,C12*%
X133850000Y-109220000D03*
X131150000Y-109220000D03*
%TD*%
D44*
%TO.C,C19*%
X153510000Y-74422000D03*
X156210000Y-74422000D03*
%TD*%
D19*
%TO.C,C7*%
X123063000Y-93512600D03*
X123063000Y-95412600D03*
%TD*%
D24*
%TO.C,R8*%
X128334100Y-106680000D03*
X126509100Y-106680000D03*
%TD*%
D45*
%TO.C,U7*%
X128275000Y-117856000D03*
X128925000Y-117856000D03*
X129575000Y-117856000D03*
X130225000Y-117856000D03*
X130875000Y-117856000D03*
X131525000Y-117856000D03*
X132175000Y-117856000D03*
X132825000Y-117856000D03*
X133475000Y-117856000D03*
X134125000Y-117856000D03*
X134775000Y-117856000D03*
X135425000Y-117856000D03*
X136075000Y-117856000D03*
X136725000Y-117856000D03*
X136725000Y-112131000D03*
X136075000Y-112131000D03*
X135425000Y-112131000D03*
X134775000Y-112131000D03*
X134125000Y-112131000D03*
X133475000Y-112131000D03*
X132825000Y-112131000D03*
X132175000Y-112131000D03*
X131525000Y-112131000D03*
X130875000Y-112131000D03*
X130225000Y-112131000D03*
X129575000Y-112131000D03*
X128925000Y-112131000D03*
X128275000Y-112131000D03*
%TD*%
D44*
%TO.C,C9*%
X131150000Y-85852000D03*
X133850000Y-85852000D03*
%TD*%
D46*
%TO.C,C24*%
X155243000Y-114300000D03*
X158193000Y-114300000D03*
%TD*%
D16*
%TO.C,R1*%
X136351000Y-74422000D03*
X138176000Y-74422000D03*
%TD*%
D25*
%TO.C,C1*%
X102743000Y-70673000D03*
X102743000Y-68773000D03*
%TD*%
D31*
%TO.C,R13*%
X104394000Y-112117500D03*
X104394000Y-113942500D03*
%TD*%
D24*
%TO.C,R4*%
X118872000Y-74422000D03*
X117047000Y-74422000D03*
%TD*%
D33*
%TO.C,D1*%
X121823000Y-77470000D03*
X123698000Y-77470000D03*
%TD*%
D25*
%TO.C,C2*%
X127000000Y-85344000D03*
X127000000Y-83444000D03*
%TD*%
D32*
%TO.C,C28*%
X115504000Y-99948500D03*
X113604000Y-99948500D03*
%TD*%
D39*
%TO.C,C14*%
X120396000Y-102416600D03*
X120396000Y-99716600D03*
%TD*%
D31*
%TO.C,R5*%
X153035000Y-87708100D03*
X153035000Y-89533100D03*
%TD*%
D13*
%TO.C,C26*%
X151384000Y-126697000D03*
X151384000Y-123747000D03*
%TD*%
D47*
%TO.C,Y1*%
X124206000Y-83144000D03*
X117906000Y-83144000D03*
X117906000Y-85644000D03*
X124206000Y-85644000D03*
%TD*%
D13*
%TO.C,C22*%
X110236000Y-126697000D03*
X110236000Y-123747000D03*
%TD*%
D48*
%TO.C,FB1*%
X151155500Y-74422000D03*
X149580500Y-74422000D03*
%TD*%
M02*
