%TF.GenerationSoftware,KiCad,Pcbnew,7.0.5*%
%TF.CreationDate,2023-12-13T15:43:58+01:00*%
%TF.ProjectId,Hexapod UGV v1.0,48657861-706f-4642-9055-47562076312e,rev?*%
%TF.SameCoordinates,Original*%
%TF.FileFunction,Copper,L1,Top*%
%TF.FilePolarity,Positive*%
%FSLAX46Y46*%
G04 Gerber Fmt 4.6, Leading zero omitted, Abs format (unit mm)*
G04 Created by KiCad (PCBNEW 7.0.5) date 2023-12-13 15:43:58*
%MOMM*%
%LPD*%
G01*
G04 APERTURE LIST*
G04 Aperture macros list*
%AMRoundRect*
0 Rectangle with rounded corners*
0 $1 Rounding radius*
0 $2 $3 $4 $5 $6 $7 $8 $9 X,Y pos of 4 corners*
0 Add a 4 corners polygon primitive as box body*
4,1,4,$2,$3,$4,$5,$6,$7,$8,$9,$2,$3,0*
0 Add four circle primitives for the rounded corners*
1,1,$1+$1,$2,$3*
1,1,$1+$1,$4,$5*
1,1,$1+$1,$6,$7*
1,1,$1+$1,$8,$9*
0 Add four rect primitives between the rounded corners*
20,1,$1+$1,$2,$3,$4,$5,0*
20,1,$1+$1,$4,$5,$6,$7,0*
20,1,$1+$1,$6,$7,$8,$9,0*
20,1,$1+$1,$8,$9,$2,$3,0*%
%AMFreePoly0*
4,1,19,0.500000,-0.750000,0.000000,-0.750000,0.000000,-0.744911,-0.071157,-0.744911,-0.207708,-0.704816,-0.327430,-0.627875,-0.420627,-0.520320,-0.479746,-0.390866,-0.500000,-0.250000,-0.500000,0.250000,-0.479746,0.390866,-0.420627,0.520320,-0.327430,0.627875,-0.207708,0.704816,-0.071157,0.744911,0.000000,0.744911,0.000000,0.750000,0.500000,0.750000,0.500000,-0.750000,0.500000,-0.750000,
$1*%
%AMFreePoly1*
4,1,19,0.000000,0.744911,0.071157,0.744911,0.207708,0.704816,0.327430,0.627875,0.420627,0.520320,0.479746,0.390866,0.500000,0.250000,0.500000,-0.250000,0.479746,-0.390866,0.420627,-0.520320,0.327430,-0.627875,0.207708,-0.704816,0.071157,-0.744911,0.000000,-0.744911,0.000000,-0.750000,-0.500000,-0.750000,-0.500000,0.750000,0.000000,0.750000,0.000000,0.744911,0.000000,0.744911,
$1*%
G04 Aperture macros list end*
%TA.AperFunction,SMDPad,CuDef*%
%ADD10R,0.250000X0.675000*%
%TD*%
%TA.AperFunction,SMDPad,CuDef*%
%ADD11R,0.675000X0.250000*%
%TD*%
%TA.AperFunction,SMDPad,CuDef*%
%ADD12RoundRect,0.125000X-0.537500X-0.125000X0.537500X-0.125000X0.537500X0.125000X-0.537500X0.125000X0*%
%TD*%
%TA.AperFunction,ComponentPad*%
%ADD13C,3.600000*%
%TD*%
%TA.AperFunction,ConnectorPad*%
%ADD14C,6.400000*%
%TD*%
%TA.AperFunction,SMDPad,CuDef*%
%ADD15RoundRect,0.250000X1.100000X-0.325000X1.100000X0.325000X-1.100000X0.325000X-1.100000X-0.325000X0*%
%TD*%
%TA.AperFunction,SMDPad,CuDef*%
%ADD16R,2.500000X0.500000*%
%TD*%
%TA.AperFunction,SMDPad,CuDef*%
%ADD17R,2.500000X2.000000*%
%TD*%
%TA.AperFunction,SMDPad,CuDef*%
%ADD18RoundRect,0.250000X-0.262500X-0.450000X0.262500X-0.450000X0.262500X0.450000X-0.262500X0.450000X0*%
%TD*%
%TA.AperFunction,SMDPad,CuDef*%
%ADD19RoundRect,0.150000X0.587500X0.150000X-0.587500X0.150000X-0.587500X-0.150000X0.587500X-0.150000X0*%
%TD*%
%TA.AperFunction,SMDPad,CuDef*%
%ADD20RoundRect,0.250000X-0.375000X-0.625000X0.375000X-0.625000X0.375000X0.625000X-0.375000X0.625000X0*%
%TD*%
%TA.AperFunction,SMDPad,CuDef*%
%ADD21RoundRect,0.250000X-0.475000X0.250000X-0.475000X-0.250000X0.475000X-0.250000X0.475000X0.250000X0*%
%TD*%
%TA.AperFunction,SMDPad,CuDef*%
%ADD22RoundRect,0.250000X0.325000X0.650000X-0.325000X0.650000X-0.325000X-0.650000X0.325000X-0.650000X0*%
%TD*%
%TA.AperFunction,SMDPad,CuDef*%
%ADD23RoundRect,0.150000X0.150000X-0.512500X0.150000X0.512500X-0.150000X0.512500X-0.150000X-0.512500X0*%
%TD*%
%TA.AperFunction,SMDPad,CuDef*%
%ADD24RoundRect,0.250000X-0.650000X0.325000X-0.650000X-0.325000X0.650000X-0.325000X0.650000X0.325000X0*%
%TD*%
%TA.AperFunction,SMDPad,CuDef*%
%ADD25RoundRect,0.250000X-0.250000X-0.475000X0.250000X-0.475000X0.250000X0.475000X-0.250000X0.475000X0*%
%TD*%
%TA.AperFunction,ComponentPad*%
%ADD26R,1.700000X1.700000*%
%TD*%
%TA.AperFunction,ComponentPad*%
%ADD27O,1.700000X1.700000*%
%TD*%
%TA.AperFunction,SMDPad,CuDef*%
%ADD28FreePoly0,180.000000*%
%TD*%
%TA.AperFunction,SMDPad,CuDef*%
%ADD29FreePoly1,180.000000*%
%TD*%
%TA.AperFunction,ComponentPad*%
%ADD30RoundRect,0.250000X-0.620000X-0.845000X0.620000X-0.845000X0.620000X0.845000X-0.620000X0.845000X0*%
%TD*%
%TA.AperFunction,ComponentPad*%
%ADD31O,1.740000X2.190000*%
%TD*%
%TA.AperFunction,SMDPad,CuDef*%
%ADD32RoundRect,0.250000X0.262500X0.450000X-0.262500X0.450000X-0.262500X-0.450000X0.262500X-0.450000X0*%
%TD*%
%TA.AperFunction,SMDPad,CuDef*%
%ADD33RoundRect,0.250000X0.475000X-0.250000X0.475000X0.250000X-0.475000X0.250000X-0.475000X-0.250000X0*%
%TD*%
%TA.AperFunction,SMDPad,CuDef*%
%ADD34RoundRect,0.250000X-0.425000X0.450000X-0.425000X-0.450000X0.425000X-0.450000X0.425000X0.450000X0*%
%TD*%
%TA.AperFunction,SMDPad,CuDef*%
%ADD35R,3.000000X2.500000*%
%TD*%
%TA.AperFunction,SMDPad,CuDef*%
%ADD36RoundRect,0.250000X-0.362500X-1.425000X0.362500X-1.425000X0.362500X1.425000X-0.362500X1.425000X0*%
%TD*%
%TA.AperFunction,SMDPad,CuDef*%
%ADD37RoundRect,0.075000X-0.548008X0.441942X0.441942X-0.548008X0.548008X-0.441942X-0.441942X0.548008X0*%
%TD*%
%TA.AperFunction,SMDPad,CuDef*%
%ADD38RoundRect,0.075000X-0.548008X-0.441942X-0.441942X-0.548008X0.548008X0.441942X0.441942X0.548008X0*%
%TD*%
%TA.AperFunction,WasherPad*%
%ADD39C,1.800000*%
%TD*%
%TA.AperFunction,ComponentPad*%
%ADD40C,1.524000*%
%TD*%
%TA.AperFunction,SMDPad,CuDef*%
%ADD41RoundRect,0.250000X-0.450000X0.262500X-0.450000X-0.262500X0.450000X-0.262500X0.450000X0.262500X0*%
%TD*%
%TA.AperFunction,SMDPad,CuDef*%
%ADD42RoundRect,0.250000X0.250000X0.475000X-0.250000X0.475000X-0.250000X-0.475000X0.250000X-0.475000X0*%
%TD*%
%TA.AperFunction,SMDPad,CuDef*%
%ADD43RoundRect,0.243750X-0.243750X-0.456250X0.243750X-0.456250X0.243750X0.456250X-0.243750X0.456250X0*%
%TD*%
%TA.AperFunction,SMDPad,CuDef*%
%ADD44R,2.000000X1.500000*%
%TD*%
%TA.AperFunction,SMDPad,CuDef*%
%ADD45R,2.000000X3.800000*%
%TD*%
%TA.AperFunction,ComponentPad*%
%ADD46RoundRect,1.500000X-1.500000X1.500000X-1.500000X-1.500000X1.500000X-1.500000X1.500000X1.500000X0*%
%TD*%
%TA.AperFunction,ComponentPad*%
%ADD47C,6.000000*%
%TD*%
%TA.AperFunction,SMDPad,CuDef*%
%ADD48RoundRect,0.150000X0.512500X0.150000X-0.512500X0.150000X-0.512500X-0.150000X0.512500X-0.150000X0*%
%TD*%
%TA.AperFunction,SMDPad,CuDef*%
%ADD49RoundRect,0.250000X0.325000X1.100000X-0.325000X1.100000X-0.325000X-1.100000X0.325000X-1.100000X0*%
%TD*%
%TA.AperFunction,SMDPad,CuDef*%
%ADD50RoundRect,0.250000X0.450000X-0.262500X0.450000X0.262500X-0.450000X0.262500X-0.450000X-0.262500X0*%
%TD*%
%TA.AperFunction,SMDPad,CuDef*%
%ADD51RoundRect,0.250000X0.425000X-0.450000X0.425000X0.450000X-0.425000X0.450000X-0.425000X-0.450000X0*%
%TD*%
%TA.AperFunction,SMDPad,CuDef*%
%ADD52RoundRect,0.250000X-0.325000X-1.100000X0.325000X-1.100000X0.325000X1.100000X-0.325000X1.100000X0*%
%TD*%
%TA.AperFunction,SMDPad,CuDef*%
%ADD53R,2.750000X1.000000*%
%TD*%
%TA.AperFunction,SMDPad,CuDef*%
%ADD54RoundRect,0.250000X-0.650000X1.000000X-0.650000X-1.000000X0.650000X-1.000000X0.650000X1.000000X0*%
%TD*%
%TA.AperFunction,SMDPad,CuDef*%
%ADD55RoundRect,0.250000X0.450000X0.425000X-0.450000X0.425000X-0.450000X-0.425000X0.450000X-0.425000X0*%
%TD*%
%TA.AperFunction,SMDPad,CuDef*%
%ADD56RoundRect,0.250000X-0.450000X-0.425000X0.450000X-0.425000X0.450000X0.425000X-0.450000X0.425000X0*%
%TD*%
%TA.AperFunction,ComponentPad*%
%ADD57C,1.600000*%
%TD*%
%TA.AperFunction,SMDPad,CuDef*%
%ADD58RoundRect,0.100000X0.100000X-0.637500X0.100000X0.637500X-0.100000X0.637500X-0.100000X-0.637500X0*%
%TD*%
%TA.AperFunction,SMDPad,CuDef*%
%ADD59RoundRect,0.250000X-0.325000X-0.650000X0.325000X-0.650000X0.325000X0.650000X-0.325000X0.650000X0*%
%TD*%
%TA.AperFunction,SMDPad,CuDef*%
%ADD60R,2.200000X1.400000*%
%TD*%
%TA.AperFunction,SMDPad,CuDef*%
%ADD61RoundRect,0.218750X0.218750X0.256250X-0.218750X0.256250X-0.218750X-0.256250X0.218750X-0.256250X0*%
%TD*%
%TA.AperFunction,ViaPad*%
%ADD62C,0.700000*%
%TD*%
%TA.AperFunction,ViaPad*%
%ADD63C,0.800000*%
%TD*%
%TA.AperFunction,Conductor*%
%ADD64C,0.200000*%
%TD*%
%TA.AperFunction,Conductor*%
%ADD65C,0.500000*%
%TD*%
%TA.AperFunction,Conductor*%
%ADD66C,0.700000*%
%TD*%
%TA.AperFunction,Conductor*%
%ADD67C,0.300000*%
%TD*%
%TA.AperFunction,Conductor*%
%ADD68C,0.400000*%
%TD*%
%TA.AperFunction,Conductor*%
%ADD69C,0.800000*%
%TD*%
%TA.AperFunction,Conductor*%
%ADD70C,0.250000*%
%TD*%
%TA.AperFunction,Conductor*%
%ADD71C,0.600000*%
%TD*%
%TA.AperFunction,Conductor*%
%ADD72C,2.900000*%
%TD*%
%TA.AperFunction,Conductor*%
%ADD73C,7.500000*%
%TD*%
G04 APERTURE END LIST*
D10*
%TO.P,IC1,1,INT2*%
%TO.N,unconnected-(IC1-INT2-Pad1)*%
X143806000Y-79397000D03*
%TO.P,IC1,2,NC*%
%TO.N,unconnected-(IC1-NC-Pad2)*%
X143306000Y-79397000D03*
%TO.P,IC1,3,VDD*%
%TO.N,+3V3*%
X142806000Y-79397000D03*
%TO.P,IC1,4,GNDA*%
%TO.N,GND*%
X142306000Y-79397000D03*
%TO.P,IC1,5,CSB2*%
%TO.N,unconnected-(IC1-CSB2-Pad5)*%
X141806000Y-79397000D03*
%TO.P,IC1,6,GNDIO*%
%TO.N,GND*%
X141306000Y-79397000D03*
%TO.P,IC1,7,PS*%
%TO.N,+3V3*%
X140806000Y-79397000D03*
D11*
%TO.P,IC1,8,SCL/SCK*%
%TO.N,I2C_1_SCL*%
X140391000Y-78232000D03*
D10*
%TO.P,IC1,9,SDA/SDI*%
%TO.N,I2C_1_SDA*%
X140806000Y-77067000D03*
%TO.P,IC1,10,SDO2*%
%TO.N,+3V3*%
X141306000Y-77067000D03*
%TO.P,IC1,11,VDDIO*%
X141806000Y-77067000D03*
%TO.P,IC1,12,INT3*%
%TO.N,INT_GYR*%
X142306000Y-77067000D03*
%TO.P,IC1,13,INT4*%
%TO.N,unconnected-(IC1-INT4-Pad13)*%
X142806000Y-77067000D03*
%TO.P,IC1,14,CSB1*%
%TO.N,+3V3*%
X143306000Y-77067000D03*
%TO.P,IC1,15,SDO1*%
X143806000Y-77067000D03*
D11*
%TO.P,IC1,16,INT1*%
%TO.N,INT_ACC*%
X144221000Y-78232000D03*
%TD*%
D12*
%TO.P,U6,1,IN+*%
%TO.N,VIN+*%
X113416500Y-95799000D03*
%TO.P,U6,2,IN-*%
%TO.N,VIN-*%
X113416500Y-96449000D03*
%TO.P,U6,3,GND*%
%TO.N,GND*%
X113416500Y-97099000D03*
%TO.P,U6,4,VS*%
%TO.N,+3V3*%
X113416500Y-97749000D03*
%TO.P,U6,5,SCL*%
%TO.N,I2C_1_SCL*%
X115691500Y-97749000D03*
%TO.P,U6,6,SDA*%
%TO.N,I2C_1_SDA*%
X115691500Y-97099000D03*
%TO.P,U6,7,A0*%
%TO.N,GND*%
X115691500Y-96449000D03*
%TO.P,U6,8,A1*%
X115691500Y-95799000D03*
%TD*%
D13*
%TO.P,H2,1,1*%
%TO.N,unconnected-(H2-Pad1)*%
X100000000Y-130000000D03*
D14*
X100000000Y-130000000D03*
%TD*%
D15*
%TO.P,C21,1*%
%TO.N,+5VL*%
X113792000Y-126697000D03*
%TO.P,C21,2*%
%TO.N,GND*%
X113792000Y-123747000D03*
%TD*%
D16*
%TO.P,J4,1,VBUS*%
%TO.N,VBUS*%
X157792000Y-91688000D03*
%TO.P,J4,2,D-*%
%TO.N,/MCU /USB_D-*%
X157792000Y-90888000D03*
%TO.P,J4,3,D+*%
%TO.N,/MCU /USB_D+*%
X157792000Y-90088000D03*
%TO.P,J4,4,ID*%
%TO.N,unconnected-(J4-ID-Pad4)*%
X157792000Y-89288000D03*
%TO.P,J4,5,GND*%
%TO.N,GND*%
X157792000Y-88488000D03*
D17*
%TO.P,J4,6,Shield*%
%TO.N,unconnected-(J4-Shield-Pad6)*%
X157792000Y-94488000D03*
X163292000Y-94488000D03*
X157792000Y-85688000D03*
X163292000Y-85688000D03*
%TD*%
D18*
%TO.P,R9,1*%
%TO.N,+3V3*%
X121466600Y-106680000D03*
%TO.P,R9,2*%
%TO.N,I2C_2_SCL*%
X123291600Y-106680000D03*
%TD*%
D19*
%TO.P,Q1,1,G*%
%TO.N,+5VP*%
X160020000Y-77211000D03*
%TO.P,Q1,2,S*%
%TO.N,Net-(D4-K)*%
X160020000Y-75311000D03*
%TO.P,Q1,3,D*%
%TO.N,VBUS*%
X158145000Y-76261000D03*
%TD*%
D18*
%TO.P,R2,1*%
%TO.N,Net-(C3-Pad1)*%
X120143500Y-88900000D03*
%TO.P,R2,2*%
%TO.N,/MCU /RCC_OSC_OUT*%
X121968500Y-88900000D03*
%TD*%
D20*
%TO.P,D3,1,K*%
%TO.N,Net-(D3-K)*%
X131100000Y-74422000D03*
%TO.P,D3,2,A*%
%TO.N,+3V3*%
X133900000Y-74422000D03*
%TD*%
D13*
%TO.P,H4,1,1*%
%TO.N,unconnected-(H4-Pad1)*%
X165000000Y-130000000D03*
D14*
X165000000Y-130000000D03*
%TD*%
D21*
%TO.P,C20,1*%
%TO.N,Net-(U4-VBST)*%
X107442000Y-112080000D03*
%TO.P,C20,2*%
%TO.N,/Power/SW1*%
X107442000Y-113980000D03*
%TD*%
D22*
%TO.P,C18,1*%
%TO.N,VIN-*%
X113489000Y-116840000D03*
%TO.P,C18,2*%
%TO.N,GND*%
X110539000Y-116840000D03*
%TD*%
D23*
%TO.P,U4,1,GND*%
%TO.N,GND*%
X110048000Y-114167500D03*
%TO.P,U4,2,SW*%
%TO.N,/Power/SW1*%
X110998000Y-114167500D03*
%TO.P,U4,3,VIN*%
%TO.N,VIN-*%
X111948000Y-114167500D03*
%TO.P,U4,4,VFB*%
%TO.N,Net-(U4-VFB)*%
X111948000Y-111892500D03*
%TO.P,U4,5,EN*%
%TO.N,Net-(U4-EN)*%
X110998000Y-111892500D03*
%TO.P,U4,6,VBST*%
%TO.N,Net-(U4-VBST)*%
X110048000Y-111892500D03*
%TD*%
D18*
%TO.P,R6,1*%
%TO.N,+3V3*%
X136605000Y-85852000D03*
%TO.P,R6,2*%
%TO.N,I2C_1_SDA*%
X138430000Y-85852000D03*
%TD*%
D24*
%TO.P,C16,1*%
%TO.N,Net-(D4-K)*%
X161925000Y-68805000D03*
%TO.P,C16,2*%
%TO.N,GND*%
X161925000Y-71755000D03*
%TD*%
D25*
%TO.P,C30,1*%
%TO.N,GND*%
X141356000Y-82804000D03*
%TO.P,C30,2*%
%TO.N,+3V3*%
X143256000Y-82804000D03*
%TD*%
D26*
%TO.P,PWR1,1,Pin_1*%
%TO.N,GND*%
X118530000Y-128500000D03*
D27*
%TO.P,PWR1,2,Pin_2*%
%TO.N,+5VL*%
X118530000Y-125960000D03*
%TO.P,PWR1,3,Pin_3*%
%TO.N,GND*%
X121070000Y-128500000D03*
%TO.P,PWR1,4,Pin_4*%
%TO.N,+5VL*%
X121070000Y-125960000D03*
%TO.P,PWR1,5,Pin_5*%
%TO.N,GND*%
X123610000Y-128500000D03*
%TO.P,PWR1,6,Pin_6*%
%TO.N,+5VL*%
X123610000Y-125960000D03*
%TO.P,PWR1,7,Pin_7*%
%TO.N,GND*%
X126150000Y-128500000D03*
%TO.P,PWR1,8,Pin_8*%
%TO.N,+5VL*%
X126150000Y-125960000D03*
%TO.P,PWR1,9,Pin_9*%
%TO.N,GND*%
X128690000Y-128500000D03*
%TO.P,PWR1,10,Pin_10*%
%TO.N,+5VL*%
X128690000Y-125960000D03*
%TO.P,PWR1,11,Pin_11*%
%TO.N,GND*%
X131230000Y-128500000D03*
%TO.P,PWR1,12,Pin_12*%
%TO.N,+5VL*%
X131230000Y-125960000D03*
%TO.P,PWR1,13,Pin_13*%
%TO.N,GND*%
X133770000Y-128500000D03*
%TO.P,PWR1,14,Pin_14*%
%TO.N,+5VP*%
X133770000Y-125960000D03*
%TO.P,PWR1,15,Pin_15*%
%TO.N,GND*%
X136310000Y-128500000D03*
%TO.P,PWR1,16,Pin_16*%
%TO.N,+5VP*%
X136310000Y-125960000D03*
%TO.P,PWR1,17,Pin_17*%
%TO.N,GND*%
X138850000Y-128500000D03*
%TO.P,PWR1,18,Pin_18*%
%TO.N,+5VP*%
X138850000Y-125960000D03*
%TO.P,PWR1,19,Pin_19*%
%TO.N,GND*%
X141390000Y-128500000D03*
%TO.P,PWR1,20,Pin_20*%
%TO.N,+5VP*%
X141390000Y-125960000D03*
%TO.P,PWR1,21,Pin_21*%
%TO.N,GND*%
X143930000Y-128500000D03*
%TO.P,PWR1,22,Pin_22*%
%TO.N,+5VP*%
X143930000Y-125960000D03*
%TO.P,PWR1,23,Pin_23*%
%TO.N,GND*%
X146470000Y-128500000D03*
%TO.P,PWR1,24,Pin_24*%
%TO.N,+5VP*%
X146470000Y-125960000D03*
%TD*%
D28*
%TO.P,JP1,1,A*%
%TO.N,Net-(JP1-A)*%
X122428000Y-116078000D03*
D29*
%TO.P,JP1,2,B*%
%TO.N,+3V3*%
X121128000Y-116078000D03*
%TD*%
D30*
%TO.P,J2,1,Pin_1*%
%TO.N,I2C_1_SCL*%
X115950000Y-68240000D03*
D31*
%TO.P,J2,2,Pin_2*%
%TO.N,I2C_1_SDA*%
X118490000Y-68240000D03*
%TO.P,J2,3,Pin_3*%
%TO.N,+3V3*%
X121030000Y-68240000D03*
%TO.P,J2,4,Pin_4*%
%TO.N,GND*%
X123570000Y-68240000D03*
%TD*%
D32*
%TO.P,R3,1*%
%TO.N,Net-(D1-K)*%
X123673000Y-74422000D03*
%TO.P,R3,2*%
%TO.N,GND*%
X121848000Y-74422000D03*
%TD*%
D33*
%TO.P,C3,1*%
%TO.N,Net-(C3-Pad1)*%
X115062000Y-85344000D03*
%TO.P,C3,2*%
%TO.N,GND*%
X115062000Y-83444000D03*
%TD*%
D30*
%TO.P,J3,1,Pin_1*%
%TO.N,GND*%
X141430000Y-68220000D03*
D31*
%TO.P,J3,2,Pin_2*%
%TO.N,SWCLK*%
X143970000Y-68220000D03*
%TO.P,J3,3,Pin_3*%
%TO.N,SWDIO*%
X146510000Y-68220000D03*
%TO.P,J3,4,Pin_4*%
%TO.N,+3V3*%
X149050000Y-68220000D03*
%TD*%
D34*
%TO.P,C10,1*%
%TO.N,+3V3*%
X144272000Y-96150000D03*
%TO.P,C10,2*%
%TO.N,GND*%
X144272000Y-98850000D03*
%TD*%
D26*
%TO.P,SIG1,1,Pin_1*%
%TO.N,PWM_0*%
X118530000Y-123420000D03*
D27*
%TO.P,SIG1,2,Pin_2*%
%TO.N,PWM_1*%
X121070000Y-123420000D03*
%TO.P,SIG1,3,Pin_3*%
%TO.N,PWM_2*%
X123610000Y-123420000D03*
%TO.P,SIG1,4,Pin_4*%
%TO.N,PWM_3*%
X126150000Y-123420000D03*
%TO.P,SIG1,5,Pin_5*%
%TO.N,PWM_4*%
X128690000Y-123420000D03*
%TO.P,SIG1,6,Pin_6*%
%TO.N,PWM_5*%
X131230000Y-123420000D03*
%TO.P,SIG1,7,Pin_7*%
%TO.N,PWM_6*%
X133770000Y-123420000D03*
%TO.P,SIG1,8,Pin_8*%
%TO.N,PWM_7*%
X136310000Y-123420000D03*
%TO.P,SIG1,9,Pin_9*%
%TO.N,PWM_8*%
X138850000Y-123420000D03*
%TO.P,SIG1,10,Pin_10*%
%TO.N,PWM_9*%
X141390000Y-123420000D03*
%TO.P,SIG1,11,Pin_11*%
%TO.N,PWM_10*%
X143930000Y-123420000D03*
%TO.P,SIG1,12,Pin_12*%
%TO.N,PWM_11*%
X146470000Y-123420000D03*
%TD*%
D35*
%TO.P,L2,1,1*%
%TO.N,/Power/SW2*%
X160782000Y-117438000D03*
%TO.P,L2,2,2*%
%TO.N,+5VP*%
X160782000Y-122338000D03*
%TD*%
D25*
%TO.P,C29,1*%
%TO.N,GND*%
X141356000Y-74422000D03*
%TO.P,C29,2*%
%TO.N,+3V3*%
X143256000Y-74422000D03*
%TD*%
D36*
%TO.P,R11,1*%
%TO.N,VIN+*%
X103666700Y-105841800D03*
%TO.P,R11,2*%
%TO.N,VIN-*%
X109591700Y-105841800D03*
%TD*%
D35*
%TO.P,L1,1,1*%
%TO.N,/Power/SW1*%
X104394000Y-117438000D03*
%TO.P,L1,2,2*%
%TO.N,+5VL*%
X104394000Y-122338000D03*
%TD*%
D37*
%TO.P,U2,1,VBAT*%
%TO.N,+3V3*%
X131138819Y-90835519D03*
%TO.P,U2,2,PC13*%
%TO.N,Net-(D1-A)*%
X130785266Y-91189072D03*
%TO.P,U2,3,PC14*%
%TO.N,Net-(D2-A)*%
X130431713Y-91542625D03*
%TO.P,U2,4,PC15*%
%TO.N,unconnected-(U2-PC15-Pad4)*%
X130078159Y-91896179D03*
%TO.P,U2,5,PD0*%
%TO.N,/MCU /RCC_OSC_IN*%
X129724606Y-92249732D03*
%TO.P,U2,6,PD1*%
%TO.N,/MCU /RCC_OSC_OUT*%
X129371052Y-92603286D03*
%TO.P,U2,7,NRST*%
%TO.N,NRST*%
X129017499Y-92956839D03*
%TO.P,U2,8,PC0*%
%TO.N,unconnected-(U2-PC0-Pad8)*%
X128663946Y-93310392D03*
%TO.P,U2,9,PC1*%
%TO.N,unconnected-(U2-PC1-Pad9)*%
X128310392Y-93663946D03*
%TO.P,U2,10,PC2*%
%TO.N,unconnected-(U2-PC2-Pad10)*%
X127956839Y-94017499D03*
%TO.P,U2,11,PC3*%
%TO.N,unconnected-(U2-PC3-Pad11)*%
X127603286Y-94371052D03*
%TO.P,U2,12,VSSA*%
%TO.N,GND*%
X127249732Y-94724606D03*
%TO.P,U2,13,VDDA*%
%TO.N,+3V3*%
X126896179Y-95078159D03*
%TO.P,U2,14,PA0*%
%TO.N,unconnected-(U2-PA0-Pad14)*%
X126542625Y-95431713D03*
%TO.P,U2,15,PA1*%
%TO.N,unconnected-(U2-PA1-Pad15)*%
X126189072Y-95785266D03*
%TO.P,U2,16,PA2*%
%TO.N,unconnected-(U2-PA2-Pad16)*%
X125835519Y-96138819D03*
D38*
%TO.P,U2,17,PA3*%
%TO.N,unconnected-(U2-PA3-Pad17)*%
X125835519Y-98861181D03*
%TO.P,U2,18,VSS*%
%TO.N,GND*%
X126189072Y-99214734D03*
%TO.P,U2,19,VDD*%
%TO.N,+3V3*%
X126542625Y-99568287D03*
%TO.P,U2,20,PA4*%
%TO.N,unconnected-(U2-PA4-Pad20)*%
X126896179Y-99921841D03*
%TO.P,U2,21,PA5*%
%TO.N,unconnected-(U2-PA5-Pad21)*%
X127249732Y-100275394D03*
%TO.P,U2,22,PA6*%
%TO.N,unconnected-(U2-PA6-Pad22)*%
X127603286Y-100628948D03*
%TO.P,U2,23,PA7*%
%TO.N,unconnected-(U2-PA7-Pad23)*%
X127956839Y-100982501D03*
%TO.P,U2,24,PC4*%
%TO.N,unconnected-(U2-PC4-Pad24)*%
X128310392Y-101336054D03*
%TO.P,U2,25,PC5*%
%TO.N,unconnected-(U2-PC5-Pad25)*%
X128663946Y-101689608D03*
%TO.P,U2,26,PB0*%
%TO.N,unconnected-(U2-PB0-Pad26)*%
X129017499Y-102043161D03*
%TO.P,U2,27,PB1*%
%TO.N,unconnected-(U2-PB1-Pad27)*%
X129371052Y-102396714D03*
%TO.P,U2,28,PB2*%
%TO.N,unconnected-(U2-PB2-Pad28)*%
X129724606Y-102750268D03*
%TO.P,U2,29,PB10*%
%TO.N,I2C_2_SCL*%
X130078159Y-103103821D03*
%TO.P,U2,30,PB11*%
%TO.N,I2C_2_SDA*%
X130431713Y-103457375D03*
%TO.P,U2,31,VSS*%
%TO.N,GND*%
X130785266Y-103810928D03*
%TO.P,U2,32,VDD*%
%TO.N,+3V3*%
X131138819Y-104164481D03*
D37*
%TO.P,U2,33,PB12*%
%TO.N,unconnected-(U2-PB12-Pad33)*%
X133861181Y-104164481D03*
%TO.P,U2,34,PB13*%
%TO.N,SPI2_SCK*%
X134214734Y-103810928D03*
%TO.P,U2,35,PB14*%
%TO.N,SPI2_MISO*%
X134568287Y-103457375D03*
%TO.P,U2,36,PB15*%
%TO.N,SPI2_MOSI*%
X134921841Y-103103821D03*
%TO.P,U2,37,PC6*%
%TO.N,unconnected-(U2-PC6-Pad37)*%
X135275394Y-102750268D03*
%TO.P,U2,38,PC7*%
%TO.N,IRQ*%
X135628948Y-102396714D03*
%TO.P,U2,39,PC8*%
%TO.N,CE*%
X135982501Y-102043161D03*
%TO.P,U2,40,PC9*%
%TO.N,CSN*%
X136336054Y-101689608D03*
%TO.P,U2,41,PA8*%
%TO.N,unconnected-(U2-PA8-Pad41)*%
X136689608Y-101336054D03*
%TO.P,U2,42,PA9*%
%TO.N,unconnected-(U2-PA9-Pad42)*%
X137043161Y-100982501D03*
%TO.P,U2,43,PA10*%
%TO.N,unconnected-(U2-PA10-Pad43)*%
X137396714Y-100628948D03*
%TO.P,U2,44,PA11*%
%TO.N,/MCU /USB_D-*%
X137750268Y-100275394D03*
%TO.P,U2,45,PA12*%
%TO.N,/MCU /USB_D+*%
X138103821Y-99921841D03*
%TO.P,U2,46,PA13*%
%TO.N,SWDIO*%
X138457375Y-99568287D03*
%TO.P,U2,47,VSS*%
%TO.N,GND*%
X138810928Y-99214734D03*
%TO.P,U2,48,VDD*%
%TO.N,+3V3*%
X139164481Y-98861181D03*
D38*
%TO.P,U2,49,PA14*%
%TO.N,SWCLK*%
X139164481Y-96138819D03*
%TO.P,U2,50,PA15*%
%TO.N,unconnected-(U2-PA15-Pad50)*%
X138810928Y-95785266D03*
%TO.P,U2,51,PC10*%
%TO.N,unconnected-(U2-PC10-Pad51)*%
X138457375Y-95431713D03*
%TO.P,U2,52,PC11*%
%TO.N,unconnected-(U2-PC11-Pad52)*%
X138103821Y-95078159D03*
%TO.P,U2,53,PC12*%
%TO.N,unconnected-(U2-PC12-Pad53)*%
X137750268Y-94724606D03*
%TO.P,U2,54,PD2*%
%TO.N,unconnected-(U2-PD2-Pad54)*%
X137396714Y-94371052D03*
%TO.P,U2,55,PB3*%
%TO.N,INT_GYR*%
X137043161Y-94017499D03*
%TO.P,U2,56,PB4*%
%TO.N,INT_ACC*%
X136689608Y-93663946D03*
%TO.P,U2,57,PB5*%
%TO.N,unconnected-(U2-PB5-Pad57)*%
X136336054Y-93310392D03*
%TO.P,U2,58,PB6*%
%TO.N,I2C_1_SCL*%
X135982501Y-92956839D03*
%TO.P,U2,59,PB7*%
%TO.N,I2C_1_SDA*%
X135628948Y-92603286D03*
%TO.P,U2,60,BOOT0*%
%TO.N,BOOT0*%
X135275394Y-92249732D03*
%TO.P,U2,61,PB8*%
%TO.N,unconnected-(U2-PB8-Pad61)*%
X134921841Y-91896179D03*
%TO.P,U2,62,PB9*%
%TO.N,unconnected-(U2-PB9-Pad62)*%
X134568287Y-91542625D03*
%TO.P,U2,63,VSS*%
%TO.N,GND*%
X134214734Y-91189072D03*
%TO.P,U2,64,VDD*%
%TO.N,+3V3*%
X133861181Y-90835519D03*
%TD*%
D39*
%TO.P,SW2,*%
%TO.N,*%
X127150000Y-68250000D03*
X137850000Y-68250000D03*
D40*
%TO.P,SW2,1,A*%
%TO.N,+3V3*%
X130000000Y-67050000D03*
%TO.P,SW2,2,B*%
%TO.N,Net-(R1-Pad1)*%
X132500000Y-67050000D03*
%TO.P,SW2,3,C*%
%TO.N,GND*%
X135000000Y-67050000D03*
%TO.P,SW2,4,A*%
%TO.N,+3V3*%
X130000000Y-69450000D03*
%TO.P,SW2,5,B*%
%TO.N,Net-(R1-Pad1)*%
X132500000Y-69450000D03*
%TO.P,SW2,6,C*%
%TO.N,GND*%
X135000000Y-69450000D03*
%TD*%
D18*
%TO.P,R17,1*%
%TO.N,GND*%
X147273000Y-116408200D03*
%TO.P,R17,2*%
%TO.N,Net-(U5-VFB)*%
X149098000Y-116408200D03*
%TD*%
D41*
%TO.P,R14,1*%
%TO.N,Net-(U4-VFB)*%
X114808000Y-112117500D03*
%TO.P,R14,2*%
%TO.N,GND*%
X114808000Y-113942500D03*
%TD*%
D42*
%TO.P,C25,1*%
%TO.N,/Power/SW2*%
X155128000Y-120650000D03*
%TO.P,C25,2*%
%TO.N,Net-(U5-VBST)*%
X153228000Y-120650000D03*
%TD*%
D24*
%TO.P,C13,1*%
%TO.N,VBUS*%
X153060400Y-91870000D03*
%TO.P,C13,2*%
%TO.N,GND*%
X153060400Y-94820000D03*
%TD*%
D43*
%TO.P,D2,1,K*%
%TO.N,Net-(D2-K)*%
X116997000Y-77470000D03*
%TO.P,D2,2,A*%
%TO.N,Net-(D2-A)*%
X118872000Y-77470000D03*
%TD*%
D42*
%TO.P,C5,1*%
%TO.N,GND*%
X133450000Y-88392000D03*
%TO.P,C5,2*%
%TO.N,+3V3*%
X131550000Y-88392000D03*
%TD*%
D18*
%TO.P,A1,1*%
%TO.N,Net-(JP1-A)*%
X124309500Y-116078000D03*
%TO.P,A1,2*%
%TO.N,GND*%
X126134500Y-116078000D03*
%TD*%
%TO.P,R16,1*%
%TO.N,VIN-*%
X147273000Y-113792000D03*
%TO.P,R16,2*%
%TO.N,Net-(U5-EN)*%
X149098000Y-113792000D03*
%TD*%
D32*
%TO.P,R7,1*%
%TO.N,+3V3*%
X143256000Y-85852000D03*
%TO.P,R7,2*%
%TO.N,I2C_1_SCL*%
X141431000Y-85852000D03*
%TD*%
D25*
%TO.P,C8,1*%
%TO.N,GND*%
X131550000Y-106680000D03*
%TO.P,C8,2*%
%TO.N,+3V3*%
X133450000Y-106680000D03*
%TD*%
D13*
%TO.P,H3,1,1*%
%TO.N,unconnected-(H3-Pad1)*%
X165000000Y-65000000D03*
D14*
X165000000Y-65000000D03*
%TD*%
D32*
%TO.P,R10,1*%
%TO.N,Net-(D3-K)*%
X128571000Y-74422000D03*
%TO.P,R10,2*%
%TO.N,GND*%
X126746000Y-74422000D03*
%TD*%
D44*
%TO.P,U3,1,GND*%
%TO.N,GND*%
X159004000Y-71134000D03*
%TO.P,U3,2,VO*%
%TO.N,/Power/VO*%
X159004000Y-68834000D03*
D45*
X152704000Y-68834000D03*
D44*
%TO.P,U3,3,VI*%
%TO.N,Net-(D4-K)*%
X159004000Y-66534000D03*
%TD*%
D46*
%TO.P,J5,1,Pin_1*%
%TO.N,GND*%
X104978200Y-77172000D03*
D47*
%TO.P,J5,2,Pin_2*%
%TO.N,VIN+*%
X104978200Y-84372000D03*
%TD*%
D32*
%TO.P,R12,1*%
%TO.N,+5VP*%
X159994600Y-79756000D03*
%TO.P,R12,2*%
%TO.N,GND*%
X158169600Y-79756000D03*
%TD*%
D48*
%TO.P,U5,1,GND*%
%TO.N,GND*%
X155315501Y-118552000D03*
%TO.P,U5,2,SW*%
%TO.N,/Power/SW2*%
X155315501Y-117602000D03*
%TO.P,U5,3,VIN*%
%TO.N,VIN-*%
X155315501Y-116652000D03*
%TO.P,U5,4,VFB*%
%TO.N,Net-(U5-VFB)*%
X153040501Y-116652000D03*
%TO.P,U5,5,EN*%
%TO.N,Net-(U5-EN)*%
X153040501Y-117602000D03*
%TO.P,U5,6,VBST*%
%TO.N,Net-(U5-VBST)*%
X153040501Y-118552000D03*
%TD*%
D26*
%TO.P,J1,1,Pin_1*%
%TO.N,GND*%
X162052000Y-100818000D03*
D27*
%TO.P,J1,2,Pin_2*%
%TO.N,+3V3*%
X162052000Y-103358000D03*
%TO.P,J1,3,Pin_3*%
%TO.N,CE*%
X159512000Y-100818000D03*
%TO.P,J1,4,Pin_4*%
%TO.N,CSN*%
X159512000Y-103358000D03*
%TO.P,J1,5,Pin_5*%
%TO.N,SPI2_SCK*%
X156972000Y-100818000D03*
%TO.P,J1,6,Pin_6*%
%TO.N,SPI2_MOSI*%
X156972000Y-103358000D03*
%TO.P,J1,7,Pin_7*%
%TO.N,SPI2_MISO*%
X154432000Y-100818000D03*
%TO.P,J1,8,Pin_8*%
%TO.N,IRQ*%
X154432000Y-103358000D03*
%TD*%
D42*
%TO.P,C31,2*%
%TO.N,+3V3*%
X126471600Y-109220000D03*
%TO.P,C31,1*%
%TO.N,GND*%
X128371600Y-109220000D03*
%TD*%
D49*
%TO.P,C17,1*%
%TO.N,VIN-*%
X113489000Y-119888000D03*
%TO.P,C17,2*%
%TO.N,GND*%
X110539000Y-119888000D03*
%TD*%
D50*
%TO.P,R15,1*%
%TO.N,+5VL*%
X117602000Y-113942500D03*
%TO.P,R15,2*%
%TO.N,Net-(U4-VFB)*%
X117602000Y-112117500D03*
%TD*%
D51*
%TO.P,C11,1*%
%TO.N,+3V3*%
X120396000Y-95250000D03*
%TO.P,C11,2*%
%TO.N,GND*%
X120396000Y-92550000D03*
%TD*%
D52*
%TO.P,C23,1*%
%TO.N,VIN-*%
X155243000Y-110998000D03*
%TO.P,C23,2*%
%TO.N,GND*%
X158193000Y-110998000D03*
%TD*%
D18*
%TO.P,R18,1*%
%TO.N,+5VP*%
X147273000Y-118999000D03*
%TO.P,R18,2*%
%TO.N,Net-(U5-VFB)*%
X149098000Y-118999000D03*
%TD*%
D53*
%TO.P,SW1,1,1*%
%TO.N,unconnected-(SW1-Pad1)*%
X111333001Y-70612000D03*
%TO.P,SW1,2,2*%
%TO.N,GND*%
X105582999Y-70612000D03*
%TO.P,SW1,3,3*%
%TO.N,NRST*%
X111333001Y-66611998D03*
%TO.P,SW1,4,4*%
%TO.N,unconnected-(SW1-Pad4)*%
X105582999Y-66611998D03*
%TD*%
D54*
%TO.P,D4,1,K*%
%TO.N,Net-(D4-K)*%
X163195000Y-75851000D03*
%TO.P,D4,2,A*%
%TO.N,+5VP*%
X163195000Y-79851000D03*
%TD*%
D13*
%TO.P,H1,1,1*%
%TO.N,unconnected-(H1-Pad1)*%
X100000000Y-65000000D03*
D14*
X100000000Y-65000000D03*
%TD*%
D15*
%TO.P,C27,1*%
%TO.N,+5VP*%
X154940000Y-126697000D03*
%TO.P,C27,2*%
%TO.N,GND*%
X154940000Y-123747000D03*
%TD*%
D21*
%TO.P,C4,1*%
%TO.N,GND*%
X123139200Y-99634000D03*
%TO.P,C4,2*%
%TO.N,+3V3*%
X123139200Y-101534000D03*
%TD*%
D33*
%TO.P,C6,1*%
%TO.N,GND*%
X141732000Y-98450000D03*
%TO.P,C6,2*%
%TO.N,+3V3*%
X141732000Y-96550000D03*
%TD*%
D55*
%TO.P,C12,1*%
%TO.N,+3V3*%
X133850000Y-109220000D03*
%TO.P,C12,2*%
%TO.N,GND*%
X131150000Y-109220000D03*
%TD*%
D56*
%TO.P,C19,1*%
%TO.N,/Power/VO*%
X153510000Y-74422000D03*
%TO.P,C19,2*%
%TO.N,GND*%
X156210000Y-74422000D03*
%TD*%
D21*
%TO.P,C7,1*%
%TO.N,GND*%
X123063000Y-93512600D03*
%TO.P,C7,2*%
%TO.N,+3V3*%
X123063000Y-95412600D03*
%TD*%
D57*
%TO.P,C15,1*%
%TO.N,VIN+*%
X103697400Y-96545400D03*
%TO.P,C15,2*%
%TO.N,GND*%
X108697400Y-96545400D03*
%TD*%
D32*
%TO.P,R8,1*%
%TO.N,+3V3*%
X128334100Y-106680000D03*
%TO.P,R8,2*%
%TO.N,I2C_2_SDA*%
X126509100Y-106680000D03*
%TD*%
D58*
%TO.P,U7,1,A0*%
%TO.N,+3V3*%
X128275000Y-117856000D03*
%TO.P,U7,2,A1*%
%TO.N,Net-(JP1-A)*%
X128925000Y-117856000D03*
%TO.P,U7,3,A2*%
%TO.N,GND*%
X129575000Y-117856000D03*
%TO.P,U7,4,A3*%
X130225000Y-117856000D03*
%TO.P,U7,5,A4*%
X130875000Y-117856000D03*
%TO.P,U7,6,LED0*%
%TO.N,PWM_0*%
X131525000Y-117856000D03*
%TO.P,U7,7,LED1*%
%TO.N,PWM_1*%
X132175000Y-117856000D03*
%TO.P,U7,8,LED2*%
%TO.N,PWM_2*%
X132825000Y-117856000D03*
%TO.P,U7,9,LED3*%
%TO.N,PWM_3*%
X133475000Y-117856000D03*
%TO.P,U7,10,LED4*%
%TO.N,PWM_4*%
X134125000Y-117856000D03*
%TO.P,U7,11,LED5*%
%TO.N,PWM_5*%
X134775000Y-117856000D03*
%TO.P,U7,12,LED6*%
%TO.N,PWM_6*%
X135425000Y-117856000D03*
%TO.P,U7,13,LED7*%
%TO.N,PWM_7*%
X136075000Y-117856000D03*
%TO.P,U7,14,VSS*%
%TO.N,GND*%
X136725000Y-117856000D03*
%TO.P,U7,15,LED8*%
%TO.N,PWM_8*%
X136725000Y-112131000D03*
%TO.P,U7,16,LED9*%
%TO.N,PWM_9*%
X136075000Y-112131000D03*
%TO.P,U7,17,LED10*%
%TO.N,PWM_10*%
X135425000Y-112131000D03*
%TO.P,U7,18,LED11*%
%TO.N,PWM_11*%
X134775000Y-112131000D03*
%TO.P,U7,19,LED12*%
%TO.N,unconnected-(U7-LED12-Pad19)*%
X134125000Y-112131000D03*
%TO.P,U7,20,LED13*%
%TO.N,unconnected-(U7-LED13-Pad20)*%
X133475000Y-112131000D03*
%TO.P,U7,21,LED14*%
%TO.N,unconnected-(U7-LED14-Pad21)*%
X132825000Y-112131000D03*
%TO.P,U7,22,LED15*%
%TO.N,unconnected-(U7-LED15-Pad22)*%
X132175000Y-112131000D03*
%TO.P,U7,23,~{OE}*%
%TO.N,GND*%
X131525000Y-112131000D03*
%TO.P,U7,24,A5*%
X130875000Y-112131000D03*
%TO.P,U7,25,EXTCLK*%
%TO.N,unconnected-(U7-EXTCLK-Pad25)*%
X130225000Y-112131000D03*
%TO.P,U7,26,SCL*%
%TO.N,I2C_2_SCL*%
X129575000Y-112131000D03*
%TO.P,U7,27,SDA*%
%TO.N,I2C_2_SDA*%
X128925000Y-112131000D03*
%TO.P,U7,28,VDD*%
%TO.N,+3V3*%
X128275000Y-112131000D03*
%TD*%
D56*
%TO.P,C9,1*%
%TO.N,+3V3*%
X131150000Y-85852000D03*
%TO.P,C9,2*%
%TO.N,GND*%
X133850000Y-85852000D03*
%TD*%
D59*
%TO.P,C24,1*%
%TO.N,VIN-*%
X155243000Y-114300000D03*
%TO.P,C24,2*%
%TO.N,GND*%
X158193000Y-114300000D03*
%TD*%
D18*
%TO.P,R1,1*%
%TO.N,Net-(R1-Pad1)*%
X136351000Y-74422000D03*
%TO.P,R1,2*%
%TO.N,BOOT0*%
X138176000Y-74422000D03*
%TD*%
D33*
%TO.P,C1,1*%
%TO.N,GND*%
X102743000Y-70673000D03*
%TO.P,C1,2*%
%TO.N,NRST*%
X102743000Y-68773000D03*
%TD*%
D41*
%TO.P,R13,1*%
%TO.N,Net-(U4-EN)*%
X104394000Y-112117500D03*
%TO.P,R13,2*%
%TO.N,VIN-*%
X104394000Y-113942500D03*
%TD*%
D32*
%TO.P,R4,1*%
%TO.N,Net-(D2-K)*%
X118872000Y-74422000D03*
%TO.P,R4,2*%
%TO.N,GND*%
X117047000Y-74422000D03*
%TD*%
D43*
%TO.P,D1,1,K*%
%TO.N,Net-(D1-K)*%
X121823000Y-77470000D03*
%TO.P,D1,2,A*%
%TO.N,Net-(D1-A)*%
X123698000Y-77470000D03*
%TD*%
D33*
%TO.P,C2,1*%
%TO.N,GND*%
X127000000Y-85344000D03*
%TO.P,C2,2*%
%TO.N,/MCU /RCC_OSC_IN*%
X127000000Y-83444000D03*
%TD*%
D42*
%TO.P,C28,1*%
%TO.N,GND*%
X115504000Y-99948500D03*
%TO.P,C28,2*%
%TO.N,+3V3*%
X113604000Y-99948500D03*
%TD*%
D51*
%TO.P,C14,1*%
%TO.N,+3V3*%
X120396000Y-102416600D03*
%TO.P,C14,2*%
%TO.N,GND*%
X120396000Y-99716600D03*
%TD*%
D41*
%TO.P,R5,1*%
%TO.N,+3V3*%
X153035000Y-87708100D03*
%TO.P,R5,2*%
%TO.N,/MCU /USB_D+*%
X153035000Y-89533100D03*
%TD*%
D15*
%TO.P,C26,1*%
%TO.N,+5VP*%
X151384000Y-126697000D03*
%TO.P,C26,2*%
%TO.N,GND*%
X151384000Y-123747000D03*
%TD*%
D60*
%TO.P,Y1,1,1*%
%TO.N,/MCU /RCC_OSC_IN*%
X124206000Y-83144000D03*
%TO.P,Y1,2,2*%
%TO.N,GND*%
X117906000Y-83144000D03*
%TO.P,Y1,3,3*%
%TO.N,Net-(C3-Pad1)*%
X117906000Y-85644000D03*
%TO.P,Y1,4,4*%
%TO.N,GND*%
X124206000Y-85644000D03*
%TD*%
D15*
%TO.P,C22,1*%
%TO.N,+5VL*%
X110236000Y-126697000D03*
%TO.P,C22,2*%
%TO.N,GND*%
X110236000Y-123747000D03*
%TD*%
D61*
%TO.P,FB1,1*%
%TO.N,/Power/VO*%
X151155500Y-74422000D03*
%TO.P,FB1,2*%
%TO.N,+3V3*%
X149580500Y-74422000D03*
%TD*%
D62*
%TO.N,GND*%
X136728200Y-119075200D03*
X136728200Y-116509800D03*
X115038000Y-87826000D03*
X121843800Y-98501200D03*
X161750000Y-74000000D03*
D63*
X111990000Y-122301000D03*
D62*
X159250000Y-73000000D03*
X128538000Y-84426000D03*
D63*
X108990000Y-115704000D03*
D62*
X122538000Y-81026000D03*
D63*
X113283999Y-128778000D03*
D62*
X123190000Y-98552000D03*
D63*
X158750000Y-107950000D03*
D62*
X121038000Y-81026000D03*
X116738400Y-99949000D03*
D63*
X154487000Y-122301000D03*
D62*
X134525505Y-114452400D03*
D63*
X154559000Y-94820000D03*
D62*
X144169200Y-100104400D03*
X125538000Y-81026000D03*
D63*
X110490000Y-122301000D03*
X101600000Y-124460000D03*
D62*
X115038000Y-81026000D03*
D63*
X157480000Y-107950000D03*
D62*
X119538000Y-81026000D03*
D63*
X162560000Y-111760000D03*
X108990000Y-118304000D03*
X101600000Y-125730000D03*
X106934000Y-128778000D03*
X101600000Y-114300000D03*
X101600000Y-118110000D03*
X160020000Y-107950000D03*
D62*
X154254200Y-118541800D03*
X158250000Y-74000000D03*
X120650000Y-74422000D03*
X121750000Y-91649600D03*
X141356000Y-73020000D03*
D63*
X112014000Y-128778000D03*
D62*
X113487200Y-113944400D03*
X113538000Y-81026000D03*
X128538000Y-81026000D03*
X115038000Y-82169000D03*
D63*
X151487000Y-122301000D03*
X101600000Y-113030000D03*
X155987000Y-122301000D03*
X113490000Y-122301000D03*
D62*
X127038000Y-86741000D03*
X107619800Y-70612000D03*
X113538000Y-84426000D03*
X128538000Y-86126000D03*
D63*
X162560000Y-110490000D03*
D62*
X156657000Y-118552000D03*
D63*
X160020000Y-111736000D03*
X162560000Y-107950000D03*
X101600000Y-123190000D03*
D62*
X116538000Y-87826000D03*
D63*
X101600000Y-110490000D03*
X162560000Y-109220000D03*
X114554000Y-128778000D03*
X108204000Y-128778000D03*
X160020000Y-113236000D03*
D62*
X140258800Y-82804000D03*
X127038000Y-81026000D03*
D63*
X101600000Y-111760000D03*
X101600000Y-119380000D03*
D62*
X134546800Y-88270001D03*
D63*
X160020000Y-114736000D03*
X105664000Y-128778000D03*
X101600000Y-120650000D03*
X156210000Y-107950000D03*
D62*
X118038000Y-87826000D03*
X132029200Y-113487200D03*
D63*
X146202400Y-116408200D03*
D62*
X160500000Y-73000000D03*
X112049600Y-97148500D03*
X124038000Y-81026000D03*
X120396000Y-98449900D03*
D63*
X162560000Y-114300000D03*
X108990000Y-120904000D03*
X161290000Y-107950000D03*
D62*
X115874800Y-74422000D03*
X129997200Y-107151500D03*
X113538000Y-86126000D03*
D63*
X162560000Y-113030000D03*
X109474001Y-128778000D03*
D62*
X158250000Y-73000000D03*
X117002600Y-95782900D03*
D63*
X149987000Y-122301000D03*
X129032000Y-115824000D03*
D62*
X125628400Y-74396600D03*
D63*
X108990000Y-117004000D03*
X104394000Y-128778000D03*
D62*
X142899200Y-99850400D03*
X113538000Y-87826000D03*
D63*
X101600000Y-115570000D03*
X114990000Y-122301000D03*
D62*
X127038000Y-87826000D03*
D63*
X160020000Y-110236000D03*
D62*
X116538000Y-81026000D03*
D63*
X152987000Y-122301000D03*
X101600000Y-109220000D03*
D62*
X128538000Y-87826000D03*
D63*
X101600000Y-116840000D03*
D62*
X129844800Y-109778800D03*
X135004001Y-85730000D03*
D63*
X108990000Y-122301000D03*
D62*
X155651200Y-88493600D03*
X118038000Y-81026000D03*
X136006497Y-115316000D03*
D63*
X110744000Y-128778000D03*
D62*
X133469118Y-113538047D03*
X130556000Y-113487200D03*
X157022400Y-79756000D03*
X141629200Y-99647200D03*
X134750000Y-87000000D03*
X161750000Y-73000000D03*
D63*
X108990000Y-119604000D03*
D62*
X113538000Y-82726000D03*
X159250000Y-74000000D03*
X123020001Y-91852800D03*
X129946400Y-108305600D03*
X160500000Y-74000000D03*
X128538000Y-82726000D03*
X120480000Y-91395599D03*
D63*
X101600000Y-121920000D03*
%TO.N,+3V3*%
X112278200Y-99948500D03*
D62*
X144526000Y-74422000D03*
%TO.N,PWM_9*%
X136906000Y-115316000D03*
%TO.N,PWM_10*%
X135425000Y-114427000D03*
%TO.N,PWM_11*%
X134368620Y-113537939D03*
D63*
%TO.N,VIN-*%
X113309400Y-103936800D03*
X153162000Y-110839000D03*
X115133000Y-116739000D03*
X115133000Y-117739000D03*
X152273000Y-109331000D03*
X115133000Y-119739000D03*
X114198400Y-105444800D03*
X116022000Y-116247000D03*
X112344200Y-105924601D03*
X112344200Y-107924600D03*
X116022000Y-120247000D03*
X116022000Y-117247001D03*
X116022000Y-118246999D03*
X113309400Y-104936800D03*
X113309400Y-105936801D03*
X114198400Y-106444800D03*
X115133000Y-118739000D03*
X114198400Y-107444801D03*
X153162000Y-111839000D03*
X112344200Y-104924600D03*
X112344200Y-106924600D03*
X113309400Y-106936800D03*
X113309400Y-107936800D03*
X152273000Y-111331000D03*
X114198400Y-104444800D03*
X152273000Y-112331000D03*
X112344200Y-103924600D03*
X152273000Y-110331000D03*
X153162000Y-109839000D03*
X152273000Y-108331000D03*
X153162000Y-108839000D03*
X116022000Y-119247000D03*
D62*
%TO.N,I2C_1_SDA*%
X137947400Y-83083400D03*
%TO.N,I2C_1_SCL*%
X139079500Y-79629000D03*
%TO.N,INT_GYR*%
X146405600Y-83159600D03*
%TO.N,INT_ACC*%
X144653000Y-80183800D03*
%TO.N,/Power/VO*%
X155000000Y-68600000D03*
X155000000Y-67600000D03*
X156000000Y-68600000D03*
X157000000Y-68600000D03*
X156000000Y-67600000D03*
X156000000Y-69600000D03*
X157000000Y-67600000D03*
X155000000Y-69600000D03*
X157000000Y-69600000D03*
%TD*%
D64*
%TO.N,PWM_9*%
X136075000Y-113773800D02*
X136075000Y-112131000D01*
X136906000Y-114604800D02*
X136075000Y-113773800D01*
X136906000Y-115316000D02*
X136906000Y-114604800D01*
%TO.N,PWM_8*%
X138404600Y-122974600D02*
X138850000Y-123420000D01*
X138404600Y-114884200D02*
X138404600Y-122974600D01*
X136725000Y-113204600D02*
X138404600Y-114884200D01*
X136725000Y-112131000D02*
X136725000Y-113204600D01*
D65*
%TO.N,GND*%
X136725000Y-119072000D02*
X136728200Y-119075200D01*
X136725000Y-117856000D02*
X136725000Y-119072000D01*
X136725000Y-116513000D02*
X136728200Y-116509800D01*
X136725000Y-117856000D02*
X136725000Y-116513000D01*
D64*
%TO.N,PWM_10*%
X135425000Y-114427000D02*
X135425000Y-112131000D01*
%TO.N,PWM_11*%
X134775000Y-113131559D02*
X134775000Y-112131000D01*
X134368620Y-113537939D02*
X134775000Y-113131559D01*
D66*
%TO.N,GND*%
X129794000Y-109220000D02*
X129921000Y-109093000D01*
X128371600Y-109220000D02*
X129794000Y-109220000D01*
D65*
%TO.N,+3V3*%
X125730000Y-109220000D02*
X126471600Y-109220000D01*
X125272800Y-109677200D02*
X125730000Y-109220000D01*
X125272800Y-111683800D02*
X125272800Y-109677200D01*
X125720000Y-112131000D02*
X125272800Y-111683800D01*
X128275000Y-112131000D02*
X125720000Y-112131000D01*
D67*
X126771400Y-107924600D02*
X126471600Y-108224400D01*
X126471600Y-108224400D02*
X126471600Y-109220000D01*
X127990600Y-107924600D02*
X126771400Y-107924600D01*
X128334100Y-106680000D02*
X128334100Y-107581100D01*
X128334100Y-107581100D02*
X127990600Y-107924600D01*
D68*
X133350000Y-110617000D02*
X133850000Y-110117000D01*
X133850000Y-110117000D02*
X133850000Y-109220000D01*
X127000000Y-110617000D02*
X133350000Y-110617000D01*
X126471600Y-110088600D02*
X127000000Y-110617000D01*
X126471600Y-109220000D02*
X126471600Y-110088600D01*
D66*
%TO.N,GND*%
X154264400Y-118552000D02*
X154254200Y-118541800D01*
D65*
X129997200Y-105079800D02*
X129997200Y-105897200D01*
D64*
X131525000Y-112983000D02*
X131525000Y-112131000D01*
D66*
X105582999Y-70612000D02*
X107619800Y-70612000D01*
D68*
X112099100Y-97099000D02*
X112049600Y-97148500D01*
X125679200Y-93192600D02*
X126009400Y-93522800D01*
D66*
X156657000Y-118552000D02*
X155315501Y-118552000D01*
D68*
X141629200Y-99647200D02*
X141392211Y-99884189D01*
D64*
X141306000Y-79397000D02*
X141306000Y-80518000D01*
D66*
X141356000Y-82804000D02*
X140258800Y-82804000D01*
X117047000Y-74422000D02*
X115874800Y-74422000D01*
D64*
X127508000Y-115824000D02*
X129032000Y-115824000D01*
X141306000Y-82754000D02*
X141356000Y-82804000D01*
X129575000Y-116367000D02*
X129032000Y-115824000D01*
D67*
X129997200Y-104598994D02*
X129997200Y-105079800D01*
D66*
X121848000Y-74422000D02*
X120650000Y-74422000D01*
D69*
X124348200Y-99634000D02*
X123139200Y-99634000D01*
D67*
X138810928Y-99214734D02*
X139480383Y-99884189D01*
X125444852Y-99923600D02*
X124637800Y-99923600D01*
D69*
X124597200Y-93512600D02*
X123063000Y-93512600D01*
D65*
X157792000Y-88488000D02*
X155656800Y-88488000D01*
D64*
X126134500Y-116078000D02*
X127254000Y-116078000D01*
D67*
X126009400Y-93522800D02*
X126047926Y-93522800D01*
D68*
X139480383Y-99884189D02*
X140106400Y-99884189D01*
D67*
X115691500Y-96449000D02*
X115691500Y-95799000D01*
D64*
X142306000Y-80198000D02*
X141986000Y-80518000D01*
D66*
X126746000Y-74422000D02*
X125653800Y-74422000D01*
X141356000Y-73020000D02*
X141356000Y-74422000D01*
X125653800Y-74422000D02*
X125628400Y-74396600D01*
D64*
X127254000Y-116078000D02*
X127508000Y-115824000D01*
D70*
X126189072Y-99214734D02*
X126153718Y-99214734D01*
D68*
X113416500Y-97099000D02*
X112099100Y-97099000D01*
D66*
X147273000Y-116408200D02*
X146304000Y-116408200D01*
X105582999Y-70612000D02*
X102804000Y-70612000D01*
D64*
X130875000Y-117856000D02*
X130225000Y-117856000D01*
D68*
X135026400Y-90377406D02*
X135026400Y-89433400D01*
D70*
X126153718Y-99214734D02*
X125444852Y-99923600D01*
D64*
X130875000Y-113168200D02*
X130875000Y-112131000D01*
D69*
X125526800Y-93192600D02*
X124917200Y-93192600D01*
D71*
X124637800Y-99923600D02*
X124348200Y-99634000D01*
D67*
X134214734Y-91189072D02*
X135026400Y-90377406D01*
D66*
X155315501Y-118552000D02*
X154264400Y-118552000D01*
D69*
X124917200Y-93192600D02*
X124597200Y-93512600D01*
D64*
X141986000Y-80518000D02*
X141306000Y-80518000D01*
D66*
X113489100Y-113942500D02*
X113487200Y-113944400D01*
D64*
X142306000Y-79397000D02*
X142306000Y-80198000D01*
X141306000Y-80518000D02*
X141306000Y-82754000D01*
D66*
X141392211Y-99884189D02*
X140106400Y-99884189D01*
D64*
X132029200Y-113487200D02*
X131525000Y-112983000D01*
D66*
X158169600Y-79756000D02*
X157022400Y-79756000D01*
D64*
X130556000Y-113487200D02*
X130875000Y-113168200D01*
D66*
X115504000Y-99948500D02*
X116737900Y-99948500D01*
D67*
X116986500Y-95799000D02*
X115691500Y-95799000D01*
X130785266Y-103810928D02*
X129997200Y-104598994D01*
D69*
X153060400Y-94820000D02*
X154559000Y-94820000D01*
D67*
X117002600Y-95782900D02*
X116986500Y-95799000D01*
D66*
X102804000Y-70612000D02*
X102743000Y-70673000D01*
D67*
X129997200Y-105897200D02*
X130300000Y-106200000D01*
D64*
X129575000Y-117856000D02*
X129575000Y-116367000D01*
D66*
X116737900Y-99948500D02*
X116738400Y-99949000D01*
D64*
X130225000Y-117856000D02*
X129575000Y-117856000D01*
D69*
X135001000Y-89433400D02*
X135001000Y-89052400D01*
D66*
X114808000Y-113942500D02*
X113489100Y-113942500D01*
D67*
X126047926Y-93522800D02*
X127249732Y-94724606D01*
D65*
X155656800Y-88488000D02*
X155651200Y-88493600D01*
D67*
%TO.N,Net-(D3-K)*%
X131100000Y-74422000D02*
X128571000Y-74422000D01*
D72*
%TO.N,+5VL*%
X118530000Y-125960000D02*
X118518000Y-125972000D01*
X118518000Y-125972000D02*
X116586000Y-125972000D01*
D67*
X118364000Y-119380000D02*
X116586000Y-121158000D01*
D72*
X115814200Y-125972000D02*
X115089200Y-126697000D01*
D67*
X116586000Y-121158000D02*
X116586000Y-125972000D01*
D72*
X113792000Y-126697000D02*
X115089200Y-126697000D01*
X128690000Y-125960000D02*
X130670000Y-125960000D01*
X110236000Y-126697000D02*
X106631000Y-126697000D01*
X106631000Y-126697000D02*
X104394000Y-124460000D01*
X113792000Y-126697000D02*
X110236000Y-126697000D01*
X104394000Y-124460000D02*
X104394000Y-122338000D01*
D67*
X117602000Y-113942500D02*
X117602000Y-115316000D01*
D72*
X116586000Y-125972000D02*
X115814200Y-125972000D01*
X128690000Y-125960000D02*
X118530000Y-125960000D01*
D67*
X118364000Y-116078000D02*
X118364000Y-119380000D01*
X117602000Y-115316000D02*
X118364000Y-116078000D01*
%TO.N,+5VP*%
X147273000Y-120349000D02*
X147273000Y-118999000D01*
D69*
X161492000Y-87432365D02*
X161492000Y-92743635D01*
D72*
X160782000Y-124460000D02*
X160782000Y-122338000D01*
X158545000Y-126697000D02*
X160782000Y-124460000D01*
X149811000Y-126697000D02*
X154940000Y-126697000D01*
D69*
X161442000Y-81604000D02*
X161442000Y-87382365D01*
D67*
X149074000Y-122150000D02*
X147273000Y-120349000D01*
D69*
X161442000Y-92793635D02*
X161442000Y-96164000D01*
X163031000Y-122338000D02*
X160782000Y-122338000D01*
X164338000Y-99060000D02*
X164338000Y-121031000D01*
D72*
X134620000Y-125960000D02*
X146470000Y-125960000D01*
D67*
X149074000Y-125960000D02*
X149074000Y-122150000D01*
D69*
X161442000Y-87382365D02*
X161492000Y-87432365D01*
X161442000Y-96164000D02*
X164338000Y-99060000D01*
D72*
X146470000Y-125960000D02*
X149074000Y-125960000D01*
D69*
X161492000Y-92743635D02*
X161442000Y-92793635D01*
D72*
X149074000Y-125960000D02*
X149811000Y-126697000D01*
X154940000Y-126697000D02*
X158545000Y-126697000D01*
D69*
X164338000Y-121031000D02*
X163031000Y-122338000D01*
D68*
%TO.N,VBUS*%
X155905200Y-80975200D02*
X155905200Y-77266800D01*
X156718000Y-81788000D02*
X155905200Y-80975200D01*
X159486600Y-91440000D02*
X159486600Y-83312000D01*
X157792000Y-91688000D02*
X159238600Y-91688000D01*
X159238600Y-91688000D02*
X159486600Y-91440000D01*
X153242400Y-91688000D02*
X153060400Y-91870000D01*
X159486600Y-83312000D02*
X157962600Y-81788000D01*
X157962600Y-81788000D02*
X156718000Y-81788000D01*
X156911000Y-76261000D02*
X158145000Y-76261000D01*
X157792000Y-91688000D02*
X153242400Y-91688000D01*
X155905200Y-77266800D02*
X156911000Y-76261000D01*
%TO.N,+3V3*%
X128600200Y-95885000D02*
X127703020Y-95885000D01*
D69*
X131550000Y-90424338D02*
X131315596Y-90658742D01*
D71*
X132257800Y-91770200D02*
X132257800Y-92227400D01*
D68*
X143256000Y-74422000D02*
X144526000Y-74422000D01*
D66*
X140787600Y-96550000D02*
X140030200Y-97307400D01*
D69*
X113604000Y-101158000D02*
X113604000Y-99948500D01*
D66*
X140030200Y-97942400D02*
X139674600Y-98298000D01*
D67*
X131145319Y-90835519D02*
X132080000Y-91770200D01*
D69*
X133450000Y-105814800D02*
X132080000Y-104444800D01*
D67*
X127703020Y-95885000D02*
X126896179Y-95078159D01*
D69*
X120396000Y-102416600D02*
X114862600Y-102416600D01*
D68*
X113416500Y-98588300D02*
X113604000Y-98775800D01*
D70*
X141806000Y-77067000D02*
X141306000Y-77067000D01*
D67*
X121466600Y-106680000D02*
X121466600Y-115739400D01*
D69*
X122272000Y-65688000D02*
X121030000Y-66930000D01*
X131550000Y-87398000D02*
X131550000Y-88392000D01*
D68*
X131733274Y-102946200D02*
X131733274Y-102497874D01*
D67*
X131138819Y-90835519D02*
X131145319Y-90835519D01*
D69*
X147730000Y-65688000D02*
X139750800Y-65688000D01*
D70*
X142532100Y-78447900D02*
X142806000Y-78721800D01*
D69*
X131826000Y-65688000D02*
X122272000Y-65688000D01*
X133450000Y-107592800D02*
X133858000Y-108000800D01*
D67*
X131758274Y-103545026D02*
X131138819Y-104164481D01*
D68*
X113416500Y-97749000D02*
X113416500Y-98588300D01*
D69*
X130000000Y-67050000D02*
X130000000Y-69450000D01*
X131550000Y-88392000D02*
X131550000Y-90424338D01*
D67*
X125948058Y-100162742D02*
X125628400Y-100482400D01*
D69*
X143230600Y-72771000D02*
X143230600Y-74396600D01*
D68*
X131733274Y-102497874D02*
X128041400Y-98806000D01*
D69*
X114862600Y-102416600D02*
X113604000Y-101158000D01*
D66*
X153035000Y-78613000D02*
X149580500Y-75158500D01*
D70*
X142537600Y-78447900D02*
X142532100Y-78447900D01*
D64*
X141806000Y-77834500D02*
X141806000Y-77721800D01*
D67*
X126542625Y-99568287D02*
X127304912Y-98806000D01*
D69*
X122443200Y-101534000D02*
X121560600Y-102416600D01*
X149580500Y-74422000D02*
X149580500Y-70840500D01*
D68*
X136605000Y-85852000D02*
X136605000Y-78914000D01*
D67*
X121128000Y-116078000D02*
X121128000Y-117064000D01*
D69*
X133900000Y-73067000D02*
X133900000Y-74422000D01*
X133850000Y-108008800D02*
X133850000Y-109220000D01*
X131150000Y-86998000D02*
X131550000Y-87398000D01*
X143230600Y-74396600D02*
X143256000Y-74422000D01*
D66*
X146558000Y-92608400D02*
X151458300Y-87708100D01*
D69*
X131690300Y-83709700D02*
X133900000Y-81500000D01*
X142290800Y-71831200D02*
X143230600Y-72771000D01*
D67*
X131733274Y-102946200D02*
X131758274Y-102971200D01*
X121466600Y-115739400D02*
X121128000Y-116078000D01*
D69*
X149050000Y-70310000D02*
X149050000Y-68220000D01*
D68*
X128041400Y-98806000D02*
X127685800Y-98806000D01*
D66*
X144272000Y-96150000D02*
X143270400Y-96150000D01*
D69*
X130000000Y-69450000D02*
X130000000Y-71122800D01*
D66*
X145734200Y-96150000D02*
X146558000Y-95326200D01*
X141422600Y-96550000D02*
X140787600Y-96550000D01*
D69*
X139750800Y-65688000D02*
X139750800Y-70789800D01*
D70*
X143306000Y-77067000D02*
X143306000Y-77679500D01*
D69*
X123139200Y-101534000D02*
X124576800Y-101534000D01*
X139750800Y-70789800D02*
X140792200Y-71831200D01*
D65*
X132257800Y-92227400D02*
X128600200Y-95885000D01*
X125399800Y-94259400D02*
X124246600Y-95412600D01*
D69*
X149580500Y-70840500D02*
X149050000Y-70310000D01*
D68*
X125272800Y-100838000D02*
X125628400Y-100482400D01*
D67*
X128021000Y-118110000D02*
X128275000Y-117856000D01*
X141806000Y-76024400D02*
X142240000Y-75590400D01*
D69*
X131150000Y-84250000D02*
X131150000Y-85852000D01*
D68*
X125755400Y-94259400D02*
X125399800Y-94259400D01*
D69*
X130000000Y-71122800D02*
X131089400Y-72212200D01*
D70*
X141806000Y-77067000D02*
X141806000Y-77721800D01*
D69*
X131089400Y-72212200D02*
X133045200Y-72212200D01*
D68*
X142951200Y-75590400D02*
X143256000Y-75285600D01*
D69*
X139166600Y-65688000D02*
X131826000Y-65688000D01*
D70*
X139164481Y-98861181D02*
X139164481Y-98808119D01*
D67*
X121466600Y-106680000D02*
X121466600Y-105032800D01*
X120396000Y-103962200D02*
X120396000Y-102416600D01*
D69*
X124576800Y-101534000D02*
X125272800Y-100838000D01*
D68*
X142240000Y-75590400D02*
X142951200Y-75590400D01*
D69*
X123063000Y-95412600D02*
X120558600Y-95412600D01*
X133450000Y-106680000D02*
X133450000Y-107592800D01*
D67*
X132926500Y-91770200D02*
X133861181Y-90835519D01*
D70*
X141806000Y-77721800D02*
X142532100Y-78447900D01*
D67*
X132257800Y-91770200D02*
X132926500Y-91770200D01*
D68*
X139776200Y-75742800D02*
X139750800Y-75717400D01*
D67*
X126542625Y-99568287D02*
X125948170Y-100162742D01*
D66*
X143270400Y-96150000D02*
X142870400Y-96550000D01*
D69*
X149050000Y-67008000D02*
X147730000Y-65688000D01*
D68*
X136605000Y-78914000D02*
X139776200Y-75742800D01*
D69*
X120558600Y-95412600D02*
X120396000Y-95250000D01*
X131362000Y-65688000D02*
X130000000Y-67050000D01*
D66*
X143256000Y-81584800D02*
X143256000Y-82804000D01*
D69*
X140792200Y-71831200D02*
X142290800Y-71831200D01*
X112278200Y-99948500D02*
X113604000Y-99948500D01*
D70*
X143306000Y-77679500D02*
X142537600Y-78447900D01*
D67*
X121128000Y-117064000D02*
X122174000Y-118110000D01*
D69*
X131690300Y-83709700D02*
X131150000Y-84250000D01*
D66*
X144272000Y-96150000D02*
X145734200Y-96150000D01*
X141732000Y-96550000D02*
X141422600Y-96550000D01*
D67*
X131492373Y-90835519D02*
X131315596Y-90658742D01*
D66*
X153035000Y-87708100D02*
X153035000Y-78613000D01*
D67*
X131758274Y-102971200D02*
X131758274Y-103545026D01*
D69*
X133045200Y-72212200D02*
X133900000Y-73067000D01*
D68*
X142806000Y-81134800D02*
X143256000Y-81584800D01*
D69*
X121030000Y-66930000D02*
X121030000Y-68240000D01*
X123139200Y-101534000D02*
X122443200Y-101534000D01*
X133858000Y-108000800D02*
X133850000Y-108008800D01*
D66*
X146558000Y-95326200D02*
X146558000Y-92608400D01*
X149580500Y-75158500D02*
X149580500Y-74422000D01*
D69*
X133450000Y-106680000D02*
X133450000Y-105814800D01*
D64*
X140806000Y-78834500D02*
X141806000Y-77834500D01*
D69*
X124246600Y-95412600D02*
X123063000Y-95412600D01*
D68*
X139750800Y-75717400D02*
X139750800Y-70789800D01*
D69*
X131150000Y-85852000D02*
X131150000Y-86998000D01*
X131826000Y-65688000D02*
X131362000Y-65688000D01*
X139750800Y-65688000D02*
X139166600Y-65688000D01*
D70*
X142806000Y-79397000D02*
X142806000Y-81134800D01*
D67*
X132080000Y-91770200D02*
X132257800Y-91770200D01*
D69*
X149050000Y-68220000D02*
X149050000Y-67008000D01*
D67*
X122174000Y-118110000D02*
X128021000Y-118110000D01*
D66*
X142870400Y-96550000D02*
X141732000Y-96550000D01*
X143256000Y-82804000D02*
X143256000Y-85852000D01*
D67*
X126896179Y-95078159D02*
X126077420Y-94259400D01*
D70*
X142806000Y-78721800D02*
X142806000Y-79397000D01*
X141806000Y-77067000D02*
X141806000Y-76024400D01*
D68*
X113604000Y-98775800D02*
X113604000Y-99948500D01*
D66*
X140030200Y-97307400D02*
X140030200Y-97942400D01*
D70*
X125948170Y-100162742D02*
X125948058Y-100162742D01*
D64*
X140806000Y-79397000D02*
X140806000Y-78834500D01*
D69*
X133900000Y-81500000D02*
X133900000Y-74422000D01*
D70*
X143306000Y-77067000D02*
X143806000Y-77067000D01*
D66*
X151458300Y-87708100D02*
X153035000Y-87708100D01*
D67*
X126077420Y-94259400D02*
X125755400Y-94259400D01*
D69*
X121560600Y-102416600D02*
X120396000Y-102416600D01*
D67*
X127304912Y-98806000D02*
X127685800Y-98806000D01*
D68*
X143256000Y-75285600D02*
X143256000Y-74422000D01*
D67*
X121466600Y-105032800D02*
X120396000Y-103962200D01*
D64*
%TO.N,PWM_0*%
X131318000Y-118999000D02*
X121031000Y-118999000D01*
X121031000Y-118999000D02*
X118530000Y-121500000D01*
X118530000Y-121500000D02*
X118530000Y-123420000D01*
X131525000Y-117856000D02*
X131525000Y-118792000D01*
X131525000Y-118792000D02*
X131318000Y-118999000D01*
%TO.N,PWM_1*%
X132175000Y-118904000D02*
X131318000Y-119761000D01*
X121070000Y-121881000D02*
X121070000Y-123420000D01*
X131318000Y-119761000D02*
X123190000Y-119761000D01*
X123190000Y-119761000D02*
X121070000Y-121881000D01*
X132175000Y-117856000D02*
X132175000Y-118904000D01*
%TO.N,PWM_2*%
X124968000Y-120523000D02*
X123610000Y-121881000D01*
X132825000Y-117856000D02*
X132825000Y-119384300D01*
X123610000Y-121881000D02*
X123610000Y-123420000D01*
X131686300Y-120523000D02*
X124968000Y-120523000D01*
X132825000Y-119384300D02*
X131686300Y-120523000D01*
%TO.N,PWM_3*%
X133475000Y-119763000D02*
X131953000Y-121285000D01*
X126150000Y-122008000D02*
X126150000Y-123420000D01*
X133475000Y-117856000D02*
X133475000Y-119763000D01*
X126873000Y-121285000D02*
X126150000Y-122008000D01*
X131953000Y-121285000D02*
X126873000Y-121285000D01*
%TO.N,PWM_4*%
X134125000Y-117856000D02*
X134125000Y-120179800D01*
X128690000Y-122643000D02*
X128690000Y-123420000D01*
X134125000Y-120179800D02*
X132384800Y-121920000D01*
X132384800Y-121920000D02*
X129413000Y-121920000D01*
X129413000Y-121920000D02*
X128690000Y-122643000D01*
%TO.N,PWM_5*%
X134775000Y-117856000D02*
X134775000Y-120749000D01*
X134775000Y-120749000D02*
X132104000Y-123420000D01*
X132104000Y-123420000D02*
X131230000Y-123420000D01*
%TO.N,PWM_6*%
X135425000Y-121765000D02*
X133770000Y-123420000D01*
X135425000Y-117856000D02*
X135425000Y-121765000D01*
%TO.N,PWM_7*%
X136601200Y-119964200D02*
X136601200Y-123128800D01*
X136601200Y-123128800D02*
X136310000Y-123420000D01*
X136075000Y-117856000D02*
X136075000Y-119438000D01*
X136075000Y-119438000D02*
X136601200Y-119964200D01*
D67*
%TO.N,Net-(D1-K)*%
X123291600Y-75869800D02*
X123673000Y-75488400D01*
X121823000Y-76373200D02*
X122326400Y-75869800D01*
X121823000Y-77470000D02*
X121823000Y-76373200D01*
X122326400Y-75869800D02*
X123291600Y-75869800D01*
X123673000Y-75488400D02*
X123673000Y-74422000D01*
%TO.N,Net-(D2-K)*%
X116997000Y-77470000D02*
X116997000Y-76271600D01*
X118516400Y-75869800D02*
X118872000Y-75514200D01*
X116997000Y-76271600D02*
X117398800Y-75869800D01*
X118872000Y-75514200D02*
X118872000Y-74422000D01*
X117398800Y-75869800D02*
X118516400Y-75869800D01*
D64*
%TO.N,NRST*%
X114833400Y-90449400D02*
X112522000Y-88138000D01*
X109537002Y-66611998D02*
X107376000Y-68773000D01*
X128448044Y-92387384D02*
X125991584Y-92387384D01*
X114630200Y-66294000D02*
X114312202Y-66611998D01*
X114312202Y-66611998D02*
X111333001Y-66611998D01*
X107376000Y-68773000D02*
X102743000Y-68773000D01*
X125991584Y-92387384D02*
X124053600Y-90449400D01*
X111333001Y-66611998D02*
X109537002Y-66611998D01*
X129017499Y-92956839D02*
X128448044Y-92387384D01*
X124053600Y-90449400D02*
X114833400Y-90449400D01*
X118973600Y-66294000D02*
X114630200Y-66294000D01*
X119837200Y-67157600D02*
X118973600Y-66294000D01*
X112522000Y-88138000D02*
X112522000Y-76631800D01*
X119837200Y-69316600D02*
X119837200Y-67157600D01*
X112522000Y-76631800D02*
X119837200Y-69316600D01*
%TO.N,BOOT0*%
X135737600Y-88900000D02*
X135737600Y-78333600D01*
X136347200Y-91177926D02*
X136347200Y-89509600D01*
X136347200Y-89509600D02*
X135737600Y-88900000D01*
X138176000Y-75895200D02*
X138176000Y-74422000D01*
X135275394Y-92249732D02*
X136347200Y-91177926D01*
X135737600Y-78333600D02*
X138176000Y-75895200D01*
D67*
%TO.N,VIN-*%
X103401500Y-113942500D02*
X102616000Y-113157000D01*
X104394000Y-113942500D02*
X103401500Y-113942500D01*
X102616000Y-110185200D02*
X104013000Y-108788200D01*
X110815000Y-96449000D02*
X109982000Y-97282000D01*
D72*
X154249000Y-111992000D02*
X155243000Y-110998000D01*
D67*
X110032800Y-108788200D02*
X110896400Y-107924600D01*
D72*
X153576000Y-109331000D02*
X155243000Y-110998000D01*
D67*
X110896400Y-107924600D02*
X112344200Y-107924600D01*
D72*
X152273000Y-111992000D02*
X154249000Y-111992000D01*
D67*
X104013000Y-108788200D02*
X110032800Y-108788200D01*
D72*
X153940000Y-110998000D02*
X152273000Y-109331000D01*
X155243000Y-110998000D02*
X153940000Y-110998000D01*
D67*
X148511000Y-111331000D02*
X152273000Y-111331000D01*
X109591700Y-105841800D02*
X111937800Y-105841800D01*
X113416500Y-96449000D02*
X110815000Y-96449000D01*
D72*
X152273000Y-109331000D02*
X153576000Y-109331000D01*
D67*
X147273000Y-112569000D02*
X148511000Y-111331000D01*
X109982000Y-97282000D02*
X109982000Y-105451500D01*
X147273000Y-113792000D02*
X147273000Y-112569000D01*
X102616000Y-113157000D02*
X102616000Y-110185200D01*
D72*
X152273000Y-109331000D02*
X152273000Y-111992000D01*
D73*
%TO.N,VIN+*%
X103750000Y-94742000D02*
X103750000Y-100440600D01*
D67*
X110744000Y-94742000D02*
X103750000Y-94742000D01*
D72*
X103666700Y-100523900D02*
X103750000Y-100440600D01*
D73*
X103750000Y-85600200D02*
X103750000Y-94742000D01*
X104978200Y-84372000D02*
X103750000Y-85600200D01*
D67*
X111801000Y-95799000D02*
X110744000Y-94742000D01*
D72*
X103666700Y-105841800D02*
X103666700Y-100523900D01*
D67*
X113416500Y-95799000D02*
X111801000Y-95799000D01*
D64*
%TO.N,I2C_1_SDA*%
X135628948Y-92603286D02*
X136804400Y-91427834D01*
X138430000Y-86918800D02*
X138430000Y-85852000D01*
X139798200Y-77067000D02*
X140806000Y-77067000D01*
X111252000Y-75946000D02*
X118490000Y-68708000D01*
X135628948Y-92603286D02*
X134607834Y-93624400D01*
X138430000Y-85852000D02*
X138430000Y-83083400D01*
X138430000Y-83083400D02*
X137947400Y-83083400D01*
X138430000Y-83083400D02*
X138430000Y-78435200D01*
X115728673Y-97061827D02*
X115691500Y-97099000D01*
X118110000Y-95758000D02*
X111252000Y-88900000D01*
X118490000Y-68708000D02*
X118490000Y-68240000D01*
X111252000Y-88900000D02*
X111252000Y-75946000D01*
X118110000Y-97061827D02*
X115728673Y-97061827D01*
X134607834Y-93624400D02*
X134213600Y-93624400D01*
X118110000Y-97061827D02*
X118110000Y-95758000D01*
X130776173Y-97061827D02*
X118110000Y-97061827D01*
X136804400Y-88544400D02*
X138430000Y-86918800D01*
X134213600Y-93624400D02*
X130776173Y-97061827D01*
X138430000Y-78435200D02*
X139798200Y-77067000D01*
X136804400Y-91427834D02*
X136804400Y-88544400D01*
%TO.N,I2C_1_SCL*%
X129093200Y-97800400D02*
X115742900Y-97800400D01*
X139547600Y-83159600D02*
X141431000Y-85043000D01*
X135026400Y-93912940D02*
X135026400Y-94335600D01*
X135982501Y-92956839D02*
X135026400Y-93912940D01*
X137972800Y-90966540D02*
X137972800Y-90322400D01*
X139547600Y-78511400D02*
X139547600Y-79349600D01*
X135982501Y-92956839D02*
X137972800Y-90966540D01*
X109982000Y-75438000D02*
X115950000Y-69470000D01*
X114767000Y-97749000D02*
X114528600Y-97510600D01*
X114528600Y-97510600D02*
X114528600Y-94208600D01*
X139547600Y-79349600D02*
X139547600Y-83159600D01*
X139827000Y-78232000D02*
X139547600Y-78511400D01*
X139079500Y-79629000D02*
X139547600Y-79629000D01*
X109982000Y-89662000D02*
X109982000Y-75438000D01*
X140391000Y-78232000D02*
X139827000Y-78232000D01*
X129438400Y-98145600D02*
X129093200Y-97800400D01*
X141431000Y-86864200D02*
X141431000Y-85852000D01*
X115950000Y-69470000D02*
X115950000Y-68240000D01*
X115742900Y-97800400D02*
X115691500Y-97749000D01*
X137972800Y-90322400D02*
X141431000Y-86864200D01*
X115691500Y-97749000D02*
X114767000Y-97749000D01*
X135026400Y-94335600D02*
X131216400Y-98145600D01*
X131216400Y-98145600D02*
X129438400Y-98145600D01*
X114528600Y-94208600D02*
X109982000Y-89662000D01*
X141431000Y-85043000D02*
X141431000Y-85852000D01*
%TO.N,I2C_2_SCL*%
X130078159Y-103103821D02*
X129295980Y-103886000D01*
X123291600Y-113385600D02*
X124460000Y-114554000D01*
X128854200Y-114554000D02*
X129575000Y-113833200D01*
X129575000Y-113833200D02*
X129575000Y-112131000D01*
X124460000Y-114554000D02*
X128854200Y-114554000D01*
X123291600Y-106680000D02*
X123291600Y-113385600D01*
X129295980Y-103886000D02*
X124510800Y-103886000D01*
X123291600Y-105105200D02*
X123291600Y-106680000D01*
X124510800Y-103886000D02*
X123291600Y-105105200D01*
%TO.N,I2C_2_SDA*%
X125145800Y-113741200D02*
X128346200Y-113741200D01*
X125374400Y-106680000D02*
X124434600Y-107619800D01*
X130431713Y-103457375D02*
X129012488Y-104876600D01*
X128925000Y-113162400D02*
X128925000Y-112131000D01*
X126509100Y-106680000D02*
X125374400Y-106680000D01*
X126509100Y-105545300D02*
X126509100Y-106680000D01*
X129012488Y-104876600D02*
X127177800Y-104876600D01*
X124434600Y-107619800D02*
X124434600Y-113030000D01*
X124434600Y-113030000D02*
X125145800Y-113741200D01*
X128346200Y-113741200D02*
X128925000Y-113162400D01*
X127177800Y-104876600D02*
X126509100Y-105545300D01*
%TO.N,/MCU /RCC_OSC_IN*%
X121818400Y-86258400D02*
X121818400Y-84302600D01*
X123037600Y-87477600D02*
X121818400Y-86258400D01*
X125938200Y-83444000D02*
X127000000Y-83444000D01*
X125628400Y-87477600D02*
X123037600Y-87477600D01*
X128676400Y-91201526D02*
X128676400Y-90525600D01*
X122977000Y-83144000D02*
X124206000Y-83144000D01*
X121818400Y-84302600D02*
X122977000Y-83144000D01*
X124206000Y-83144000D02*
X125638200Y-83144000D01*
X125638200Y-83144000D02*
X125938200Y-83444000D01*
X128676400Y-90525600D02*
X125628400Y-87477600D01*
X129724606Y-92249732D02*
X128676400Y-91201526D01*
%TO.N,SWCLK*%
X146050000Y-72491600D02*
X143970000Y-70411600D01*
X148513800Y-85826600D02*
X148513800Y-78663800D01*
X141732000Y-93573600D02*
X141732000Y-92583000D01*
X148513800Y-78663800D02*
X146050000Y-76200000D01*
X141732000Y-92583000D02*
X141757400Y-92583000D01*
X146050000Y-76200000D02*
X146050000Y-72491600D01*
X140515100Y-94790500D02*
X141732000Y-93573600D01*
X140512800Y-94790500D02*
X140515100Y-94790500D01*
X143970000Y-70411600D02*
X143970000Y-68220000D01*
X139164481Y-96138819D02*
X140512800Y-94790500D01*
X141757400Y-92583000D02*
X148513800Y-85826600D01*
%TO.N,SWDIO*%
X146510000Y-70284600D02*
X146510000Y-68220000D01*
X150215600Y-77876400D02*
X147929600Y-75590400D01*
X150215600Y-86558361D02*
X150215600Y-77876400D01*
X147929600Y-75590400D02*
X147929600Y-71704200D01*
X137744200Y-98855112D02*
X137744200Y-98577400D01*
X137744200Y-98577400D02*
X141986000Y-94335600D01*
X147929600Y-71704200D02*
X146510000Y-70284600D01*
X141986000Y-94335600D02*
X142438361Y-94335600D01*
X138457375Y-99568287D02*
X137744200Y-98855112D01*
X142438361Y-94335600D02*
X150215600Y-86558361D01*
%TO.N,/MCU /RCC_OSC_OUT*%
X124993400Y-88900000D02*
X121968500Y-88900000D01*
X128258566Y-91490800D02*
X127584200Y-91490800D01*
X125234700Y-89141300D02*
X124993400Y-88900000D01*
X129371052Y-92603286D02*
X128258566Y-91490800D01*
X127584200Y-91490800D02*
X125234700Y-89141300D01*
%TO.N,/MCU /USB_D-*%
X148891200Y-98188000D02*
X148891200Y-92727000D01*
X138446425Y-100936195D02*
X138928830Y-101418600D01*
X138928830Y-101418600D02*
X145660600Y-101418600D01*
X148891200Y-92727000D02*
X150905200Y-90713000D01*
X145660600Y-101418600D02*
X148891200Y-98188000D01*
X138411069Y-100936195D02*
X138446425Y-100936195D01*
X155916999Y-90888000D02*
X157792000Y-90888000D01*
X155741999Y-90713000D02*
X155916999Y-90888000D01*
X137750268Y-100275394D02*
X138411069Y-100936195D01*
X150905200Y-90713000D02*
X155741999Y-90713000D01*
%TO.N,/MCU /USB_D+*%
X138764622Y-100582642D02*
X138103821Y-99921841D01*
X155741999Y-90263000D02*
X153466800Y-90263000D01*
X152703525Y-90099724D02*
X152703525Y-90099725D01*
X148441200Y-98001600D02*
X145474200Y-100968600D01*
X152266800Y-90263000D02*
X150718800Y-90263000D01*
X148441200Y-92540600D02*
X148441200Y-98001600D01*
X155916999Y-90088000D02*
X155741999Y-90263000D01*
X138764622Y-100617998D02*
X138764622Y-100582642D01*
X139115224Y-100968600D02*
X138764622Y-100617998D01*
X157792000Y-90088000D02*
X155916999Y-90088000D01*
X153303525Y-90099725D02*
X153303525Y-90099724D01*
X145474200Y-100968600D02*
X139115224Y-100968600D01*
X152540250Y-90263000D02*
X152266800Y-90263000D01*
X153140250Y-89936449D02*
X152866800Y-89936449D01*
X150718800Y-90263000D02*
X148441200Y-92540600D01*
X152866800Y-89936425D02*
G75*
G03*
X152703525Y-90099724I0J-163275D01*
G01*
X153303551Y-90099724D02*
G75*
G03*
X153140250Y-89936449I-163251J24D01*
G01*
X152540250Y-90262925D02*
G75*
G03*
X152703525Y-90099725I50J163225D01*
G01*
X153303500Y-90099725D02*
G75*
G03*
X153466800Y-90263000I163300J25D01*
G01*
%TO.N,INT_GYR*%
X145948400Y-83312000D02*
X145948400Y-86309200D01*
X140157200Y-92100400D02*
X138960260Y-92100400D01*
X142712100Y-76098400D02*
X144272000Y-76098400D01*
X138960260Y-92100400D02*
X137043161Y-94017499D01*
X145948400Y-77774800D02*
X145948400Y-82956400D01*
X144272000Y-76098400D02*
X145948400Y-77774800D01*
X142306000Y-77067000D02*
X142306000Y-76504500D01*
X142306000Y-76504500D02*
X142712100Y-76098400D01*
X145948400Y-83159600D02*
X146405600Y-83159600D01*
X145948400Y-82956400D02*
X145948400Y-83312000D01*
X145948400Y-86309200D02*
X140157200Y-92100400D01*
%TO.N,INT_ACC*%
X136689608Y-93663946D02*
X139116754Y-91236800D01*
X144657000Y-80187800D02*
X144653000Y-80183800D01*
X145161000Y-80492600D02*
X145161000Y-78613000D01*
X144780000Y-78232000D02*
X144221000Y-78232000D01*
X139954000Y-91236800D02*
X145161000Y-86029800D01*
X139116754Y-91236800D02*
X139954000Y-91236800D01*
X145161000Y-86029800D02*
X145161000Y-80492600D01*
X145161000Y-78613000D02*
X144780000Y-78232000D01*
X145161000Y-80187800D02*
X144657000Y-80187800D01*
%TO.N,IRQ*%
X135628948Y-102396714D02*
X138642234Y-105410000D01*
X154940000Y-99314000D02*
X155702000Y-100076000D01*
X138642234Y-105410000D02*
X147320000Y-105410000D01*
X155702000Y-101463000D02*
X154432000Y-102733000D01*
X147320000Y-105410000D02*
X153416000Y-99314000D01*
X154432000Y-102733000D02*
X154432000Y-103358000D01*
X153416000Y-99314000D02*
X154940000Y-99314000D01*
X155702000Y-100076000D02*
X155702000Y-101463000D01*
%TO.N,CSN*%
X138938000Y-102616000D02*
X139700000Y-103378000D01*
X158877000Y-97282000D02*
X160782000Y-99187000D01*
X146050000Y-103378000D02*
X152146000Y-97282000D01*
X139700000Y-103378000D02*
X146050000Y-103378000D01*
X152146000Y-97282000D02*
X158877000Y-97282000D01*
X136336054Y-101689608D02*
X137262446Y-102616000D01*
X160782000Y-102088000D02*
X159512000Y-103358000D01*
X137262446Y-102616000D02*
X138938000Y-102616000D01*
X160782000Y-99187000D02*
X160782000Y-102088000D01*
%TO.N,CE*%
X135982501Y-102043161D02*
X137317340Y-103378000D01*
X137317340Y-103378000D02*
X138176000Y-103378000D01*
X152781000Y-98298000D02*
X158369000Y-98298000D01*
X138176000Y-103378000D02*
X139192000Y-104394000D01*
X158369000Y-98298000D02*
X159512000Y-99441000D01*
X146685000Y-104394000D02*
X152781000Y-98298000D01*
X139192000Y-104394000D02*
X146685000Y-104394000D01*
X159512000Y-99441000D02*
X159512000Y-100818000D01*
%TO.N,SPI2_MOSI*%
X150622000Y-106680000D02*
X154940000Y-106680000D01*
X148844000Y-108458000D02*
X150622000Y-106680000D01*
X132842000Y-103886000D02*
X137414000Y-108458000D01*
X133858000Y-102362000D02*
X132842000Y-103378000D01*
X156972000Y-104648000D02*
X156972000Y-103358000D01*
X134921841Y-103103821D02*
X134180020Y-102362000D01*
X154940000Y-106680000D02*
X156972000Y-104648000D01*
X132842000Y-103378000D02*
X132842000Y-103886000D01*
X137414000Y-108458000D02*
X148844000Y-108458000D01*
X134180020Y-102362000D02*
X133858000Y-102362000D01*
%TO.N,SPI2_MISO*%
X153436000Y-100818000D02*
X154432000Y-100818000D01*
X138252200Y-106426000D02*
X147828000Y-106426000D01*
X134568287Y-103457375D02*
X135504912Y-104394000D01*
X136220200Y-104394000D02*
X138252200Y-106426000D01*
X135504912Y-104394000D02*
X136220200Y-104394000D01*
X147828000Y-106426000D02*
X153436000Y-100818000D01*
%TO.N,SPI2_SCK*%
X148336000Y-107442000D02*
X150114000Y-105664000D01*
X150114000Y-105664000D02*
X154178000Y-105664000D01*
X155702000Y-102616000D02*
X156972000Y-101346000D01*
X154178000Y-105664000D02*
X155702000Y-104140000D01*
X156972000Y-101346000D02*
X156972000Y-100818000D01*
X137845806Y-107442000D02*
X148336000Y-107442000D01*
X134214734Y-103810928D02*
X137845806Y-107442000D01*
X155702000Y-104140000D02*
X155702000Y-102616000D01*
%TO.N,Net-(D1-A)*%
X130785266Y-91189072D02*
X129895600Y-90299406D01*
X129895600Y-78841600D02*
X128524000Y-77470000D01*
X129895600Y-90299406D02*
X129895600Y-78841600D01*
X128524000Y-77470000D02*
X123698000Y-77470000D01*
%TO.N,Net-(D2-A)*%
X118872000Y-78740000D02*
X118872000Y-77470000D01*
X119735600Y-79603600D02*
X118872000Y-78740000D01*
X129489200Y-80873600D02*
X128219200Y-79603600D01*
X130431713Y-91542625D02*
X129489200Y-90600112D01*
X128219200Y-79603600D02*
X119735600Y-79603600D01*
X129489200Y-90600112D02*
X129489200Y-80873600D01*
D66*
%TO.N,Net-(D4-K)*%
X163195000Y-73812400D02*
X164033200Y-72974200D01*
X164033200Y-72974200D02*
X164033200Y-69392800D01*
D69*
X160971200Y-66534000D02*
X161925000Y-67487800D01*
D68*
X160020000Y-75311000D02*
X161111000Y-75311000D01*
D66*
X164033200Y-69392800D02*
X163445400Y-68805000D01*
D69*
X159004000Y-66534000D02*
X160971200Y-66534000D01*
D66*
X163195000Y-75851000D02*
X163195000Y-73812400D01*
X163445400Y-68805000D02*
X161925000Y-68805000D01*
D69*
X161925000Y-67487800D02*
X161925000Y-68805000D01*
D68*
X161111000Y-75311000D02*
X161651000Y-75851000D01*
X161651000Y-75851000D02*
X163195000Y-75851000D01*
D71*
%TO.N,Net-(U4-VBST)*%
X109341500Y-111892500D02*
X109220000Y-112014000D01*
X110048000Y-111892500D02*
X109341500Y-111892500D01*
D69*
X109220000Y-112014000D02*
X107508000Y-112014000D01*
X107508000Y-112014000D02*
X107442000Y-112080000D01*
D67*
%TO.N,Net-(U4-VFB)*%
X113162500Y-111892500D02*
X111948000Y-111892500D01*
X117602000Y-112117500D02*
X114808000Y-112117500D01*
X114808000Y-112117500D02*
X113387500Y-112117500D01*
X113387500Y-112117500D02*
X113162500Y-111892500D01*
%TO.N,Net-(U4-EN)*%
X110490000Y-110490000D02*
X110998000Y-110998000D01*
X104902000Y-110490000D02*
X110490000Y-110490000D01*
X104394000Y-110998000D02*
X104902000Y-110490000D01*
X110998000Y-110998000D02*
X110998000Y-111892500D01*
X104394000Y-112117500D02*
X104394000Y-110998000D01*
%TO.N,Net-(U5-EN)*%
X154152600Y-115544600D02*
X152400000Y-113792000D01*
X153873200Y-117602000D02*
X154152600Y-117322600D01*
X152400000Y-113792000D02*
X149098000Y-113792000D01*
X154152600Y-117322600D02*
X154152600Y-115544600D01*
X153040501Y-117602000D02*
X153873200Y-117602000D01*
D69*
%TO.N,Net-(U5-VBST)*%
X153228000Y-119446000D02*
X153228000Y-120650000D01*
D71*
X153040501Y-119258501D02*
X153228000Y-119446000D01*
X153040501Y-118552000D02*
X153040501Y-119258501D01*
D67*
%TO.N,Net-(U5-VFB)*%
X150942000Y-116652000D02*
X150698200Y-116408200D01*
X149098000Y-116408200D02*
X149098000Y-118999000D01*
X150942000Y-116652000D02*
X153040501Y-116652000D01*
X150698200Y-116408200D02*
X149098000Y-116408200D01*
D64*
%TO.N,Net-(C3-Pad1)*%
X119426000Y-85644000D02*
X117906000Y-85644000D01*
X116179600Y-85344000D02*
X115062000Y-85344000D01*
X120143500Y-86361500D02*
X119426000Y-85644000D01*
X117906000Y-85644000D02*
X116479600Y-85644000D01*
X120143500Y-88900000D02*
X120143500Y-86361500D01*
X116479600Y-85644000D02*
X116179600Y-85344000D01*
D69*
%TO.N,Net-(R1-Pad1)*%
X132500000Y-67050000D02*
X132500000Y-69450000D01*
D64*
X136351000Y-74422000D02*
X136351000Y-71987400D01*
X132500000Y-70498600D02*
X132500000Y-69450000D01*
X136351000Y-71987400D02*
X135458200Y-71094600D01*
X135458200Y-71094600D02*
X133096000Y-71094600D01*
X133096000Y-71094600D02*
X132500000Y-70498600D01*
D65*
%TO.N,/Power/SW1*%
X110490000Y-113030000D02*
X109474000Y-113030000D01*
X109474000Y-113030000D02*
X108524000Y-113980000D01*
X108524000Y-113980000D02*
X107442000Y-113980000D01*
X110998000Y-114167500D02*
X110998000Y-113538000D01*
X110998000Y-113538000D02*
X110490000Y-113030000D01*
D64*
%TO.N,Net-(JP1-A)*%
X127000000Y-117348000D02*
X127762000Y-116586000D01*
X127762000Y-116586000D02*
X128778000Y-116586000D01*
X122428000Y-116078000D02*
X124309500Y-116078000D01*
X124309500Y-116078000D02*
X124309500Y-116943500D01*
X124309500Y-116943500D02*
X124714000Y-117348000D01*
X128778000Y-116586000D02*
X128925000Y-116733000D01*
X128925000Y-116733000D02*
X128925000Y-117856000D01*
X124714000Y-117348000D02*
X127000000Y-117348000D01*
%TD*%
%TA.AperFunction,Conductor*%
%TO.N,+3V3*%
G36*
X140069252Y-97129406D02*
G01*
X140090258Y-97144568D01*
X140215240Y-97256394D01*
X140247551Y-97302409D01*
X140360226Y-97581686D01*
X140368893Y-97637240D01*
X140350721Y-97882561D01*
X140346231Y-97907667D01*
X140245119Y-98259315D01*
X140235589Y-98282969D01*
X139979399Y-98767899D01*
X139898060Y-98921862D01*
X139746243Y-99209230D01*
X139697522Y-99259311D01*
X139655851Y-99273804D01*
X139542015Y-99291691D01*
X139472732Y-99282651D01*
X139436175Y-99257951D01*
X139028139Y-98859868D01*
X138795011Y-98632426D01*
X138760337Y-98597751D01*
X138726853Y-98536427D01*
X138724072Y-98513678D01*
X138721444Y-98423402D01*
X138718650Y-98327373D01*
X138736376Y-98259792D01*
X138750986Y-98240203D01*
X139734028Y-97162637D01*
X139793751Y-97126379D01*
X139819349Y-97122369D01*
X140001303Y-97113142D01*
X140069252Y-97129406D01*
G37*
%TD.AperFunction*%
%TD*%
%TA.AperFunction,Conductor*%
%TO.N,GND*%
G36*
X128653595Y-80537685D02*
G01*
X128674237Y-80554319D01*
X128995681Y-80875763D01*
X129029166Y-80937086D01*
X129032000Y-80963444D01*
X129032000Y-88086637D01*
X129012315Y-88153676D01*
X128995681Y-88174318D01*
X128814319Y-88355681D01*
X128752996Y-88389166D01*
X128726638Y-88392000D01*
X127089844Y-88392000D01*
X127022805Y-88372315D01*
X127002163Y-88355681D01*
X125911037Y-87264555D01*
X125894911Y-87244698D01*
X125889837Y-87236931D01*
X125863887Y-87216733D01*
X125858141Y-87211659D01*
X125855707Y-87209225D01*
X125839009Y-87197303D01*
X125836955Y-87195771D01*
X125811675Y-87176096D01*
X125797526Y-87165083D01*
X125797524Y-87165082D01*
X125791048Y-87161577D01*
X125784466Y-87158359D01*
X125736582Y-87144103D01*
X125734143Y-87143322D01*
X125686884Y-87127098D01*
X125679669Y-87125894D01*
X125672353Y-87124982D01*
X125623539Y-87127001D01*
X125622449Y-87127047D01*
X125619889Y-87127100D01*
X123234144Y-87127100D01*
X123167105Y-87107415D01*
X123146463Y-87090781D01*
X122205219Y-86149537D01*
X122171734Y-86088214D01*
X122168900Y-86061856D01*
X122168900Y-84499143D01*
X122188585Y-84432104D01*
X122205219Y-84411462D01*
X122428590Y-84188091D01*
X122685052Y-83931628D01*
X122746373Y-83898145D01*
X122816064Y-83903129D01*
X122871998Y-83945000D01*
X122875833Y-83950420D01*
X122925398Y-84024600D01*
X122925399Y-84024601D01*
X122965723Y-84051544D01*
X123008260Y-84079966D01*
X123008264Y-84079967D01*
X123081321Y-84094499D01*
X123081324Y-84094500D01*
X123081326Y-84094500D01*
X125330676Y-84094500D01*
X125330677Y-84094499D01*
X125403740Y-84079966D01*
X125486601Y-84024601D01*
X125541966Y-83941740D01*
X125556500Y-83868674D01*
X125556500Y-83844709D01*
X125576185Y-83777671D01*
X125628989Y-83731916D01*
X125698147Y-83721972D01*
X125756664Y-83746858D01*
X125769072Y-83756516D01*
X125775557Y-83760025D01*
X125782133Y-83763240D01*
X125830022Y-83777497D01*
X125832442Y-83778272D01*
X125879712Y-83794500D01*
X125879714Y-83794500D01*
X125886951Y-83795707D01*
X125894245Y-83796617D01*
X125894245Y-83796616D01*
X125894246Y-83796617D01*
X125937173Y-83794841D01*
X126004967Y-83811737D01*
X126052865Y-83862604D01*
X126058479Y-83875403D01*
X126081201Y-83936326D01*
X126081206Y-83936335D01*
X126167452Y-84051544D01*
X126167455Y-84051547D01*
X126282664Y-84137793D01*
X126282671Y-84137797D01*
X126417517Y-84188091D01*
X126417516Y-84188091D01*
X126424444Y-84188835D01*
X126477127Y-84194500D01*
X127522872Y-84194499D01*
X127582483Y-84188091D01*
X127717331Y-84137796D01*
X127832546Y-84051546D01*
X127918796Y-83936331D01*
X127969091Y-83801483D01*
X127975500Y-83741873D01*
X127975499Y-83146128D01*
X127969091Y-83086517D01*
X127956733Y-83053384D01*
X127918797Y-82951671D01*
X127918793Y-82951664D01*
X127832547Y-82836455D01*
X127832544Y-82836452D01*
X127717335Y-82750206D01*
X127717328Y-82750202D01*
X127582482Y-82699908D01*
X127582483Y-82699908D01*
X127522883Y-82693501D01*
X127522881Y-82693500D01*
X127522873Y-82693500D01*
X127522864Y-82693500D01*
X126477129Y-82693500D01*
X126477123Y-82693501D01*
X126417516Y-82699908D01*
X126282671Y-82750202D01*
X126282664Y-82750206D01*
X126167455Y-82836452D01*
X126107287Y-82916825D01*
X126051352Y-82958696D01*
X125981661Y-82963679D01*
X125920338Y-82930193D01*
X125904212Y-82910333D01*
X125899639Y-82903334D01*
X125899638Y-82903333D01*
X125899637Y-82903331D01*
X125873687Y-82883133D01*
X125867941Y-82878059D01*
X125865507Y-82875625D01*
X125848809Y-82863703D01*
X125846755Y-82862171D01*
X125813714Y-82836455D01*
X125807326Y-82831483D01*
X125807324Y-82831482D01*
X125800848Y-82827977D01*
X125794266Y-82824759D01*
X125746382Y-82810503D01*
X125743943Y-82809722D01*
X125696684Y-82793498D01*
X125689469Y-82792294D01*
X125671957Y-82790112D01*
X125672232Y-82787901D01*
X125617827Y-82774341D01*
X125569930Y-82723472D01*
X125556500Y-82667345D01*
X125556500Y-82419323D01*
X125556499Y-82419321D01*
X125541967Y-82346264D01*
X125541966Y-82346260D01*
X125541966Y-82346259D01*
X125486601Y-82263399D01*
X125403740Y-82208034D01*
X125403739Y-82208033D01*
X125403735Y-82208032D01*
X125330677Y-82193500D01*
X125330674Y-82193500D01*
X123081326Y-82193500D01*
X123081323Y-82193500D01*
X123008264Y-82208032D01*
X123008260Y-82208033D01*
X122925399Y-82263399D01*
X122870033Y-82346260D01*
X122870032Y-82346264D01*
X122855500Y-82419321D01*
X122855499Y-82419323D01*
X122855499Y-82735851D01*
X122835814Y-82802891D01*
X122785963Y-82847250D01*
X122770512Y-82854804D01*
X122764566Y-82859048D01*
X122758739Y-82863584D01*
X122724913Y-82900329D01*
X122723139Y-82902177D01*
X121605355Y-84019961D01*
X121585506Y-84036082D01*
X121577731Y-84041162D01*
X121557543Y-84067098D01*
X121552467Y-84072848D01*
X121550034Y-84075281D01*
X121550025Y-84075293D01*
X121538095Y-84092001D01*
X121536564Y-84094053D01*
X121505883Y-84133472D01*
X121502375Y-84139953D01*
X121499161Y-84146531D01*
X121484906Y-84194409D01*
X121484125Y-84196846D01*
X121467899Y-84244112D01*
X121466694Y-84251333D01*
X121465782Y-84258646D01*
X121467847Y-84308548D01*
X121467900Y-84311110D01*
X121467900Y-86209188D01*
X121465261Y-86234632D01*
X121463357Y-86243711D01*
X121463357Y-86243717D01*
X121467423Y-86276337D01*
X121467900Y-86284014D01*
X121467900Y-86287440D01*
X121470632Y-86303820D01*
X121471276Y-86307676D01*
X121471645Y-86310208D01*
X121477827Y-86359793D01*
X121479920Y-86366826D01*
X121482307Y-86373779D01*
X121482308Y-86373781D01*
X121483609Y-86376185D01*
X121506091Y-86417730D01*
X121507264Y-86420008D01*
X121529202Y-86464884D01*
X121529204Y-86464886D01*
X121533471Y-86470864D01*
X121537982Y-86476659D01*
X121574741Y-86510498D01*
X121576590Y-86512272D01*
X122754962Y-87690644D01*
X122771086Y-87710499D01*
X122776163Y-87718269D01*
X122802108Y-87738462D01*
X122807860Y-87743542D01*
X122810293Y-87745975D01*
X122827035Y-87757928D01*
X122829034Y-87759419D01*
X122868475Y-87790118D01*
X122874921Y-87793606D01*
X122881531Y-87796837D01*
X122881534Y-87796839D01*
X122929420Y-87811094D01*
X122931802Y-87811857D01*
X122979112Y-87828100D01*
X122979116Y-87828100D01*
X122986360Y-87829309D01*
X122993646Y-87830217D01*
X123043550Y-87828152D01*
X123046111Y-87828100D01*
X125431856Y-87828100D01*
X125498895Y-87847785D01*
X125519537Y-87864419D01*
X125835437Y-88180319D01*
X125868922Y-88241642D01*
X125863938Y-88311334D01*
X125822066Y-88367267D01*
X125756602Y-88391684D01*
X125747756Y-88392000D01*
X122829642Y-88392000D01*
X122762603Y-88372315D01*
X122716848Y-88319511D01*
X122713461Y-88311336D01*
X122674796Y-88207669D01*
X122674795Y-88207668D01*
X122674793Y-88207664D01*
X122588547Y-88092455D01*
X122588544Y-88092452D01*
X122473335Y-88006206D01*
X122473328Y-88006202D01*
X122338486Y-87955910D01*
X122338485Y-87955909D01*
X122338483Y-87955909D01*
X122278873Y-87949500D01*
X122278863Y-87949500D01*
X121658129Y-87949500D01*
X121658123Y-87949501D01*
X121598516Y-87955908D01*
X121463671Y-88006202D01*
X121463664Y-88006206D01*
X121348455Y-88092452D01*
X121348452Y-88092455D01*
X121262206Y-88207664D01*
X121262202Y-88207671D01*
X121223540Y-88311333D01*
X121181669Y-88367266D01*
X121116205Y-88391684D01*
X121107358Y-88392000D01*
X121004642Y-88392000D01*
X120937603Y-88372315D01*
X120891848Y-88319511D01*
X120888461Y-88311336D01*
X120849796Y-88207669D01*
X120849795Y-88207668D01*
X120849793Y-88207664D01*
X120763547Y-88092455D01*
X120763544Y-88092452D01*
X120648335Y-88006206D01*
X120648328Y-88006202D01*
X120574667Y-87978729D01*
X120518733Y-87936858D01*
X120494316Y-87871394D01*
X120494000Y-87862547D01*
X120494000Y-86410706D01*
X120496639Y-86385260D01*
X120498542Y-86376185D01*
X120496282Y-86358061D01*
X120494477Y-86343568D01*
X120494000Y-86335891D01*
X120494000Y-86332463D01*
X120493999Y-86332457D01*
X120490623Y-86312228D01*
X120490253Y-86309688D01*
X120485249Y-86269543D01*
X120484073Y-86260107D01*
X120484072Y-86260104D01*
X120481981Y-86253079D01*
X120479591Y-86246116D01*
X120455817Y-86202188D01*
X120454657Y-86199937D01*
X120441449Y-86172918D01*
X120432700Y-86155019D01*
X120428419Y-86149024D01*
X120423920Y-86143244D01*
X120423918Y-86143242D01*
X120387142Y-86109387D01*
X120385320Y-86107638D01*
X119708637Y-85430955D01*
X119692511Y-85411098D01*
X119687437Y-85403331D01*
X119661487Y-85383133D01*
X119655741Y-85378059D01*
X119653307Y-85375625D01*
X119636609Y-85363703D01*
X119634555Y-85362171D01*
X119609275Y-85342496D01*
X119595126Y-85331483D01*
X119595124Y-85331482D01*
X119588648Y-85327977D01*
X119582066Y-85324759D01*
X119534182Y-85310503D01*
X119531743Y-85309722D01*
X119484484Y-85293498D01*
X119477269Y-85292294D01*
X119469953Y-85291382D01*
X119421139Y-85293401D01*
X119420049Y-85293447D01*
X119417489Y-85293500D01*
X119380500Y-85293500D01*
X119313461Y-85273815D01*
X119267706Y-85221011D01*
X119256500Y-85169500D01*
X119256500Y-84919323D01*
X119256499Y-84919321D01*
X119241967Y-84846264D01*
X119241966Y-84846260D01*
X119241965Y-84846260D01*
X119186601Y-84763399D01*
X119103740Y-84708034D01*
X119103739Y-84708033D01*
X119103735Y-84708032D01*
X119030677Y-84693500D01*
X119030674Y-84693500D01*
X116781326Y-84693500D01*
X116781323Y-84693500D01*
X116708264Y-84708032D01*
X116708260Y-84708033D01*
X116625399Y-84763399D01*
X116570033Y-84846260D01*
X116570032Y-84846264D01*
X116555500Y-84919321D01*
X116555500Y-84938776D01*
X116535815Y-85005815D01*
X116483011Y-85051570D01*
X116413853Y-85061514D01*
X116355339Y-85036630D01*
X116348727Y-85031484D01*
X116348726Y-85031483D01*
X116348723Y-85031482D01*
X116342248Y-85027977D01*
X116335666Y-85024759D01*
X116287782Y-85010503D01*
X116285343Y-85009722D01*
X116238084Y-84993498D01*
X116230869Y-84992294D01*
X116223553Y-84991382D01*
X116174739Y-84993401D01*
X116173649Y-84993447D01*
X116171089Y-84993500D01*
X116119791Y-84993500D01*
X116052752Y-84973815D01*
X116006997Y-84921011D01*
X116003609Y-84912833D01*
X115980797Y-84851671D01*
X115980793Y-84851664D01*
X115894547Y-84736455D01*
X115894544Y-84736452D01*
X115779335Y-84650206D01*
X115779328Y-84650202D01*
X115644482Y-84599908D01*
X115644483Y-84599908D01*
X115584883Y-84593501D01*
X115584881Y-84593500D01*
X115584873Y-84593500D01*
X115584864Y-84593500D01*
X114539129Y-84593500D01*
X114539123Y-84593501D01*
X114479516Y-84599908D01*
X114344671Y-84650202D01*
X114344664Y-84650206D01*
X114229455Y-84736452D01*
X114229452Y-84736455D01*
X114143206Y-84851664D01*
X114143202Y-84851671D01*
X114092910Y-84986513D01*
X114092909Y-84986517D01*
X114086500Y-85046127D01*
X114086500Y-85046134D01*
X114086500Y-85046135D01*
X114086500Y-85641870D01*
X114086501Y-85641876D01*
X114092908Y-85701483D01*
X114143202Y-85836328D01*
X114143206Y-85836335D01*
X114229452Y-85951544D01*
X114229455Y-85951547D01*
X114344664Y-86037793D01*
X114344671Y-86037797D01*
X114479517Y-86088091D01*
X114479516Y-86088091D01*
X114486444Y-86088835D01*
X114539127Y-86094500D01*
X115584872Y-86094499D01*
X115644483Y-86088091D01*
X115779331Y-86037796D01*
X115894546Y-85951546D01*
X115978713Y-85839112D01*
X116034647Y-85797242D01*
X116104339Y-85792258D01*
X116165661Y-85825743D01*
X116196962Y-85857044D01*
X116213086Y-85876899D01*
X116218163Y-85884669D01*
X116244108Y-85904862D01*
X116249860Y-85909942D01*
X116252293Y-85912375D01*
X116269014Y-85924313D01*
X116271021Y-85925809D01*
X116310474Y-85956517D01*
X116310476Y-85956517D01*
X116316957Y-85960025D01*
X116323533Y-85963240D01*
X116371422Y-85977497D01*
X116373842Y-85978272D01*
X116421112Y-85994500D01*
X116421114Y-85994500D01*
X116428351Y-85995707D01*
X116435643Y-85996616D01*
X116435646Y-85996617D01*
X116435648Y-85996616D01*
X116445843Y-85997888D01*
X116445362Y-86001744D01*
X116494085Y-86013847D01*
X116542024Y-86064676D01*
X116555500Y-86120894D01*
X116555500Y-86368678D01*
X116570032Y-86441735D01*
X116570033Y-86441739D01*
X116570034Y-86441740D01*
X116625399Y-86524601D01*
X116708259Y-86579966D01*
X116708260Y-86579966D01*
X116708264Y-86579967D01*
X116781321Y-86594499D01*
X116781324Y-86594500D01*
X116781326Y-86594500D01*
X119030676Y-86594500D01*
X119030677Y-86594499D01*
X119103740Y-86579966D01*
X119186601Y-86524601D01*
X119241966Y-86441740D01*
X119256500Y-86368674D01*
X119256500Y-86269542D01*
X119276185Y-86202504D01*
X119328989Y-86156749D01*
X119398147Y-86146805D01*
X119461703Y-86175830D01*
X119468171Y-86181853D01*
X119539398Y-86253079D01*
X119756681Y-86470362D01*
X119790166Y-86531685D01*
X119793000Y-86558043D01*
X119793000Y-87862547D01*
X119773315Y-87929586D01*
X119720511Y-87975341D01*
X119712333Y-87978729D01*
X119638671Y-88006202D01*
X119638664Y-88006206D01*
X119523455Y-88092452D01*
X119523452Y-88092455D01*
X119437206Y-88207664D01*
X119437202Y-88207671D01*
X119398540Y-88311333D01*
X119356669Y-88367266D01*
X119291205Y-88391684D01*
X119282358Y-88392000D01*
X113335362Y-88392000D01*
X113268323Y-88372315D01*
X113247681Y-88355681D01*
X113066319Y-88174319D01*
X113032834Y-88112996D01*
X113030000Y-88086638D01*
X113030000Y-80823361D01*
X113049685Y-80756322D01*
X113066314Y-80735685D01*
X113247680Y-80554318D01*
X113309004Y-80520834D01*
X113335362Y-80518000D01*
X128586556Y-80518000D01*
X128653595Y-80537685D01*
G37*
%TD.AperFunction*%
%TD*%
%TA.AperFunction,Conductor*%
%TO.N,+3V3*%
G36*
X132023039Y-84855685D02*
G01*
X132068794Y-84908489D01*
X132080000Y-84960000D01*
X132080000Y-89284000D01*
X132060315Y-89351039D01*
X132007511Y-89396794D01*
X131956000Y-89408000D01*
X131806000Y-89408000D01*
X131800000Y-89400000D01*
X131200000Y-89400000D01*
X131194000Y-89408000D01*
X130370100Y-89408000D01*
X130303061Y-89388315D01*
X130257306Y-89335511D01*
X130246100Y-89284000D01*
X130246100Y-84960000D01*
X130265785Y-84892961D01*
X130318589Y-84847206D01*
X130370100Y-84836000D01*
X131956000Y-84836000D01*
X132023039Y-84855685D01*
G37*
%TD.AperFunction*%
%TD*%
%TA.AperFunction,Conductor*%
%TO.N,GND*%
G36*
X135215277Y-84668885D02*
G01*
X135235919Y-84685519D01*
X135350781Y-84800381D01*
X135384266Y-84861704D01*
X135387100Y-84888062D01*
X135387100Y-88850788D01*
X135384461Y-88876232D01*
X135382557Y-88885311D01*
X135382557Y-88885317D01*
X135386623Y-88917937D01*
X135387100Y-88925614D01*
X135387100Y-88929040D01*
X135389832Y-88945420D01*
X135390476Y-88949276D01*
X135390845Y-88951808D01*
X135398298Y-89011588D01*
X135397213Y-89011723D01*
X135399600Y-89028101D01*
X135399600Y-89147838D01*
X135379915Y-89214877D01*
X135363281Y-89235519D01*
X135235919Y-89362881D01*
X135174596Y-89396366D01*
X135148238Y-89399200D01*
X132650962Y-89399200D01*
X132583923Y-89379515D01*
X132563281Y-89362881D01*
X132435919Y-89235519D01*
X132402434Y-89174196D01*
X132399600Y-89147838D01*
X132399600Y-84900562D01*
X132419285Y-84833523D01*
X132435919Y-84812881D01*
X132563281Y-84685519D01*
X132624604Y-84652034D01*
X132650962Y-84649200D01*
X135148238Y-84649200D01*
X135215277Y-84668885D01*
G37*
%TD.AperFunction*%
%TD*%
%TA.AperFunction,Conductor*%
%TO.N,+3V3*%
G36*
X145231039Y-95015685D02*
G01*
X145276794Y-95068489D01*
X145288000Y-95120000D01*
X145288000Y-96904000D01*
X145268315Y-96971039D01*
X145215511Y-97016794D01*
X145164000Y-97028000D01*
X140840000Y-97028000D01*
X140772961Y-97008315D01*
X140727206Y-96955511D01*
X140716000Y-96904000D01*
X140716000Y-96152644D01*
X140735685Y-96085605D01*
X140752319Y-96064963D01*
X141784963Y-95032319D01*
X141846286Y-94998834D01*
X141872644Y-94996000D01*
X145164000Y-94996000D01*
X145231039Y-95015685D01*
G37*
%TD.AperFunction*%
%TD*%
%TA.AperFunction,Conductor*%
%TO.N,+3V3*%
G36*
X131777402Y-103430421D02*
G01*
X131844058Y-103451366D01*
X131872943Y-103478270D01*
X132569039Y-104373250D01*
X132594659Y-104438253D01*
X132593289Y-104470835D01*
X132589095Y-104494708D01*
X132558107Y-104557330D01*
X132533034Y-104578185D01*
X132080649Y-104863020D01*
X132042736Y-104878848D01*
X131899224Y-104912309D01*
X131858221Y-104914881D01*
X131368799Y-104863899D01*
X130877774Y-104812751D01*
X130841045Y-104803076D01*
X130704872Y-104743679D01*
X130651293Y-104698833D01*
X130630466Y-104632140D01*
X130630465Y-104632089D01*
X130630152Y-104609869D01*
X130648892Y-104542563D01*
X130669890Y-104517146D01*
X131241800Y-103987600D01*
X131672801Y-103474502D01*
X131730990Y-103435834D01*
X131770079Y-103430283D01*
X131777402Y-103430421D01*
G37*
%TD.AperFunction*%
%TD*%
%TA.AperFunction,Conductor*%
%TO.N,+3V3*%
G36*
X123895039Y-94507685D02*
G01*
X123940794Y-94560489D01*
X123952000Y-94612000D01*
X123952000Y-96396000D01*
X123932315Y-96463039D01*
X123879511Y-96508794D01*
X123828000Y-96520000D01*
X119504000Y-96520000D01*
X119436961Y-96500315D01*
X119391206Y-96447511D01*
X119380000Y-96396000D01*
X119380000Y-94612000D01*
X119399685Y-94544961D01*
X119452489Y-94499206D01*
X119504000Y-94488000D01*
X123828000Y-94488000D01*
X123895039Y-94507685D01*
G37*
%TD.AperFunction*%
%TD*%
%TA.AperFunction,Conductor*%
%TO.N,+3V3*%
G36*
X132400000Y-90200000D02*
G01*
X134033914Y-90200000D01*
X134081367Y-90209439D01*
X134223453Y-90268293D01*
X134277856Y-90312134D01*
X134299921Y-90378428D01*
X134300000Y-90382854D01*
X134300000Y-90448638D01*
X134280315Y-90515677D01*
X134263681Y-90536319D01*
X133158862Y-91641137D01*
X133118634Y-91668017D01*
X132855978Y-91776812D01*
X132826755Y-91788918D01*
X132822788Y-91790561D01*
X132775335Y-91800000D01*
X132226819Y-91800000D01*
X132175580Y-91788918D01*
X131892720Y-91660565D01*
X131850639Y-91629302D01*
X130862500Y-90500000D01*
X130760637Y-90383585D01*
X130731307Y-90320171D01*
X130730046Y-90306601D01*
X130729797Y-90300000D01*
X130721654Y-90083911D01*
X130738800Y-90016180D01*
X130746357Y-90004856D01*
X131074000Y-89568000D01*
X131200000Y-89400000D01*
X131800000Y-89400000D01*
X132400000Y-90200000D01*
G37*
%TD.AperFunction*%
%TD*%
%TA.AperFunction,Conductor*%
%TO.N,VIN-*%
G36*
X113041616Y-102618237D02*
G01*
X113508217Y-102708096D01*
X113530820Y-102714728D01*
X113828200Y-102833680D01*
X113919000Y-102870000D01*
X115552859Y-103523543D01*
X115607792Y-103566717D01*
X115609486Y-103569156D01*
X115802680Y-103854509D01*
X115823964Y-103921058D01*
X115824000Y-103924027D01*
X115824000Y-107911972D01*
X115804315Y-107979011D01*
X115802680Y-107981490D01*
X115609486Y-108266843D01*
X115555602Y-108311320D01*
X115552858Y-108312456D01*
X113530820Y-109121271D01*
X113508218Y-109127903D01*
X113218589Y-109183681D01*
X113041614Y-109217763D01*
X113018167Y-109220000D01*
X108001362Y-109220000D01*
X107934323Y-109200315D01*
X107913681Y-109183681D01*
X107732319Y-109002319D01*
X107698834Y-108940996D01*
X107696000Y-108914638D01*
X107696000Y-102921361D01*
X107715685Y-102854322D01*
X107732314Y-102833685D01*
X107913681Y-102652319D01*
X107975004Y-102618834D01*
X108001362Y-102616000D01*
X113018167Y-102616000D01*
X113041616Y-102618237D01*
G37*
%TD.AperFunction*%
%TD*%
%TA.AperFunction,Conductor*%
%TO.N,GND*%
G36*
X124225239Y-98170585D02*
G01*
X124270994Y-98223389D01*
X124282200Y-98274900D01*
X124282200Y-100407238D01*
X124262515Y-100474277D01*
X124245881Y-100494919D01*
X124218519Y-100522281D01*
X124157196Y-100555766D01*
X124130838Y-100558600D01*
X119429762Y-100558600D01*
X119362723Y-100538915D01*
X119342081Y-100522281D01*
X119314719Y-100494919D01*
X119281234Y-100433596D01*
X119278400Y-100407238D01*
X119278400Y-98274900D01*
X119298085Y-98207861D01*
X119350889Y-98162106D01*
X119402400Y-98150900D01*
X124158200Y-98150900D01*
X124225239Y-98170585D01*
G37*
%TD.AperFunction*%
%TD*%
%TA.AperFunction,Conductor*%
%TO.N,GND*%
G36*
X163065677Y-70019685D02*
G01*
X163086319Y-70036319D01*
X163213681Y-70163681D01*
X163247166Y-70225004D01*
X163250000Y-70251362D01*
X163250000Y-72775334D01*
X163240561Y-72822787D01*
X163182954Y-72961861D01*
X163156074Y-73002089D01*
X162801096Y-73357068D01*
X162794993Y-73362420D01*
X162766718Y-73384117D01*
X162742549Y-73415613D01*
X162742550Y-73415614D01*
X162670464Y-73509558D01*
X162670463Y-73509559D01*
X162630420Y-73606231D01*
X162603540Y-73646458D01*
X161658862Y-74591137D01*
X161618634Y-74618017D01*
X161322788Y-74740561D01*
X161275335Y-74750000D01*
X158750000Y-74750000D01*
X158608579Y-74891420D01*
X158608578Y-74891421D01*
X158158862Y-75341137D01*
X158118634Y-75368017D01*
X157822788Y-75490561D01*
X157775335Y-75500000D01*
X155501362Y-75500000D01*
X155434323Y-75480315D01*
X155413681Y-75463681D01*
X155286319Y-75336319D01*
X155252834Y-75274996D01*
X155250000Y-75248638D01*
X155250000Y-73501362D01*
X155269685Y-73434323D01*
X155286319Y-73413681D01*
X155413681Y-73286319D01*
X155475004Y-73252834D01*
X155501362Y-73250000D01*
X157546000Y-73250000D01*
X157746000Y-73250000D01*
X157746000Y-70251362D01*
X157765685Y-70184323D01*
X157782319Y-70163681D01*
X157909681Y-70036319D01*
X157971004Y-70002834D01*
X157997362Y-70000000D01*
X162998638Y-70000000D01*
X163065677Y-70019685D01*
G37*
%TD.AperFunction*%
%TD*%
%TA.AperFunction,Conductor*%
%TO.N,GND*%
G36*
X115537039Y-121685685D02*
G01*
X115582794Y-121738489D01*
X115594000Y-121790000D01*
X115594000Y-124178757D01*
X115574315Y-124245796D01*
X115521511Y-124291551D01*
X115498255Y-124299494D01*
X115476067Y-124304686D01*
X115472586Y-124305397D01*
X115393858Y-124319106D01*
X115393851Y-124319108D01*
X115350200Y-124333848D01*
X115344491Y-124335476D01*
X115299625Y-124345975D01*
X115299611Y-124345979D01*
X115225500Y-124375849D01*
X115222177Y-124377077D01*
X115186509Y-124389122D01*
X115146466Y-124402644D01*
X115105567Y-124423879D01*
X115100175Y-124426358D01*
X115057437Y-124443584D01*
X114988748Y-124484419D01*
X114985635Y-124486150D01*
X114914738Y-124522962D01*
X114877556Y-124550192D01*
X114872606Y-124553465D01*
X114832999Y-124577012D01*
X114832991Y-124577018D01*
X114771353Y-124627850D01*
X114768541Y-124630036D01*
X114704079Y-124677249D01*
X114704076Y-124677252D01*
X114671482Y-124709844D01*
X114667089Y-124713835D01*
X114631555Y-124743140D01*
X114631544Y-124743151D01*
X114578396Y-124802787D01*
X114575951Y-124805376D01*
X114544044Y-124837284D01*
X114421146Y-124960182D01*
X114359826Y-124993666D01*
X114333467Y-124996500D01*
X108606000Y-124996500D01*
X108538961Y-124976815D01*
X108493206Y-124924011D01*
X108482000Y-124872500D01*
X108482000Y-121666000D01*
X111252000Y-121666000D01*
X115470000Y-121666000D01*
X115537039Y-121685685D01*
G37*
%TD.AperFunction*%
%TD*%
%TA.AperFunction,Conductor*%
%TO.N,VIN+*%
G36*
X107199453Y-101365685D02*
G01*
X107224984Y-101387497D01*
X107375900Y-101556828D01*
X107405810Y-101619972D01*
X107406513Y-101653544D01*
X106714529Y-107650747D01*
X106687290Y-107715089D01*
X106673849Y-107729104D01*
X106461265Y-107918570D01*
X106398121Y-107948480D01*
X106378762Y-107950000D01*
X101391902Y-107950000D01*
X101324863Y-107930315D01*
X101311162Y-107920112D01*
X101088215Y-107728842D01*
X101050151Y-107670250D01*
X101046397Y-107653585D01*
X100584000Y-104647999D01*
X100123289Y-101653381D01*
X100132552Y-101584128D01*
X100151734Y-101553788D01*
X100292887Y-101389259D01*
X100351478Y-101351196D01*
X100386998Y-101346000D01*
X107132414Y-101346000D01*
X107199453Y-101365685D01*
G37*
%TD.AperFunction*%
%TD*%
%TA.AperFunction,Conductor*%
%TO.N,+3V3*%
G36*
X123895039Y-101111685D02*
G01*
X123940794Y-101164489D01*
X123952000Y-101216000D01*
X123952000Y-103000000D01*
X123932315Y-103067039D01*
X123879511Y-103112794D01*
X123828000Y-103124000D01*
X119504000Y-103124000D01*
X119436961Y-103104315D01*
X119391206Y-103051511D01*
X119380000Y-103000000D01*
X119380000Y-101216000D01*
X119399685Y-101148961D01*
X119452489Y-101103206D01*
X119504000Y-101092000D01*
X123828000Y-101092000D01*
X123895039Y-101111685D01*
G37*
%TD.AperFunction*%
%TD*%
%TA.AperFunction,Conductor*%
%TO.N,VIN-*%
G36*
X112537677Y-113557685D02*
G01*
X112558319Y-113574319D01*
X112739681Y-113755681D01*
X112773166Y-113817004D01*
X112776000Y-113843361D01*
X112776000Y-115316000D01*
X115799335Y-115316000D01*
X115846787Y-115325438D01*
X116234819Y-115486166D01*
X116275046Y-115513046D01*
X117912953Y-117150953D01*
X117939832Y-117191180D01*
X117954060Y-117225528D01*
X117963500Y-117272982D01*
X117963500Y-119162744D01*
X117943815Y-119229783D01*
X117927181Y-119250425D01*
X116280516Y-120897091D01*
X116280513Y-120897093D01*
X116280513Y-120897094D01*
X116269231Y-120908376D01*
X116257948Y-120919659D01*
X116257948Y-120919660D01*
X116247891Y-120939397D01*
X116237731Y-120955977D01*
X116224706Y-120973905D01*
X116224703Y-120973910D01*
X116217854Y-120994988D01*
X116210413Y-121012951D01*
X116206209Y-121021203D01*
X116183403Y-121052596D01*
X116021047Y-121214953D01*
X115980818Y-121241833D01*
X115592788Y-121402561D01*
X115545335Y-121412000D01*
X111811362Y-121412000D01*
X111744323Y-121392315D01*
X111723681Y-121375681D01*
X111542319Y-121194319D01*
X111508834Y-121132996D01*
X111506000Y-121106638D01*
X111506000Y-114889332D01*
X111519515Y-114833037D01*
X111533646Y-114805304D01*
X111533646Y-114805302D01*
X111533647Y-114805301D01*
X111548499Y-114711524D01*
X111548500Y-114711519D01*
X111548499Y-113800861D01*
X111568183Y-113733823D01*
X111584809Y-113713190D01*
X111723683Y-113574316D01*
X111785004Y-113540834D01*
X111811362Y-113538000D01*
X112470638Y-113538000D01*
X112537677Y-113557685D01*
G37*
%TD.AperFunction*%
%TD*%
%TA.AperFunction,Conductor*%
%TO.N,GND*%
G36*
X123964877Y-91019685D02*
G01*
X123985519Y-91036319D01*
X124112881Y-91163681D01*
X124146366Y-91225004D01*
X124149200Y-91251362D01*
X124149200Y-93748638D01*
X124129515Y-93815677D01*
X124112881Y-93836319D01*
X123985519Y-93963681D01*
X123924196Y-93997166D01*
X123897838Y-94000000D01*
X119650562Y-94000000D01*
X119583523Y-93980315D01*
X119562881Y-93963681D01*
X119435519Y-93836319D01*
X119402034Y-93774996D01*
X119399200Y-93748638D01*
X119399200Y-91251361D01*
X119418885Y-91184322D01*
X119435510Y-91163689D01*
X119562883Y-91036316D01*
X119624204Y-91002834D01*
X119650562Y-91000000D01*
X123897838Y-91000000D01*
X123964877Y-91019685D01*
G37*
%TD.AperFunction*%
%TD*%
%TA.AperFunction,Conductor*%
%TO.N,GND*%
G36*
X156534039Y-121685685D02*
G01*
X156579794Y-121738489D01*
X156591000Y-121790000D01*
X156591000Y-124872500D01*
X156571315Y-124939539D01*
X156518511Y-124985294D01*
X156467000Y-124996500D01*
X150566732Y-124996500D01*
X150499693Y-124976815D01*
X150479051Y-124960181D01*
X150360125Y-124841255D01*
X150354650Y-124834992D01*
X150347252Y-124825287D01*
X150347250Y-124825284D01*
X150347250Y-124825283D01*
X150264910Y-124746040D01*
X150247630Y-124728760D01*
X150230357Y-124711486D01*
X150219319Y-124702021D01*
X150216683Y-124699626D01*
X150159116Y-124644224D01*
X150159114Y-124644222D01*
X150137365Y-124628924D01*
X150121416Y-124617705D01*
X150116742Y-124614072D01*
X150081749Y-124584069D01*
X150013854Y-124541924D01*
X150010891Y-124539964D01*
X149945558Y-124494010D01*
X149945549Y-124494005D01*
X149945544Y-124494001D01*
X149945538Y-124493998D01*
X149904252Y-124473555D01*
X149899065Y-124470670D01*
X149878799Y-124458091D01*
X149859903Y-124446362D01*
X149859899Y-124446360D01*
X149859897Y-124446359D01*
X149810214Y-124425220D01*
X149786376Y-124415078D01*
X149783146Y-124413592D01*
X149757045Y-124400669D01*
X149711547Y-124378141D01*
X149711544Y-124378140D01*
X149711540Y-124378138D01*
X149667612Y-124364237D01*
X149662049Y-124362179D01*
X149619638Y-124344134D01*
X149572437Y-124332130D01*
X149512318Y-124296530D01*
X149480989Y-124234078D01*
X149479000Y-124211956D01*
X149479000Y-121790000D01*
X149498685Y-121722961D01*
X149551489Y-121677206D01*
X149603000Y-121666000D01*
X156467000Y-121666000D01*
X156534039Y-121685685D01*
G37*
%TD.AperFunction*%
%TD*%
%TA.AperFunction,Conductor*%
%TO.N,VIN-*%
G36*
X155844677Y-109366685D02*
G01*
X155865319Y-109383319D01*
X156046681Y-109564681D01*
X156080166Y-109626004D01*
X156083000Y-109652362D01*
X156083000Y-116661638D01*
X156063315Y-116728677D01*
X156046681Y-116749319D01*
X155865319Y-116930681D01*
X155803996Y-116964166D01*
X155777638Y-116967000D01*
X154737362Y-116967000D01*
X154670323Y-116947315D01*
X154649681Y-116930681D01*
X154589419Y-116870419D01*
X154555934Y-116809096D01*
X154553100Y-116782738D01*
X154553100Y-115481169D01*
X154553100Y-115481167D01*
X154546253Y-115460097D01*
X154541711Y-115441177D01*
X154538246Y-115419296D01*
X154528184Y-115399549D01*
X154520740Y-115381576D01*
X154513895Y-115360509D01*
X154500874Y-115342587D01*
X154490708Y-115325998D01*
X154480648Y-115306255D01*
X154468319Y-115293926D01*
X154434834Y-115232603D01*
X154432000Y-115206245D01*
X154432000Y-109652362D01*
X154451685Y-109585323D01*
X154468319Y-109564681D01*
X154649681Y-109383319D01*
X154711004Y-109349834D01*
X154737362Y-109347000D01*
X155777638Y-109347000D01*
X155844677Y-109366685D01*
G37*
%TD.AperFunction*%
%TD*%
%TA.AperFunction,Conductor*%
%TO.N,GND*%
G36*
X160725039Y-109493685D02*
G01*
X160770794Y-109546489D01*
X160782000Y-109598000D01*
X160782000Y-115446000D01*
X160762315Y-115513039D01*
X160709511Y-115558794D01*
X160658000Y-115570000D01*
X157350000Y-115570000D01*
X157282961Y-115550315D01*
X157237206Y-115497511D01*
X157226000Y-115446000D01*
X157226000Y-109598000D01*
X157245685Y-109530961D01*
X157298489Y-109485206D01*
X157350000Y-109474000D01*
X160658000Y-109474000D01*
X160725039Y-109493685D01*
G37*
%TD.AperFunction*%
%TD*%
%TA.AperFunction,Conductor*%
%TO.N,/Power/SW2*%
G36*
X162829677Y-115843685D02*
G01*
X162850319Y-115860319D01*
X163031681Y-116041681D01*
X163065166Y-116103004D01*
X163068000Y-116129362D01*
X163068000Y-119836638D01*
X163048315Y-119903677D01*
X163031681Y-119924319D01*
X162850319Y-120105681D01*
X162788996Y-120139166D01*
X162762638Y-120142000D01*
X158623000Y-120142000D01*
X158464327Y-120340339D01*
X158464327Y-120340340D01*
X157783322Y-121191597D01*
X157740210Y-121225896D01*
X157378464Y-121399761D01*
X157324748Y-121412000D01*
X154991362Y-121412000D01*
X154924323Y-121392315D01*
X154903681Y-121375681D01*
X154722319Y-121194319D01*
X154688834Y-121132996D01*
X154686000Y-121106638D01*
X154686000Y-120193361D01*
X154705685Y-120126322D01*
X154722314Y-120105685D01*
X154903681Y-119924318D01*
X154965004Y-119890834D01*
X154991362Y-119888000D01*
X156210000Y-119888000D01*
X156464000Y-119888000D01*
X157353000Y-118745000D01*
X157249471Y-118434415D01*
X157244171Y-118411401D01*
X157242044Y-118395238D01*
X157214038Y-118327626D01*
X157212508Y-118323525D01*
X157099000Y-117983000D01*
X156852496Y-117983000D01*
X156813762Y-117966956D01*
X156813760Y-117966955D01*
X156657001Y-117946318D01*
X156657000Y-117946318D01*
X156621670Y-117950969D01*
X156613572Y-117951500D01*
X154959862Y-117951500D01*
X154892823Y-117931815D01*
X154872181Y-117915181D01*
X154722319Y-117765319D01*
X154688834Y-117703996D01*
X154686000Y-117677638D01*
X154686000Y-117526362D01*
X154705685Y-117459323D01*
X154722319Y-117438681D01*
X154902181Y-117258819D01*
X154963504Y-117225334D01*
X154989862Y-117222500D01*
X155784480Y-117222500D01*
X155784481Y-117222500D01*
X155798148Y-117221767D01*
X155801982Y-117221354D01*
X155808609Y-117221000D01*
X156464000Y-117221000D01*
X156718000Y-117221000D01*
X157611158Y-116129362D01*
X157682495Y-116042173D01*
X157725366Y-116008639D01*
X158089794Y-115835945D01*
X158142894Y-115824000D01*
X162762638Y-115824000D01*
X162829677Y-115843685D01*
G37*
%TD.AperFunction*%
%TD*%
%TA.AperFunction,Conductor*%
%TO.N,GND*%
G36*
X145065677Y-97519685D02*
G01*
X145086319Y-97536319D01*
X145213681Y-97663681D01*
X145247166Y-97725004D01*
X145250000Y-97751362D01*
X145250000Y-100248638D01*
X145230315Y-100315677D01*
X145213681Y-100336319D01*
X145086319Y-100463681D01*
X145024996Y-100497166D01*
X144998638Y-100500000D01*
X140751362Y-100500000D01*
X140684323Y-100480315D01*
X140663681Y-100463681D01*
X140536319Y-100336319D01*
X140502834Y-100274996D01*
X140500000Y-100248638D01*
X140500000Y-98358666D01*
X140519685Y-98291627D01*
X140525625Y-98283179D01*
X140554735Y-98245242D01*
X140554734Y-98245242D01*
X140554736Y-98245241D01*
X140615244Y-98099162D01*
X140630700Y-97981761D01*
X140635882Y-97942400D01*
X140631230Y-97907069D01*
X140630700Y-97898971D01*
X140630700Y-97624000D01*
X140650385Y-97556961D01*
X140703189Y-97511206D01*
X140754700Y-97500000D01*
X144998638Y-97500000D01*
X145065677Y-97519685D01*
G37*
%TD.AperFunction*%
%TD*%
%TA.AperFunction,Conductor*%
%TO.N,+3V3*%
G36*
X134139995Y-105683685D02*
G01*
X134160637Y-105700319D01*
X134583681Y-106123363D01*
X134617166Y-106184686D01*
X134620000Y-106211044D01*
X134620000Y-109858000D01*
X134600315Y-109925039D01*
X134547511Y-109970794D01*
X134496000Y-109982000D01*
X132879500Y-109982000D01*
X132812461Y-109962315D01*
X132766706Y-109909511D01*
X132755500Y-109858000D01*
X132755500Y-105829264D01*
X132754767Y-105815597D01*
X132753224Y-105801253D01*
X132765632Y-105732493D01*
X132813244Y-105681357D01*
X132876515Y-105664000D01*
X134072956Y-105664000D01*
X134139995Y-105683685D01*
G37*
%TD.AperFunction*%
%TD*%
%TA.AperFunction,Conductor*%
%TO.N,GND*%
G36*
X110251677Y-113557685D02*
G01*
X110272319Y-113574319D01*
X110411181Y-113713181D01*
X110444666Y-113774504D01*
X110447500Y-113800862D01*
X110447500Y-114711517D01*
X110458292Y-114779657D01*
X110462354Y-114805304D01*
X110490000Y-114859562D01*
X110490000Y-115062000D01*
X110669605Y-115241605D01*
X111054953Y-115626953D01*
X111081833Y-115667181D01*
X111242561Y-116055212D01*
X111252000Y-116102665D01*
X111251999Y-121411999D01*
X111252000Y-121411999D01*
X111252000Y-121666000D01*
X108482000Y-121666000D01*
X108481000Y-121411999D01*
X108481000Y-121411880D01*
X108481000Y-121411879D01*
X108459057Y-115838560D01*
X108462317Y-115809820D01*
X108505106Y-115626953D01*
X108568276Y-115356983D01*
X108578101Y-115329797D01*
X108622198Y-115241605D01*
X109265190Y-113955617D01*
X109288408Y-113923404D01*
X109575938Y-113635874D01*
X109598407Y-113618092D01*
X109698036Y-113556518D01*
X109763225Y-113538000D01*
X110184638Y-113538000D01*
X110251677Y-113557685D01*
G37*
%TD.AperFunction*%
%TD*%
%TA.AperFunction,Conductor*%
%TO.N,+5VP*%
G36*
X161172705Y-76813743D02*
G01*
X161520929Y-76992945D01*
X161565092Y-77031129D01*
X161618116Y-77105362D01*
X162252365Y-77993312D01*
X162252366Y-77993312D01*
X162400000Y-78200000D01*
X164094638Y-78200000D01*
X164161677Y-78219685D01*
X164182319Y-78236319D01*
X164363681Y-78417681D01*
X164397166Y-78479004D01*
X164400000Y-78505362D01*
X164400000Y-83783838D01*
X164380315Y-83850877D01*
X164363681Y-83871519D01*
X164182319Y-84052881D01*
X164120996Y-84086366D01*
X164094638Y-84089200D01*
X161569302Y-84089200D01*
X161520721Y-84079287D01*
X161137255Y-83915997D01*
X161096441Y-83887843D01*
X161080749Y-83871519D01*
X159392675Y-82115438D01*
X159367048Y-82075827D01*
X159208976Y-81683289D01*
X159200000Y-81636970D01*
X159200000Y-77105362D01*
X159219685Y-77038323D01*
X159236319Y-77017681D01*
X159417681Y-76836319D01*
X159479004Y-76802834D01*
X159505362Y-76800000D01*
X161115965Y-76800000D01*
X161172705Y-76813743D01*
G37*
%TD.AperFunction*%
%TD*%
%TA.AperFunction,Conductor*%
%TO.N,/Power/SW1*%
G36*
X107965677Y-113303685D02*
G01*
X107986319Y-113320319D01*
X108167682Y-113501682D01*
X108201166Y-113563003D01*
X108204000Y-113589361D01*
X108204000Y-118820637D01*
X108184315Y-118887676D01*
X108167681Y-118908318D01*
X107986319Y-119089681D01*
X107924996Y-119123166D01*
X107898638Y-119126000D01*
X102921362Y-119126000D01*
X102854323Y-119106315D01*
X102833681Y-119089681D01*
X102652319Y-118908319D01*
X102618834Y-118846996D01*
X102616000Y-118820638D01*
X102616000Y-115113362D01*
X102635685Y-115046323D01*
X102652319Y-115025681D01*
X102833681Y-114844319D01*
X102895004Y-114810834D01*
X102921362Y-114808000D01*
X106172000Y-114808000D01*
X106426000Y-114808000D01*
X106426000Y-113589361D01*
X106445685Y-113522323D01*
X106462319Y-113501681D01*
X106643681Y-113320319D01*
X106705004Y-113286834D01*
X106731362Y-113284000D01*
X107898638Y-113284000D01*
X107965677Y-113303685D01*
G37*
%TD.AperFunction*%
%TD*%
%TA.AperFunction,Conductor*%
%TO.N,GND*%
G36*
X132230931Y-105519685D02*
G01*
X132251573Y-105536319D01*
X132463682Y-105748428D01*
X132497166Y-105809749D01*
X132500000Y-105836107D01*
X132500000Y-109998638D01*
X132480315Y-110065677D01*
X132463681Y-110086319D01*
X132419819Y-110130181D01*
X132358496Y-110163666D01*
X132332138Y-110166500D01*
X129667862Y-110166500D01*
X129600823Y-110146815D01*
X129580182Y-110130182D01*
X129580181Y-110130181D01*
X129536317Y-110086317D01*
X129502833Y-110024997D01*
X129500000Y-109998647D01*
X129500000Y-105751362D01*
X129519685Y-105684323D01*
X129536319Y-105663681D01*
X129663681Y-105536319D01*
X129725004Y-105502834D01*
X129751362Y-105500000D01*
X132163892Y-105500000D01*
X132230931Y-105519685D01*
G37*
%TD.AperFunction*%
%TD*%
%TA.AperFunction,Conductor*%
%TO.N,+5VP*%
G36*
X133627426Y-124512911D02*
G01*
X133668024Y-124520500D01*
X133668026Y-124520500D01*
X133871974Y-124520500D01*
X133871976Y-124520500D01*
X133912573Y-124512911D01*
X133935358Y-124510800D01*
X134496000Y-124510800D01*
X134563039Y-124530485D01*
X134608794Y-124583289D01*
X134620000Y-124634800D01*
X134620000Y-127282400D01*
X134600315Y-127349439D01*
X134547511Y-127395194D01*
X134496000Y-127406400D01*
X133920380Y-127406400D01*
X133897597Y-127404289D01*
X133871976Y-127399500D01*
X133668024Y-127399500D01*
X133642403Y-127404289D01*
X133619620Y-127406400D01*
X132712000Y-127406400D01*
X132644961Y-127386715D01*
X132599206Y-127333911D01*
X132588000Y-127282400D01*
X132588000Y-124634800D01*
X132607685Y-124567761D01*
X132660489Y-124522006D01*
X132712000Y-124510800D01*
X133604642Y-124510800D01*
X133627426Y-124512911D01*
G37*
%TD.AperFunction*%
%TD*%
%TA.AperFunction,Conductor*%
%TO.N,/Power/VO*%
G36*
X157309060Y-65019410D02*
G01*
X157410100Y-65074090D01*
X157442520Y-65102720D01*
X157678936Y-65339136D01*
X157745694Y-65432636D01*
X157778476Y-65542747D01*
X157774450Y-65654003D01*
X157753500Y-65759320D01*
X157753500Y-67308677D01*
X157768034Y-67381741D01*
X157823398Y-67464601D01*
X157906258Y-67519965D01*
X157906260Y-67519966D01*
X157979326Y-67534500D01*
X157979329Y-67534500D01*
X160028671Y-67534500D01*
X160028674Y-67534500D01*
X160101740Y-67519966D01*
X160184601Y-67464601D01*
X160190230Y-67456176D01*
X160259063Y-67353160D01*
X160260874Y-67354370D01*
X160293256Y-67302493D01*
X160382438Y-67230067D01*
X160490305Y-67190522D01*
X160554860Y-67184500D01*
X160557194Y-67184500D01*
X160670514Y-67203410D01*
X160771554Y-67258090D01*
X160803974Y-67286720D01*
X161045702Y-67528448D01*
X161112460Y-67621948D01*
X161145242Y-67732059D01*
X161140494Y-67846848D01*
X161098732Y-67953876D01*
X161024480Y-68041544D01*
X161008074Y-68054614D01*
X160917455Y-68122452D01*
X160831202Y-68237670D01*
X160780909Y-68372515D01*
X160774500Y-68432129D01*
X160774500Y-69177870D01*
X160780909Y-69237485D01*
X160780910Y-69237486D01*
X160794356Y-69273536D01*
X160816240Y-69386320D01*
X160800318Y-69500098D01*
X160748314Y-69602542D01*
X160665865Y-69682549D01*
X160561905Y-69731450D01*
X160467361Y-69744500D01*
X157990518Y-69744500D01*
X157987102Y-69744683D01*
X157976852Y-69745233D01*
X157976841Y-69745234D01*
X157976843Y-69745234D01*
X157943687Y-69748798D01*
X157848558Y-69778585D01*
X157787228Y-69812074D01*
X157729019Y-69855649D01*
X157729013Y-69855654D01*
X157596826Y-69987841D01*
X157596805Y-69987863D01*
X157587678Y-69998024D01*
X157566741Y-70024006D01*
X157520533Y-70112342D01*
X157500850Y-70179375D01*
X157490500Y-70251361D01*
X157490500Y-72645500D01*
X157471590Y-72758820D01*
X157416910Y-72859860D01*
X157332385Y-72937671D01*
X157227174Y-72983821D01*
X157141500Y-72994500D01*
X155494518Y-72994500D01*
X155491102Y-72994683D01*
X155480852Y-72995233D01*
X155480841Y-72995234D01*
X155480843Y-72995234D01*
X155447687Y-72998798D01*
X155352558Y-73028585D01*
X155291228Y-73062074D01*
X155233019Y-73105649D01*
X155233013Y-73105654D01*
X155100826Y-73237841D01*
X155100805Y-73237863D01*
X155091678Y-73248024D01*
X155070741Y-73274006D01*
X155024533Y-73362342D01*
X155004850Y-73429375D01*
X154994500Y-73501361D01*
X154994500Y-75255481D01*
X154995233Y-75269144D01*
X154995234Y-75269156D01*
X154998798Y-75302312D01*
X155028585Y-75397441D01*
X155062074Y-75458771D01*
X155087337Y-75492518D01*
X155105653Y-75516985D01*
X155237854Y-75649186D01*
X155248036Y-75658332D01*
X155274007Y-75679260D01*
X155362338Y-75725465D01*
X155429377Y-75745150D01*
X155501362Y-75755500D01*
X155936835Y-75755500D01*
X156050155Y-75774410D01*
X156151195Y-75829090D01*
X156229006Y-75913615D01*
X156275156Y-76018826D01*
X156284643Y-76133320D01*
X156256440Y-76244692D01*
X156193603Y-76340871D01*
X156183615Y-76351280D01*
X155611475Y-76923420D01*
X155596877Y-76936466D01*
X155571232Y-76956918D01*
X155571228Y-76956922D01*
X155549074Y-76989416D01*
X155539555Y-77003377D01*
X155535797Y-77008674D01*
X155502406Y-77053918D01*
X155498397Y-77061502D01*
X155494729Y-77069121D01*
X155478148Y-77122875D01*
X155476109Y-77129072D01*
X155457554Y-77182101D01*
X155455962Y-77190513D01*
X155454700Y-77198891D01*
X155454700Y-77255106D01*
X155454578Y-77261632D01*
X155452476Y-77317808D01*
X155453602Y-77327800D01*
X155454700Y-77347354D01*
X155454700Y-80940088D01*
X155453602Y-80959641D01*
X155449930Y-80992233D01*
X155449930Y-80992238D01*
X155460381Y-81047474D01*
X155461473Y-81053905D01*
X155469851Y-81109488D01*
X155472360Y-81117620D01*
X155475177Y-81125672D01*
X155501449Y-81175380D01*
X155504389Y-81181205D01*
X155528773Y-81231840D01*
X155533576Y-81238885D01*
X155538633Y-81245736D01*
X155538634Y-81245738D01*
X155578397Y-81285501D01*
X155582899Y-81290175D01*
X155597125Y-81305507D01*
X155621145Y-81331394D01*
X155621148Y-81331396D01*
X155629011Y-81337667D01*
X155643602Y-81350706D01*
X156024794Y-81731897D01*
X156374617Y-82081720D01*
X156387665Y-82096320D01*
X156408120Y-82121969D01*
X156408121Y-82121970D01*
X156454602Y-82153660D01*
X156459858Y-82157389D01*
X156505118Y-82190793D01*
X156505119Y-82190793D01*
X156505123Y-82190796D01*
X156512661Y-82194780D01*
X156520325Y-82198471D01*
X156520327Y-82198472D01*
X156574075Y-82215050D01*
X156580244Y-82217081D01*
X156617021Y-82229949D01*
X156633301Y-82235646D01*
X156633302Y-82235646D01*
X156641649Y-82237225D01*
X156650095Y-82238499D01*
X156650098Y-82238500D01*
X156706291Y-82238500D01*
X156712817Y-82238622D01*
X156738897Y-82239598D01*
X156769010Y-82240725D01*
X156769010Y-82240724D01*
X156769012Y-82240725D01*
X156779016Y-82239598D01*
X156798567Y-82238500D01*
X157631436Y-82238500D01*
X157744756Y-82257410D01*
X157845796Y-82312090D01*
X157878216Y-82340720D01*
X158933880Y-83396384D01*
X159000638Y-83489884D01*
X159033420Y-83599995D01*
X159036100Y-83643164D01*
X159036100Y-83725000D01*
X159017190Y-83838320D01*
X158962510Y-83939360D01*
X158877985Y-84017171D01*
X158772774Y-84063321D01*
X158687100Y-84074000D01*
X157734000Y-84074000D01*
X153984500Y-84074000D01*
X153871180Y-84055090D01*
X153770140Y-84000410D01*
X153692329Y-83915885D01*
X153646179Y-83810674D01*
X153635500Y-83725000D01*
X153635500Y-78663808D01*
X153636995Y-78641006D01*
X153640682Y-78613000D01*
X153640682Y-78612997D01*
X153620044Y-78456240D01*
X153620045Y-78456240D01*
X153578754Y-78356556D01*
X153559536Y-78310159D01*
X153548083Y-78295233D01*
X153463282Y-78184718D01*
X153440864Y-78167516D01*
X153423693Y-78152458D01*
X150713979Y-75442743D01*
X150647221Y-75349244D01*
X150614439Y-75239133D01*
X150611760Y-75196391D01*
X150600743Y-65644673D01*
X150619522Y-65531337D01*
X150674086Y-65430234D01*
X150702821Y-65397638D01*
X150997258Y-65102862D01*
X151090720Y-65036050D01*
X151200812Y-65003205D01*
X151244180Y-65000500D01*
X157195740Y-65000500D01*
X157309060Y-65019410D01*
G37*
%TD.AperFunction*%
%TD*%
%TA.AperFunction,Conductor*%
%TO.N,+5VL*%
G36*
X131087426Y-124512911D02*
G01*
X131128024Y-124520500D01*
X131128026Y-124520500D01*
X131331974Y-124520500D01*
X131331976Y-124520500D01*
X131372573Y-124512911D01*
X131395358Y-124510800D01*
X132210000Y-124510800D01*
X132277039Y-124530485D01*
X132322794Y-124583289D01*
X132334000Y-124634800D01*
X132334000Y-127282400D01*
X132314315Y-127349439D01*
X132261511Y-127395194D01*
X132210000Y-127406400D01*
X131380380Y-127406400D01*
X131357597Y-127404289D01*
X131331976Y-127399500D01*
X131128024Y-127399500D01*
X131102403Y-127404289D01*
X131079620Y-127406400D01*
X130197400Y-127406400D01*
X130130361Y-127386715D01*
X130084606Y-127333911D01*
X130073400Y-127282400D01*
X130073400Y-124634800D01*
X130093085Y-124567761D01*
X130145889Y-124522006D01*
X130197400Y-124510800D01*
X131064642Y-124510800D01*
X131087426Y-124512911D01*
G37*
%TD.AperFunction*%
%TD*%
M02*
