%TF.GenerationSoftware,KiCad,Pcbnew,7.0.5*%
%TF.CreationDate,2023-12-13T15:43:58+01:00*%
%TF.ProjectId,Hexapod UGV v1.0,48657861-706f-4642-9055-47562076312e,rev?*%
%TF.SameCoordinates,Original*%
%TF.FileFunction,Legend,Bot*%
%TF.FilePolarity,Positive*%
%FSLAX46Y46*%
G04 Gerber Fmt 4.6, Leading zero omitted, Abs format (unit mm)*
G04 Created by KiCad (PCBNEW 7.0.5) date 2023-12-13 15:43:58*
%MOMM*%
%LPD*%
G01*
G04 APERTURE LIST*
%ADD10C,0.150000*%
%ADD11C,0.120000*%
G04 APERTURE END LIST*
D10*
X137124839Y-82190295D02*
X137124839Y-81390295D01*
X136781983Y-81466485D02*
X136743887Y-81428390D01*
X136743887Y-81428390D02*
X136667697Y-81390295D01*
X136667697Y-81390295D02*
X136477221Y-81390295D01*
X136477221Y-81390295D02*
X136401030Y-81428390D01*
X136401030Y-81428390D02*
X136362935Y-81466485D01*
X136362935Y-81466485D02*
X136324840Y-81542676D01*
X136324840Y-81542676D02*
X136324840Y-81618866D01*
X136324840Y-81618866D02*
X136362935Y-81733152D01*
X136362935Y-81733152D02*
X136820078Y-82190295D01*
X136820078Y-82190295D02*
X136324840Y-82190295D01*
X135524839Y-82114104D02*
X135562935Y-82152200D01*
X135562935Y-82152200D02*
X135677220Y-82190295D01*
X135677220Y-82190295D02*
X135753411Y-82190295D01*
X135753411Y-82190295D02*
X135867697Y-82152200D01*
X135867697Y-82152200D02*
X135943887Y-82076009D01*
X135943887Y-82076009D02*
X135981982Y-81999819D01*
X135981982Y-81999819D02*
X136020078Y-81847438D01*
X136020078Y-81847438D02*
X136020078Y-81733152D01*
X136020078Y-81733152D02*
X135981982Y-81580771D01*
X135981982Y-81580771D02*
X135943887Y-81504580D01*
X135943887Y-81504580D02*
X135867697Y-81428390D01*
X135867697Y-81428390D02*
X135753411Y-81390295D01*
X135753411Y-81390295D02*
X135677220Y-81390295D01*
X135677220Y-81390295D02*
X135562935Y-81428390D01*
X135562935Y-81428390D02*
X135524839Y-81466485D01*
X135372459Y-82266485D02*
X134762935Y-82266485D01*
X134610554Y-82152200D02*
X134496268Y-82190295D01*
X134496268Y-82190295D02*
X134305792Y-82190295D01*
X134305792Y-82190295D02*
X134229601Y-82152200D01*
X134229601Y-82152200D02*
X134191506Y-82114104D01*
X134191506Y-82114104D02*
X134153411Y-82037914D01*
X134153411Y-82037914D02*
X134153411Y-81961723D01*
X134153411Y-81961723D02*
X134191506Y-81885533D01*
X134191506Y-81885533D02*
X134229601Y-81847438D01*
X134229601Y-81847438D02*
X134305792Y-81809342D01*
X134305792Y-81809342D02*
X134458173Y-81771247D01*
X134458173Y-81771247D02*
X134534363Y-81733152D01*
X134534363Y-81733152D02*
X134572458Y-81695057D01*
X134572458Y-81695057D02*
X134610554Y-81618866D01*
X134610554Y-81618866D02*
X134610554Y-81542676D01*
X134610554Y-81542676D02*
X134572458Y-81466485D01*
X134572458Y-81466485D02*
X134534363Y-81428390D01*
X134534363Y-81428390D02*
X134458173Y-81390295D01*
X134458173Y-81390295D02*
X134267696Y-81390295D01*
X134267696Y-81390295D02*
X134153411Y-81428390D01*
X133810553Y-82190295D02*
X133810553Y-81390295D01*
X133810553Y-81390295D02*
X133620077Y-81390295D01*
X133620077Y-81390295D02*
X133505791Y-81428390D01*
X133505791Y-81428390D02*
X133429601Y-81504580D01*
X133429601Y-81504580D02*
X133391506Y-81580771D01*
X133391506Y-81580771D02*
X133353410Y-81733152D01*
X133353410Y-81733152D02*
X133353410Y-81847438D01*
X133353410Y-81847438D02*
X133391506Y-81999819D01*
X133391506Y-81999819D02*
X133429601Y-82076009D01*
X133429601Y-82076009D02*
X133505791Y-82152200D01*
X133505791Y-82152200D02*
X133620077Y-82190295D01*
X133620077Y-82190295D02*
X133810553Y-82190295D01*
X133048649Y-81961723D02*
X132667696Y-81961723D01*
X133124839Y-82190295D02*
X132858172Y-81390295D01*
X132858172Y-81390295D02*
X132591506Y-82190295D01*
X107648211Y-90801819D02*
X108219639Y-90801819D01*
X107933925Y-90801819D02*
X107933925Y-89801819D01*
X107933925Y-89801819D02*
X108029163Y-89944676D01*
X108029163Y-89944676D02*
X108124401Y-90039914D01*
X108124401Y-90039914D02*
X108219639Y-90087533D01*
X107267258Y-89897057D02*
X107219639Y-89849438D01*
X107219639Y-89849438D02*
X107124401Y-89801819D01*
X107124401Y-89801819D02*
X106886306Y-89801819D01*
X106886306Y-89801819D02*
X106791068Y-89849438D01*
X106791068Y-89849438D02*
X106743449Y-89897057D01*
X106743449Y-89897057D02*
X106695830Y-89992295D01*
X106695830Y-89992295D02*
X106695830Y-90087533D01*
X106695830Y-90087533D02*
X106743449Y-90230390D01*
X106743449Y-90230390D02*
X107314877Y-90801819D01*
X107314877Y-90801819D02*
X106695830Y-90801819D01*
X105552973Y-89754200D02*
X106410115Y-91039914D01*
X105267258Y-89897057D02*
X105219639Y-89849438D01*
X105219639Y-89849438D02*
X105124401Y-89801819D01*
X105124401Y-89801819D02*
X104886306Y-89801819D01*
X104886306Y-89801819D02*
X104791068Y-89849438D01*
X104791068Y-89849438D02*
X104743449Y-89897057D01*
X104743449Y-89897057D02*
X104695830Y-89992295D01*
X104695830Y-89992295D02*
X104695830Y-90087533D01*
X104695830Y-90087533D02*
X104743449Y-90230390D01*
X104743449Y-90230390D02*
X105314877Y-90801819D01*
X105314877Y-90801819D02*
X104695830Y-90801819D01*
X104076782Y-89801819D02*
X103981544Y-89801819D01*
X103981544Y-89801819D02*
X103886306Y-89849438D01*
X103886306Y-89849438D02*
X103838687Y-89897057D01*
X103838687Y-89897057D02*
X103791068Y-89992295D01*
X103791068Y-89992295D02*
X103743449Y-90182771D01*
X103743449Y-90182771D02*
X103743449Y-90420866D01*
X103743449Y-90420866D02*
X103791068Y-90611342D01*
X103791068Y-90611342D02*
X103838687Y-90706580D01*
X103838687Y-90706580D02*
X103886306Y-90754200D01*
X103886306Y-90754200D02*
X103981544Y-90801819D01*
X103981544Y-90801819D02*
X104076782Y-90801819D01*
X104076782Y-90801819D02*
X104172020Y-90754200D01*
X104172020Y-90754200D02*
X104219639Y-90706580D01*
X104219639Y-90706580D02*
X104267258Y-90611342D01*
X104267258Y-90611342D02*
X104314877Y-90420866D01*
X104314877Y-90420866D02*
X104314877Y-90182771D01*
X104314877Y-90182771D02*
X104267258Y-89992295D01*
X104267258Y-89992295D02*
X104219639Y-89897057D01*
X104219639Y-89897057D02*
X104172020Y-89849438D01*
X104172020Y-89849438D02*
X104076782Y-89801819D01*
X103362496Y-89897057D02*
X103314877Y-89849438D01*
X103314877Y-89849438D02*
X103219639Y-89801819D01*
X103219639Y-89801819D02*
X102981544Y-89801819D01*
X102981544Y-89801819D02*
X102886306Y-89849438D01*
X102886306Y-89849438D02*
X102838687Y-89897057D01*
X102838687Y-89897057D02*
X102791068Y-89992295D01*
X102791068Y-89992295D02*
X102791068Y-90087533D01*
X102791068Y-90087533D02*
X102838687Y-90230390D01*
X102838687Y-90230390D02*
X103410115Y-90801819D01*
X103410115Y-90801819D02*
X102791068Y-90801819D01*
X102457734Y-89801819D02*
X101838687Y-89801819D01*
X101838687Y-89801819D02*
X102172020Y-90182771D01*
X102172020Y-90182771D02*
X102029163Y-90182771D01*
X102029163Y-90182771D02*
X101933925Y-90230390D01*
X101933925Y-90230390D02*
X101886306Y-90278009D01*
X101886306Y-90278009D02*
X101838687Y-90373247D01*
X101838687Y-90373247D02*
X101838687Y-90611342D01*
X101838687Y-90611342D02*
X101886306Y-90706580D01*
X101886306Y-90706580D02*
X101933925Y-90754200D01*
X101933925Y-90754200D02*
X102029163Y-90801819D01*
X102029163Y-90801819D02*
X102314877Y-90801819D01*
X102314877Y-90801819D02*
X102410115Y-90754200D01*
X102410115Y-90754200D02*
X102457734Y-90706580D01*
X163121792Y-98395438D02*
X163197982Y-98347819D01*
X163197982Y-98347819D02*
X163312268Y-98347819D01*
X163312268Y-98347819D02*
X163426554Y-98395438D01*
X163426554Y-98395438D02*
X163502744Y-98490676D01*
X163502744Y-98490676D02*
X163540839Y-98585914D01*
X163540839Y-98585914D02*
X163578935Y-98776390D01*
X163578935Y-98776390D02*
X163578935Y-98919247D01*
X163578935Y-98919247D02*
X163540839Y-99109723D01*
X163540839Y-99109723D02*
X163502744Y-99204961D01*
X163502744Y-99204961D02*
X163426554Y-99300200D01*
X163426554Y-99300200D02*
X163312268Y-99347819D01*
X163312268Y-99347819D02*
X163236077Y-99347819D01*
X163236077Y-99347819D02*
X163121792Y-99300200D01*
X163121792Y-99300200D02*
X163083696Y-99252580D01*
X163083696Y-99252580D02*
X163083696Y-98919247D01*
X163083696Y-98919247D02*
X163236077Y-98919247D01*
X162740839Y-99347819D02*
X162740839Y-98347819D01*
X162740839Y-98347819D02*
X162283696Y-99347819D01*
X162283696Y-99347819D02*
X162283696Y-98347819D01*
X161902744Y-99347819D02*
X161902744Y-98347819D01*
X161902744Y-98347819D02*
X161712268Y-98347819D01*
X161712268Y-98347819D02*
X161597982Y-98395438D01*
X161597982Y-98395438D02*
X161521792Y-98490676D01*
X161521792Y-98490676D02*
X161483697Y-98585914D01*
X161483697Y-98585914D02*
X161445601Y-98776390D01*
X161445601Y-98776390D02*
X161445601Y-98919247D01*
X161445601Y-98919247D02*
X161483697Y-99109723D01*
X161483697Y-99109723D02*
X161521792Y-99204961D01*
X161521792Y-99204961D02*
X161597982Y-99300200D01*
X161597982Y-99300200D02*
X161712268Y-99347819D01*
X161712268Y-99347819D02*
X161902744Y-99347819D01*
X160036077Y-99252580D02*
X160074173Y-99300200D01*
X160074173Y-99300200D02*
X160188458Y-99347819D01*
X160188458Y-99347819D02*
X160264649Y-99347819D01*
X160264649Y-99347819D02*
X160378935Y-99300200D01*
X160378935Y-99300200D02*
X160455125Y-99204961D01*
X160455125Y-99204961D02*
X160493220Y-99109723D01*
X160493220Y-99109723D02*
X160531316Y-98919247D01*
X160531316Y-98919247D02*
X160531316Y-98776390D01*
X160531316Y-98776390D02*
X160493220Y-98585914D01*
X160493220Y-98585914D02*
X160455125Y-98490676D01*
X160455125Y-98490676D02*
X160378935Y-98395438D01*
X160378935Y-98395438D02*
X160264649Y-98347819D01*
X160264649Y-98347819D02*
X160188458Y-98347819D01*
X160188458Y-98347819D02*
X160074173Y-98395438D01*
X160074173Y-98395438D02*
X160036077Y-98443057D01*
X159693220Y-98824009D02*
X159426554Y-98824009D01*
X159312268Y-99347819D02*
X159693220Y-99347819D01*
X159693220Y-99347819D02*
X159693220Y-98347819D01*
X159693220Y-98347819D02*
X159312268Y-98347819D01*
X158397982Y-99300200D02*
X158283696Y-99347819D01*
X158283696Y-99347819D02*
X158093220Y-99347819D01*
X158093220Y-99347819D02*
X158017029Y-99300200D01*
X158017029Y-99300200D02*
X157978934Y-99252580D01*
X157978934Y-99252580D02*
X157940839Y-99157342D01*
X157940839Y-99157342D02*
X157940839Y-99062104D01*
X157940839Y-99062104D02*
X157978934Y-98966866D01*
X157978934Y-98966866D02*
X158017029Y-98919247D01*
X158017029Y-98919247D02*
X158093220Y-98871628D01*
X158093220Y-98871628D02*
X158245601Y-98824009D01*
X158245601Y-98824009D02*
X158321791Y-98776390D01*
X158321791Y-98776390D02*
X158359886Y-98728771D01*
X158359886Y-98728771D02*
X158397982Y-98633533D01*
X158397982Y-98633533D02*
X158397982Y-98538295D01*
X158397982Y-98538295D02*
X158359886Y-98443057D01*
X158359886Y-98443057D02*
X158321791Y-98395438D01*
X158321791Y-98395438D02*
X158245601Y-98347819D01*
X158245601Y-98347819D02*
X158055124Y-98347819D01*
X158055124Y-98347819D02*
X157940839Y-98395438D01*
X157140838Y-99252580D02*
X157178934Y-99300200D01*
X157178934Y-99300200D02*
X157293219Y-99347819D01*
X157293219Y-99347819D02*
X157369410Y-99347819D01*
X157369410Y-99347819D02*
X157483696Y-99300200D01*
X157483696Y-99300200D02*
X157559886Y-99204961D01*
X157559886Y-99204961D02*
X157597981Y-99109723D01*
X157597981Y-99109723D02*
X157636077Y-98919247D01*
X157636077Y-98919247D02*
X157636077Y-98776390D01*
X157636077Y-98776390D02*
X157597981Y-98585914D01*
X157597981Y-98585914D02*
X157559886Y-98490676D01*
X157559886Y-98490676D02*
X157483696Y-98395438D01*
X157483696Y-98395438D02*
X157369410Y-98347819D01*
X157369410Y-98347819D02*
X157293219Y-98347819D01*
X157293219Y-98347819D02*
X157178934Y-98395438D01*
X157178934Y-98395438D02*
X157140838Y-98443057D01*
X156797981Y-99347819D02*
X156797981Y-98347819D01*
X156340838Y-99347819D02*
X156683696Y-98776390D01*
X156340838Y-98347819D02*
X156797981Y-98919247D01*
X155388457Y-99347819D02*
X155388457Y-98347819D01*
X155388457Y-98347819D02*
X155121791Y-99062104D01*
X155121791Y-99062104D02*
X154855124Y-98347819D01*
X154855124Y-98347819D02*
X154855124Y-99347819D01*
X154474171Y-99347819D02*
X154474171Y-98347819D01*
X154131315Y-99300200D02*
X154017029Y-99347819D01*
X154017029Y-99347819D02*
X153826553Y-99347819D01*
X153826553Y-99347819D02*
X153750362Y-99300200D01*
X153750362Y-99300200D02*
X153712267Y-99252580D01*
X153712267Y-99252580D02*
X153674172Y-99157342D01*
X153674172Y-99157342D02*
X153674172Y-99062104D01*
X153674172Y-99062104D02*
X153712267Y-98966866D01*
X153712267Y-98966866D02*
X153750362Y-98919247D01*
X153750362Y-98919247D02*
X153826553Y-98871628D01*
X153826553Y-98871628D02*
X153978934Y-98824009D01*
X153978934Y-98824009D02*
X154055124Y-98776390D01*
X154055124Y-98776390D02*
X154093219Y-98728771D01*
X154093219Y-98728771D02*
X154131315Y-98633533D01*
X154131315Y-98633533D02*
X154131315Y-98538295D01*
X154131315Y-98538295D02*
X154093219Y-98443057D01*
X154093219Y-98443057D02*
X154055124Y-98395438D01*
X154055124Y-98395438D02*
X153978934Y-98347819D01*
X153978934Y-98347819D02*
X153788457Y-98347819D01*
X153788457Y-98347819D02*
X153674172Y-98395438D01*
X153178933Y-98347819D02*
X153026552Y-98347819D01*
X153026552Y-98347819D02*
X152950362Y-98395438D01*
X152950362Y-98395438D02*
X152874171Y-98490676D01*
X152874171Y-98490676D02*
X152836076Y-98681152D01*
X152836076Y-98681152D02*
X152836076Y-99014485D01*
X152836076Y-99014485D02*
X152874171Y-99204961D01*
X152874171Y-99204961D02*
X152950362Y-99300200D01*
X152950362Y-99300200D02*
X153026552Y-99347819D01*
X153026552Y-99347819D02*
X153178933Y-99347819D01*
X153178933Y-99347819D02*
X153255124Y-99300200D01*
X153255124Y-99300200D02*
X153331314Y-99204961D01*
X153331314Y-99204961D02*
X153369410Y-99014485D01*
X153369410Y-99014485D02*
X153369410Y-98681152D01*
X153369410Y-98681152D02*
X153331314Y-98490676D01*
X153331314Y-98490676D02*
X153255124Y-98395438D01*
X153255124Y-98395438D02*
X153178933Y-98347819D01*
X163617030Y-104787819D02*
X163121792Y-104787819D01*
X163121792Y-104787819D02*
X163388458Y-105168771D01*
X163388458Y-105168771D02*
X163274173Y-105168771D01*
X163274173Y-105168771D02*
X163197982Y-105216390D01*
X163197982Y-105216390D02*
X163159887Y-105264009D01*
X163159887Y-105264009D02*
X163121792Y-105359247D01*
X163121792Y-105359247D02*
X163121792Y-105597342D01*
X163121792Y-105597342D02*
X163159887Y-105692580D01*
X163159887Y-105692580D02*
X163197982Y-105740200D01*
X163197982Y-105740200D02*
X163274173Y-105787819D01*
X163274173Y-105787819D02*
X163502744Y-105787819D01*
X163502744Y-105787819D02*
X163578935Y-105740200D01*
X163578935Y-105740200D02*
X163617030Y-105692580D01*
X162893220Y-104787819D02*
X162626553Y-105787819D01*
X162626553Y-105787819D02*
X162359887Y-104787819D01*
X162169411Y-104787819D02*
X161674173Y-104787819D01*
X161674173Y-104787819D02*
X161940839Y-105168771D01*
X161940839Y-105168771D02*
X161826554Y-105168771D01*
X161826554Y-105168771D02*
X161750363Y-105216390D01*
X161750363Y-105216390D02*
X161712268Y-105264009D01*
X161712268Y-105264009D02*
X161674173Y-105359247D01*
X161674173Y-105359247D02*
X161674173Y-105597342D01*
X161674173Y-105597342D02*
X161712268Y-105692580D01*
X161712268Y-105692580D02*
X161750363Y-105740200D01*
X161750363Y-105740200D02*
X161826554Y-105787819D01*
X161826554Y-105787819D02*
X162055125Y-105787819D01*
X162055125Y-105787819D02*
X162131316Y-105740200D01*
X162131316Y-105740200D02*
X162169411Y-105692580D01*
X160264648Y-105692580D02*
X160302744Y-105740200D01*
X160302744Y-105740200D02*
X160417029Y-105787819D01*
X160417029Y-105787819D02*
X160493220Y-105787819D01*
X160493220Y-105787819D02*
X160607506Y-105740200D01*
X160607506Y-105740200D02*
X160683696Y-105644961D01*
X160683696Y-105644961D02*
X160721791Y-105549723D01*
X160721791Y-105549723D02*
X160759887Y-105359247D01*
X160759887Y-105359247D02*
X160759887Y-105216390D01*
X160759887Y-105216390D02*
X160721791Y-105025914D01*
X160721791Y-105025914D02*
X160683696Y-104930676D01*
X160683696Y-104930676D02*
X160607506Y-104835438D01*
X160607506Y-104835438D02*
X160493220Y-104787819D01*
X160493220Y-104787819D02*
X160417029Y-104787819D01*
X160417029Y-104787819D02*
X160302744Y-104835438D01*
X160302744Y-104835438D02*
X160264648Y-104883057D01*
X159959887Y-105740200D02*
X159845601Y-105787819D01*
X159845601Y-105787819D02*
X159655125Y-105787819D01*
X159655125Y-105787819D02*
X159578934Y-105740200D01*
X159578934Y-105740200D02*
X159540839Y-105692580D01*
X159540839Y-105692580D02*
X159502744Y-105597342D01*
X159502744Y-105597342D02*
X159502744Y-105502104D01*
X159502744Y-105502104D02*
X159540839Y-105406866D01*
X159540839Y-105406866D02*
X159578934Y-105359247D01*
X159578934Y-105359247D02*
X159655125Y-105311628D01*
X159655125Y-105311628D02*
X159807506Y-105264009D01*
X159807506Y-105264009D02*
X159883696Y-105216390D01*
X159883696Y-105216390D02*
X159921791Y-105168771D01*
X159921791Y-105168771D02*
X159959887Y-105073533D01*
X159959887Y-105073533D02*
X159959887Y-104978295D01*
X159959887Y-104978295D02*
X159921791Y-104883057D01*
X159921791Y-104883057D02*
X159883696Y-104835438D01*
X159883696Y-104835438D02*
X159807506Y-104787819D01*
X159807506Y-104787819D02*
X159617029Y-104787819D01*
X159617029Y-104787819D02*
X159502744Y-104835438D01*
X159159886Y-105787819D02*
X159159886Y-104787819D01*
X159159886Y-104787819D02*
X158702743Y-105787819D01*
X158702743Y-105787819D02*
X158702743Y-104787819D01*
X157712267Y-105787819D02*
X157712267Y-104787819D01*
X157712267Y-104787819D02*
X157445601Y-105502104D01*
X157445601Y-105502104D02*
X157178934Y-104787819D01*
X157178934Y-104787819D02*
X157178934Y-105787819D01*
X156645600Y-104787819D02*
X156493219Y-104787819D01*
X156493219Y-104787819D02*
X156417029Y-104835438D01*
X156417029Y-104835438D02*
X156340838Y-104930676D01*
X156340838Y-104930676D02*
X156302743Y-105121152D01*
X156302743Y-105121152D02*
X156302743Y-105454485D01*
X156302743Y-105454485D02*
X156340838Y-105644961D01*
X156340838Y-105644961D02*
X156417029Y-105740200D01*
X156417029Y-105740200D02*
X156493219Y-105787819D01*
X156493219Y-105787819D02*
X156645600Y-105787819D01*
X156645600Y-105787819D02*
X156721791Y-105740200D01*
X156721791Y-105740200D02*
X156797981Y-105644961D01*
X156797981Y-105644961D02*
X156836077Y-105454485D01*
X156836077Y-105454485D02*
X156836077Y-105121152D01*
X156836077Y-105121152D02*
X156797981Y-104930676D01*
X156797981Y-104930676D02*
X156721791Y-104835438D01*
X156721791Y-104835438D02*
X156645600Y-104787819D01*
X155997982Y-105740200D02*
X155883696Y-105787819D01*
X155883696Y-105787819D02*
X155693220Y-105787819D01*
X155693220Y-105787819D02*
X155617029Y-105740200D01*
X155617029Y-105740200D02*
X155578934Y-105692580D01*
X155578934Y-105692580D02*
X155540839Y-105597342D01*
X155540839Y-105597342D02*
X155540839Y-105502104D01*
X155540839Y-105502104D02*
X155578934Y-105406866D01*
X155578934Y-105406866D02*
X155617029Y-105359247D01*
X155617029Y-105359247D02*
X155693220Y-105311628D01*
X155693220Y-105311628D02*
X155845601Y-105264009D01*
X155845601Y-105264009D02*
X155921791Y-105216390D01*
X155921791Y-105216390D02*
X155959886Y-105168771D01*
X155959886Y-105168771D02*
X155997982Y-105073533D01*
X155997982Y-105073533D02*
X155997982Y-104978295D01*
X155997982Y-104978295D02*
X155959886Y-104883057D01*
X155959886Y-104883057D02*
X155921791Y-104835438D01*
X155921791Y-104835438D02*
X155845601Y-104787819D01*
X155845601Y-104787819D02*
X155655124Y-104787819D01*
X155655124Y-104787819D02*
X155540839Y-104835438D01*
X155197981Y-105787819D02*
X155197981Y-104787819D01*
X154207505Y-105787819D02*
X154207505Y-104787819D01*
X153369410Y-105787819D02*
X153636077Y-105311628D01*
X153826553Y-105787819D02*
X153826553Y-104787819D01*
X153826553Y-104787819D02*
X153521791Y-104787819D01*
X153521791Y-104787819D02*
X153445601Y-104835438D01*
X153445601Y-104835438D02*
X153407506Y-104883057D01*
X153407506Y-104883057D02*
X153369410Y-104978295D01*
X153369410Y-104978295D02*
X153369410Y-105121152D01*
X153369410Y-105121152D02*
X153407506Y-105216390D01*
X153407506Y-105216390D02*
X153445601Y-105264009D01*
X153445601Y-105264009D02*
X153521791Y-105311628D01*
X153521791Y-105311628D02*
X153826553Y-105311628D01*
X152493220Y-105883057D02*
X152569410Y-105835438D01*
X152569410Y-105835438D02*
X152645601Y-105740200D01*
X152645601Y-105740200D02*
X152759887Y-105597342D01*
X152759887Y-105597342D02*
X152836077Y-105549723D01*
X152836077Y-105549723D02*
X152912268Y-105549723D01*
X152874172Y-105787819D02*
X152950363Y-105740200D01*
X152950363Y-105740200D02*
X153026553Y-105644961D01*
X153026553Y-105644961D02*
X153064649Y-105454485D01*
X153064649Y-105454485D02*
X153064649Y-105121152D01*
X153064649Y-105121152D02*
X153026553Y-104930676D01*
X153026553Y-104930676D02*
X152950363Y-104835438D01*
X152950363Y-104835438D02*
X152874172Y-104787819D01*
X152874172Y-104787819D02*
X152721791Y-104787819D01*
X152721791Y-104787819D02*
X152645601Y-104835438D01*
X152645601Y-104835438D02*
X152569410Y-104930676D01*
X152569410Y-104930676D02*
X152531315Y-105121152D01*
X152531315Y-105121152D02*
X152531315Y-105454485D01*
X152531315Y-105454485D02*
X152569410Y-105644961D01*
X152569410Y-105644961D02*
X152645601Y-105740200D01*
X152645601Y-105740200D02*
X152721791Y-105787819D01*
X152721791Y-105787819D02*
X152874172Y-105787819D01*
X141265030Y-73770295D02*
X140769792Y-73770295D01*
X140769792Y-73770295D02*
X141036458Y-74075057D01*
X141036458Y-74075057D02*
X140922173Y-74075057D01*
X140922173Y-74075057D02*
X140845982Y-74113152D01*
X140845982Y-74113152D02*
X140807887Y-74151247D01*
X140807887Y-74151247D02*
X140769792Y-74227438D01*
X140769792Y-74227438D02*
X140769792Y-74417914D01*
X140769792Y-74417914D02*
X140807887Y-74494104D01*
X140807887Y-74494104D02*
X140845982Y-74532200D01*
X140845982Y-74532200D02*
X140922173Y-74570295D01*
X140922173Y-74570295D02*
X141150744Y-74570295D01*
X141150744Y-74570295D02*
X141226935Y-74532200D01*
X141226935Y-74532200D02*
X141265030Y-74494104D01*
X140541220Y-73770295D02*
X140274553Y-74570295D01*
X140274553Y-74570295D02*
X140007887Y-73770295D01*
X139817411Y-73770295D02*
X139322173Y-73770295D01*
X139322173Y-73770295D02*
X139588839Y-74075057D01*
X139588839Y-74075057D02*
X139474554Y-74075057D01*
X139474554Y-74075057D02*
X139398363Y-74113152D01*
X139398363Y-74113152D02*
X139360268Y-74151247D01*
X139360268Y-74151247D02*
X139322173Y-74227438D01*
X139322173Y-74227438D02*
X139322173Y-74417914D01*
X139322173Y-74417914D02*
X139360268Y-74494104D01*
X139360268Y-74494104D02*
X139398363Y-74532200D01*
X139398363Y-74532200D02*
X139474554Y-74570295D01*
X139474554Y-74570295D02*
X139703125Y-74570295D01*
X139703125Y-74570295D02*
X139779316Y-74532200D01*
X139779316Y-74532200D02*
X139817411Y-74494104D01*
X140769792Y-84984390D02*
X140845982Y-84946295D01*
X140845982Y-84946295D02*
X140960268Y-84946295D01*
X140960268Y-84946295D02*
X141074554Y-84984390D01*
X141074554Y-84984390D02*
X141150744Y-85060580D01*
X141150744Y-85060580D02*
X141188839Y-85136771D01*
X141188839Y-85136771D02*
X141226935Y-85289152D01*
X141226935Y-85289152D02*
X141226935Y-85403438D01*
X141226935Y-85403438D02*
X141188839Y-85555819D01*
X141188839Y-85555819D02*
X141150744Y-85632009D01*
X141150744Y-85632009D02*
X141074554Y-85708200D01*
X141074554Y-85708200D02*
X140960268Y-85746295D01*
X140960268Y-85746295D02*
X140884077Y-85746295D01*
X140884077Y-85746295D02*
X140769792Y-85708200D01*
X140769792Y-85708200D02*
X140731696Y-85670104D01*
X140731696Y-85670104D02*
X140731696Y-85403438D01*
X140731696Y-85403438D02*
X140884077Y-85403438D01*
X140388839Y-85746295D02*
X140388839Y-84946295D01*
X140388839Y-84946295D02*
X139931696Y-85746295D01*
X139931696Y-85746295D02*
X139931696Y-84946295D01*
X139550744Y-85746295D02*
X139550744Y-84946295D01*
X139550744Y-84946295D02*
X139360268Y-84946295D01*
X139360268Y-84946295D02*
X139245982Y-84984390D01*
X139245982Y-84984390D02*
X139169792Y-85060580D01*
X139169792Y-85060580D02*
X139131697Y-85136771D01*
X139131697Y-85136771D02*
X139093601Y-85289152D01*
X139093601Y-85289152D02*
X139093601Y-85403438D01*
X139093601Y-85403438D02*
X139131697Y-85555819D01*
X139131697Y-85555819D02*
X139169792Y-85632009D01*
X139169792Y-85632009D02*
X139245982Y-85708200D01*
X139245982Y-85708200D02*
X139360268Y-85746295D01*
X139360268Y-85746295D02*
X139550744Y-85746295D01*
X137124839Y-78888295D02*
X137124839Y-78088295D01*
X136781983Y-78164485D02*
X136743887Y-78126390D01*
X136743887Y-78126390D02*
X136667697Y-78088295D01*
X136667697Y-78088295D02*
X136477221Y-78088295D01*
X136477221Y-78088295D02*
X136401030Y-78126390D01*
X136401030Y-78126390D02*
X136362935Y-78164485D01*
X136362935Y-78164485D02*
X136324840Y-78240676D01*
X136324840Y-78240676D02*
X136324840Y-78316866D01*
X136324840Y-78316866D02*
X136362935Y-78431152D01*
X136362935Y-78431152D02*
X136820078Y-78888295D01*
X136820078Y-78888295D02*
X136324840Y-78888295D01*
X135524839Y-78812104D02*
X135562935Y-78850200D01*
X135562935Y-78850200D02*
X135677220Y-78888295D01*
X135677220Y-78888295D02*
X135753411Y-78888295D01*
X135753411Y-78888295D02*
X135867697Y-78850200D01*
X135867697Y-78850200D02*
X135943887Y-78774009D01*
X135943887Y-78774009D02*
X135981982Y-78697819D01*
X135981982Y-78697819D02*
X136020078Y-78545438D01*
X136020078Y-78545438D02*
X136020078Y-78431152D01*
X136020078Y-78431152D02*
X135981982Y-78278771D01*
X135981982Y-78278771D02*
X135943887Y-78202580D01*
X135943887Y-78202580D02*
X135867697Y-78126390D01*
X135867697Y-78126390D02*
X135753411Y-78088295D01*
X135753411Y-78088295D02*
X135677220Y-78088295D01*
X135677220Y-78088295D02*
X135562935Y-78126390D01*
X135562935Y-78126390D02*
X135524839Y-78164485D01*
X135372459Y-78964485D02*
X134762935Y-78964485D01*
X134610554Y-78850200D02*
X134496268Y-78888295D01*
X134496268Y-78888295D02*
X134305792Y-78888295D01*
X134305792Y-78888295D02*
X134229601Y-78850200D01*
X134229601Y-78850200D02*
X134191506Y-78812104D01*
X134191506Y-78812104D02*
X134153411Y-78735914D01*
X134153411Y-78735914D02*
X134153411Y-78659723D01*
X134153411Y-78659723D02*
X134191506Y-78583533D01*
X134191506Y-78583533D02*
X134229601Y-78545438D01*
X134229601Y-78545438D02*
X134305792Y-78507342D01*
X134305792Y-78507342D02*
X134458173Y-78469247D01*
X134458173Y-78469247D02*
X134534363Y-78431152D01*
X134534363Y-78431152D02*
X134572458Y-78393057D01*
X134572458Y-78393057D02*
X134610554Y-78316866D01*
X134610554Y-78316866D02*
X134610554Y-78240676D01*
X134610554Y-78240676D02*
X134572458Y-78164485D01*
X134572458Y-78164485D02*
X134534363Y-78126390D01*
X134534363Y-78126390D02*
X134458173Y-78088295D01*
X134458173Y-78088295D02*
X134267696Y-78088295D01*
X134267696Y-78088295D02*
X134153411Y-78126390D01*
X133353410Y-78812104D02*
X133391506Y-78850200D01*
X133391506Y-78850200D02*
X133505791Y-78888295D01*
X133505791Y-78888295D02*
X133581982Y-78888295D01*
X133581982Y-78888295D02*
X133696268Y-78850200D01*
X133696268Y-78850200D02*
X133772458Y-78774009D01*
X133772458Y-78774009D02*
X133810553Y-78697819D01*
X133810553Y-78697819D02*
X133848649Y-78545438D01*
X133848649Y-78545438D02*
X133848649Y-78431152D01*
X133848649Y-78431152D02*
X133810553Y-78278771D01*
X133810553Y-78278771D02*
X133772458Y-78202580D01*
X133772458Y-78202580D02*
X133696268Y-78126390D01*
X133696268Y-78126390D02*
X133581982Y-78088295D01*
X133581982Y-78088295D02*
X133505791Y-78088295D01*
X133505791Y-78088295D02*
X133391506Y-78126390D01*
X133391506Y-78126390D02*
X133353410Y-78164485D01*
X132629601Y-78888295D02*
X133010553Y-78888295D01*
X133010553Y-78888295D02*
X133010553Y-78088295D01*
X151856839Y-78888295D02*
X151856839Y-78088295D01*
X151475887Y-78888295D02*
X151475887Y-78088295D01*
X151475887Y-78088295D02*
X151018744Y-78888295D01*
X151018744Y-78888295D02*
X151018744Y-78088295D01*
X150752078Y-78088295D02*
X150294935Y-78088295D01*
X150523507Y-78888295D02*
X150523507Y-78088295D01*
X150218745Y-78964485D02*
X149609221Y-78964485D01*
X149456840Y-78659723D02*
X149075887Y-78659723D01*
X149533030Y-78888295D02*
X149266363Y-78088295D01*
X149266363Y-78088295D02*
X148999697Y-78888295D01*
X148275887Y-78812104D02*
X148313983Y-78850200D01*
X148313983Y-78850200D02*
X148428268Y-78888295D01*
X148428268Y-78888295D02*
X148504459Y-78888295D01*
X148504459Y-78888295D02*
X148618745Y-78850200D01*
X148618745Y-78850200D02*
X148694935Y-78774009D01*
X148694935Y-78774009D02*
X148733030Y-78697819D01*
X148733030Y-78697819D02*
X148771126Y-78545438D01*
X148771126Y-78545438D02*
X148771126Y-78431152D01*
X148771126Y-78431152D02*
X148733030Y-78278771D01*
X148733030Y-78278771D02*
X148694935Y-78202580D01*
X148694935Y-78202580D02*
X148618745Y-78126390D01*
X148618745Y-78126390D02*
X148504459Y-78088295D01*
X148504459Y-78088295D02*
X148428268Y-78088295D01*
X148428268Y-78088295D02*
X148313983Y-78126390D01*
X148313983Y-78126390D02*
X148275887Y-78164485D01*
X147475887Y-78812104D02*
X147513983Y-78850200D01*
X147513983Y-78850200D02*
X147628268Y-78888295D01*
X147628268Y-78888295D02*
X147704459Y-78888295D01*
X147704459Y-78888295D02*
X147818745Y-78850200D01*
X147818745Y-78850200D02*
X147894935Y-78774009D01*
X147894935Y-78774009D02*
X147933030Y-78697819D01*
X147933030Y-78697819D02*
X147971126Y-78545438D01*
X147971126Y-78545438D02*
X147971126Y-78431152D01*
X147971126Y-78431152D02*
X147933030Y-78278771D01*
X147933030Y-78278771D02*
X147894935Y-78202580D01*
X147894935Y-78202580D02*
X147818745Y-78126390D01*
X147818745Y-78126390D02*
X147704459Y-78088295D01*
X147704459Y-78088295D02*
X147628268Y-78088295D01*
X147628268Y-78088295D02*
X147513983Y-78126390D01*
X147513983Y-78126390D02*
X147475887Y-78164485D01*
X151856839Y-82190295D02*
X151856839Y-81390295D01*
X151475887Y-82190295D02*
X151475887Y-81390295D01*
X151475887Y-81390295D02*
X151018744Y-82190295D01*
X151018744Y-82190295D02*
X151018744Y-81390295D01*
X150752078Y-81390295D02*
X150294935Y-81390295D01*
X150523507Y-82190295D02*
X150523507Y-81390295D01*
X150218745Y-82266485D02*
X149609221Y-82266485D01*
X148999697Y-81428390D02*
X149075887Y-81390295D01*
X149075887Y-81390295D02*
X149190173Y-81390295D01*
X149190173Y-81390295D02*
X149304459Y-81428390D01*
X149304459Y-81428390D02*
X149380649Y-81504580D01*
X149380649Y-81504580D02*
X149418744Y-81580771D01*
X149418744Y-81580771D02*
X149456840Y-81733152D01*
X149456840Y-81733152D02*
X149456840Y-81847438D01*
X149456840Y-81847438D02*
X149418744Y-81999819D01*
X149418744Y-81999819D02*
X149380649Y-82076009D01*
X149380649Y-82076009D02*
X149304459Y-82152200D01*
X149304459Y-82152200D02*
X149190173Y-82190295D01*
X149190173Y-82190295D02*
X149113982Y-82190295D01*
X149113982Y-82190295D02*
X148999697Y-82152200D01*
X148999697Y-82152200D02*
X148961601Y-82114104D01*
X148961601Y-82114104D02*
X148961601Y-81847438D01*
X148961601Y-81847438D02*
X149113982Y-81847438D01*
X148466363Y-81809342D02*
X148466363Y-82190295D01*
X148733030Y-81390295D02*
X148466363Y-81809342D01*
X148466363Y-81809342D02*
X148199697Y-81390295D01*
X147475887Y-82190295D02*
X147742554Y-81809342D01*
X147933030Y-82190295D02*
X147933030Y-81390295D01*
X147933030Y-81390295D02*
X147628268Y-81390295D01*
X147628268Y-81390295D02*
X147552078Y-81428390D01*
X147552078Y-81428390D02*
X147513983Y-81466485D01*
X147513983Y-81466485D02*
X147475887Y-81542676D01*
X147475887Y-81542676D02*
X147475887Y-81656961D01*
X147475887Y-81656961D02*
X147513983Y-81733152D01*
X147513983Y-81733152D02*
X147552078Y-81771247D01*
X147552078Y-81771247D02*
X147628268Y-81809342D01*
X147628268Y-81809342D02*
X147933030Y-81809342D01*
D11*
%TO.C,TP6*%
X147004000Y-81788000D02*
G75*
G03*
X147004000Y-81788000I-700000J0D01*
G01*
%TO.C,TP3*%
X138876000Y-78532800D02*
G75*
G03*
X138876000Y-78532800I-700000J0D01*
G01*
%TO.C,G\u002A\u002A\u002A*%
G36*
X126814044Y-90820984D02*
G01*
X126852959Y-91709326D01*
X125919689Y-91709326D01*
X124986419Y-91709326D01*
X125025334Y-90820984D01*
X125064249Y-89932643D01*
X125919689Y-89932643D01*
X126775129Y-89932643D01*
X126814044Y-90820984D01*
G37*
G36*
X133931891Y-103761272D02*
G01*
X134057365Y-103981484D01*
X134027950Y-104287447D01*
X133945424Y-104410767D01*
X133751638Y-104459375D01*
X133568412Y-104337569D01*
X133487047Y-104080311D01*
X133527341Y-103867113D01*
X133717755Y-103710470D01*
X133931891Y-103761272D01*
G37*
G36*
X127954312Y-102018552D02*
G01*
X128025389Y-102206736D01*
X128011501Y-102352333D01*
X127933102Y-102549455D01*
X127741785Y-102622064D01*
X127529911Y-102526782D01*
X127433161Y-102301825D01*
X127481630Y-102129113D01*
X127729275Y-101998360D01*
X127954312Y-102018552D01*
G37*
G36*
X124324637Y-96522930D02*
G01*
X124450111Y-96743142D01*
X124420696Y-97049105D01*
X124338170Y-97172425D01*
X124144384Y-97221033D01*
X123961158Y-97099227D01*
X123879793Y-96841969D01*
X123920087Y-96628771D01*
X124110502Y-96472128D01*
X124324637Y-96522930D01*
G37*
G36*
X124221682Y-98968513D02*
G01*
X124427793Y-99133853D01*
X124418278Y-99424319D01*
X124359456Y-99518566D01*
X124163621Y-99584873D01*
X123956918Y-99482555D01*
X123837738Y-99242438D01*
X123861510Y-99013462D01*
X124060282Y-98947668D01*
X124221682Y-98968513D01*
G37*
G36*
X132789534Y-89972124D02*
G01*
X132846799Y-90064211D01*
X132850621Y-90318615D01*
X132764985Y-90443861D01*
X132546545Y-90528611D01*
X132332977Y-90462768D01*
X132236788Y-90257528D01*
X132237161Y-90239973D01*
X132341433Y-89992775D01*
X132559919Y-89885750D01*
X132789534Y-89972124D01*
G37*
G36*
X129713386Y-89981165D02*
G01*
X129844127Y-90228757D01*
X129852934Y-90318808D01*
X129790317Y-90484284D01*
X129538860Y-90524871D01*
X129433718Y-90521475D01*
X129250053Y-90448054D01*
X129233593Y-90228757D01*
X129303508Y-90040167D01*
X129538860Y-89932643D01*
X129713386Y-89981165D01*
G37*
G36*
X124366736Y-94183523D02*
G01*
X124424001Y-94275610D01*
X124427823Y-94530014D01*
X124342187Y-94655260D01*
X124123747Y-94740010D01*
X123910179Y-94674167D01*
X123813990Y-94468927D01*
X123814363Y-94451372D01*
X123918635Y-94204174D01*
X124137121Y-94097149D01*
X124366736Y-94183523D01*
G37*
G36*
X140107734Y-90640789D02*
G01*
X140117740Y-90915696D01*
X140110969Y-91301844D01*
X140078963Y-91529131D01*
X139981084Y-91619635D01*
X139677313Y-91687890D01*
X139144231Y-91709326D01*
X138278647Y-91709326D01*
X138317562Y-90820984D01*
X138356477Y-89932643D01*
X139211917Y-89932643D01*
X140067357Y-89932643D01*
X140107734Y-90640789D01*
G37*
G36*
X139179016Y-103185956D02*
G01*
X140067357Y-103224871D01*
X140107734Y-103933017D01*
X140117740Y-104207924D01*
X140110969Y-104594072D01*
X140078963Y-104821359D01*
X139983835Y-104910630D01*
X139681845Y-104979803D01*
X139150244Y-105001554D01*
X138290674Y-105001554D01*
X138290674Y-104074298D01*
X138290674Y-103147041D01*
X139179016Y-103185956D01*
G37*
G36*
X132009426Y-88700450D02*
G01*
X132190570Y-88772352D01*
X132236788Y-88923662D01*
X132223679Y-89059288D01*
X132142787Y-89258940D01*
X132129635Y-89269040D01*
X131918827Y-89315712D01*
X131583460Y-89313776D01*
X131404884Y-89291747D01*
X131165867Y-89191415D01*
X131076080Y-88978497D01*
X131067105Y-88897186D01*
X131100687Y-88755192D01*
X131268720Y-88694921D01*
X131635406Y-88682383D01*
X132009426Y-88700450D01*
G37*
G36*
X130320691Y-88763391D02*
G01*
X130497632Y-88905888D01*
X130479386Y-89140213D01*
X130441623Y-89206899D01*
X130294912Y-89291043D01*
X130002979Y-89323146D01*
X129507766Y-89313567D01*
X129046061Y-89285602D01*
X128770226Y-89238260D01*
X128646316Y-89153276D01*
X128617617Y-89011399D01*
X128636906Y-88887306D01*
X128744682Y-88792339D01*
X128999598Y-88739695D01*
X129459690Y-88708498D01*
X129927139Y-88703652D01*
X130320691Y-88763391D01*
G37*
G36*
X141317617Y-104080311D02*
G01*
X141317617Y-106186010D01*
X139211917Y-106186010D01*
X137106218Y-106186010D01*
X137106218Y-105546424D01*
X137744751Y-105546424D01*
X139202196Y-105570103D01*
X139713329Y-105576305D01*
X140204929Y-105577322D01*
X140539703Y-105572069D01*
X140664488Y-105560881D01*
X140666480Y-105457923D01*
X140669146Y-105139204D01*
X140671841Y-104658566D01*
X140674208Y-104070562D01*
X140679083Y-102613145D01*
X139211917Y-102613145D01*
X137744751Y-102613145D01*
X137744751Y-104079784D01*
X137744751Y-105546424D01*
X137106218Y-105546424D01*
X137106218Y-104080311D01*
X137106218Y-101974611D01*
X139211917Y-101974611D01*
X141317617Y-101974611D01*
X141317617Y-102613145D01*
X141317617Y-104080311D01*
G37*
G36*
X141317617Y-90788083D02*
G01*
X141317617Y-92893782D01*
X139211917Y-92893782D01*
X137106218Y-92893782D01*
X137106218Y-92254196D01*
X137744751Y-92254196D01*
X139202196Y-92277875D01*
X139713329Y-92284077D01*
X140204929Y-92285094D01*
X140539703Y-92279841D01*
X140664488Y-92268653D01*
X140666480Y-92165695D01*
X140669146Y-91846976D01*
X140671841Y-91366338D01*
X140674208Y-90778334D01*
X140679083Y-89320917D01*
X139211917Y-89320917D01*
X137744751Y-89320917D01*
X137744751Y-90787556D01*
X137744751Y-92254196D01*
X137106218Y-92254196D01*
X137106218Y-90788083D01*
X137106218Y-88682383D01*
X139211917Y-88682383D01*
X141317617Y-88682383D01*
X141317617Y-89320917D01*
X141317617Y-90788083D01*
G37*
G36*
X128025389Y-90788083D02*
G01*
X128025389Y-92893782D01*
X125919689Y-92893782D01*
X123813990Y-92893782D01*
X123813990Y-92254196D01*
X124452523Y-92254196D01*
X125909968Y-92277875D01*
X126421101Y-92284077D01*
X126912701Y-92285094D01*
X127247475Y-92279841D01*
X127372260Y-92268653D01*
X127374252Y-92165695D01*
X127376918Y-91846976D01*
X127379613Y-91366338D01*
X127381980Y-90778334D01*
X127386855Y-89320917D01*
X125919689Y-89320917D01*
X124452523Y-89320917D01*
X124452523Y-90787556D01*
X124452523Y-92254196D01*
X123813990Y-92254196D01*
X123813990Y-90788083D01*
X123813990Y-88682383D01*
X125919689Y-88682383D01*
X128025389Y-88682383D01*
X128025389Y-89320917D01*
X128025389Y-90788083D01*
G37*
G36*
X135174175Y-88743660D02*
G01*
X135269473Y-88934380D01*
X135212275Y-89155145D01*
X135000518Y-89302282D01*
X134847934Y-89385529D01*
X134737306Y-89603627D01*
X134786374Y-89751247D01*
X135000518Y-89904972D01*
X135150896Y-89986601D01*
X135263731Y-90249337D01*
X135202454Y-90435315D01*
X135011734Y-90530613D01*
X134790969Y-90473415D01*
X134643832Y-90261658D01*
X134561310Y-90103604D01*
X134362707Y-89999064D01*
X134167431Y-90055360D01*
X134079275Y-90270811D01*
X134079269Y-90273922D01*
X134014989Y-90476190D01*
X133783161Y-90501122D01*
X133750552Y-90496008D01*
X133581020Y-90424501D01*
X133504755Y-90239561D01*
X133487047Y-89866839D01*
X133487047Y-89274611D01*
X134032829Y-89234805D01*
X134232267Y-89213674D01*
X134522121Y-89120509D01*
X134645638Y-88938691D01*
X134727481Y-88792352D01*
X134988197Y-88682383D01*
X135174175Y-88743660D01*
G37*
G36*
X140109532Y-100638176D02*
G01*
X140110538Y-100648969D01*
X140117357Y-101010738D01*
X140077834Y-101270932D01*
X140052746Y-101316751D01*
X139851237Y-101417082D01*
X139443432Y-101422911D01*
X139108478Y-101380533D01*
X138913525Y-101280887D01*
X138840847Y-101086269D01*
X138774033Y-100903577D01*
X138553886Y-100790155D01*
X138395769Y-100839568D01*
X138266925Y-101086269D01*
X138211756Y-101262167D01*
X138046716Y-101359092D01*
X137698446Y-101382383D01*
X137383327Y-101365403D01*
X137198931Y-101280311D01*
X137129966Y-101086269D01*
X137120991Y-101004958D01*
X137154573Y-100862964D01*
X137322606Y-100802693D01*
X137689292Y-100790155D01*
X137864045Y-100788674D01*
X138147767Y-100759426D01*
X138266623Y-100663025D01*
X138290674Y-100461140D01*
X138948705Y-100461140D01*
X139005516Y-100713044D01*
X139211917Y-100790155D01*
X139413440Y-100719142D01*
X139475129Y-100461140D01*
X139418318Y-100209236D01*
X139211917Y-100132124D01*
X139010394Y-100203138D01*
X138948705Y-100461140D01*
X138290674Y-100461140D01*
X138344105Y-100214247D01*
X138544733Y-100132124D01*
X138710481Y-100083571D01*
X138840847Y-99836010D01*
X138913194Y-99652563D01*
X139110994Y-99534730D01*
X139324954Y-99592718D01*
X139450321Y-99827918D01*
X139518883Y-100004911D01*
X139779336Y-100156933D01*
X139853584Y-100172287D01*
X140032492Y-100312039D01*
X140067713Y-100461140D01*
X140109532Y-100638176D01*
G37*
G36*
X136224206Y-102579882D02*
G01*
X136312015Y-102658625D01*
X136365830Y-102852742D01*
X136397838Y-103211507D01*
X136420224Y-103784197D01*
X136434158Y-104340385D01*
X136427898Y-104704057D01*
X136391361Y-104902405D01*
X136315161Y-104985035D01*
X136189913Y-105001554D01*
X136031971Y-105038302D01*
X135921762Y-105198964D01*
X135919063Y-105285122D01*
X135888860Y-105494904D01*
X135920552Y-105553113D01*
X136119171Y-105593609D01*
X136293617Y-105642227D01*
X136424438Y-105889896D01*
X136430570Y-105937381D01*
X136420544Y-106075727D01*
X136314090Y-106150138D01*
X136055629Y-106180328D01*
X135589578Y-106186010D01*
X135206123Y-106180493D01*
X134884727Y-106147875D01*
X134718737Y-106071461D01*
X134647014Y-105934965D01*
X134572353Y-105789981D01*
X134330319Y-105618271D01*
X134186754Y-105535905D01*
X134079275Y-105277088D01*
X134140551Y-105091110D01*
X134331271Y-104995812D01*
X134552037Y-105053010D01*
X134699173Y-105264767D01*
X134784285Y-105416823D01*
X135015868Y-105527979D01*
X135169345Y-105486383D01*
X135263731Y-105264767D01*
X135306989Y-105094614D01*
X135526943Y-105001554D01*
X135680436Y-104964914D01*
X135790155Y-104804145D01*
X135790063Y-104718002D01*
X135789031Y-104509418D01*
X135754219Y-104458211D01*
X135558720Y-104410714D01*
X135413295Y-104358162D01*
X135288539Y-104121305D01*
X135219977Y-103944312D01*
X134959524Y-103792290D01*
X134935893Y-103788647D01*
X134766671Y-103718009D01*
X134689710Y-103532704D01*
X134671503Y-103159067D01*
X134671603Y-103116523D01*
X134692447Y-102766490D01*
X134770228Y-102605589D01*
X134934715Y-102566839D01*
X135109241Y-102615362D01*
X135239982Y-102862953D01*
X135306796Y-103045646D01*
X135526943Y-103159067D01*
X135685060Y-103109655D01*
X135813904Y-102862953D01*
X135883819Y-102674364D01*
X136119171Y-102566839D01*
X136224206Y-102579882D01*
G37*
G36*
X136455614Y-93551814D02*
G01*
X135859672Y-93551814D01*
X135263731Y-93551814D01*
X135263731Y-94144041D01*
X135263712Y-94161974D01*
X135244248Y-94524969D01*
X135168993Y-94694430D01*
X135009671Y-94736269D01*
X134843923Y-94784822D01*
X134713557Y-95032383D01*
X134708443Y-95064993D01*
X134636936Y-95234524D01*
X134451996Y-95310789D01*
X134079275Y-95328497D01*
X134036730Y-95328397D01*
X133686697Y-95307553D01*
X133525796Y-95229772D01*
X133487047Y-95065285D01*
X133535570Y-94890759D01*
X133783161Y-94760018D01*
X133821908Y-94753946D01*
X133962475Y-94701307D01*
X134039795Y-94565803D01*
X134072512Y-94287352D01*
X134079275Y-93805873D01*
X134079267Y-93783203D01*
X134070913Y-93309866D01*
X134059664Y-93222798D01*
X134737306Y-93222798D01*
X134794117Y-93474702D01*
X135000518Y-93551814D01*
X135202041Y-93480800D01*
X135263731Y-93222798D01*
X135314802Y-92979713D01*
X135511594Y-92893782D01*
X135573049Y-92883696D01*
X135760258Y-92738392D01*
X135869588Y-92512145D01*
X135834024Y-92323489D01*
X135788322Y-92293575D01*
X135575904Y-92308613D01*
X135361530Y-92448400D01*
X135263731Y-92645919D01*
X135222134Y-92799397D01*
X135000518Y-92893782D01*
X134798995Y-92964796D01*
X134737306Y-93222798D01*
X134059664Y-93222798D01*
X134036212Y-93041279D01*
X133959526Y-92921299D01*
X133825215Y-92893782D01*
X133659467Y-92942335D01*
X133529101Y-93189896D01*
X133516615Y-93222798D01*
X133458709Y-93375393D01*
X133199025Y-93527005D01*
X133022032Y-93595567D01*
X132893938Y-93815026D01*
X132870010Y-93856020D01*
X132813620Y-94023393D01*
X132636274Y-94133348D01*
X132269689Y-94184510D01*
X131959407Y-94221712D01*
X131761878Y-94311178D01*
X131710363Y-94480624D01*
X131752657Y-94642323D01*
X131973575Y-94736269D01*
X132139321Y-94776930D01*
X132236788Y-94990329D01*
X132285340Y-95156077D01*
X132532902Y-95286443D01*
X132721491Y-95356358D01*
X132829016Y-95591710D01*
X132780493Y-95766236D01*
X132532902Y-95896977D01*
X132468197Y-95920725D01*
X132347753Y-95964930D01*
X132236788Y-96193091D01*
X132277969Y-96351883D01*
X132448141Y-96428204D01*
X132813666Y-96447150D01*
X133137714Y-96431931D01*
X133361623Y-96354502D01*
X133459376Y-96183938D01*
X133541005Y-96033560D01*
X133803741Y-95920725D01*
X133989719Y-95982002D01*
X134085017Y-96172722D01*
X134027819Y-96393487D01*
X133816062Y-96540624D01*
X133670025Y-96612170D01*
X133577100Y-96806169D01*
X133573837Y-96857318D01*
X133552850Y-97186334D01*
X133552864Y-97201879D01*
X133572418Y-97558726D01*
X133649886Y-97723340D01*
X133816062Y-97763212D01*
X133992472Y-97715810D01*
X134074587Y-97500000D01*
X134737306Y-97500000D01*
X134783579Y-97674784D01*
X135009671Y-97763212D01*
X135012782Y-97763218D01*
X135215050Y-97827498D01*
X135235630Y-98018858D01*
X135239982Y-98059326D01*
X135172919Y-98240472D01*
X134968741Y-98356828D01*
X134848464Y-98372087D01*
X134738430Y-98455532D01*
X134737985Y-98510277D01*
X134737306Y-98750259D01*
X134743570Y-98795061D01*
X134846226Y-98887397D01*
X135112917Y-98934489D01*
X135592746Y-98947668D01*
X136012593Y-98941245D01*
X136293066Y-98908228D01*
X136419025Y-98831396D01*
X136448186Y-98693609D01*
X136399634Y-98527861D01*
X136152072Y-98397495D01*
X136126090Y-98393491D01*
X135952155Y-98322245D01*
X135870692Y-98136859D01*
X135863372Y-98026425D01*
X137106218Y-98026425D01*
X137107696Y-98072333D01*
X137141901Y-98172975D01*
X137256351Y-98236622D01*
X137496783Y-98271678D01*
X137908933Y-98286548D01*
X138538537Y-98289637D01*
X138714501Y-98289486D01*
X139290526Y-98283515D01*
X139663045Y-98262642D01*
X139880070Y-98218449D01*
X139989613Y-98142516D01*
X140039687Y-98026425D01*
X140121812Y-97876612D01*
X140368703Y-97763212D01*
X140525760Y-97720968D01*
X140695725Y-97507621D01*
X140734083Y-97316432D01*
X140683130Y-97214614D01*
X140482769Y-97189820D01*
X140076638Y-97215452D01*
X139721317Y-97261022D01*
X139526293Y-97351179D01*
X139475129Y-97513252D01*
X139465175Y-97601331D01*
X139392171Y-97687899D01*
X139205246Y-97736738D01*
X138854659Y-97758343D01*
X138290674Y-97763212D01*
X137823656Y-97765761D01*
X137434631Y-97782171D01*
X137218781Y-97823662D01*
X137126009Y-97901370D01*
X137106218Y-98026425D01*
X135863372Y-98026425D01*
X135845925Y-97763212D01*
X135838598Y-97583798D01*
X135801826Y-97300752D01*
X135747221Y-97203886D01*
X135736418Y-97207086D01*
X135531207Y-97228165D01*
X135197927Y-97236788D01*
X134989983Y-97245391D01*
X134788832Y-97318588D01*
X134737306Y-97500000D01*
X134074587Y-97500000D01*
X134079275Y-97487679D01*
X134119830Y-97319746D01*
X134335092Y-97145248D01*
X134492753Y-97052005D01*
X134602296Y-96849180D01*
X136448186Y-96849180D01*
X136451131Y-96905333D01*
X136493369Y-96997314D01*
X136621122Y-97055776D01*
X136878808Y-97088232D01*
X137310848Y-97102196D01*
X137961658Y-97105181D01*
X138282789Y-97104710D01*
X138830387Y-97097651D01*
X139179036Y-97076212D01*
X139373121Y-97032945D01*
X139457025Y-96960399D01*
X139475129Y-96851122D01*
X139426577Y-96685374D01*
X139179016Y-96555008D01*
X138990426Y-96485093D01*
X138882902Y-96249741D01*
X138931424Y-96075215D01*
X139179016Y-95944474D01*
X139181135Y-95944171D01*
X139340990Y-95898125D01*
X139429393Y-95776413D01*
X139467166Y-95516570D01*
X139475129Y-95056132D01*
X139473858Y-94875452D01*
X139450520Y-94472880D01*
X139388965Y-94267406D01*
X139277720Y-94209845D01*
X139182755Y-94211941D01*
X138999287Y-94263089D01*
X138983213Y-94297506D01*
X138918380Y-94436319D01*
X138894445Y-94802073D01*
X138879657Y-94999482D01*
X138871511Y-95108223D01*
X138782482Y-95299197D01*
X138586788Y-95370552D01*
X138401639Y-95438505D01*
X138295126Y-95657513D01*
X138290674Y-95666666D01*
X138251247Y-95822124D01*
X138036614Y-95920725D01*
X137870866Y-95969278D01*
X137762907Y-96174288D01*
X137740500Y-96216839D01*
X137734827Y-96252040D01*
X137658069Y-96421608D01*
X137461428Y-96509925D01*
X137073316Y-96553066D01*
X137043276Y-96555045D01*
X136670366Y-96599910D01*
X136493155Y-96687936D01*
X136448186Y-96849180D01*
X134602296Y-96849180D01*
X134631206Y-96795652D01*
X134699876Y-96622366D01*
X134960451Y-96471838D01*
X135124920Y-96417895D01*
X135168781Y-96349871D01*
X135856217Y-96349871D01*
X135939598Y-96496093D01*
X136217876Y-96480149D01*
X136345570Y-96408321D01*
X136448186Y-96174288D01*
X136406199Y-96021832D01*
X136234646Y-95922843D01*
X136025651Y-95977421D01*
X135883663Y-96183807D01*
X135856217Y-96349871D01*
X135168781Y-96349871D01*
X135237621Y-96243108D01*
X135289466Y-95879610D01*
X135306536Y-95672643D01*
X135310346Y-95657513D01*
X137106218Y-95657513D01*
X137149476Y-95827666D01*
X137369430Y-95920725D01*
X137539583Y-95877467D01*
X137632642Y-95657513D01*
X137589384Y-95487360D01*
X137369430Y-95394301D01*
X137199277Y-95437559D01*
X137106218Y-95657513D01*
X135310346Y-95657513D01*
X135367907Y-95428907D01*
X135533138Y-95327250D01*
X135881646Y-95288381D01*
X136089398Y-95271262D01*
X136333340Y-95209882D01*
X136435025Y-95044652D01*
X136440060Y-94999482D01*
X137764249Y-94999482D01*
X137807507Y-95169635D01*
X138027461Y-95262694D01*
X138197614Y-95219436D01*
X138290674Y-94999482D01*
X138247416Y-94829329D01*
X138027461Y-94736269D01*
X137857308Y-94779527D01*
X137764249Y-94999482D01*
X136440060Y-94999482D01*
X136473873Y-94696153D01*
X136500062Y-94488406D01*
X137106218Y-94488406D01*
X137146457Y-94634117D01*
X137317670Y-94733234D01*
X137527284Y-94681599D01*
X137668782Y-94480678D01*
X137701344Y-94297506D01*
X137627052Y-94150314D01*
X137361809Y-94173705D01*
X137216646Y-94255819D01*
X137106218Y-94488406D01*
X136500062Y-94488406D01*
X136514521Y-94373705D01*
X136614163Y-94175786D01*
X136810104Y-94101987D01*
X136996760Y-94033208D01*
X137106218Y-93801562D01*
X137108868Y-93743728D01*
X137148333Y-93651614D01*
X137270865Y-93595945D01*
X137521455Y-93570001D01*
X137945099Y-93567061D01*
X138586788Y-93580405D01*
X140067357Y-93617617D01*
X140105383Y-94769171D01*
X140118469Y-95117991D01*
X140147289Y-95544526D01*
X140194752Y-95787010D01*
X140273550Y-95895667D01*
X140396373Y-95920725D01*
X140473235Y-95913588D01*
X140569148Y-95846507D01*
X140628346Y-95666894D01*
X140663520Y-95324524D01*
X140687363Y-94769171D01*
X140705386Y-94303522D01*
X140735732Y-93923893D01*
X140789035Y-93711368D01*
X140880295Y-93612831D01*
X141024508Y-93575168D01*
X141323628Y-93532719D01*
X141287721Y-95944080D01*
X141274214Y-96851122D01*
X141267285Y-97316432D01*
X141251813Y-98355440D01*
X140692487Y-98395909D01*
X140382205Y-98433111D01*
X140184676Y-98522577D01*
X140133161Y-98692023D01*
X140133176Y-98693609D01*
X140133286Y-98705316D01*
X140180281Y-98858783D01*
X140357306Y-98930154D01*
X140730327Y-98947668D01*
X141327494Y-98947668D01*
X141289654Y-100165026D01*
X141271792Y-100648940D01*
X141242494Y-101043735D01*
X141193654Y-101264723D01*
X141113085Y-101361181D01*
X140988601Y-101382383D01*
X140973868Y-101382253D01*
X140840447Y-101350669D01*
X140763362Y-101224620D01*
X140725550Y-100947872D01*
X140709945Y-100464194D01*
X140706220Y-100268480D01*
X140687522Y-99866306D01*
X140640766Y-99649663D01*
X140545415Y-99561047D01*
X140380929Y-99542951D01*
X140146382Y-99484098D01*
X140025303Y-99243782D01*
X140025000Y-99241663D01*
X139978954Y-99081808D01*
X139857242Y-98993405D01*
X139597399Y-98955632D01*
X139136961Y-98947668D01*
X138683451Y-98955197D01*
X138425979Y-98990846D01*
X138314684Y-99073789D01*
X138290674Y-99223202D01*
X138249835Y-99391452D01*
X138039629Y-99564385D01*
X137894644Y-99639046D01*
X137722934Y-99881079D01*
X137640568Y-100024645D01*
X137381751Y-100132124D01*
X137195773Y-100070847D01*
X137100475Y-99880128D01*
X137157673Y-99659362D01*
X137369430Y-99512226D01*
X137521486Y-99427114D01*
X137632642Y-99195531D01*
X137588567Y-99039785D01*
X137412837Y-98966161D01*
X137040414Y-98947668D01*
X136448186Y-98947668D01*
X136448186Y-99210881D01*
X136448186Y-99694442D01*
X136448186Y-99868912D01*
X136448113Y-99942243D01*
X136438790Y-100397625D01*
X136402545Y-100653218D01*
X136323300Y-100765301D01*
X136184974Y-100790155D01*
X136031481Y-100826796D01*
X135921762Y-100987565D01*
X135925410Y-101109733D01*
X135993097Y-101323080D01*
X136184974Y-101379863D01*
X136316722Y-101445873D01*
X136424438Y-101678497D01*
X136426341Y-101692097D01*
X136430724Y-101827098D01*
X136366125Y-101910364D01*
X136183990Y-101954381D01*
X135835762Y-101971635D01*
X135272884Y-101974611D01*
X134079275Y-101974611D01*
X134079275Y-102466004D01*
X134079275Y-102566839D01*
X134079275Y-102748035D01*
X134079275Y-103159067D01*
X133496200Y-103159067D01*
X133447837Y-103159203D01*
X133100972Y-103182085D01*
X132933666Y-103268926D01*
X132882127Y-103422280D01*
X132871070Y-103455181D01*
X132811812Y-103632688D01*
X132634848Y-103741431D01*
X132269689Y-103791764D01*
X132181780Y-103799303D01*
X131825900Y-103878183D01*
X131710363Y-104022075D01*
X131710403Y-104060069D01*
X131710444Y-104099730D01*
X131711487Y-104309235D01*
X131746299Y-104360442D01*
X131941798Y-104407939D01*
X132087223Y-104460491D01*
X132211979Y-104697348D01*
X132280541Y-104874341D01*
X132540994Y-105026363D01*
X132636856Y-105058744D01*
X132824474Y-105280441D01*
X132901588Y-105627440D01*
X132840034Y-106007344D01*
X132813196Y-106055831D01*
X132611497Y-106155258D01*
X132205090Y-106160735D01*
X131980115Y-106142126D01*
X131741356Y-106079479D01*
X131642253Y-105911919D01*
X131604091Y-105560881D01*
X131566889Y-105250599D01*
X131477423Y-105053070D01*
X131307977Y-105001554D01*
X131146278Y-104959260D01*
X131052332Y-104738342D01*
X131052106Y-104719433D01*
X131005207Y-104563863D01*
X130830199Y-104492352D01*
X130460104Y-104475130D01*
X130417559Y-104475230D01*
X130067526Y-104496074D01*
X129906625Y-104573855D01*
X129867876Y-104738342D01*
X129915279Y-104914752D01*
X130143409Y-105001554D01*
X130311659Y-105042393D01*
X130484592Y-105252599D01*
X130490858Y-105264767D01*
X130559253Y-105397584D01*
X130801287Y-105569294D01*
X130944853Y-105651660D01*
X131052332Y-105910477D01*
X130991055Y-106096455D01*
X130800335Y-106191753D01*
X130579570Y-106134555D01*
X130432433Y-105922798D01*
X130347321Y-105770742D01*
X130115739Y-105659586D01*
X129962261Y-105701182D01*
X129867876Y-105922798D01*
X129796862Y-106124321D01*
X129538860Y-106186010D01*
X129286956Y-106129199D01*
X129209845Y-105922798D01*
X129209618Y-105903889D01*
X129162719Y-105748319D01*
X128987712Y-105676807D01*
X128617617Y-105659586D01*
X128575072Y-105659686D01*
X128225039Y-105680530D01*
X128064138Y-105758311D01*
X128025389Y-105922798D01*
X128000677Y-106061621D01*
X127886350Y-106142414D01*
X127624599Y-106178033D01*
X127157627Y-106186010D01*
X126754057Y-106179829D01*
X126447763Y-106145714D01*
X126290915Y-106065890D01*
X126221034Y-105922798D01*
X126137787Y-105770214D01*
X125919689Y-105659586D01*
X125772070Y-105708654D01*
X125618344Y-105922798D01*
X125509275Y-106100938D01*
X125294977Y-106189896D01*
X125089953Y-106134080D01*
X124998446Y-105931951D01*
X124949893Y-105766203D01*
X124702332Y-105635837D01*
X124676833Y-105631914D01*
X124502602Y-105560767D01*
X124420988Y-105375541D01*
X124413627Y-105264767D01*
X124998446Y-105264767D01*
X125041704Y-105434920D01*
X125261658Y-105527979D01*
X125431811Y-105484721D01*
X125524870Y-105264767D01*
X126314508Y-105264767D01*
X126357766Y-105434920D01*
X126577720Y-105527979D01*
X126747873Y-105484721D01*
X126770729Y-105430700D01*
X127433419Y-105430700D01*
X127516800Y-105576922D01*
X127795078Y-105560978D01*
X127922772Y-105489150D01*
X128021158Y-105264767D01*
X129209845Y-105264767D01*
X129280858Y-105466290D01*
X129538860Y-105527979D01*
X129790764Y-105471168D01*
X129867876Y-105264767D01*
X129796862Y-105063244D01*
X129538860Y-105001554D01*
X129286956Y-105058366D01*
X129213450Y-105255117D01*
X129209845Y-105264767D01*
X128021158Y-105264767D01*
X128025389Y-105255117D01*
X127983401Y-105102661D01*
X127811848Y-105003672D01*
X127602853Y-105058250D01*
X127460865Y-105264636D01*
X127460843Y-105264767D01*
X127433419Y-105430700D01*
X126770729Y-105430700D01*
X126840933Y-105264767D01*
X126797675Y-105094614D01*
X126577720Y-105001554D01*
X126407567Y-105044812D01*
X126314508Y-105264767D01*
X125524870Y-105264767D01*
X125481612Y-105094614D01*
X125261658Y-105001554D01*
X125091505Y-105044812D01*
X124998446Y-105264767D01*
X124413627Y-105264767D01*
X124396172Y-105002086D01*
X124371047Y-104629819D01*
X124292998Y-104454169D01*
X124132960Y-104409858D01*
X123943610Y-104340587D01*
X123908323Y-104196668D01*
X126287550Y-104196668D01*
X126338589Y-104286018D01*
X126509126Y-104339701D01*
X126847063Y-104369116D01*
X127400305Y-104385661D01*
X127633869Y-104389771D01*
X128106956Y-104393219D01*
X128438008Y-104388611D01*
X128566483Y-104376425D01*
X128578100Y-104300317D01*
X128595682Y-104060069D01*
X128592812Y-103943380D01*
X128533888Y-103852356D01*
X128365821Y-103807032D01*
X128037319Y-103795547D01*
X127497091Y-103806041D01*
X127298620Y-103811657D01*
X126826796Y-103828384D01*
X126493764Y-103845197D01*
X126361704Y-103859185D01*
X126342576Y-103909883D01*
X126294118Y-104122448D01*
X126287550Y-104196668D01*
X123908323Y-104196668D01*
X123879793Y-104080311D01*
X123936574Y-103828454D01*
X124143005Y-103751122D01*
X124292022Y-103731884D01*
X124373316Y-103652417D01*
X124360303Y-103597258D01*
X124340414Y-103356477D01*
X124289571Y-103239230D01*
X124068049Y-103159067D01*
X124064938Y-103159062D01*
X123862671Y-103094782D01*
X123837738Y-102862953D01*
X123910086Y-102679333D01*
X124107907Y-102561551D01*
X124321902Y-102619959D01*
X124447333Y-102855788D01*
X124501276Y-103020257D01*
X124676063Y-103132958D01*
X125039561Y-103184803D01*
X125347454Y-103222177D01*
X125541902Y-103313281D01*
X125593796Y-103488083D01*
X125644939Y-103669543D01*
X125857008Y-103705882D01*
X126030779Y-103675263D01*
X126129779Y-103614632D01*
X126171902Y-103450205D01*
X126174342Y-103422280D01*
X129209845Y-103422280D01*
X129221315Y-103526061D01*
X129295156Y-103612511D01*
X129481869Y-103660478D01*
X129831552Y-103681094D01*
X130394300Y-103685492D01*
X130861318Y-103682943D01*
X131250343Y-103666534D01*
X131466193Y-103625042D01*
X131558965Y-103547335D01*
X131578756Y-103422280D01*
X131535498Y-103252127D01*
X131315544Y-103159067D01*
X131149798Y-103118406D01*
X131055162Y-102911204D01*
X132236788Y-102911204D01*
X132277027Y-103056915D01*
X132448240Y-103156032D01*
X132657854Y-103104397D01*
X132799352Y-102903476D01*
X132826762Y-102748035D01*
X132807081Y-102588774D01*
X132761379Y-102558860D01*
X132548961Y-102573898D01*
X132334587Y-102713685D01*
X132236788Y-102911204D01*
X131055162Y-102911204D01*
X131052332Y-102905008D01*
X131003779Y-102739260D01*
X130756218Y-102608894D01*
X130567916Y-102536787D01*
X130418049Y-102270725D01*
X130400340Y-102222474D01*
X131052332Y-102222474D01*
X131062418Y-102283930D01*
X131207722Y-102471139D01*
X131433969Y-102580469D01*
X131622625Y-102544905D01*
X131644279Y-102466004D01*
X131614896Y-102230203D01*
X131536270Y-102082859D01*
X131338427Y-101978673D01*
X131141608Y-102024723D01*
X131052332Y-102222474D01*
X130400340Y-102222474D01*
X130350096Y-102085577D01*
X130121935Y-101974611D01*
X129961953Y-101932485D01*
X129867876Y-101711399D01*
X129796862Y-101509876D01*
X129538860Y-101448187D01*
X129286956Y-101504998D01*
X129275639Y-101535290D01*
X129209845Y-101711399D01*
X129280858Y-101912922D01*
X129538860Y-101974611D01*
X129627603Y-101976873D01*
X129787208Y-102028241D01*
X129854239Y-102201388D01*
X129867876Y-102566839D01*
X129866619Y-102726576D01*
X129838082Y-103013865D01*
X129741889Y-103134521D01*
X129538860Y-103159067D01*
X129286956Y-103215879D01*
X129209845Y-103422280D01*
X126174342Y-103422280D01*
X126197337Y-103159067D01*
X126840933Y-103159067D01*
X127685143Y-103159067D01*
X128529354Y-103159067D01*
X128573485Y-102292151D01*
X128592553Y-101858799D01*
X128600919Y-101535290D01*
X128596191Y-101403809D01*
X128470339Y-101399034D01*
X128150568Y-101407110D01*
X127707849Y-101426515D01*
X126840933Y-101470646D01*
X126840933Y-102314857D01*
X126840933Y-103159067D01*
X126197337Y-103159067D01*
X126202206Y-103103328D01*
X126246040Y-102586967D01*
X125655144Y-102576903D01*
X125605708Y-102575919D01*
X125255418Y-102546807D01*
X125085643Y-102457038D01*
X125022194Y-102270725D01*
X125018440Y-102246174D01*
X124948600Y-102071670D01*
X124766424Y-101992967D01*
X124397064Y-101974611D01*
X123813990Y-101974611D01*
X123813990Y-101389951D01*
X131710363Y-101389951D01*
X131710364Y-101394504D01*
X131729184Y-101760874D01*
X131804291Y-101932199D01*
X131964422Y-101974611D01*
X132130170Y-101926059D01*
X132260536Y-101678497D01*
X132265650Y-101645888D01*
X132337157Y-101476357D01*
X132522097Y-101400092D01*
X132894819Y-101382383D01*
X132960071Y-101382625D01*
X133302502Y-101406340D01*
X133467396Y-101493394D01*
X133529101Y-101678497D01*
X133597054Y-101863646D01*
X133825215Y-101974611D01*
X133825969Y-101974611D01*
X133985918Y-101931735D01*
X134060741Y-101759436D01*
X134079275Y-101391537D01*
X134079139Y-101343174D01*
X134056257Y-100996309D01*
X133969416Y-100829003D01*
X133783161Y-100766407D01*
X133775461Y-100765295D01*
X133618538Y-100718389D01*
X133531824Y-100594769D01*
X133494825Y-100332315D01*
X133487279Y-99882735D01*
X134737306Y-99882735D01*
X134779013Y-100037783D01*
X135000518Y-100132124D01*
X135202041Y-100203138D01*
X135263731Y-100461140D01*
X135315608Y-100705555D01*
X135513691Y-100790155D01*
X135664660Y-100748499D01*
X135759990Y-100568869D01*
X135811492Y-100188647D01*
X135824707Y-100004608D01*
X135838645Y-99694442D01*
X135831581Y-99559387D01*
X135811202Y-99554405D01*
X135609859Y-99556842D01*
X135270568Y-99582491D01*
X135019904Y-99616884D01*
X134797681Y-99710606D01*
X134737306Y-99882735D01*
X133487279Y-99882735D01*
X133487047Y-99868912D01*
X133487053Y-99846667D01*
X133495575Y-99392123D01*
X133534104Y-99136145D01*
X133623134Y-99016615D01*
X133783161Y-98971417D01*
X133786543Y-98970941D01*
X134016372Y-98997425D01*
X134079275Y-99201728D01*
X134123993Y-99382590D01*
X134342487Y-99474093D01*
X134512640Y-99430835D01*
X134605699Y-99210881D01*
X134562441Y-99040728D01*
X134342487Y-98947668D01*
X134172334Y-98904410D01*
X134079275Y-98684456D01*
X134079244Y-98677363D01*
X134036387Y-98514545D01*
X133866602Y-98439436D01*
X133502396Y-98421244D01*
X133178348Y-98436463D01*
X132954439Y-98513892D01*
X132856686Y-98684456D01*
X132775057Y-98834833D01*
X132512321Y-98947668D01*
X132486034Y-98948030D01*
X132326002Y-98994134D01*
X132253701Y-99165558D01*
X132236788Y-99530743D01*
X132236923Y-99579106D01*
X132259805Y-99925971D01*
X132346646Y-100093277D01*
X132532902Y-100155873D01*
X132721491Y-100225788D01*
X132829016Y-100461140D01*
X132794923Y-100615318D01*
X132630705Y-100715996D01*
X132269689Y-100764821D01*
X131710363Y-100805290D01*
X131710363Y-101389951D01*
X123813990Y-101389951D01*
X123813990Y-101382383D01*
X123814008Y-101364451D01*
X123833472Y-101001456D01*
X123908727Y-100831995D01*
X124068049Y-100790155D01*
X124233797Y-100741603D01*
X124364163Y-100494041D01*
X124376762Y-100461140D01*
X124998446Y-100461140D01*
X125055030Y-100693733D01*
X125294560Y-100813904D01*
X125479031Y-100881542D01*
X125591235Y-101108305D01*
X125640750Y-101274853D01*
X125887349Y-101382425D01*
X126073904Y-101379289D01*
X126198082Y-101327488D01*
X126205898Y-101278404D01*
X126230984Y-101053368D01*
X126236143Y-101025662D01*
X126401984Y-100886189D01*
X126808031Y-100815490D01*
X126854059Y-100812033D01*
X127007611Y-100790155D01*
X129209845Y-100790155D01*
X130394300Y-100790155D01*
X130477469Y-100790143D01*
X131008972Y-100786262D01*
X131334212Y-100765921D01*
X131503830Y-100715377D01*
X131568465Y-100620887D01*
X131578756Y-100468707D01*
X131578402Y-100434914D01*
X131536284Y-100244693D01*
X131373755Y-100150715D01*
X131019430Y-100106790D01*
X130697043Y-100067421D01*
X130508351Y-99976490D01*
X130460104Y-99803109D01*
X130508627Y-99628583D01*
X130756218Y-99497842D01*
X130941366Y-99429889D01*
X131052332Y-99201728D01*
X131091758Y-99046270D01*
X131306391Y-98947668D01*
X131472139Y-98899116D01*
X131602505Y-98651554D01*
X131661763Y-98474048D01*
X131838727Y-98365305D01*
X132203886Y-98314972D01*
X132514168Y-98277770D01*
X132711697Y-98188304D01*
X132763212Y-98018858D01*
X132731711Y-97871354D01*
X132574902Y-97784906D01*
X132224467Y-97763212D01*
X131960814Y-97751967D01*
X131721301Y-97675952D01*
X131616889Y-97500000D01*
X131531777Y-97347944D01*
X131300195Y-97236788D01*
X131146717Y-97278384D01*
X131052332Y-97500000D01*
X131009074Y-97670153D01*
X130789119Y-97763212D01*
X130635626Y-97799853D01*
X130525907Y-97960622D01*
X130525977Y-98026425D01*
X130525999Y-98046765D01*
X130527031Y-98255349D01*
X130561843Y-98306556D01*
X130757342Y-98354053D01*
X130904943Y-98408355D01*
X131028583Y-98651554D01*
X131037146Y-98726933D01*
X131017274Y-98820506D01*
X131006186Y-98872715D01*
X130841448Y-98934718D01*
X130478410Y-98947668D01*
X130413158Y-98947910D01*
X130070727Y-98971625D01*
X129905833Y-99058679D01*
X129844127Y-99243782D01*
X129772020Y-99432084D01*
X129505959Y-99581951D01*
X129481407Y-99585705D01*
X129306903Y-99655545D01*
X129228200Y-99837721D01*
X129226650Y-99868912D01*
X129209845Y-100207081D01*
X129209845Y-100461140D01*
X129209845Y-100790155D01*
X127007611Y-100790155D01*
X127186563Y-100764658D01*
X127333994Y-100662689D01*
X127367357Y-100461140D01*
X127367132Y-100435294D01*
X127325581Y-100245693D01*
X127162883Y-100151187D01*
X126808031Y-100106790D01*
X126585091Y-100088358D01*
X126345827Y-100025823D01*
X126252771Y-99868912D01*
X128025389Y-99868912D01*
X128068647Y-100039065D01*
X128288601Y-100132124D01*
X128458754Y-100088866D01*
X128551813Y-99868912D01*
X128508555Y-99698759D01*
X128288601Y-99605700D01*
X128118448Y-99648958D01*
X128025389Y-99868912D01*
X126252771Y-99868912D01*
X126246482Y-99858307D01*
X126208236Y-99506995D01*
X126173373Y-99210299D01*
X126085310Y-99002876D01*
X125919689Y-98947668D01*
X125785910Y-98977873D01*
X125681994Y-99142586D01*
X125631142Y-99506995D01*
X125589010Y-99840169D01*
X125489364Y-100035540D01*
X125294560Y-100108376D01*
X125080551Y-100198143D01*
X124998446Y-100461140D01*
X124376762Y-100461140D01*
X124436270Y-100305740D01*
X124702332Y-100155873D01*
X124861571Y-100111178D01*
X124951717Y-99991370D01*
X124990289Y-99734144D01*
X124998446Y-99276684D01*
X124990636Y-98825395D01*
X124970136Y-98684456D01*
X126314508Y-98684456D01*
X126357766Y-98854609D01*
X126577720Y-98947668D01*
X126747873Y-98904410D01*
X126840933Y-98684456D01*
X126797675Y-98514303D01*
X126660520Y-98456275D01*
X127433441Y-98456275D01*
X127461874Y-98684456D01*
X127462824Y-98692077D01*
X127541450Y-98839421D01*
X127739293Y-98943607D01*
X127936112Y-98897557D01*
X128025389Y-98699805D01*
X128015302Y-98638350D01*
X127953638Y-98558902D01*
X128633174Y-98558902D01*
X128643149Y-98699805D01*
X128660212Y-98940831D01*
X128694604Y-99191495D01*
X128788326Y-99413718D01*
X128960455Y-99474093D01*
X129127848Y-99382760D01*
X129221751Y-99133420D01*
X129223757Y-98820506D01*
X129134410Y-98539305D01*
X128954253Y-98385104D01*
X128795448Y-98350240D01*
X128668170Y-98381093D01*
X128633174Y-98558902D01*
X127953638Y-98558902D01*
X127869998Y-98451141D01*
X127643751Y-98341811D01*
X127455095Y-98377375D01*
X127433441Y-98456275D01*
X126660520Y-98456275D01*
X126577720Y-98421244D01*
X126407567Y-98464502D01*
X126314508Y-98684456D01*
X124970136Y-98684456D01*
X124952785Y-98565171D01*
X124863736Y-98443476D01*
X124702332Y-98397495D01*
X124518885Y-98325148D01*
X124401051Y-98127347D01*
X124428403Y-98026425D01*
X124998446Y-98026425D01*
X124998672Y-98045334D01*
X125045571Y-98200904D01*
X125220578Y-98272415D01*
X125590674Y-98289637D01*
X125633218Y-98289537D01*
X125983251Y-98268693D01*
X126144152Y-98190912D01*
X126182902Y-98026425D01*
X126182675Y-98007516D01*
X126135776Y-97851946D01*
X125960769Y-97780434D01*
X125590674Y-97763212D01*
X125548129Y-97763313D01*
X125198096Y-97784157D01*
X125037195Y-97861938D01*
X124998446Y-98026425D01*
X124428403Y-98026425D01*
X124459039Y-97913388D01*
X124694239Y-97788021D01*
X124871232Y-97719459D01*
X124999326Y-97500000D01*
X126840933Y-97500000D01*
X126841159Y-97518909D01*
X126888058Y-97674479D01*
X127063065Y-97745991D01*
X127433161Y-97763212D01*
X127475705Y-97763112D01*
X127825738Y-97742268D01*
X127986639Y-97664487D01*
X128025389Y-97500000D01*
X129209845Y-97500000D01*
X129280858Y-97701523D01*
X129538860Y-97763212D01*
X129790764Y-97706401D01*
X129867876Y-97500000D01*
X129796862Y-97298477D01*
X129538860Y-97236788D01*
X129286956Y-97293599D01*
X129209845Y-97500000D01*
X128025389Y-97500000D01*
X128025163Y-97481091D01*
X127978264Y-97325521D01*
X127803256Y-97254010D01*
X127433161Y-97236788D01*
X127390616Y-97236888D01*
X127040583Y-97257732D01*
X126879682Y-97335513D01*
X126840933Y-97500000D01*
X124999326Y-97500000D01*
X125023254Y-97459006D01*
X125073935Y-97297135D01*
X125239817Y-97192289D01*
X125590674Y-97159441D01*
X125735871Y-97155055D01*
X126031090Y-97117353D01*
X126156666Y-97008445D01*
X126176103Y-96841969D01*
X129867876Y-96841969D01*
X129868102Y-96860878D01*
X129915001Y-97016448D01*
X130090008Y-97087959D01*
X130460104Y-97105181D01*
X130502648Y-97105081D01*
X130852681Y-97084237D01*
X131013582Y-97006456D01*
X131052332Y-96841969D01*
X131052106Y-96823060D01*
X131005207Y-96667490D01*
X130873785Y-96613788D01*
X131644840Y-96613788D01*
X131673273Y-96841969D01*
X131674223Y-96849590D01*
X131752849Y-96996934D01*
X131950692Y-97101120D01*
X132147511Y-97055070D01*
X132236788Y-96857318D01*
X132226701Y-96795863D01*
X132081397Y-96608654D01*
X131855150Y-96499324D01*
X131666494Y-96534888D01*
X131644840Y-96613788D01*
X130873785Y-96613788D01*
X130830199Y-96595978D01*
X130460104Y-96578757D01*
X130417559Y-96578857D01*
X130067526Y-96599701D01*
X129906625Y-96677482D01*
X129867876Y-96841969D01*
X126176103Y-96841969D01*
X126182902Y-96783733D01*
X126179431Y-96753644D01*
X126022890Y-96621528D01*
X125623575Y-96553422D01*
X125300756Y-96513295D01*
X125098208Y-96415376D01*
X125023254Y-96224932D01*
X124954692Y-96047939D01*
X124694239Y-95895917D01*
X124494556Y-95803011D01*
X124398280Y-95607396D01*
X124455085Y-95415223D01*
X124669430Y-95328497D01*
X124843956Y-95377020D01*
X124974697Y-95624611D01*
X125041511Y-95807304D01*
X125261658Y-95920725D01*
X125419775Y-95871313D01*
X125548619Y-95624611D01*
X125620726Y-95436310D01*
X125886788Y-95286443D01*
X126016043Y-95255006D01*
X126149273Y-95112637D01*
X126182902Y-94792919D01*
X126177817Y-94484581D01*
X126121476Y-94261207D01*
X125947823Y-94175283D01*
X125590674Y-94155585D01*
X125284523Y-94132651D01*
X125093549Y-94043622D01*
X125022194Y-93847928D01*
X125012191Y-93740822D01*
X125044341Y-93649627D01*
X125166064Y-93593811D01*
X125420769Y-93564691D01*
X125851865Y-93553586D01*
X126502764Y-93551814D01*
X128025389Y-93551814D01*
X128025389Y-94144041D01*
X128025389Y-94736269D01*
X127433161Y-94736269D01*
X127361710Y-94736546D01*
X127026999Y-94759068D01*
X126876102Y-94840262D01*
X126840933Y-95011803D01*
X126800520Y-95179788D01*
X126577720Y-95356168D01*
X126467011Y-95401303D01*
X126346936Y-95577487D01*
X126314508Y-95936075D01*
X126314508Y-96447150D01*
X128091192Y-96447150D01*
X128125871Y-96447148D01*
X128829725Y-96444842D01*
X129313267Y-96434045D01*
X129617675Y-96408656D01*
X129784127Y-96362576D01*
X129853802Y-96289703D01*
X129867876Y-96183938D01*
X129796862Y-95982415D01*
X129538860Y-95920725D01*
X129291968Y-95867294D01*
X129209845Y-95666666D01*
X129867876Y-95666666D01*
X129867918Y-95674359D01*
X129913291Y-95830080D01*
X130088715Y-95902777D01*
X130460104Y-95920725D01*
X131052332Y-95920725D01*
X131052332Y-95328497D01*
X131052313Y-95310565D01*
X131032849Y-94947570D01*
X130957594Y-94778109D01*
X130798272Y-94736269D01*
X130632524Y-94784822D01*
X130519484Y-94999482D01*
X130502158Y-95032383D01*
X130430051Y-95220685D01*
X130163990Y-95370552D01*
X129978841Y-95438505D01*
X129867876Y-95666666D01*
X129209845Y-95666666D01*
X129161292Y-95500918D01*
X128913731Y-95370552D01*
X128817157Y-95351858D01*
X128733922Y-95299782D01*
X128677803Y-95178274D01*
X128651069Y-94999482D01*
X129209845Y-94999482D01*
X129280858Y-95201005D01*
X129538860Y-95262694D01*
X129790764Y-95205883D01*
X129867876Y-94999482D01*
X129796862Y-94797959D01*
X129538860Y-94736269D01*
X129286956Y-94793081D01*
X129209845Y-94999482D01*
X128651069Y-94999482D01*
X128643457Y-94948577D01*
X128625539Y-94571936D01*
X128619219Y-94051735D01*
X129209845Y-94051735D01*
X129811353Y-94099574D01*
X129994269Y-94112003D01*
X130310828Y-94120871D01*
X130455071Y-94105206D01*
X130483819Y-94056294D01*
X130452148Y-93852011D01*
X130303260Y-93645859D01*
X130108528Y-93551814D01*
X130057910Y-93549992D01*
X129930091Y-93493104D01*
X129882872Y-93307328D01*
X129893566Y-92926684D01*
X129897067Y-92874528D01*
X129942405Y-92513248D01*
X130031923Y-92343738D01*
X130196891Y-92301554D01*
X130218875Y-92301920D01*
X130374369Y-92354540D01*
X130457727Y-92541314D01*
X130500216Y-92926684D01*
X130502195Y-92956724D01*
X130547061Y-93329634D01*
X130635086Y-93506845D01*
X130796330Y-93551814D01*
X130958418Y-93594147D01*
X131052332Y-93815026D01*
X131095590Y-93985179D01*
X131315544Y-94078238D01*
X131485697Y-94034980D01*
X131578756Y-93815026D01*
X131535498Y-93644873D01*
X131315544Y-93551814D01*
X131294592Y-93551557D01*
X131164483Y-93518925D01*
X131091457Y-93392070D01*
X131059433Y-93114712D01*
X131052332Y-92630570D01*
X131052332Y-92583712D01*
X131668893Y-92583712D01*
X131689027Y-92950305D01*
X131736866Y-93551814D01*
X132250039Y-93551814D01*
X132271478Y-93551787D01*
X132594468Y-93530452D01*
X132733477Y-93436754D01*
X132763212Y-93222798D01*
X132706401Y-92970894D01*
X132500000Y-92893782D01*
X132337018Y-92854611D01*
X132261020Y-92696373D01*
X132894819Y-92696373D01*
X132943672Y-92811493D01*
X133158031Y-92893782D01*
X133311524Y-92857142D01*
X133421243Y-92696373D01*
X133421243Y-92610053D01*
X133421243Y-92403915D01*
X133372097Y-92348776D01*
X133158031Y-92308866D01*
X133005338Y-92326613D01*
X132894819Y-92403915D01*
X132894819Y-92458037D01*
X132894819Y-92696373D01*
X132261020Y-92696373D01*
X132236788Y-92645919D01*
X132224772Y-92581786D01*
X132079412Y-92398232D01*
X131860291Y-92282792D01*
X131683395Y-92306587D01*
X131672923Y-92347263D01*
X131668893Y-92583712D01*
X131052332Y-92583712D01*
X131052332Y-91709326D01*
X130131088Y-91709326D01*
X129209845Y-91709326D01*
X129209845Y-92880531D01*
X129209845Y-94051735D01*
X128619219Y-94051735D01*
X128618707Y-94009595D01*
X128617617Y-93222798D01*
X128617617Y-91117098D01*
X129538137Y-91101686D01*
X130017758Y-91085775D01*
X130299740Y-91047070D01*
X130428470Y-90969916D01*
X130459380Y-90838473D01*
X130506921Y-90681141D01*
X130748125Y-90549679D01*
X130925118Y-90481117D01*
X131077140Y-90220664D01*
X131170046Y-90020981D01*
X131365661Y-89924705D01*
X131557834Y-89981510D01*
X131644560Y-90195855D01*
X131596037Y-90370381D01*
X131348446Y-90501122D01*
X131323894Y-90504876D01*
X131149390Y-90574716D01*
X131070687Y-90756892D01*
X131052332Y-91126252D01*
X131052332Y-91127982D01*
X131071014Y-91495069D01*
X131146089Y-91666792D01*
X131306391Y-91709326D01*
X131472139Y-91660774D01*
X131602505Y-91413212D01*
X131634536Y-91279714D01*
X131721713Y-91189600D01*
X131914930Y-91140890D01*
X132266570Y-91120939D01*
X132829016Y-91117098D01*
X134013471Y-91117098D01*
X134052386Y-92005440D01*
X134077511Y-92429003D01*
X134119312Y-92696373D01*
X134123710Y-92724504D01*
X134205461Y-92860785D01*
X134340933Y-92893782D01*
X134476874Y-92863130D01*
X134580413Y-92698464D01*
X134631034Y-92334456D01*
X134671161Y-92011636D01*
X134769080Y-91809089D01*
X134959524Y-91734135D01*
X135136517Y-91665573D01*
X135288539Y-91405120D01*
X135354565Y-91228600D01*
X135582701Y-91116567D01*
X135742711Y-91072280D01*
X135820776Y-90896672D01*
X135845913Y-90524339D01*
X135846457Y-90495139D01*
X135872957Y-90138207D01*
X135953601Y-89972925D01*
X136119171Y-89932643D01*
X136126215Y-89932671D01*
X136229533Y-89949820D01*
X136302040Y-90026413D01*
X136350489Y-90203199D01*
X136381630Y-90520931D01*
X136402216Y-91020357D01*
X136418999Y-91742228D01*
X136434577Y-92512145D01*
X136455614Y-93551814D01*
G37*
%TO.C,TP2*%
X142940000Y-85344000D02*
G75*
G03*
X142940000Y-85344000I-700000J0D01*
G01*
%TO.C,TP1*%
X142940000Y-74168000D02*
G75*
G03*
X142940000Y-74168000I-700000J0D01*
G01*
%TO.C,TP4*%
X138876000Y-81788000D02*
G75*
G03*
X138876000Y-81788000I-700000J0D01*
G01*
%TO.C,TP5*%
X147004000Y-78532800D02*
G75*
G03*
X147004000Y-78532800I-700000J0D01*
G01*
%TD*%
M02*
